solid OpenSCAD_Model
  facet normal 0.954721 0.297502 0
    outer loop
      vertex 7 6 5
      vertex 6.82298 6.56807 -8.04357e-16
      vertex 6.82298 6.56807 5
    endloop
  endfacet
  facet normal 0.954721 0.297502 0
    outer loop
      vertex 6.82298 6.56807 -8.04357e-16
      vertex 7 6 5
      vertex 7 6 -7.34788e-16
    endloop
  endfacet
  facet normal 0.239324 0.97094 -0
    outer loop
      vertex 6.46472 6.88545 -8.43225e-16
      vertex 6 7 5
      vertex 6.46472 6.88545 5
    endloop
  endfacet
  facet normal 0.239324 0.97094 0
    outer loop
      vertex 6 7 5
      vertex 6.46472 6.88545 -8.43225e-16
      vertex 6 7 -8.57253e-16
    endloop
  endfacet
  facet normal -0.663112 -0.74852 0
    outer loop
      vertex -6.82298 -6.56807 5
      vertex -6.46472 -6.88545 8.43225e-16
      vertex -6.46472 -6.88545 5
    endloop
  endfacet
  facet normal -0.663112 -0.74852 0
    outer loop
      vertex -6.46472 -6.88545 8.43225e-16
      vertex -6.82298 -6.56807 5
      vertex -6.82298 -6.56807 8.04357e-16
    endloop
  endfacet
  facet normal 0.663112 0.74852 -0
    outer loop
      vertex 6.82298 6.56807 -8.04357e-16
      vertex 6.46472 6.88545 5
      vertex 6.82298 6.56807 5
    endloop
  endfacet
  facet normal 0.663112 0.74852 0
    outer loop
      vertex 6.46472 6.88545 5
      vertex 6.82298 6.56807 -8.04357e-16
      vertex 6.46472 6.88545 -8.43225e-16
    endloop
  endfacet
  facet normal -0 0 1
    outer loop
      vertex 2 6.12323e-16 5
      vertex 7 -6 5
      vertex 7 6 5
    endloop
  endfacet
  facet normal 0 0 1
    outer loop
      vertex 6 7 5
      vertex 7 6 5
      vertex 6.82298 6.56807 5
    endloop
  endfacet
  facet normal -0 0 1
    outer loop
      vertex 1.94188 -0.478631 5
      vertex 7 -6 5
      vertex 2 6.12323e-16 5
    endloop
  endfacet
  facet normal 0 0 1
    outer loop
      vertex 6 7 5
      vertex 6.82298 6.56807 5
      vertex 6.46472 6.88545 5
    endloop
  endfacet
  facet normal 0 0 1
    outer loop
      vertex 7 6 5
      vertex 6 7 5
      vertex 1.49702 1.32625 5
    endloop
  endfacet
  facet normal -0 0 1
    outer loop
      vertex 1.77091 -0.929446 5
      vertex 7 -6 5
      vertex 1.94188 -0.478631 5
    endloop
  endfacet
  facet normal -0 0 1
    outer loop
      vertex 1.49702 -1.32625 5
      vertex 7 -6 5
      vertex 1.77091 -0.929446 5
    endloop
  endfacet
  facet normal 0 0 1
    outer loop
      vertex 7 6 5
      vertex 1.94188 0.478631 5
      vertex 2 6.12323e-16 5
    endloop
  endfacet
  facet normal 0 0 1
    outer loop
      vertex 7 6 5
      vertex 1.77091 0.929446 5
      vertex 1.94188 0.478631 5
    endloop
  endfacet
  facet normal 0 0 1
    outer loop
      vertex 7 6 5
      vertex 1.49702 1.32625 5
      vertex 1.77091 0.929446 5
    endloop
  endfacet
  facet normal 0 0 1
    outer loop
      vertex 6 7 5
      vertex 1.13613 1.64597 5
      vertex 1.49702 1.32625 5
    endloop
  endfacet
  facet normal 0 0 1
    outer loop
      vertex 6 7 5
      vertex 0.709209 1.87003 5
      vertex 1.13613 1.64597 5
    endloop
  endfacet
  facet normal 0 0 1
    outer loop
      vertex 6 7 5
      vertex 0.241073 1.98542 5
      vertex 0.709209 1.87003 5
    endloop
  endfacet
  facet normal 0 0 1
    outer loop
      vertex 6 7 5
      vertex -0.241073 1.98542 5
      vertex 0.241073 1.98542 5
    endloop
  endfacet
  facet normal -0 0 1
    outer loop
      vertex -6 7 5
      vertex -0.241073 1.98542 5
      vertex 6 7 5
    endloop
  endfacet
  facet normal 0 0 1
    outer loop
      vertex -0.241073 1.98542 5
      vertex -6 7 5
      vertex -0.709209 1.87003 5
    endloop
  endfacet
  facet normal 0 0 1
    outer loop
      vertex -1.77091 0.929446 5
      vertex -7 6 5
      vertex -1.94188 0.478631 5
    endloop
  endfacet
  facet normal 0 0 1
    outer loop
      vertex -1.49702 1.32625 5
      vertex -7 6 5
      vertex -1.77091 0.929446 5
    endloop
  endfacet
  facet normal -0 0 1
    outer loop
      vertex -7 6 5
      vertex -1.49702 1.32625 5
      vertex -6 7 5
    endloop
  endfacet
  facet normal 0 0 1
    outer loop
      vertex -1.13613 1.64597 5
      vertex -6 7 5
      vertex -1.49702 1.32625 5
    endloop
  endfacet
  facet normal 0 0 1
    outer loop
      vertex -0.709209 1.87003 5
      vertex -6 7 5
      vertex -1.13613 1.64597 5
    endloop
  endfacet
  facet normal 0 -0 1
    outer loop
      vertex 6 -7 5
      vertex 7 -6 5
      vertex 1.49702 -1.32625 5
    endloop
  endfacet
  facet normal 0 0 1
    outer loop
      vertex 6.88545 -6.46472 5
      vertex 6 -7 5
      vertex 6.56807 -6.82298 5
    endloop
  endfacet
  facet normal 0 0 1
    outer loop
      vertex 7 -6 5
      vertex 6 -7 5
      vertex 6.88545 -6.46472 5
    endloop
  endfacet
  facet normal -0 0 1
    outer loop
      vertex 1.13613 -1.64597 5
      vertex 6 -7 5
      vertex 1.49702 -1.32625 5
    endloop
  endfacet
  facet normal -0 0 1
    outer loop
      vertex 0.709209 -1.87003 5
      vertex 6 -7 5
      vertex 1.13613 -1.64597 5
    endloop
  endfacet
  facet normal -0 0 1
    outer loop
      vertex 0.241073 -1.98542 5
      vertex 6 -7 5
      vertex 0.709209 -1.87003 5
    endloop
  endfacet
  facet normal -0 0 1
    outer loop
      vertex -0.241073 -1.98542 5
      vertex 6 -7 5
      vertex 0.241073 -1.98542 5
    endloop
  endfacet
  facet normal 0 0 1
    outer loop
      vertex -6 -7 5
      vertex -0.241073 -1.98542 5
      vertex -0.709209 -1.87003 5
    endloop
  endfacet
  facet normal 0 0 1
    outer loop
      vertex -6 -7 5
      vertex -0.709209 -1.87003 5
      vertex -1.13613 -1.64597 5
    endloop
  endfacet
  facet normal 0 0 1
    outer loop
      vertex -1.94188 0.478631 5
      vertex -7 6 5
      vertex -2 6.12323e-16 5
    endloop
  endfacet
  facet normal 0 0 1
    outer loop
      vertex -7 -6 5
      vertex -2 6.12323e-16 5
      vertex -7 6 5
    endloop
  endfacet
  facet normal 0 0 1
    outer loop
      vertex -0.241073 -1.98542 5
      vertex -6 -7 5
      vertex 6 -7 5
    endloop
  endfacet
  facet normal 0 0 1
    outer loop
      vertex -1.49702 -1.32625 5
      vertex -6 -7 5
      vertex -1.13613 -1.64597 5
    endloop
  endfacet
  facet normal 0 0 1
    outer loop
      vertex -7 -6 5
      vertex -1.49702 -1.32625 5
      vertex -1.77091 -0.929446 5
    endloop
  endfacet
  facet normal 0 0 1
    outer loop
      vertex -2 6.12323e-16 5
      vertex -7 -6 5
      vertex -1.94188 -0.478631 5
    endloop
  endfacet
  facet normal 0 0 1
    outer loop
      vertex -1.49702 -1.32625 5
      vertex -7 -6 5
      vertex -6 -7 5
    endloop
  endfacet
  facet normal 0 0 1
    outer loop
      vertex -7 6 5
      vertex -6 7 5
      vertex -6.56807 6.82298 5
    endloop
  endfacet
  facet normal 0 0 1
    outer loop
      vertex -1.94188 -0.478631 5
      vertex -7 -6 5
      vertex -1.77091 -0.929446 5
    endloop
  endfacet
  facet normal 0 0 1
    outer loop
      vertex -7 6 5
      vertex -6.56807 6.82298 5
      vertex -6.88545 6.46472 5
    endloop
  endfacet
  facet normal 0 0 1
    outer loop
      vertex -6 -7 5
      vertex -7 -6 5
      vertex -6.46472 -6.88545 5
    endloop
  endfacet
  facet normal 0 0 1
    outer loop
      vertex -6.46472 -6.88545 5
      vertex -7 -6 5
      vertex -6.82298 -6.56807 5
    endloop
  endfacet
  facet normal 0.74852 -0.663112 0
    outer loop
      vertex 6.56807 -6.82298 5
      vertex 6.88545 -6.46472 7.917e-16
      vertex 6.88545 -6.46472 5
    endloop
  endfacet
  facet normal 0.74852 -0.663112 0
    outer loop
      vertex 6.88545 -6.46472 7.917e-16
      vertex 6.56807 -6.82298 5
      vertex 6.56807 -6.82298 8.35574e-16
    endloop
  endfacet
  facet normal -0.74852 0.663112 0
    outer loop
      vertex -6.88545 6.46472 -7.917e-16
      vertex -6.56807 6.82298 5
      vertex -6.56807 6.82298 -8.35574e-16
    endloop
  endfacet
  facet normal -0.74852 0.663112 0
    outer loop
      vertex -6.56807 6.82298 5
      vertex -6.88545 6.46472 -7.917e-16
      vertex -6.88545 6.46472 5
    endloop
  endfacet
  facet normal -0.297502 0.954721 0
    outer loop
      vertex -6 7 5
      vertex -6.56807 6.82298 -8.35574e-16
      vertex -6.56807 6.82298 5
    endloop
  endfacet
  facet normal -0.297502 0.954721 0
    outer loop
      vertex -6.56807 6.82298 -8.35574e-16
      vertex -6 7 5
      vertex -6 7 -8.57253e-16
    endloop
  endfacet
  facet normal 1 -0 0
    outer loop
      vertex 7 -6 5
      vertex 7 6 -7.34788e-16
      vertex 7 6 5
    endloop
  endfacet
  facet normal 1 0 0
    outer loop
      vertex 7 6 -7.34788e-16
      vertex 7 -6 5
      vertex 7 -6 7.34788e-16
    endloop
  endfacet
  facet normal -1 0 0
    outer loop
      vertex -7 -6 7.34788e-16
      vertex -7 6 5
      vertex -7 6 -7.34788e-16
    endloop
  endfacet
  facet normal -1 -0 0
    outer loop
      vertex -7 6 5
      vertex -7 -6 7.34788e-16
      vertex -7 -6 5
    endloop
  endfacet
  facet normal -0.954721 -0.297502 0
    outer loop
      vertex -6.82298 -6.56807 8.04357e-16
      vertex -7 -6 5
      vertex -7 -6 7.34788e-16
    endloop
  endfacet
  facet normal -0.954721 -0.297502 0
    outer loop
      vertex -7 -6 5
      vertex -6.82298 -6.56807 8.04357e-16
      vertex -6.82298 -6.56807 5
    endloop
  endfacet
  facet normal -0.97094 0.239324 0
    outer loop
      vertex -7 6 -7.34788e-16
      vertex -6.88545 6.46472 5
      vertex -6.88545 6.46472 -7.917e-16
    endloop
  endfacet
  facet normal -0.97094 0.239324 0
    outer loop
      vertex -6.88545 6.46472 5
      vertex -7 6 -7.34788e-16
      vertex -7 6 5
    endloop
  endfacet
  facet normal 0 1 -0
    outer loop
      vertex 6 7 -8.57253e-16
      vertex -6 7 5
      vertex 6 7 5
    endloop
  endfacet
  facet normal 0 1 0
    outer loop
      vertex -6 7 5
      vertex 6 7 -8.57253e-16
      vertex -6 7 -8.57253e-16
    endloop
  endfacet
  facet normal 0 -1 0
    outer loop
      vertex -6 -7 8.57253e-16
      vertex 6 -7 5
      vertex -6 -7 5
    endloop
  endfacet
  facet normal 0 -1 -0
    outer loop
      vertex 6 -7 5
      vertex -6 -7 8.57253e-16
      vertex 6 -7 8.57253e-16
    endloop
  endfacet
  facet normal 0.297502 -0.954721 0
    outer loop
      vertex 6 -7 8.57253e-16
      vertex 6.56807 -6.82298 5
      vertex 6 -7 5
    endloop
  endfacet
  facet normal 0.297502 -0.954721 0
    outer loop
      vertex 6.56807 -6.82298 5
      vertex 6 -7 8.57253e-16
      vertex 6.56807 -6.82298 8.35574e-16
    endloop
  endfacet
  facet normal -0.239324 -0.97094 0
    outer loop
      vertex -6.46472 -6.88545 5
      vertex -6 -7 8.57253e-16
      vertex -6 -7 5
    endloop
  endfacet
  facet normal -0.239324 -0.97094 0
    outer loop
      vertex -6 -7 8.57253e-16
      vertex -6.46472 -6.88545 5
      vertex -6.46472 -6.88545 8.43225e-16
    endloop
  endfacet
  facet normal 0.97094 -0.239324 0
    outer loop
      vertex 6.88545 -6.46472 5
      vertex 7 -6 7.34788e-16
      vertex 7 -6 5
    endloop
  endfacet
  facet normal 0.97094 -0.239324 0
    outer loop
      vertex 7 -6 7.34788e-16
      vertex 6.88545 -6.46472 5
      vertex 6.88545 -6.46472 7.917e-16
    endloop
  endfacet
  facet normal 0.91044 0.283702 -0.301019
    outer loop
      vertex 7.39247 7.04671 -1
      vertex 7.36887 7.12246 -1
      vertex 7.62297 7.36806 -9.02327e-16
    endloop
  endfacet
  facet normal -0.283702 0.91044 -0.301019
    outer loop
      vertex -7.12246 7.36887 -1
      vertex -7.36806 7.62297 -9.33545e-16
      vertex -7.04671 7.39247 -1
    endloop
  endfacet
  facet normal 0.910439 0.283704 -0.30102
    outer loop
      vertex 7.79999 6.79999 -8.32758e-16
      vertex 7.39247 7.04671 -1
      vertex 7.62297 7.36806 -9.02327e-16
    endloop
  endfacet
  facet normal 0.910439 0.283703 -0.30102
    outer loop
      vertex 7.39247 7.04671 -1
      vertex 7.79999 6.79999 -8.32758e-16
      vertex 7.53999 6.57332 -1
    endloop
  endfacet
  facet normal 0.625428 0.705981 -0.332311
    outer loop
      vertex 7.3211 7.16477 -1
      vertex 7.26471 7.68544 -9.41195e-16
      vertex 7.62297 7.36806 -9.02327e-16
    endloop
  endfacet
  facet normal 0.625428 0.705981 -0.332311
    outer loop
      vertex 7.26471 7.68544 -9.41195e-16
      vertex 7.3211 7.16477 -1
      vertex 7.02255 7.42926 -1
    endloop
  endfacet
  facet normal 0.625429 0.70598 -0.332311
    outer loop
      vertex 7.36887 7.12246 -1
      vertex 7.3211 7.16477 -1
      vertex 7.62297 7.36806 -9.02327e-16
    endloop
  endfacet
  facet normal -0.625428 -0.705981 -0.332311
    outer loop
      vertex -7.3211 -7.16477 -1
      vertex -7.26471 -7.68544 9.41195e-16
      vertex -7.62297 -7.36806 9.02327e-16
    endloop
  endfacet
  facet normal -0.625428 -0.705981 -0.332311
    outer loop
      vertex -7.26471 -7.68544 9.41195e-16
      vertex -7.3211 -7.16477 -1
      vertex -7.02255 -7.42926 -1
    endloop
  endfacet
  facet normal -0.910439 -0.283703 -0.30102
    outer loop
      vertex -7.39247 -7.04671 -1
      vertex -7.79999 -6.79999 8.32758e-16
      vertex -7.53999 -6.57332 -1
    endloop
  endfacet
  facet normal -0.910439 -0.283704 -0.30102
    outer loop
      vertex -7.79999 -6.79999 8.32758e-16
      vertex -7.39247 -7.04671 -1
      vertex -7.62297 -7.36806 9.02327e-16
    endloop
  endfacet
  facet normal 0.283702 -0.91044 -0.301019
    outer loop
      vertex 7.36806 -7.62297 9.33545e-16
      vertex 7.04671 -7.39247 -1
      vertex 7.12246 -7.36887 -1
    endloop
  endfacet
  facet normal 0.967823 0 -0.251634
    outer loop
      vertex 7.79999 6.79999 -8.32758e-16
      vertex 7.53999 -6.57332 -1
      vertex 7.53999 6.57332 -1
    endloop
  endfacet
  facet normal 0.967823 -3.1603e-17 -0.251634
    outer loop
      vertex 7.53999 -6.57332 -1
      vertex 7.79999 6.79999 -8.32758e-16
      vertex 7.79999 -6.79999 8.32758e-16
    endloop
  endfacet
  facet normal -9.94732e-25 1.22465e-16 1
    outer loop
      vertex 7.79999 6.79999 -8.32758e-16
      vertex 6.82298 6.56807 -8.04357e-16
      vertex 7 6 -7.34788e-16
    endloop
  endfacet
  facet normal 3.99985e-23 1.22465e-16 1
    outer loop
      vertex 6.46472 6.88545 -8.43225e-16
      vertex 7.26471 7.68544 -9.41195e-16
      vertex 6.79999 7.79999 -9.55223e-16
    endloop
  endfacet
  facet normal 2.93343e-23 1.22465e-16 1
    outer loop
      vertex 7.26471 7.68544 -9.41195e-16
      vertex 6.46472 6.88545 -8.43225e-16
      vertex 6.82298 6.56807 -8.04357e-16
    endloop
  endfacet
  facet normal -6.44776e-23 1.22465e-16 1
    outer loop
      vertex 6.79999 7.79999 -9.55223e-16
      vertex 6 7 -8.57253e-16
      vertex 6.46472 6.88545 -8.43225e-16
    endloop
  endfacet
  facet normal 0 1.22465e-16 1
    outer loop
      vertex 6.79999 7.79999 -9.55223e-16
      vertex -6 7 -8.57253e-16
      vertex 6 7 -8.57253e-16
    endloop
  endfacet
  facet normal -0 1.22465e-16 1
    outer loop
      vertex -6.79999 7.79999 -9.55223e-16
      vertex -6 7 -8.57253e-16
      vertex 6.79999 7.79999 -9.55223e-16
    endloop
  endfacet
  facet normal 4.11974e-23 1.22465e-16 1
    outer loop
      vertex -6.79999 7.79999 -9.55223e-16
      vertex -6.56807 6.82298 -8.35574e-16
      vertex -6 7 -8.57253e-16
    endloop
  endfacet
  facet normal -4.55761e-23 1.22465e-16 1
    outer loop
      vertex -7.36806 7.62297 -9.33545e-16
      vertex -6.56807 6.82298 -8.35574e-16
      vertex -6.79999 7.79999 -9.55223e-16
    endloop
  endfacet
  facet normal -6.59647e-23 1.22465e-16 1
    outer loop
      vertex -7.68544 7.26471 -8.8967e-16
      vertex -6.56807 6.82298 -8.35574e-16
      vertex -7.36806 7.62297 -9.33545e-16
    endloop
  endfacet
  facet normal 2.46017e-23 1.22465e-16 1
    outer loop
      vertex -7.79999 -6.79999 8.32758e-16
      vertex -7 -6 7.34788e-16
      vertex -7 6 -7.34788e-16
    endloop
  endfacet
  facet normal -6.59647e-23 1.22465e-16 1
    outer loop
      vertex -6.56807 6.82298 -8.35574e-16
      vertex -7.68544 7.26471 -8.8967e-16
      vertex -6.88545 6.46472 -7.917e-16
    endloop
  endfacet
  facet normal 6.26281e-23 1.22465e-16 1
    outer loop
      vertex -7.79999 6.79999 -8.32758e-16
      vertex -6.88545 6.46472 -7.917e-16
      vertex -7.68544 7.26471 -8.8967e-16
    endloop
  endfacet
  facet normal -2.17074e-23 1.22465e-16 1
    outer loop
      vertex -7.79999 -6.79999 8.32758e-16
      vertex -7 6 -7.34788e-16
      vertex -7.79999 6.79999 -8.32758e-16
    endloop
  endfacet
  facet normal 6.26281e-23 1.22465e-16 1
    outer loop
      vertex -6.88545 6.46472 -7.917e-16
      vertex -7.79999 6.79999 -8.32758e-16
      vertex -7 6 -7.34788e-16
    endloop
  endfacet
  facet normal 7.00568e-23 1.22465e-16 1
    outer loop
      vertex -7.62297 -7.36806 9.02327e-16
      vertex -7 -6 7.34788e-16
      vertex -7.79999 -6.79999 8.32758e-16
    endloop
  endfacet
  facet normal -8.99582e-23 1.22465e-16 1
    outer loop
      vertex -7 -6 7.34788e-16
      vertex -7.62297 -7.36806 9.02327e-16
      vertex -7.26471 -7.68544 9.41195e-16
    endloop
  endfacet
  facet normal -2.17074e-23 1.22465e-16 1
    outer loop
      vertex 7 -6 7.34788e-16
      vertex 7.79999 -6.79999 8.32758e-16
      vertex 7.79999 6.79999 -8.32758e-16
    endloop
  endfacet
  facet normal 1.96033e-23 1.22465e-16 1
    outer loop
      vertex 6.82298 6.56807 -8.04357e-16
      vertex 7.79999 6.79999 -8.32758e-16
      vertex 7.62297 7.36806 -9.02327e-16
    endloop
  endfacet
  facet normal 2.46017e-23 1.22465e-16 1
    outer loop
      vertex 7 -6 7.34788e-16
      vertex 7.79999 6.79999 -8.32758e-16
      vertex 7 6 -7.34788e-16
    endloop
  endfacet
  facet normal -8.01058e-23 1.22465e-16 1
    outer loop
      vertex 6.82298 6.56807 -8.04357e-16
      vertex 7.62297 7.36806 -9.02327e-16
      vertex 7.26471 7.68544 -9.41195e-16
    endloop
  endfacet
  facet normal 6.26281e-23 1.22465e-16 1
    outer loop
      vertex 6.88545 -6.46472 7.917e-16
      vertex 7.79999 -6.79999 8.32758e-16
      vertex 7 -6 7.34788e-16
    endloop
  endfacet
  facet normal 6.26281e-23 1.22465e-16 1
    outer loop
      vertex 7.79999 -6.79999 8.32758e-16
      vertex 6.88545 -6.46472 7.917e-16
      vertex 7.68544 -7.26471 8.8967e-16
    endloop
  endfacet
  facet normal -6.59647e-23 1.22465e-16 1
    outer loop
      vertex 6.56807 -6.82298 8.35574e-16
      vertex 7.68544 -7.26471 8.8967e-16
      vertex 6.88545 -6.46472 7.917e-16
    endloop
  endfacet
  facet normal -6.59647e-23 1.22465e-16 1
    outer loop
      vertex 7.68544 -7.26471 8.8967e-16
      vertex 6.56807 -6.82298 8.35574e-16
      vertex 7.36806 -7.62297 9.33545e-16
    endloop
  endfacet
  facet normal -4.55761e-23 1.22465e-16 1
    outer loop
      vertex 7.36806 -7.62297 9.33545e-16
      vertex 6.56807 -6.82298 8.35574e-16
      vertex 6.79999 -7.79999 9.55223e-16
    endloop
  endfacet
  facet normal 4.11974e-23 1.22465e-16 1
    outer loop
      vertex 6 -7 8.57253e-16
      vertex 6.79999 -7.79999 9.55223e-16
      vertex 6.56807 -6.82298 8.35574e-16
    endloop
  endfacet
  facet normal -0 1.22465e-16 1
    outer loop
      vertex -6 -7 8.57253e-16
      vertex 6.79999 -7.79999 9.55223e-16
      vertex 6 -7 8.57253e-16
    endloop
  endfacet
  facet normal 0 1.22465e-16 1
    outer loop
      vertex -6 -7 8.57253e-16
      vertex -6.79999 -7.79999 9.55223e-16
      vertex 6.79999 -7.79999 9.55223e-16
    endloop
  endfacet
  facet normal -6.44776e-23 1.22465e-16 1
    outer loop
      vertex -6.46472 -6.88545 8.43225e-16
      vertex -6.79999 -7.79999 9.55223e-16
      vertex -6 -7 8.57253e-16
    endloop
  endfacet
  facet normal 2.93343e-23 1.22465e-16 1
    outer loop
      vertex -7.26471 -7.68544 9.41195e-16
      vertex -6.46472 -6.88545 8.43225e-16
      vertex -6.82298 -6.56807 8.04357e-16
    endloop
  endfacet
  facet normal -2.69363e-23 1.22465e-16 1
    outer loop
      vertex -7.26471 -7.68544 9.41195e-16
      vertex -6.82298 -6.56807 8.04357e-16
      vertex -7 -6 7.34788e-16
    endloop
  endfacet
  facet normal 3.99985e-23 1.22465e-16 1
    outer loop
      vertex -6.46472 -6.88545 8.43225e-16
      vertex -7.26471 -7.68544 9.41195e-16
      vertex -6.79999 -7.79999 9.55223e-16
    endloop
  endfacet
  facet normal -0.283703 0.910439 -0.30102
    outer loop
      vertex -7.04671 7.39247 -1
      vertex -6.79999 7.79999 -9.55223e-16
      vertex -6.57332 7.53999 -1
    endloop
  endfacet
  facet normal -0.283704 0.910439 -0.30102
    outer loop
      vertex -6.79999 7.79999 -9.55223e-16
      vertex -7.04671 7.39247 -1
      vertex -7.36806 7.62297 -9.33545e-16
    endloop
  endfacet
  facet normal 0.228805 0.928265 -0.293211
    outer loop
      vertex 6.96059 7.44453 -1
      vertex 6.79999 7.79999 -9.55223e-16
      vertex 7.26471 7.68544 -9.41195e-16
    endloop
  endfacet
  facet normal 0.228804 0.928265 -0.293211
    outer loop
      vertex 6.79999 7.79999 -9.55223e-16
      vertex 6.96059 7.44453 -1
      vertex 6.57332 7.53999 -1
    endloop
  endfacet
  facet normal 0.228805 0.928265 -0.293211
    outer loop
      vertex 7.02255 7.42926 -1
      vertex 6.96059 7.44453 -1
      vertex 7.26471 7.68544 -9.41195e-16
    endloop
  endfacet
  facet normal 0 -0.967823 -0.251634
    outer loop
      vertex -6.57332 -7.53999 -1
      vertex 6.79999 -7.79999 9.55223e-16
      vertex -6.79999 -7.79999 9.55223e-16
    endloop
  endfacet
  facet normal 0 -0.967823 -0.251634
    outer loop
      vertex 6.79999 -7.79999 9.55223e-16
      vertex -6.57332 -7.53999 -1
      vertex 6.57332 -7.53999 -1
    endloop
  endfacet
  facet normal 0.283703 -0.910439 -0.30102
    outer loop
      vertex 7.04671 -7.39247 -1
      vertex 6.79999 -7.79999 9.55223e-16
      vertex 6.57332 -7.53999 -1
    endloop
  endfacet
  facet normal 0.283704 -0.910439 -0.30102
    outer loop
      vertex 6.79999 -7.79999 9.55223e-16
      vertex 7.04671 -7.39247 -1
      vertex 7.36806 -7.62297 9.33545e-16
    endloop
  endfacet
  facet normal 0.928265 -0.228804 -0.293211
    outer loop
      vertex 7.79999 -6.79999 8.32758e-16
      vertex 7.44453 -6.96059 -1
      vertex 7.53999 -6.57332 -1
    endloop
  endfacet
  facet normal 0.928265 -0.228805 -0.293211
    outer loop
      vertex 7.44453 -6.96059 -1
      vertex 7.79999 -6.79999 8.32758e-16
      vertex 7.68544 -7.26471 8.8967e-16
    endloop
  endfacet
  facet normal -0.625429 -0.70598 -0.332311
    outer loop
      vertex -7.3211 -7.16477 -1
      vertex -7.62297 -7.36806 9.02327e-16
      vertex -7.36887 -7.12246 -1
    endloop
  endfacet
  facet normal -0.91044 -0.283702 -0.301019
    outer loop
      vertex -7.36887 -7.12246 -1
      vertex -7.62297 -7.36806 9.02327e-16
      vertex -7.39247 -7.04671 -1
    endloop
  endfacet
  facet normal -0.967823 0 -0.251634
    outer loop
      vertex -7.53999 -6.57332 -1
      vertex -7.79999 6.79999 -8.32758e-16
      vertex -7.53999 6.57332 -1
    endloop
  endfacet
  facet normal -0.967823 -3.08162e-17 -0.251634
    outer loop
      vertex -7.79999 6.79999 -8.32758e-16
      vertex -7.53999 -6.57332 -1
      vertex -7.79999 -6.79999 8.32758e-16
    endloop
  endfacet
  facet normal -0.928265 0.228805 -0.293211
    outer loop
      vertex -7.44453 6.96059 -1
      vertex -7.68544 7.26471 -8.8967e-16
      vertex -7.42926 7.02255 -1
    endloop
  endfacet
  facet normal -0.928265 0.228805 -0.293211
    outer loop
      vertex -7.44453 6.96059 -1
      vertex -7.79999 6.79999 -8.32758e-16
      vertex -7.68544 7.26471 -8.8967e-16
    endloop
  endfacet
  facet normal -0.928265 0.228804 -0.293211
    outer loop
      vertex -7.79999 6.79999 -8.32758e-16
      vertex -7.44453 6.96059 -1
      vertex -7.53999 6.57332 -1
    endloop
  endfacet
  facet normal 0 0.967823 -0.251634
    outer loop
      vertex 6.57332 7.53999 -1
      vertex -6.79999 7.79999 -9.55223e-16
      vertex 6.79999 7.79999 -9.55223e-16
    endloop
  endfacet
  facet normal 0 0.967823 -0.251634
    outer loop
      vertex -6.79999 7.79999 -9.55223e-16
      vertex 6.57332 7.53999 -1
      vertex -6.57332 7.53999 -1
    endloop
  endfacet
  facet normal -0.228805 -0.928265 -0.293211
    outer loop
      vertex -6.96059 -7.44453 -1
      vertex -7.26471 -7.68544 9.41195e-16
      vertex -7.02255 -7.42926 -1
    endloop
  endfacet
  facet normal 0.928265 -0.228805 -0.293211
    outer loop
      vertex 7.68544 -7.26471 8.8967e-16
      vertex 7.42926 -7.02255 -1
      vertex 7.44453 -6.96059 -1
    endloop
  endfacet
  facet normal -0.705981 0.625428 -0.332311
    outer loop
      vertex -7.16477 7.3211 -1
      vertex -7.68544 7.26471 -8.8967e-16
      vertex -7.36806 7.62297 -9.33545e-16
    endloop
  endfacet
  facet normal -0.705981 0.625428 -0.332311
    outer loop
      vertex -7.68544 7.26471 -8.8967e-16
      vertex -7.16477 7.3211 -1
      vertex -7.42926 7.02255 -1
    endloop
  endfacet
  facet normal -0.70598 0.625429 -0.332311
    outer loop
      vertex -7.16477 7.3211 -1
      vertex -7.36806 7.62297 -9.33545e-16
      vertex -7.12246 7.36887 -1
    endloop
  endfacet
  facet normal -0.228805 -0.928265 -0.293211
    outer loop
      vertex -6.96059 -7.44453 -1
      vertex -6.79999 -7.79999 9.55223e-16
      vertex -7.26471 -7.68544 9.41195e-16
    endloop
  endfacet
  facet normal -0.228804 -0.928265 -0.293211
    outer loop
      vertex -6.79999 -7.79999 9.55223e-16
      vertex -6.96059 -7.44453 -1
      vertex -6.57332 -7.53999 -1
    endloop
  endfacet
  facet normal 0.705981 -0.625428 -0.332311
    outer loop
      vertex 7.68544 -7.26471 8.8967e-16
      vertex 7.16477 -7.3211 -1
      vertex 7.42926 -7.02255 -1
    endloop
  endfacet
  facet normal 0.705981 -0.625428 -0.332311
    outer loop
      vertex 7.16477 -7.3211 -1
      vertex 7.68544 -7.26471 8.8967e-16
      vertex 7.36806 -7.62297 9.33545e-16
    endloop
  endfacet
  facet normal 0.70598 -0.625429 -0.332311
    outer loop
      vertex 7.36806 -7.62297 9.33545e-16
      vertex 7.12246 -7.36887 -1
      vertex 7.16477 -7.3211 -1
    endloop
  endfacet
  facet normal 0.992709 -0.120538 1.67903e-17
    outer loop
      vertex 1.94188 -0.478631 8
      vertex 2 6.12323e-16 5
      vertex 2 9.79717e-16 8
    endloop
  endfacet
  facet normal 0.992709 -0.120538 0
    outer loop
      vertex 2 6.12323e-16 5
      vertex 1.94188 -0.478631 8
      vertex 1.94188 -0.478631 5
    endloop
  endfacet
  facet normal -0.992709 -0.120538 1.67903e-17
    outer loop
      vertex -1.94188 -0.478631 5
      vertex -2 9.79717e-16 8
      vertex -2 6.12323e-16 5
    endloop
  endfacet
  facet normal -0.992709 -0.120538 0
    outer loop
      vertex -2 9.79717e-16 8
      vertex -1.94188 -0.478631 5
      vertex -1.94188 -0.478631 8
    endloop
  endfacet
  facet normal 0 -1 0
    outer loop
      vertex -0.241073 -1.98542 5
      vertex 0.241073 -1.98542 8
      vertex -0.241073 -1.98542 8
    endloop
  endfacet
  facet normal 0 -1 -0
    outer loop
      vertex 0.241073 -1.98542 8
      vertex -0.241073 -1.98542 5
      vertex 0.241073 -1.98542 5
    endloop
  endfacet
  facet normal 0 1 -0
    outer loop
      vertex 0.241073 1.98542 5
      vertex -0.241073 1.98542 8
      vertex 0.241073 1.98542 8
    endloop
  endfacet
  facet normal 0 1 0
    outer loop
      vertex -0.241073 1.98542 8
      vertex 0.241073 1.98542 5
      vertex -0.241073 1.98542 5
    endloop
  endfacet
  facet normal 0.239315 0.970942 -0
    outer loop
      vertex 0.709209 1.87003 5
      vertex 0.241073 1.98542 8
      vertex 0.709209 1.87003 8
    endloop
  endfacet
  facet normal 0.239315 0.970942 0
    outer loop
      vertex 0.241073 1.98542 8
      vertex 0.709209 1.87003 5
      vertex 0.241073 1.98542 5
    endloop
  endfacet
  facet normal 0.663123 -0.74851 0
    outer loop
      vertex 1.13613 -1.64597 5
      vertex 1.49702 -1.32625 8
      vertex 1.13613 -1.64597 8
    endloop
  endfacet
  facet normal 0.663123 -0.74851 0
    outer loop
      vertex 1.49702 -1.32625 8
      vertex 1.13613 -1.64597 5
      vertex 1.49702 -1.32625 5
    endloop
  endfacet
  facet normal 0.935016 -0.354605 0
    outer loop
      vertex 1.77091 -0.929446 8
      vertex 1.94188 -0.478631 5
      vertex 1.94188 -0.478631 8
    endloop
  endfacet
  facet normal 0.935016 -0.354605 0
    outer loop
      vertex 1.94188 -0.478631 5
      vertex 1.77091 -0.929446 8
      vertex 1.77091 -0.929446 5
    endloop
  endfacet
  facet normal 0.464723 -0.885456 0
    outer loop
      vertex 0.709209 -1.87003 5
      vertex 1.13613 -1.64597 8
      vertex 0.709209 -1.87003 8
    endloop
  endfacet
  facet normal 0.464723 -0.885456 0
    outer loop
      vertex 1.13613 -1.64597 8
      vertex 0.709209 -1.87003 5
      vertex 1.13613 -1.64597 5
    endloop
  endfacet
  facet normal -0.663123 -0.74851 0
    outer loop
      vertex -1.49702 -1.32625 5
      vertex -1.13613 -1.64597 8
      vertex -1.49702 -1.32625 8
    endloop
  endfacet
  facet normal -0.663123 -0.74851 -0
    outer loop
      vertex -1.13613 -1.64597 8
      vertex -1.49702 -1.32625 5
      vertex -1.13613 -1.64597 5
    endloop
  endfacet
  facet normal -0.822984 -0.568065 0
    outer loop
      vertex -1.49702 -1.32625 5
      vertex -1.77091 -0.929446 8
      vertex -1.77091 -0.929446 5
    endloop
  endfacet
  facet normal -0.822984 -0.568065 0
    outer loop
      vertex -1.77091 -0.929446 8
      vertex -1.49702 -1.32625 5
      vertex -1.49702 -1.32625 8
    endloop
  endfacet
  facet normal -0.239315 -0.970942 0
    outer loop
      vertex -0.709209 -1.87003 5
      vertex -0.241073 -1.98542 8
      vertex -0.709209 -1.87003 8
    endloop
  endfacet
  facet normal -0.239315 -0.970942 -0
    outer loop
      vertex -0.241073 -1.98542 8
      vertex -0.709209 -1.87003 5
      vertex -0.241073 -1.98542 5
    endloop
  endfacet
  facet normal 0.935016 0.354605 0
    outer loop
      vertex 1.94188 0.478631 8
      vertex 1.77091 0.929446 5
      vertex 1.77091 0.929446 8
    endloop
  endfacet
  facet normal 0.935016 0.354605 0
    outer loop
      vertex 1.77091 0.929446 5
      vertex 1.94188 0.478631 8
      vertex 1.94188 0.478631 5
    endloop
  endfacet
  facet normal 0.822984 -0.568065 0
    outer loop
      vertex 1.49702 -1.32625 8
      vertex 1.77091 -0.929446 5
      vertex 1.77091 -0.929446 8
    endloop
  endfacet
  facet normal 0.822984 -0.568065 0
    outer loop
      vertex 1.77091 -0.929446 5
      vertex 1.49702 -1.32625 8
      vertex 1.49702 -1.32625 5
    endloop
  endfacet
  facet normal 0.239315 -0.970942 0
    outer loop
      vertex 0.241073 -1.98542 5
      vertex 0.709209 -1.87003 8
      vertex 0.241073 -1.98542 8
    endloop
  endfacet
  facet normal 0.239315 -0.970942 0
    outer loop
      vertex 0.709209 -1.87003 8
      vertex 0.241073 -1.98542 5
      vertex 0.709209 -1.87003 5
    endloop
  endfacet
  facet normal -0.935016 -0.354605 0
    outer loop
      vertex -1.77091 -0.929446 5
      vertex -1.94188 -0.478631 8
      vertex -1.94188 -0.478631 5
    endloop
  endfacet
  facet normal -0.935016 -0.354605 0
    outer loop
      vertex -1.94188 -0.478631 8
      vertex -1.77091 -0.929446 5
      vertex -1.77091 -0.929446 8
    endloop
  endfacet
  facet normal -0.464723 -0.885456 0
    outer loop
      vertex -1.13613 -1.64597 5
      vertex -0.709209 -1.87003 8
      vertex -1.13613 -1.64597 8
    endloop
  endfacet
  facet normal -0.464723 -0.885456 -0
    outer loop
      vertex -0.709209 -1.87003 8
      vertex -1.13613 -1.64597 5
      vertex -0.709209 -1.87003 5
    endloop
  endfacet
  facet normal 0.992709 0.120538 0
    outer loop
      vertex 2 9.79717e-16 8
      vertex 1.94188 0.478631 5
      vertex 1.94188 0.478631 8
    endloop
  endfacet
  facet normal 0.992709 0.120538 -1.67903e-17
    outer loop
      vertex 1.94188 0.478631 5
      vertex 2 9.79717e-16 8
      vertex 2 6.12323e-16 5
    endloop
  endfacet
  facet normal 0 0 1
    outer loop
      vertex 1.94188 0.478631 8
      vertex 1.94188 -0.478631 8
      vertex 2 9.79717e-16 8
    endloop
  endfacet
  facet normal 0 0 1
    outer loop
      vertex 1.77091 0.929446 8
      vertex 1.94188 -0.478631 8
      vertex 1.94188 0.478631 8
    endloop
  endfacet
  facet normal 0 0 1
    outer loop
      vertex 1.77091 0.929446 8
      vertex 1.77091 -0.929446 8
      vertex 1.94188 -0.478631 8
    endloop
  endfacet
  facet normal 0 0 1
    outer loop
      vertex 1.49702 1.32625 8
      vertex 1.77091 -0.929446 8
      vertex 1.77091 0.929446 8
    endloop
  endfacet
  facet normal 0 0 1
    outer loop
      vertex 1.49702 1.32625 8
      vertex 1.49702 -1.32625 8
      vertex 1.77091 -0.929446 8
    endloop
  endfacet
  facet normal 0 0 1
    outer loop
      vertex 1.13613 1.64597 8
      vertex 1.49702 -1.32625 8
      vertex 1.49702 1.32625 8
    endloop
  endfacet
  facet normal 0 0 1
    outer loop
      vertex 1.13613 1.64597 8
      vertex 1.13613 -1.64597 8
      vertex 1.49702 -1.32625 8
    endloop
  endfacet
  facet normal 0 0 1
    outer loop
      vertex 0.709209 1.87003 8
      vertex 1.13613 -1.64597 8
      vertex 1.13613 1.64597 8
    endloop
  endfacet
  facet normal 0 0 1
    outer loop
      vertex 0.709209 1.87003 8
      vertex 0.709209 -1.87003 8
      vertex 1.13613 -1.64597 8
    endloop
  endfacet
  facet normal 0 0 1
    outer loop
      vertex 0.241073 1.98542 8
      vertex 0.709209 -1.87003 8
      vertex 0.709209 1.87003 8
    endloop
  endfacet
  facet normal 0 0 1
    outer loop
      vertex 0.241073 1.98542 8
      vertex 0.241073 -1.98542 8
      vertex 0.709209 -1.87003 8
    endloop
  endfacet
  facet normal -0 0 1
    outer loop
      vertex -0.241073 1.98542 8
      vertex 0.241073 -1.98542 8
      vertex 0.241073 1.98542 8
    endloop
  endfacet
  facet normal 0 0 1
    outer loop
      vertex -0.241073 1.98542 8
      vertex -0.241073 -1.98542 8
      vertex 0.241073 -1.98542 8
    endloop
  endfacet
  facet normal -0 0 1
    outer loop
      vertex -0.709209 1.87003 8
      vertex -0.241073 -1.98542 8
      vertex -0.241073 1.98542 8
    endloop
  endfacet
  facet normal 0 0 1
    outer loop
      vertex -0.709209 1.87003 8
      vertex -0.709209 -1.87003 8
      vertex -0.241073 -1.98542 8
    endloop
  endfacet
  facet normal -0 0 1
    outer loop
      vertex -1.13613 1.64597 8
      vertex -0.709209 -1.87003 8
      vertex -0.709209 1.87003 8
    endloop
  endfacet
  facet normal 0 0 1
    outer loop
      vertex -1.13613 1.64597 8
      vertex -1.13613 -1.64597 8
      vertex -0.709209 -1.87003 8
    endloop
  endfacet
  facet normal -0 0 1
    outer loop
      vertex -1.49702 1.32625 8
      vertex -1.13613 -1.64597 8
      vertex -1.13613 1.64597 8
    endloop
  endfacet
  facet normal 0 0 1
    outer loop
      vertex -1.49702 1.32625 8
      vertex -1.49702 -1.32625 8
      vertex -1.13613 -1.64597 8
    endloop
  endfacet
  facet normal -0 0 1
    outer loop
      vertex -1.77091 0.929446 8
      vertex -1.49702 -1.32625 8
      vertex -1.49702 1.32625 8
    endloop
  endfacet
  facet normal 0 0 1
    outer loop
      vertex -1.77091 0.929446 8
      vertex -1.77091 -0.929446 8
      vertex -1.49702 -1.32625 8
    endloop
  endfacet
  facet normal -0 0 1
    outer loop
      vertex -1.94188 0.478631 8
      vertex -1.77091 -0.929446 8
      vertex -1.77091 0.929446 8
    endloop
  endfacet
  facet normal 0 0 1
    outer loop
      vertex -1.94188 0.478631 8
      vertex -1.94188 -0.478631 8
      vertex -1.77091 -0.929446 8
    endloop
  endfacet
  facet normal 0 -0 1
    outer loop
      vertex -1.94188 -0.478631 8
      vertex -1.94188 0.478631 8
      vertex -2 9.79717e-16 8
    endloop
  endfacet
  facet normal 0.663123 0.74851 -0
    outer loop
      vertex 1.49702 1.32625 5
      vertex 1.13613 1.64597 8
      vertex 1.49702 1.32625 8
    endloop
  endfacet
  facet normal 0.663123 0.74851 0
    outer loop
      vertex 1.13613 1.64597 8
      vertex 1.49702 1.32625 5
      vertex 1.13613 1.64597 5
    endloop
  endfacet
  facet normal 0.822984 0.568065 0
    outer loop
      vertex 1.77091 0.929446 8
      vertex 1.49702 1.32625 5
      vertex 1.49702 1.32625 8
    endloop
  endfacet
  facet normal 0.822984 0.568065 0
    outer loop
      vertex 1.49702 1.32625 5
      vertex 1.77091 0.929446 8
      vertex 1.77091 0.929446 5
    endloop
  endfacet
  facet normal -0.822984 0.568065 0
    outer loop
      vertex -1.77091 0.929446 5
      vertex -1.49702 1.32625 8
      vertex -1.49702 1.32625 5
    endloop
  endfacet
  facet normal -0.822984 0.568065 0
    outer loop
      vertex -1.49702 1.32625 8
      vertex -1.77091 0.929446 5
      vertex -1.77091 0.929446 8
    endloop
  endfacet
  facet normal -0.992709 0.120538 0
    outer loop
      vertex -1.94188 0.478631 5
      vertex -2 9.79717e-16 8
      vertex -1.94188 0.478631 8
    endloop
  endfacet
  facet normal -0.992709 0.120538 -1.47616e-17
    outer loop
      vertex -2 9.79717e-16 8
      vertex -1.94188 0.478631 5
      vertex -2 6.12323e-16 5
    endloop
  endfacet
  facet normal 0.464723 0.885456 -0
    outer loop
      vertex 1.13613 1.64597 5
      vertex 0.709209 1.87003 8
      vertex 1.13613 1.64597 8
    endloop
  endfacet
  facet normal 0.464723 0.885456 0
    outer loop
      vertex 0.709209 1.87003 8
      vertex 1.13613 1.64597 5
      vertex 0.709209 1.87003 5
    endloop
  endfacet
  facet normal -0.239315 0.970942 0
    outer loop
      vertex -0.241073 1.98542 5
      vertex -0.709209 1.87003 8
      vertex -0.241073 1.98542 8
    endloop
  endfacet
  facet normal -0.239315 0.970942 0
    outer loop
      vertex -0.709209 1.87003 8
      vertex -0.241073 1.98542 5
      vertex -0.709209 1.87003 5
    endloop
  endfacet
  facet normal -0.663123 0.74851 0
    outer loop
      vertex -1.13613 1.64597 5
      vertex -1.49702 1.32625 8
      vertex -1.13613 1.64597 8
    endloop
  endfacet
  facet normal -0.663123 0.74851 0
    outer loop
      vertex -1.49702 1.32625 8
      vertex -1.13613 1.64597 5
      vertex -1.49702 1.32625 5
    endloop
  endfacet
  facet normal -0.935016 0.354605 0
    outer loop
      vertex -1.94188 0.478631 5
      vertex -1.77091 0.929446 8
      vertex -1.77091 0.929446 5
    endloop
  endfacet
  facet normal -0.935016 0.354605 0
    outer loop
      vertex -1.77091 0.929446 8
      vertex -1.94188 0.478631 5
      vertex -1.94188 0.478631 8
    endloop
  endfacet
  facet normal -0.464723 0.885456 0
    outer loop
      vertex -0.709209 1.87003 5
      vertex -1.13613 1.64597 8
      vertex -0.709209 1.87003 8
    endloop
  endfacet
  facet normal -0.464723 0.885456 0
    outer loop
      vertex -1.13613 1.64597 8
      vertex -0.709209 1.87003 5
      vertex -1.13613 1.64597 5
    endloop
  endfacet
  facet normal 0.233995 0.923947 -0.302602
    outer loop
      vertex 5.05687 6.36121 -11
      vertex 4.72065 6.44636 -11
      vertex 6.74379 9.20909 -1
    endloop
  endfacet
  facet normal 0.233995 0.923947 -0.302602
    outer loop
      vertex 7.22411 9.08745 -1
      vertex 5.05687 6.36121 -11
      vertex 6.74379 9.20909 -1
    endloop
  endfacet
  facet normal 0.0792529 0.956628 -0.280324
    outer loop
      vertex 4.72065 6.44636 -11
      vertex 4.375 6.475 -11
      vertex 6.25 9.25 -1
    endloop
  endfacet
  facet normal 0.0792534 0.956628 -0.280324
    outer loop
      vertex 6.74379 9.20909 -1
      vertex 4.72065 6.44636 -11
      vertex 6.25 9.25 -1
    endloop
  endfacet
  facet normal 0.693416 -0.638326 -0.334236
    outer loop
      vertex 8.28185 -8.45717 -1
      vertex 6.03219 -5.66484 -11
      vertex 8.61742 -8.09264 -1
    endloop
  endfacet
  facet normal -0.963587 0 -0.267395
    outer loop
      vertex -6.475 -4.375 -11
      vertex -9.25 6.25 -1
      vertex -6.475 4.375 -11
    endloop
  endfacet
  facet normal -0.963587 -0 -0.267395
    outer loop
      vertex -9.25 6.25 -1
      vertex -6.475 -4.375 -11
      vertex -9.25 -6.25 -1
    endloop
  endfacet
  facet normal 0.950847 0.118521 -0.286083
    outer loop
      vertex 6.475 4.375 -11
      vertex 6.41074 4.89051 -11
      vertex 9.25 6.25 -1
    endloop
  endfacet
  facet normal 0 0.963587 -0.267395
    outer loop
      vertex 4.375 6.475 -11
      vertex -6.25 9.25 -1
      vertex 6.25 9.25 -1
    endloop
  endfacet
  facet normal 0 0.963587 -0.267395
    outer loop
      vertex -6.25 9.25 -1
      vertex 4.375 6.475 -11
      vertex -4.375 6.475 -11
    endloop
  endfacet
  facet normal -0.450079 0.831689 -0.32515
    outer loop
      vertex -5.21856 6.29812 -11
      vertex -7.89084 8.76151 -1
      vertex -7.45509 8.99731 -1
    endloop
  endfacet
  facet normal -0.30854 0.898729 -0.31159
    outer loop
      vertex -4.89051 6.41074 -11
      vertex -7.45509 8.99731 -1
      vertex -6.98645 9.1582 -1
    endloop
  endfacet
  facet normal 0 -0.963587 -0.267395
    outer loop
      vertex -4.375 -6.475 -11
      vertex 6.25 -9.25 -1
      vertex -6.25 -9.25 -1
    endloop
  endfacet
  facet normal 0 -0.963587 -0.267395
    outer loop
      vertex 6.25 -9.25 -1
      vertex -4.375 -6.475 -11
      vertex 4.375 -6.475 -11
    endloop
  endfacet
  facet normal 0.693415 -0.638327 -0.334236
    outer loop
      vertex 8.28185 -8.45717 -1
      vertex 5.79729 -5.92002 -11
      vertex 6.03219 -5.66484 -11
    endloop
  endfacet
  facet normal -0.0792534 -0.956628 -0.280324
    outer loop
      vertex -6.25 -9.25 -1
      vertex -6.74379 -9.20909 -1
      vertex -4.72065 -6.44636 -11
    endloop
  endfacet
  facet normal -0.638327 -0.693415 -0.334236
    outer loop
      vertex -5.66484 -6.03219 -11
      vertex -8.45717 -8.28185 -1
      vertex -5.92002 -5.79729 -11
    endloop
  endfacet
  facet normal -0.45008 0.831688 -0.325151
    outer loop
      vertex -5.52359 6.13305 -11
      vertex -7.89084 8.76151 -1
      vertex -5.21856 6.29812 -11
    endloop
  endfacet
  facet normal -0.118521 0.950847 -0.286083
    outer loop
      vertex -4.89051 6.41074 -11
      vertex -6.98645 9.1582 -1
      vertex -6.25 9.25 -1
    endloop
  endfacet
  facet normal -0.118521 0.950847 -0.286083
    outer loop
      vertex -4.89051 6.41074 -11
      vertex -6.25 9.25 -1
      vertex -4.375 6.475 -11
    endloop
  endfacet
  facet normal 0.579223 -0.744176 -0.33272
    outer loop
      vertex 5.79729 -5.92002 -11
      vertex 7.89084 -8.76151 -1
      vertex 5.52359 -6.13305 -11
    endloop
  endfacet
  facet normal 0.579223 -0.744176 -0.33272
    outer loop
      vertex 7.89084 -8.76151 -1
      vertex 5.79729 -5.92002 -11
      vertex 8.28185 -8.45717 -1
    endloop
  endfacet
  facet normal 0.118521 -0.950847 -0.286083
    outer loop
      vertex 6.25 -9.25 -1
      vertex 4.375 -6.475 -11
      vertex 4.89051 -6.41074 -11
    endloop
  endfacet
  facet normal -0.380683 -0.867898 -0.319112
    outer loop
      vertex -5.05687 -6.36121 -11
      vertex -7.67784 -8.88843 -1
      vertex -5.37449 -6.2219 -11
    endloop
  endfacet
  facet normal -0.898729 -0.308541 -0.31159
    outer loop
      vertex -6.29812 -5.21856 -11
      vertex -8.99731 -7.45509 -1
      vertex -6.41074 -4.89051 -11
    endloop
  endfacet
  facet normal -0.898729 -0.30854 -0.31159
    outer loop
      vertex -8.99731 -7.45509 -1
      vertex -9.1582 -6.98645 -1
      vertex -6.41074 -4.89051 -11
    endloop
  endfacet
  facet normal -0.744176 -0.579223 -0.33272
    outer loop
      vertex -5.92002 -5.79729 -11
      vertex -8.76151 -7.89084 -1
      vertex -6.13305 -5.52359 -11
    endloop
  endfacet
  facet normal -0.744176 -0.579223 -0.33272
    outer loop
      vertex -8.76151 -7.89084 -1
      vertex -5.92002 -5.79729 -11
      vertex -8.45717 -8.28185 -1
    endloop
  endfacet
  facet normal -0.233995 -0.923947 -0.302602
    outer loop
      vertex -4.72065 -6.44636 -11
      vertex -6.74379 -9.20909 -1
      vertex -5.05687 -6.36121 -11
    endloop
  endfacet
  facet normal -0.308541 0.898729 -0.31159
    outer loop
      vertex -5.21856 6.29812 -11
      vertex -7.45509 8.99731 -1
      vertex -4.89051 6.41074 -11
    endloop
  endfacet
  facet normal 0.963587 0 -0.267395
    outer loop
      vertex 9.25 6.25 -1
      vertex 6.475 -4.375 -11
      vertex 6.475 4.375 -11
    endloop
  endfacet
  facet normal 0.963587 0 -0.267395
    outer loop
      vertex 6.475 -4.375 -11
      vertex 9.25 6.25 -1
      vertex 9.25 -6.25 -1
    endloop
  endfacet
  facet normal 0.923947 -0.233995 -0.302602
    outer loop
      vertex 9.08745 -7.22411 -1
      vertex 6.36121 -5.05687 -11
      vertex 9.20909 -6.74379 -1
    endloop
  endfacet
  facet normal 0.308541 -0.898729 -0.31159
    outer loop
      vertex 7.45509 -8.99731 -1
      vertex 4.89051 -6.41074 -11
      vertex 5.21856 -6.29812 -11
    endloop
  endfacet
  facet normal 0.118521 -0.950847 -0.286083
    outer loop
      vertex 6.25 -9.25 -1
      vertex 4.89051 -6.41074 -11
      vertex 6.98645 -9.1582 -1
    endloop
  endfacet
  facet normal 0.30854 -0.898729 -0.31159
    outer loop
      vertex 6.98645 -9.1582 -1
      vertex 4.89051 -6.41074 -11
      vertex 7.45509 -8.99731 -1
    endloop
  endfacet
  facet normal -0.950847 -0.118521 -0.286083
    outer loop
      vertex -9.1582 -6.98645 -1
      vertex -9.25 -6.25 -1
      vertex -6.41074 -4.89051 -11
    endloop
  endfacet
  facet normal -0.950847 -0.118521 -0.286083
    outer loop
      vertex -6.41074 -4.89051 -11
      vertex -9.25 -6.25 -1
      vertex -6.475 -4.375 -11
    endloop
  endfacet
  facet normal 0 0 1
    outer loop
      vertex 8.99731 7.45509 -1
      vertex 7.39247 7.04671 -1
      vertex 7.53999 6.57332 -1
    endloop
  endfacet
  facet normal 0 0 1
    outer loop
      vertex 8.09264 8.61742 -1
      vertex 7.36887 7.12246 -1
      vertex 7.39247 7.04671 -1
    endloop
  endfacet
  facet normal 0 0 1
    outer loop
      vertex 8.09264 8.61742 -1
      vertex 7.3211 7.16477 -1
      vertex 7.36887 7.12246 -1
    endloop
  endfacet
  facet normal 0 0 1
    outer loop
      vertex 6.96059 7.44453 -1
      vertex 7.67784 8.88843 -1
      vertex 7.22411 9.08745 -1
    endloop
  endfacet
  facet normal 0 0 1
    outer loop
      vertex 8.09264 8.61742 -1
      vertex 7.02255 7.42926 -1
      vertex 7.3211 7.16477 -1
    endloop
  endfacet
  facet normal 0 0 1
    outer loop
      vertex 7.67784 8.88843 -1
      vertex 6.96059 7.44453 -1
      vertex 7.02255 7.42926 -1
    endloop
  endfacet
  facet normal 0 0 1
    outer loop
      vertex 6.57332 7.53999 -1
      vertex 7.22411 9.08745 -1
      vertex 6.74379 9.20909 -1
    endloop
  endfacet
  facet normal 0 0 1
    outer loop
      vertex 7.22411 9.08745 -1
      vertex 6.57332 7.53999 -1
      vertex 6.96059 7.44453 -1
    endloop
  endfacet
  facet normal 0 0 1
    outer loop
      vertex 6.25 9.25 -1
      vertex 6.57332 7.53999 -1
      vertex 6.74379 9.20909 -1
    endloop
  endfacet
  facet normal -0 0 1
    outer loop
      vertex -6.25 9.25 -1
      vertex 6.57332 7.53999 -1
      vertex 6.25 9.25 -1
    endloop
  endfacet
  facet normal 0 0 1
    outer loop
      vertex -6.25 9.25 -1
      vertex -6.57332 7.53999 -1
      vertex 6.57332 7.53999 -1
    endloop
  endfacet
  facet normal -0 0 1
    outer loop
      vertex -6.98645 9.1582 -1
      vertex -6.57332 7.53999 -1
      vertex -6.25 9.25 -1
    endloop
  endfacet
  facet normal -0 0 1
    outer loop
      vertex -7.45509 8.99731 -1
      vertex -6.57332 7.53999 -1
      vertex -6.98645 9.1582 -1
    endloop
  endfacet
  facet normal 0 0 1
    outer loop
      vertex -6.57332 7.53999 -1
      vertex -7.45509 8.99731 -1
      vertex -7.04671 7.39247 -1
    endloop
  endfacet
  facet normal -0 0 1
    outer loop
      vertex -7.89084 8.76151 -1
      vertex -7.04671 7.39247 -1
      vertex -7.45509 8.99731 -1
    endloop
  endfacet
  facet normal 0 0 1
    outer loop
      vertex -7.04671 7.39247 -1
      vertex -7.89084 8.76151 -1
      vertex -7.12246 7.36887 -1
    endloop
  endfacet
  facet normal -0 0 1
    outer loop
      vertex -8.28185 8.45717 -1
      vertex -7.12246 7.36887 -1
      vertex -7.89084 8.76151 -1
    endloop
  endfacet
  facet normal 0 0 1
    outer loop
      vertex -7.12246 7.36887 -1
      vertex -8.28185 8.45717 -1
      vertex -7.16477 7.3211 -1
    endloop
  endfacet
  facet normal -0 0 1
    outer loop
      vertex -8.61742 8.09264 -1
      vertex -7.16477 7.3211 -1
      vertex -8.28185 8.45717 -1
    endloop
  endfacet
  facet normal -0 0 1
    outer loop
      vertex -9.25 -6.25 -1
      vertex -7.53999 -6.57332 -1
      vertex -7.53999 6.57332 -1
    endloop
  endfacet
  facet normal 0 0 1
    outer loop
      vertex -7.16477 7.3211 -1
      vertex -8.61742 8.09264 -1
      vertex -7.42926 7.02255 -1
    endloop
  endfacet
  facet normal -0 0 1
    outer loop
      vertex -8.88843 7.67784 -1
      vertex -7.42926 7.02255 -1
      vertex -8.61742 8.09264 -1
    endloop
  endfacet
  facet normal 0 0 1
    outer loop
      vertex -9.25 -6.25 -1
      vertex -7.53999 6.57332 -1
      vertex -9.25 6.25 -1
    endloop
  endfacet
  facet normal 0 0 1
    outer loop
      vertex -7.42926 7.02255 -1
      vertex -8.88843 7.67784 -1
      vertex -7.44453 6.96059 -1
    endloop
  endfacet
  facet normal 0 -0 1
    outer loop
      vertex -9.1582 -6.98645 -1
      vertex -7.53999 -6.57332 -1
      vertex -9.25 -6.25 -1
    endloop
  endfacet
  facet normal -0 0 1
    outer loop
      vertex -9.08745 7.22411 -1
      vertex -7.44453 6.96059 -1
      vertex -8.88843 7.67784 -1
    endloop
  endfacet
  facet normal 0 0 1
    outer loop
      vertex -7.53999 -6.57332 -1
      vertex -8.09264 -8.61742 -1
      vertex -7.67784 -8.88843 -1
    endloop
  endfacet
  facet normal 0 0 1
    outer loop
      vertex -7.44453 6.96059 -1
      vertex -9.08745 7.22411 -1
      vertex -7.53999 6.57332 -1
    endloop
  endfacet
  facet normal 0 0 1
    outer loop
      vertex -7.53999 -6.57332 -1
      vertex -8.45717 -8.28185 -1
      vertex -8.09264 -8.61742 -1
    endloop
  endfacet
  facet normal -0 0 1
    outer loop
      vertex -9.20909 6.74379 -1
      vertex -7.53999 6.57332 -1
      vertex -9.08745 7.22411 -1
    endloop
  endfacet
  facet normal 0 0 1
    outer loop
      vertex -7.53999 -6.57332 -1
      vertex -8.76151 -7.89084 -1
      vertex -8.45717 -8.28185 -1
    endloop
  endfacet
  facet normal 0 0 1
    outer loop
      vertex -7.53999 6.57332 -1
      vertex -9.20909 6.74379 -1
      vertex -9.25 6.25 -1
    endloop
  endfacet
  facet normal 0 0 1
    outer loop
      vertex -7.53999 -6.57332 -1
      vertex -8.99731 -7.45509 -1
      vertex -8.76151 -7.89084 -1
    endloop
  endfacet
  facet normal 0 0 1
    outer loop
      vertex -7.53999 -6.57332 -1
      vertex -9.1582 -6.98645 -1
      vertex -8.99731 -7.45509 -1
    endloop
  endfacet
  facet normal 0 0 1
    outer loop
      vertex 7.53999 -6.57332 -1
      vertex 9.25 -6.25 -1
      vertex 9.25 6.25 -1
    endloop
  endfacet
  facet normal -0 0 1
    outer loop
      vertex 7.53999 6.57332 -1
      vertex 9.25 6.25 -1
      vertex 9.1582 6.98645 -1
    endloop
  endfacet
  facet normal 0 0 1
    outer loop
      vertex 7.53999 -6.57332 -1
      vertex 9.25 6.25 -1
      vertex 7.53999 6.57332 -1
    endloop
  endfacet
  facet normal 0 0 1
    outer loop
      vertex 7.53999 6.57332 -1
      vertex 9.1582 6.98645 -1
      vertex 8.99731 7.45509 -1
    endloop
  endfacet
  facet normal 0 0 1
    outer loop
      vertex 9.25 -6.25 -1
      vertex 7.53999 -6.57332 -1
      vertex 9.20909 -6.74379 -1
    endloop
  endfacet
  facet normal 0 0 1
    outer loop
      vertex 7.39247 7.04671 -1
      vertex 8.99731 7.45509 -1
      vertex 8.76151 7.89084 -1
    endloop
  endfacet
  facet normal 0 0 1
    outer loop
      vertex 9.20909 -6.74379 -1
      vertex 7.53999 -6.57332 -1
      vertex 9.08745 -7.22411 -1
    endloop
  endfacet
  facet normal 0 0 1
    outer loop
      vertex 7.39247 7.04671 -1
      vertex 8.76151 7.89084 -1
      vertex 8.45717 8.28185 -1
    endloop
  endfacet
  facet normal -0 0 1
    outer loop
      vertex 7.44453 -6.96059 -1
      vertex 9.08745 -7.22411 -1
      vertex 7.53999 -6.57332 -1
    endloop
  endfacet
  facet normal 0 0 1
    outer loop
      vertex 7.39247 7.04671 -1
      vertex 8.45717 8.28185 -1
      vertex 8.09264 8.61742 -1
    endloop
  endfacet
  facet normal 0 0 1
    outer loop
      vertex 9.08745 -7.22411 -1
      vertex 7.44453 -6.96059 -1
      vertex 8.88843 -7.67784 -1
    endloop
  endfacet
  facet normal 0 0 1
    outer loop
      vertex 7.02255 7.42926 -1
      vertex 8.09264 8.61742 -1
      vertex 7.67784 8.88843 -1
    endloop
  endfacet
  facet normal -0 0 1
    outer loop
      vertex 7.42926 -7.02255 -1
      vertex 8.88843 -7.67784 -1
      vertex 7.44453 -6.96059 -1
    endloop
  endfacet
  facet normal 0 0 1
    outer loop
      vertex 8.88843 -7.67784 -1
      vertex 7.42926 -7.02255 -1
      vertex 8.61742 -8.09264 -1
    endloop
  endfacet
  facet normal -0 0 1
    outer loop
      vertex 7.16477 -7.3211 -1
      vertex 8.61742 -8.09264 -1
      vertex 7.42926 -7.02255 -1
    endloop
  endfacet
  facet normal 0 0 1
    outer loop
      vertex 8.61742 -8.09264 -1
      vertex 7.16477 -7.3211 -1
      vertex 8.28185 -8.45717 -1
    endloop
  endfacet
  facet normal -0 0 1
    outer loop
      vertex 7.12246 -7.36887 -1
      vertex 8.28185 -8.45717 -1
      vertex 7.16477 -7.3211 -1
    endloop
  endfacet
  facet normal 0 0 1
    outer loop
      vertex 8.28185 -8.45717 -1
      vertex 7.12246 -7.36887 -1
      vertex 7.89084 -8.76151 -1
    endloop
  endfacet
  facet normal -0 0 1
    outer loop
      vertex 7.04671 -7.39247 -1
      vertex 7.89084 -8.76151 -1
      vertex 7.12246 -7.36887 -1
    endloop
  endfacet
  facet normal 0 0 1
    outer loop
      vertex 7.89084 -8.76151 -1
      vertex 7.04671 -7.39247 -1
      vertex 7.45509 -8.99731 -1
    endloop
  endfacet
  facet normal -0 0 1
    outer loop
      vertex 6.57332 -7.53999 -1
      vertex 7.45509 -8.99731 -1
      vertex 7.04671 -7.39247 -1
    endloop
  endfacet
  facet normal 0 0 1
    outer loop
      vertex 7.45509 -8.99731 -1
      vertex 6.57332 -7.53999 -1
      vertex 6.98645 -9.1582 -1
    endloop
  endfacet
  facet normal 0 0 1
    outer loop
      vertex 6.57332 -7.53999 -1
      vertex 6.25 -9.25 -1
      vertex 6.98645 -9.1582 -1
    endloop
  endfacet
  facet normal 0 0 1
    outer loop
      vertex 6.57332 -7.53999 -1
      vertex -6.25 -9.25 -1
      vertex 6.25 -9.25 -1
    endloop
  endfacet
  facet normal -0 0 1
    outer loop
      vertex -6.57332 -7.53999 -1
      vertex -6.25 -9.25 -1
      vertex 6.57332 -7.53999 -1
    endloop
  endfacet
  facet normal 0 0 1
    outer loop
      vertex -6.57332 -7.53999 -1
      vertex -6.74379 -9.20909 -1
      vertex -6.25 -9.25 -1
    endloop
  endfacet
  facet normal 0 0 1
    outer loop
      vertex -7.22411 -9.08745 -1
      vertex -6.57332 -7.53999 -1
      vertex -6.96059 -7.44453 -1
    endloop
  endfacet
  facet normal 0 0 1
    outer loop
      vertex -7.67784 -8.88843 -1
      vertex -6.96059 -7.44453 -1
      vertex -7.02255 -7.42926 -1
    endloop
  endfacet
  facet normal 0 0 1
    outer loop
      vertex -6.57332 -7.53999 -1
      vertex -7.22411 -9.08745 -1
      vertex -6.74379 -9.20909 -1
    endloop
  endfacet
  facet normal 0 0 1
    outer loop
      vertex -7.67784 -8.88843 -1
      vertex -7.02255 -7.42926 -1
      vertex -7.3211 -7.16477 -1
    endloop
  endfacet
  facet normal 0 0 1
    outer loop
      vertex -7.67784 -8.88843 -1
      vertex -7.3211 -7.16477 -1
      vertex -7.36887 -7.12246 -1
    endloop
  endfacet
  facet normal 0 0 1
    outer loop
      vertex -7.67784 -8.88843 -1
      vertex -7.36887 -7.12246 -1
      vertex -7.39247 -7.04671 -1
    endloop
  endfacet
  facet normal 0 0 1
    outer loop
      vertex -7.67784 -8.88843 -1
      vertex -7.39247 -7.04671 -1
      vertex -7.53999 -6.57332 -1
    endloop
  endfacet
  facet normal 0 0 1
    outer loop
      vertex -6.96059 -7.44453 -1
      vertex -7.67784 -8.88843 -1
      vertex -7.22411 -9.08745 -1
    endloop
  endfacet
  facet normal 0 0 -1
    outer loop
      vertex 4.375 -6.475 -11
      vertex 6.475 -4.375 -11
      vertex 6.44636 -4.72065 -11
    endloop
  endfacet
  facet normal -0 0 -1
    outer loop
      vertex 6.475 -4.375 -11
      vertex 4.375 -6.475 -11
      vertex 6.475 4.375 -11
    endloop
  endfacet
  facet normal 0 0 -1
    outer loop
      vertex 4.375 -6.475 -11
      vertex 6.44636 -4.72065 -11
      vertex 6.36121 -5.05687 -11
    endloop
  endfacet
  facet normal -0 0 -1
    outer loop
      vertex 6.475 4.375 -11
      vertex 4.375 -6.475 -11
      vertex 4.375 6.475 -11
    endloop
  endfacet
  facet normal 0 0 -1
    outer loop
      vertex 4.375 -6.475 -11
      vertex 6.36121 -5.05687 -11
      vertex 6.2219 -5.37449 -11
    endloop
  endfacet
  facet normal 0 0 -1
    outer loop
      vertex 6.475 4.375 -11
      vertex 4.375 6.475 -11
      vertex 6.41074 4.89051 -11
    endloop
  endfacet
  facet normal 0 0 -1
    outer loop
      vertex 4.375 -6.475 -11
      vertex 6.2219 -5.37449 -11
      vertex 6.03219 -5.66484 -11
    endloop
  endfacet
  facet normal 0 0 -1
    outer loop
      vertex 6.41074 4.89051 -11
      vertex 4.375 6.475 -11
      vertex 6.29812 5.21856 -11
    endloop
  endfacet
  facet normal 0 0 -1
    outer loop
      vertex 4.375 -6.475 -11
      vertex 6.03219 -5.66484 -11
      vertex 5.79729 -5.92002 -11
    endloop
  endfacet
  facet normal 0 0 -1
    outer loop
      vertex 6.29812 5.21856 -11
      vertex 4.375 6.475 -11
      vertex 6.13305 5.52359 -11
    endloop
  endfacet
  facet normal 0 0 -1
    outer loop
      vertex 4.375 -6.475 -11
      vertex 5.79729 -5.92002 -11
      vertex 5.52359 -6.13305 -11
    endloop
  endfacet
  facet normal 0 0 -1
    outer loop
      vertex 6.13305 5.52359 -11
      vertex 4.375 6.475 -11
      vertex 5.92002 5.79729 -11
    endloop
  endfacet
  facet normal 0 0 -1
    outer loop
      vertex 4.375 -6.475 -11
      vertex 5.52359 -6.13305 -11
      vertex 5.21856 -6.29812 -11
    endloop
  endfacet
  facet normal 0 0 -1
    outer loop
      vertex 5.92002 5.79729 -11
      vertex 4.375 6.475 -11
      vertex 5.66484 6.03219 -11
    endloop
  endfacet
  facet normal 0 0 -1
    outer loop
      vertex 4.375 -6.475 -11
      vertex 5.21856 -6.29812 -11
      vertex 4.89051 -6.41074 -11
    endloop
  endfacet
  facet normal 0 0 -1
    outer loop
      vertex 5.66484 6.03219 -11
      vertex 4.375 6.475 -11
      vertex 5.37449 6.2219 -11
    endloop
  endfacet
  facet normal 0 0 -1
    outer loop
      vertex 5.37449 6.2219 -11
      vertex 4.375 6.475 -11
      vertex 5.05687 6.36121 -11
    endloop
  endfacet
  facet normal 0 0 -1
    outer loop
      vertex 5.05687 6.36121 -11
      vertex 4.375 6.475 -11
      vertex 4.72065 6.44636 -11
    endloop
  endfacet
  facet normal 0 0 -1
    outer loop
      vertex -4.375 -6.475 -11
      vertex 4.375 6.475 -11
      vertex 4.375 -6.475 -11
    endloop
  endfacet
  facet normal 0 0 -1
    outer loop
      vertex -4.375 -6.475 -11
      vertex -4.375 6.475 -11
      vertex 4.375 6.475 -11
    endloop
  endfacet
  facet normal 0 0 -1
    outer loop
      vertex -6.475 -4.375 -11
      vertex -4.375 -6.475 -11
      vertex -4.72065 -6.44636 -11
    endloop
  endfacet
  facet normal 0 0 -1
    outer loop
      vertex -4.375 -6.475 -11
      vertex -6.475 -4.375 -11
      vertex -4.375 6.475 -11
    endloop
  endfacet
  facet normal 0 0 -1
    outer loop
      vertex -6.475 -4.375 -11
      vertex -4.72065 -6.44636 -11
      vertex -5.05687 -6.36121 -11
    endloop
  endfacet
  facet normal 0 0 -1
    outer loop
      vertex -4.375 6.475 -11
      vertex -6.475 -4.375 -11
      vertex -6.475 4.375 -11
    endloop
  endfacet
  facet normal 0 0 -1
    outer loop
      vertex -6.475 -4.375 -11
      vertex -5.05687 -6.36121 -11
      vertex -5.37449 -6.2219 -11
    endloop
  endfacet
  facet normal 0 0 -1
    outer loop
      vertex -4.375 6.475 -11
      vertex -6.475 4.375 -11
      vertex -4.89051 6.41074 -11
    endloop
  endfacet
  facet normal 0 0 -1
    outer loop
      vertex -6.475 -4.375 -11
      vertex -5.37449 -6.2219 -11
      vertex -5.66484 -6.03219 -11
    endloop
  endfacet
  facet normal 0 0 -1
    outer loop
      vertex -4.89051 6.41074 -11
      vertex -6.475 4.375 -11
      vertex -5.21856 6.29812 -11
    endloop
  endfacet
  facet normal 0 0 -1
    outer loop
      vertex -6.475 -4.375 -11
      vertex -5.66484 -6.03219 -11
      vertex -5.92002 -5.79729 -11
    endloop
  endfacet
  facet normal 0 0 -1
    outer loop
      vertex -5.21856 6.29812 -11
      vertex -6.475 4.375 -11
      vertex -5.52359 6.13305 -11
    endloop
  endfacet
  facet normal 0 0 -1
    outer loop
      vertex -6.475 -4.375 -11
      vertex -5.92002 -5.79729 -11
      vertex -6.13305 -5.52359 -11
    endloop
  endfacet
  facet normal 0 0 -1
    outer loop
      vertex -5.52359 6.13305 -11
      vertex -6.475 4.375 -11
      vertex -5.79729 5.92002 -11
    endloop
  endfacet
  facet normal 0 0 -1
    outer loop
      vertex -6.475 -4.375 -11
      vertex -6.13305 -5.52359 -11
      vertex -6.29812 -5.21856 -11
    endloop
  endfacet
  facet normal 0 0 -1
    outer loop
      vertex -5.79729 5.92002 -11
      vertex -6.475 4.375 -11
      vertex -6.03219 5.66484 -11
    endloop
  endfacet
  facet normal 0 0 -1
    outer loop
      vertex -6.475 -4.375 -11
      vertex -6.29812 -5.21856 -11
      vertex -6.41074 -4.89051 -11
    endloop
  endfacet
  facet normal 0 0 -1
    outer loop
      vertex -6.03219 5.66484 -11
      vertex -6.475 4.375 -11
      vertex -6.2219 5.37449 -11
    endloop
  endfacet
  facet normal 0 0 -1
    outer loop
      vertex -6.2219 5.37449 -11
      vertex -6.475 4.375 -11
      vertex -6.36121 5.05687 -11
    endloop
  endfacet
  facet normal 0 0 -1
    outer loop
      vertex -6.36121 5.05687 -11
      vertex -6.475 4.375 -11
      vertex -6.44636 4.72065 -11
    endloop
  endfacet
  facet normal -0.867898 0.380683 -0.319112
    outer loop
      vertex -6.36121 5.05687 -11
      vertex -9.08745 7.22411 -1
      vertex -8.88843 7.67784 -1
    endloop
  endfacet
  facet normal -0.923947 0.233995 -0.302602
    outer loop
      vertex -6.36121 5.05687 -11
      vertex -9.20909 6.74379 -1
      vertex -9.08745 7.22411 -1
    endloop
  endfacet
  facet normal -0.516384 -0.790349 -0.32969
    outer loop
      vertex -7.67784 -8.88843 -1
      vertex -8.09264 -8.61742 -1
      vertex -5.37449 -6.2219 -11
    endloop
  endfacet
  facet normal -0.0792529 -0.956628 -0.280324
    outer loop
      vertex -4.375 -6.475 -11
      vertex -6.25 -9.25 -1
      vertex -4.72065 -6.44636 -11
    endloop
  endfacet
  facet normal -0.579223 0.744176 -0.33272
    outer loop
      vertex -5.79729 5.92002 -11
      vertex -7.89084 8.76151 -1
      vertex -5.52359 6.13305 -11
    endloop
  endfacet
  facet normal -0.579223 0.744176 -0.33272
    outer loop
      vertex -7.89084 8.76151 -1
      vertex -5.79729 5.92002 -11
      vertex -8.28185 8.45717 -1
    endloop
  endfacet
  facet normal 0.867898 -0.380683 -0.319112
    outer loop
      vertex 8.88843 -7.67784 -1
      vertex 6.36121 -5.05687 -11
      vertex 9.08745 -7.22411 -1
    endloop
  endfacet
  facet normal 0.45008 -0.831688 -0.325151
    outer loop
      vertex 7.89084 -8.76151 -1
      vertex 5.21856 -6.29812 -11
      vertex 5.52359 -6.13305 -11
    endloop
  endfacet
  facet normal 0.450079 -0.831689 -0.32515
    outer loop
      vertex 7.45509 -8.99731 -1
      vertex 5.21856 -6.29812 -11
      vertex 7.89084 -8.76151 -1
    endloop
  endfacet
  facet normal -0.956628 0.0792529 -0.280324
    outer loop
      vertex -6.475 4.375 -11
      vertex -9.25 6.25 -1
      vertex -6.44636 4.72065 -11
    endloop
  endfacet
  facet normal -0.867898 0.380683 -0.319112
    outer loop
      vertex -6.36121 5.05687 -11
      vertex -8.88843 7.67784 -1
      vertex -6.2219 5.37449 -11
    endloop
  endfacet
  facet normal -0.790349 0.516384 -0.32969
    outer loop
      vertex -6.2219 5.37449 -11
      vertex -8.88843 7.67784 -1
      vertex -8.61742 8.09264 -1
    endloop
  endfacet
  facet normal -0.516385 -0.790349 -0.32969
    outer loop
      vertex -5.37449 -6.2219 -11
      vertex -8.09264 -8.61742 -1
      vertex -5.66484 -6.03219 -11
    endloop
  endfacet
  facet normal -0.638326 -0.693416 -0.334236
    outer loop
      vertex -8.09264 -8.61742 -1
      vertex -8.45717 -8.28185 -1
      vertex -5.66484 -6.03219 -11
    endloop
  endfacet
  facet normal -0.233995 -0.923947 -0.302602
    outer loop
      vertex -6.74379 -9.20909 -1
      vertex -7.22411 -9.08745 -1
      vertex -5.05687 -6.36121 -11
    endloop
  endfacet
  facet normal -0.380683 -0.867898 -0.319112
    outer loop
      vertex -7.22411 -9.08745 -1
      vertex -7.67784 -8.88843 -1
      vertex -5.05687 -6.36121 -11
    endloop
  endfacet
  facet normal 0.898729 0.30854 -0.31159
    outer loop
      vertex 9.1582 6.98645 -1
      vertex 6.41074 4.89051 -11
      vertex 8.99731 7.45509 -1
    endloop
  endfacet
  facet normal 0.950847 0.118521 -0.286083
    outer loop
      vertex 9.25 6.25 -1
      vertex 6.41074 4.89051 -11
      vertex 9.1582 6.98645 -1
    endloop
  endfacet
  facet normal 0.516385 0.790349 -0.32969
    outer loop
      vertex 5.66484 6.03219 -11
      vertex 5.37449 6.2219 -11
      vertex 8.09264 8.61742 -1
    endloop
  endfacet
  facet normal 0.516384 0.790349 -0.32969
    outer loop
      vertex 8.09264 8.61742 -1
      vertex 5.37449 6.2219 -11
      vertex 7.67784 8.88843 -1
    endloop
  endfacet
  facet normal 0.956628 -0.0792534 -0.280324
    outer loop
      vertex 9.20909 -6.74379 -1
      vertex 6.44636 -4.72065 -11
      vertex 9.25 -6.25 -1
    endloop
  endfacet
  facet normal 0.923947 -0.233995 -0.302602
    outer loop
      vertex 9.20909 -6.74379 -1
      vertex 6.36121 -5.05687 -11
      vertex 6.44636 -4.72065 -11
    endloop
  endfacet
  facet normal 0.867898 -0.380683 -0.319112
    outer loop
      vertex 8.88843 -7.67784 -1
      vertex 6.2219 -5.37449 -11
      vertex 6.36121 -5.05687 -11
    endloop
  endfacet
  facet normal -0.831688 -0.45008 -0.325151
    outer loop
      vertex -6.13305 -5.52359 -11
      vertex -8.76151 -7.89084 -1
      vertex -6.29812 -5.21856 -11
    endloop
  endfacet
  facet normal -0.831689 -0.450079 -0.32515
    outer loop
      vertex -8.76151 -7.89084 -1
      vertex -8.99731 -7.45509 -1
      vertex -6.29812 -5.21856 -11
    endloop
  endfacet
  facet normal -0.923947 0.233995 -0.302602
    outer loop
      vertex -6.44636 4.72065 -11
      vertex -9.20909 6.74379 -1
      vertex -6.36121 5.05687 -11
    endloop
  endfacet
  facet normal -0.956628 0.0792534 -0.280324
    outer loop
      vertex -6.44636 4.72065 -11
      vertex -9.25 6.25 -1
      vertex -9.20909 6.74379 -1
    endloop
  endfacet
  facet normal -0.693415 0.638327 -0.334236
    outer loop
      vertex -6.03219 5.66484 -11
      vertex -8.28185 8.45717 -1
      vertex -5.79729 5.92002 -11
    endloop
  endfacet
  facet normal 0.831689 0.450079 -0.32515
    outer loop
      vertex 8.99731 7.45509 -1
      vertex 6.29812 5.21856 -11
      vertex 8.76151 7.89084 -1
    endloop
  endfacet
  facet normal 0.898729 0.308541 -0.31159
    outer loop
      vertex 6.41074 4.89051 -11
      vertex 6.29812 5.21856 -11
      vertex 8.99731 7.45509 -1
    endloop
  endfacet
  facet normal 0.380683 0.867898 -0.319112
    outer loop
      vertex 5.37449 6.2219 -11
      vertex 5.05687 6.36121 -11
      vertex 7.67784 8.88843 -1
    endloop
  endfacet
  facet normal 0.380683 0.867898 -0.319112
    outer loop
      vertex 7.67784 8.88843 -1
      vertex 5.05687 6.36121 -11
      vertex 7.22411 9.08745 -1
    endloop
  endfacet
  facet normal 0.638326 0.693416 -0.334236
    outer loop
      vertex 8.45717 8.28185 -1
      vertex 5.66484 6.03219 -11
      vertex 8.09264 8.61742 -1
    endloop
  endfacet
  facet normal 0.956628 -0.0792529 -0.280324
    outer loop
      vertex 9.25 -6.25 -1
      vertex 6.44636 -4.72065 -11
      vertex 6.475 -4.375 -11
    endloop
  endfacet
  facet normal 0.790349 -0.516384 -0.32969
    outer loop
      vertex 8.61742 -8.09264 -1
      vertex 6.2219 -5.37449 -11
      vertex 8.88843 -7.67784 -1
    endloop
  endfacet
  facet normal 0.790349 -0.516385 -0.32969
    outer loop
      vertex 8.61742 -8.09264 -1
      vertex 6.03219 -5.66484 -11
      vertex 6.2219 -5.37449 -11
    endloop
  endfacet
  facet normal -0.790349 0.516385 -0.32969
    outer loop
      vertex -6.2219 5.37449 -11
      vertex -8.61742 8.09264 -1
      vertex -6.03219 5.66484 -11
    endloop
  endfacet
  facet normal -0.693416 0.638326 -0.334236
    outer loop
      vertex -6.03219 5.66484 -11
      vertex -8.61742 8.09264 -1
      vertex -8.28185 8.45717 -1
    endloop
  endfacet
  facet normal 0.831688 0.45008 -0.325151
    outer loop
      vertex 6.29812 5.21856 -11
      vertex 6.13305 5.52359 -11
      vertex 8.76151 7.89084 -1
    endloop
  endfacet
  facet normal 0.638327 0.693415 -0.334236
    outer loop
      vertex 5.92002 5.79729 -11
      vertex 5.66484 6.03219 -11
      vertex 8.45717 8.28185 -1
    endloop
  endfacet
  facet normal 0.744176 0.579223 -0.33272
    outer loop
      vertex 8.76151 7.89084 -1
      vertex 5.92002 5.79729 -11
      vertex 8.45717 8.28185 -1
    endloop
  endfacet
  facet normal 0.744176 0.579223 -0.33272
    outer loop
      vertex 5.92002 5.79729 -11
      vertex 8.76151 7.89084 -1
      vertex 6.13305 5.52359 -11
    endloop
  endfacet
endsolid OpenSCAD_Model
