solid OpenSCAD_Model
  facet normal 0.954721 0.297502 0
    outer loop
      vertex 6.75 5.75 5
      vertex 6.57298 6.31807 -7.7374e-16
      vertex 6.57298 6.31807 5
    endloop
  endfacet
  facet normal 0.954721 0.297502 0
    outer loop
      vertex 6.57298 6.31807 -7.7374e-16
      vertex 6.75 5.75 5
      vertex 6.75 5.75 -7.04172e-16
    endloop
  endfacet
  facet normal 0.239324 0.97094 -0
    outer loop
      vertex 6.21472 6.63545 -8.12609e-16
      vertex 5.75 6.75 5
      vertex 6.21472 6.63545 5
    endloop
  endfacet
  facet normal 0.239324 0.97094 0
    outer loop
      vertex 5.75 6.75 5
      vertex 6.21472 6.63545 -8.12609e-16
      vertex 5.75 6.75 -8.26637e-16
    endloop
  endfacet
  facet normal -0.663112 -0.74852 0
    outer loop
      vertex -6.57298 -6.31807 5
      vertex -6.21472 -6.63545 8.12609e-16
      vertex -6.21472 -6.63545 5
    endloop
  endfacet
  facet normal -0.663112 -0.74852 0
    outer loop
      vertex -6.21472 -6.63545 8.12609e-16
      vertex -6.57298 -6.31807 5
      vertex -6.57298 -6.31807 7.7374e-16
    endloop
  endfacet
  facet normal 0.663112 0.74852 -0
    outer loop
      vertex 6.57298 6.31807 -7.7374e-16
      vertex 6.21472 6.63545 5
      vertex 6.57298 6.31807 5
    endloop
  endfacet
  facet normal 0.663112 0.74852 0
    outer loop
      vertex 6.21472 6.63545 5
      vertex 6.57298 6.31807 -7.7374e-16
      vertex 6.21472 6.63545 -8.12609e-16
    endloop
  endfacet
  facet normal -0 0 1
    outer loop
      vertex 2 6.12323e-16 5
      vertex 6.75 -5.75 5
      vertex 6.75 5.75 5
    endloop
  endfacet
  facet normal 0 0 1
    outer loop
      vertex 5.75 6.75 5
      vertex 6.75 5.75 5
      vertex 6.57298 6.31807 5
    endloop
  endfacet
  facet normal -0 0 1
    outer loop
      vertex 1.94188 -0.478631 5
      vertex 6.75 -5.75 5
      vertex 2 6.12323e-16 5
    endloop
  endfacet
  facet normal 0 0 1
    outer loop
      vertex 5.75 6.75 5
      vertex 6.57298 6.31807 5
      vertex 6.21472 6.63545 5
    endloop
  endfacet
  facet normal 0 0 1
    outer loop
      vertex 6.75 5.75 5
      vertex 5.75 6.75 5
      vertex 1.49702 1.32625 5
    endloop
  endfacet
  facet normal -0 0 1
    outer loop
      vertex 1.77091 -0.929446 5
      vertex 6.75 -5.75 5
      vertex 1.94188 -0.478631 5
    endloop
  endfacet
  facet normal -0 0 1
    outer loop
      vertex 1.49702 -1.32625 5
      vertex 6.75 -5.75 5
      vertex 1.77091 -0.929446 5
    endloop
  endfacet
  facet normal 0 0 1
    outer loop
      vertex 6.75 5.75 5
      vertex 1.94188 0.478631 5
      vertex 2 6.12323e-16 5
    endloop
  endfacet
  facet normal 0 0 1
    outer loop
      vertex 6.75 5.75 5
      vertex 1.77091 0.929446 5
      vertex 1.94188 0.478631 5
    endloop
  endfacet
  facet normal 0 0 1
    outer loop
      vertex 6.75 5.75 5
      vertex 1.49702 1.32625 5
      vertex 1.77091 0.929446 5
    endloop
  endfacet
  facet normal 0 0 1
    outer loop
      vertex 5.75 6.75 5
      vertex 1.13613 1.64597 5
      vertex 1.49702 1.32625 5
    endloop
  endfacet
  facet normal 0 0 1
    outer loop
      vertex 5.75 6.75 5
      vertex 0.709209 1.87003 5
      vertex 1.13613 1.64597 5
    endloop
  endfacet
  facet normal 0 0 1
    outer loop
      vertex 5.75 6.75 5
      vertex 0.241073 1.98542 5
      vertex 0.709209 1.87003 5
    endloop
  endfacet
  facet normal 0 0 1
    outer loop
      vertex 5.75 6.75 5
      vertex -0.241073 1.98542 5
      vertex 0.241073 1.98542 5
    endloop
  endfacet
  facet normal -0 0 1
    outer loop
      vertex -5.75 6.75 5
      vertex -0.241073 1.98542 5
      vertex 5.75 6.75 5
    endloop
  endfacet
  facet normal 0 0 1
    outer loop
      vertex -0.241073 1.98542 5
      vertex -5.75 6.75 5
      vertex -0.709209 1.87003 5
    endloop
  endfacet
  facet normal 0 0 1
    outer loop
      vertex -1.77091 0.929446 5
      vertex -6.75 5.75 5
      vertex -1.94188 0.478631 5
    endloop
  endfacet
  facet normal 0 0 1
    outer loop
      vertex -1.49702 1.32625 5
      vertex -6.75 5.75 5
      vertex -1.77091 0.929446 5
    endloop
  endfacet
  facet normal -0 0 1
    outer loop
      vertex -6.75 5.75 5
      vertex -1.49702 1.32625 5
      vertex -5.75 6.75 5
    endloop
  endfacet
  facet normal 0 0 1
    outer loop
      vertex -1.13613 1.64597 5
      vertex -5.75 6.75 5
      vertex -1.49702 1.32625 5
    endloop
  endfacet
  facet normal 0 0 1
    outer loop
      vertex -0.709209 1.87003 5
      vertex -5.75 6.75 5
      vertex -1.13613 1.64597 5
    endloop
  endfacet
  facet normal 0 -0 1
    outer loop
      vertex 5.75 -6.75 5
      vertex 6.75 -5.75 5
      vertex 1.49702 -1.32625 5
    endloop
  endfacet
  facet normal 0 0 1
    outer loop
      vertex 6.63545 -6.21472 5
      vertex 5.75 -6.75 5
      vertex 6.31807 -6.57298 5
    endloop
  endfacet
  facet normal 0 0 1
    outer loop
      vertex 6.75 -5.75 5
      vertex 5.75 -6.75 5
      vertex 6.63545 -6.21472 5
    endloop
  endfacet
  facet normal -0 0 1
    outer loop
      vertex 1.13613 -1.64597 5
      vertex 5.75 -6.75 5
      vertex 1.49702 -1.32625 5
    endloop
  endfacet
  facet normal -0 0 1
    outer loop
      vertex 0.709209 -1.87003 5
      vertex 5.75 -6.75 5
      vertex 1.13613 -1.64597 5
    endloop
  endfacet
  facet normal -0 0 1
    outer loop
      vertex 0.241073 -1.98542 5
      vertex 5.75 -6.75 5
      vertex 0.709209 -1.87003 5
    endloop
  endfacet
  facet normal -0 0 1
    outer loop
      vertex -0.241073 -1.98542 5
      vertex 5.75 -6.75 5
      vertex 0.241073 -1.98542 5
    endloop
  endfacet
  facet normal 0 0 1
    outer loop
      vertex -5.75 -6.75 5
      vertex -0.241073 -1.98542 5
      vertex -0.709209 -1.87003 5
    endloop
  endfacet
  facet normal 0 0 1
    outer loop
      vertex -5.75 -6.75 5
      vertex -0.709209 -1.87003 5
      vertex -1.13613 -1.64597 5
    endloop
  endfacet
  facet normal 0 0 1
    outer loop
      vertex -1.94188 0.478631 5
      vertex -6.75 5.75 5
      vertex -2 6.12323e-16 5
    endloop
  endfacet
  facet normal 0 0 1
    outer loop
      vertex -6.75 -5.75 5
      vertex -2 6.12323e-16 5
      vertex -6.75 5.75 5
    endloop
  endfacet
  facet normal 0 0 1
    outer loop
      vertex -0.241073 -1.98542 5
      vertex -5.75 -6.75 5
      vertex 5.75 -6.75 5
    endloop
  endfacet
  facet normal 0 0 1
    outer loop
      vertex -1.49702 -1.32625 5
      vertex -5.75 -6.75 5
      vertex -1.13613 -1.64597 5
    endloop
  endfacet
  facet normal 0 0 1
    outer loop
      vertex -6.75 -5.75 5
      vertex -1.49702 -1.32625 5
      vertex -1.77091 -0.929446 5
    endloop
  endfacet
  facet normal 0 0 1
    outer loop
      vertex -2 6.12323e-16 5
      vertex -6.75 -5.75 5
      vertex -1.94188 -0.478631 5
    endloop
  endfacet
  facet normal 0 0 1
    outer loop
      vertex -1.49702 -1.32625 5
      vertex -6.75 -5.75 5
      vertex -5.75 -6.75 5
    endloop
  endfacet
  facet normal 0 0 1
    outer loop
      vertex -6.75 5.75 5
      vertex -5.75 6.75 5
      vertex -6.31807 6.57298 5
    endloop
  endfacet
  facet normal 0 0 1
    outer loop
      vertex -1.94188 -0.478631 5
      vertex -6.75 -5.75 5
      vertex -1.77091 -0.929446 5
    endloop
  endfacet
  facet normal 0 0 1
    outer loop
      vertex -6.75 5.75 5
      vertex -6.31807 6.57298 5
      vertex -6.63545 6.21472 5
    endloop
  endfacet
  facet normal 0 0 1
    outer loop
      vertex -5.75 -6.75 5
      vertex -6.75 -5.75 5
      vertex -6.21472 -6.63545 5
    endloop
  endfacet
  facet normal 0 0 1
    outer loop
      vertex -6.21472 -6.63545 5
      vertex -6.75 -5.75 5
      vertex -6.57298 -6.31807 5
    endloop
  endfacet
  facet normal 0.74852 -0.663112 0
    outer loop
      vertex 6.31807 -6.57298 5
      vertex 6.63545 -6.21472 7.61084e-16
      vertex 6.63545 -6.21472 5
    endloop
  endfacet
  facet normal 0.74852 -0.663112 0
    outer loop
      vertex 6.63545 -6.21472 7.61084e-16
      vertex 6.31807 -6.57298 5
      vertex 6.31807 -6.57298 8.04958e-16
    endloop
  endfacet
  facet normal -0.74852 0.663112 0
    outer loop
      vertex -6.63545 6.21472 -7.61084e-16
      vertex -6.31807 6.57298 5
      vertex -6.31807 6.57298 -8.04958e-16
    endloop
  endfacet
  facet normal -0.74852 0.663112 0
    outer loop
      vertex -6.31807 6.57298 5
      vertex -6.63545 6.21472 -7.61084e-16
      vertex -6.63545 6.21472 5
    endloop
  endfacet
  facet normal -0.297502 0.954721 0
    outer loop
      vertex -5.75 6.75 5
      vertex -6.31807 6.57298 -8.04958e-16
      vertex -6.31807 6.57298 5
    endloop
  endfacet
  facet normal -0.297502 0.954721 0
    outer loop
      vertex -6.31807 6.57298 -8.04958e-16
      vertex -5.75 6.75 5
      vertex -5.75 6.75 -8.26637e-16
    endloop
  endfacet
  facet normal 1 -0 0
    outer loop
      vertex 6.75 -5.75 5
      vertex 6.75 5.75 -7.04172e-16
      vertex 6.75 5.75 5
    endloop
  endfacet
  facet normal 1 0 0
    outer loop
      vertex 6.75 5.75 -7.04172e-16
      vertex 6.75 -5.75 5
      vertex 6.75 -5.75 7.04172e-16
    endloop
  endfacet
  facet normal -1 0 0
    outer loop
      vertex -6.75 -5.75 7.04172e-16
      vertex -6.75 5.75 5
      vertex -6.75 5.75 -7.04172e-16
    endloop
  endfacet
  facet normal -1 -0 0
    outer loop
      vertex -6.75 5.75 5
      vertex -6.75 -5.75 7.04172e-16
      vertex -6.75 -5.75 5
    endloop
  endfacet
  facet normal -0.954721 -0.297502 0
    outer loop
      vertex -6.57298 -6.31807 7.7374e-16
      vertex -6.75 -5.75 5
      vertex -6.75 -5.75 7.04172e-16
    endloop
  endfacet
  facet normal -0.954721 -0.297502 0
    outer loop
      vertex -6.75 -5.75 5
      vertex -6.57298 -6.31807 7.7374e-16
      vertex -6.57298 -6.31807 5
    endloop
  endfacet
  facet normal -0.97094 0.239324 0
    outer loop
      vertex -6.75 5.75 -7.04172e-16
      vertex -6.63545 6.21472 5
      vertex -6.63545 6.21472 -7.61084e-16
    endloop
  endfacet
  facet normal -0.97094 0.239324 0
    outer loop
      vertex -6.63545 6.21472 5
      vertex -6.75 5.75 -7.04172e-16
      vertex -6.75 5.75 5
    endloop
  endfacet
  facet normal 0 1 -0
    outer loop
      vertex 5.75 6.75 -8.26637e-16
      vertex -5.75 6.75 5
      vertex 5.75 6.75 5
    endloop
  endfacet
  facet normal 0 1 0
    outer loop
      vertex -5.75 6.75 5
      vertex 5.75 6.75 -8.26637e-16
      vertex -5.75 6.75 -8.26637e-16
    endloop
  endfacet
  facet normal 0 -1 0
    outer loop
      vertex -5.75 -6.75 8.26637e-16
      vertex 5.75 -6.75 5
      vertex -5.75 -6.75 5
    endloop
  endfacet
  facet normal 0 -1 -0
    outer loop
      vertex 5.75 -6.75 5
      vertex -5.75 -6.75 8.26637e-16
      vertex 5.75 -6.75 8.26637e-16
    endloop
  endfacet
  facet normal 0.297502 -0.954721 0
    outer loop
      vertex 5.75 -6.75 8.26637e-16
      vertex 6.31807 -6.57298 5
      vertex 5.75 -6.75 5
    endloop
  endfacet
  facet normal 0.297502 -0.954721 0
    outer loop
      vertex 6.31807 -6.57298 5
      vertex 5.75 -6.75 8.26637e-16
      vertex 6.31807 -6.57298 8.04958e-16
    endloop
  endfacet
  facet normal -0.239324 -0.97094 0
    outer loop
      vertex -6.21472 -6.63545 5
      vertex -5.75 -6.75 8.26637e-16
      vertex -5.75 -6.75 5
    endloop
  endfacet
  facet normal -0.239324 -0.97094 0
    outer loop
      vertex -5.75 -6.75 8.26637e-16
      vertex -6.21472 -6.63545 5
      vertex -6.21472 -6.63545 8.12609e-16
    endloop
  endfacet
  facet normal 0.97094 -0.239324 0
    outer loop
      vertex 6.63545 -6.21472 5
      vertex 6.75 -5.75 7.04172e-16
      vertex 6.75 -5.75 5
    endloop
  endfacet
  facet normal 0.97094 -0.239324 0
    outer loop
      vertex 6.75 -5.75 7.04172e-16
      vertex 6.63545 -6.21472 5
      vertex 6.63545 -6.21472 7.61084e-16
    endloop
  endfacet
  facet normal 0.910439 0.283705 -0.30102
    outer loop
      vertex 6.47049 5.76133 -5
      vertex 6.35248 6.14005 -5
      vertex 7.62297 7.36806 -9.02327e-16
    endloop
  endfacet
  facet normal -0.283705 0.910439 -0.30102
    outer loop
      vertex -6.14005 6.35248 -5
      vertex -7.36806 7.62297 -9.33545e-16
      vertex -5.76133 6.47049 -5
    endloop
  endfacet
  facet normal 0.910439 0.283704 -0.30102
    outer loop
      vertex 7.79999 6.79999 -8.32758e-16
      vertex 6.47049 5.76133 -5
      vertex 7.62297 7.36806 -9.02327e-16
    endloop
  endfacet
  facet normal 0.910439 0.283705 -0.30102
    outer loop
      vertex 6.47049 5.76133 -5
      vertex 7.79999 6.79999 -8.32758e-16
      vertex 6.49999 5.66666 -5
    endloop
  endfacet
  facet normal 0.625428 0.705981 -0.332311
    outer loop
      vertex 6.11363 6.35164 -5
      vertex 7.26471 7.68544 -9.41195e-16
      vertex 7.62297 7.36806 -9.02327e-16
    endloop
  endfacet
  facet normal 0.625427 0.705982 -0.332311
    outer loop
      vertex 7.26471 7.68544 -9.41195e-16
      vertex 6.11363 6.35164 -5
      vertex 6.05392 6.40453 -5
    endloop
  endfacet
  facet normal 0.625428 0.705981 -0.332311
    outer loop
      vertex 6.35248 6.14005 -5
      vertex 6.11363 6.35164 -5
      vertex 7.62297 7.36806 -9.02327e-16
    endloop
  endfacet
  facet normal -0.625428 -0.705981 -0.332311
    outer loop
      vertex -6.11363 -6.35164 -5
      vertex -7.26471 -7.68544 9.41195e-16
      vertex -7.62297 -7.36806 9.02327e-16
    endloop
  endfacet
  facet normal -0.625427 -0.705982 -0.332311
    outer loop
      vertex -7.26471 -7.68544 9.41195e-16
      vertex -6.11363 -6.35164 -5
      vertex -6.05392 -6.40453 -5
    endloop
  endfacet
  facet normal -0.910439 -0.283705 -0.30102
    outer loop
      vertex -6.47049 -5.76133 -5
      vertex -7.79999 -6.79999 8.32758e-16
      vertex -6.49999 -5.66666 -5
    endloop
  endfacet
  facet normal -0.910439 -0.283704 -0.30102
    outer loop
      vertex -7.79999 -6.79999 8.32758e-16
      vertex -6.47049 -5.76133 -5
      vertex -7.62297 -7.36806 9.02327e-16
    endloop
  endfacet
  facet normal 0.283705 -0.910439 -0.30102
    outer loop
      vertex 7.36806 -7.62297 9.33545e-16
      vertex 5.76133 -6.47049 -5
      vertex 6.14005 -6.35248 -5
    endloop
  endfacet
  facet normal 0.967823 0 -0.251633
    outer loop
      vertex 7.79999 6.79999 -8.32758e-16
      vertex 6.49999 -5.66666 -5
      vertex 6.49999 5.66666 -5
    endloop
  endfacet
  facet normal 0.967823 -2.52824e-17 -0.251633
    outer loop
      vertex 6.49999 -5.66666 -5
      vertex 7.79999 6.79999 -8.32758e-16
      vertex 7.79999 -6.79999 8.32758e-16
    endloop
  endfacet
  facet normal -1.16482e-23 1.22465e-16 1
    outer loop
      vertex 6.75 -5.75 7.04172e-16
      vertex 7.79999 -6.79999 8.32758e-16
      vertex 7.79999 6.79999 -8.32758e-16
    endloop
  endfacet
  facet normal 2.39468e-23 1.22465e-16 1
    outer loop
      vertex 6.57298 6.31807 -7.7374e-16
      vertex 7.79999 6.79999 -8.32758e-16
      vertex 7.62297 7.36806 -9.02327e-16
    endloop
  endfacet
  facet normal 1.37753e-23 1.22465e-16 1
    outer loop
      vertex 6.75 -5.75 7.04172e-16
      vertex 7.79999 6.79999 -8.32758e-16
      vertex 6.75 5.75 -7.04172e-16
    endloop
  endfacet
  facet normal -7.74296e-23 1.22465e-16 1
    outer loop
      vertex 6.57298 6.31807 -7.7374e-16
      vertex 7.62297 7.36806 -9.02327e-16
      vertex 7.26471 7.68544 -9.41195e-16
    endloop
  endfacet
  facet normal 3.80093e-23 1.22465e-16 1
    outer loop
      vertex 6.21472 6.63545 -8.12609e-16
      vertex 7.26471 7.68544 -9.41195e-16
      vertex 6.79999 7.79999 -9.55223e-16
    endloop
  endfacet
  facet normal -2.0692e-23 1.22465e-16 1
    outer loop
      vertex 6.63545 -6.21472 7.61084e-16
      vertex 7.79999 -6.79999 8.32758e-16
      vertex 6.75 -5.75 7.04172e-16
    endloop
  endfacet
  facet normal 3.02491e-23 1.22465e-16 1
    outer loop
      vertex 7.79999 -6.79999 8.32758e-16
      vertex 6.63545 -6.21472 7.61084e-16
      vertex 7.68544 -7.26471 8.8967e-16
    endloop
  endfacet
  facet normal -8.66409e-24 1.22465e-16 1
    outer loop
      vertex 7.79999 6.79999 -8.32758e-16
      vertex 6.57298 6.31807 -7.7374e-16
      vertex 6.75 5.75 -7.04172e-16
    endloop
  endfacet
  facet normal 2.4609e-23 1.22465e-16 1
    outer loop
      vertex 7.26471 7.68544 -9.41195e-16
      vertex 6.21472 6.63545 -8.12609e-16
      vertex 6.57298 6.31807 -7.7374e-16
    endloop
  endfacet
  facet normal -6.33511e-23 1.22465e-16 1
    outer loop
      vertex 6.79999 7.79999 -9.55223e-16
      vertex 5.75 6.75 -8.26637e-16
      vertex 6.21472 6.63545 -8.12609e-16
    endloop
  endfacet
  facet normal 0 1.22465e-16 1
    outer loop
      vertex 6.79999 7.79999 -9.55223e-16
      vertex -5.75 6.75 -8.26637e-16
      vertex 5.75 6.75 -8.26637e-16
    endloop
  endfacet
  facet normal -2.0692e-23 1.22465e-16 1
    outer loop
      vertex -6.63545 6.21472 -7.61084e-16
      vertex -7.79999 6.79999 -8.32758e-16
      vertex -6.75 5.75 -7.04172e-16
    endloop
  endfacet
  facet normal 4.50143e-24 1.22465e-16 1
    outer loop
      vertex -6.31807 6.57298 -8.04958e-16
      vertex -7.79999 6.79999 -8.32758e-16
      vertex -6.63545 6.21472 -7.61084e-16
    endloop
  endfacet
  facet normal -4.28259e-24 1.22465e-16 1
    outer loop
      vertex -7.79999 6.79999 -8.32758e-16
      vertex -6.31807 6.57298 -8.04958e-16
      vertex -6.79999 7.79999 -9.55223e-16
    endloop
  endfacet
  facet normal 3.98439e-23 1.22465e-16 1
    outer loop
      vertex -5.75 6.75 -8.26637e-16
      vertex -6.79999 7.79999 -9.55223e-16
      vertex -6.31807 6.57298 -8.04958e-16
    endloop
  endfacet
  facet normal -0 1.22465e-16 1
    outer loop
      vertex -6.79999 7.79999 -9.55223e-16
      vertex -5.75 6.75 -8.26637e-16
      vertex 6.79999 7.79999 -9.55223e-16
    endloop
  endfacet
  facet normal -9.01144e-24 1.22465e-16 1
    outer loop
      vertex 6.31807 -6.57298 8.04958e-16
      vertex 7.68544 -7.26471 8.8967e-16
      vertex 6.63545 -6.21472 7.61084e-16
    endloop
  endfacet
  facet normal -6.06308e-23 1.22465e-16 1
    outer loop
      vertex 7.68544 -7.26471 8.8967e-16
      vertex 6.31807 -6.57298 8.04958e-16
      vertex 7.36806 -7.62297 9.33545e-16
    endloop
  endfacet
  facet normal -4.31862e-23 1.22465e-16 1
    outer loop
      vertex 7.36806 -7.62297 9.33545e-16
      vertex 6.31807 -6.57298 8.04958e-16
      vertex 6.79999 -7.79999 9.55223e-16
    endloop
  endfacet
  facet normal 3.98439e-23 1.22465e-16 1
    outer loop
      vertex 5.75 -6.75 8.26637e-16
      vertex 6.79999 -7.79999 9.55223e-16
      vertex 6.31807 -6.57298 8.04958e-16
    endloop
  endfacet
  facet normal -0 1.22465e-16 1
    outer loop
      vertex -5.75 -6.75 8.26637e-16
      vertex 6.79999 -7.79999 9.55223e-16
      vertex 5.75 -6.75 8.26637e-16
    endloop
  endfacet
  facet normal 0 1.22465e-16 1
    outer loop
      vertex -5.75 -6.75 8.26637e-16
      vertex -6.79999 -7.79999 9.55223e-16
      vertex 6.79999 -7.79999 9.55223e-16
    endloop
  endfacet
  facet normal -6.33511e-23 1.22465e-16 1
    outer loop
      vertex -6.21472 -6.63545 8.12609e-16
      vertex -6.79999 -7.79999 9.55223e-16
      vertex -5.75 -6.75 8.26637e-16
    endloop
  endfacet
  facet normal 2.4609e-23 1.22465e-16 1
    outer loop
      vertex -7.26471 -7.68544 9.41195e-16
      vertex -6.21472 -6.63545 8.12609e-16
      vertex -6.57298 -6.31807 7.7374e-16
    endloop
  endfacet
  facet normal -8.66409e-24 1.22465e-16 1
    outer loop
      vertex -7.79999 -6.79999 8.32758e-16
      vertex -6.57298 -6.31807 7.7374e-16
      vertex -6.75 -5.75 7.04172e-16
    endloop
  endfacet
  facet normal -1.37753e-23 1.22465e-16 1
    outer loop
      vertex -6.75 5.75 -7.04172e-16
      vertex -7.79999 6.79999 -8.32758e-16
      vertex -6.75 -5.75 7.04172e-16
    endloop
  endfacet
  facet normal 2.39468e-23 1.22465e-16 1
    outer loop
      vertex -7.62297 -7.36806 9.02327e-16
      vertex -6.57298 -6.31807 7.7374e-16
      vertex -7.79999 -6.79999 8.32758e-16
    endloop
  endfacet
  facet normal -6.77134e-23 1.22465e-16 1
    outer loop
      vertex -7.79999 6.79999 -8.32758e-16
      vertex -6.79999 7.79999 -9.55223e-16
      vertex -7.36806 7.62297 -9.33545e-16
    endloop
  endfacet
  facet normal 1.16482e-23 1.22465e-16 1
    outer loop
      vertex -6.75 -5.75 7.04172e-16
      vertex -7.79999 6.79999 -8.32758e-16
      vertex -7.79999 -6.79999 8.32758e-16
    endloop
  endfacet
  facet normal -3.16647e-22 1.22465e-16 1
    outer loop
      vertex -7.79999 6.79999 -8.32758e-16
      vertex -7.36806 7.62297 -9.33545e-16
      vertex -7.68544 7.26471 -8.8967e-16
    endloop
  endfacet
  facet normal 3.80093e-23 1.22465e-16 1
    outer loop
      vertex -6.21472 -6.63545 8.12609e-16
      vertex -7.26471 -7.68544 9.41195e-16
      vertex -6.79999 -7.79999 9.55223e-16
    endloop
  endfacet
  facet normal -7.74296e-23 1.22465e-16 1
    outer loop
      vertex -6.57298 -6.31807 7.7374e-16
      vertex -7.62297 -7.36806 9.02327e-16
      vertex -7.26471 -7.68544 9.41195e-16
    endloop
  endfacet
  facet normal -0.283705 0.910439 -0.30102
    outer loop
      vertex -5.76133 6.47049 -5
      vertex -6.79999 7.79999 -9.55223e-16
      vertex -5.66666 6.49999 -5
    endloop
  endfacet
  facet normal -0.283704 0.910439 -0.30102
    outer loop
      vertex -6.79999 7.79999 -9.55223e-16
      vertex -5.76133 6.47049 -5
      vertex -7.36806 7.62297 -9.33545e-16
    endloop
  endfacet
  facet normal 0.228805 0.928265 -0.293211
    outer loop
      vertex 5.74411 6.4809 -5
      vertex 6.79999 7.79999 -9.55223e-16
      vertex 7.26471 7.68544 -9.41195e-16
    endloop
  endfacet
  facet normal 0.228809 0.928264 -0.293211
    outer loop
      vertex 6.79999 7.79999 -9.55223e-16
      vertex 5.74411 6.4809 -5
      vertex 5.66666 6.49999 -5
    endloop
  endfacet
  facet normal 0.228806 0.928265 -0.293211
    outer loop
      vertex 6.05392 6.40453 -5
      vertex 5.74411 6.4809 -5
      vertex 7.26471 7.68544 -9.41195e-16
    endloop
  endfacet
  facet normal 0 -0.967823 -0.251633
    outer loop
      vertex -5.66666 -6.49999 -5
      vertex 6.79999 -7.79999 9.55223e-16
      vertex -6.79999 -7.79999 9.55223e-16
    endloop
  endfacet
  facet normal 0 -0.967823 -0.251633
    outer loop
      vertex 6.79999 -7.79999 9.55223e-16
      vertex -5.66666 -6.49999 -5
      vertex 5.66666 -6.49999 -5
    endloop
  endfacet
  facet normal 0.283705 -0.910439 -0.30102
    outer loop
      vertex 5.76133 -6.47049 -5
      vertex 6.79999 -7.79999 9.55223e-16
      vertex 5.66666 -6.49999 -5
    endloop
  endfacet
  facet normal 0.283704 -0.910439 -0.30102
    outer loop
      vertex 6.79999 -7.79999 9.55223e-16
      vertex 5.76133 -6.47049 -5
      vertex 7.36806 -7.62297 9.33545e-16
    endloop
  endfacet
  facet normal 0.928264 -0.228809 -0.293211
    outer loop
      vertex 7.79999 -6.79999 8.32758e-16
      vertex 6.4809 -5.74411 -5
      vertex 6.49999 -5.66666 -5
    endloop
  endfacet
  facet normal 0.928265 -0.228805 -0.293211
    outer loop
      vertex 6.4809 -5.74411 -5
      vertex 7.79999 -6.79999 8.32758e-16
      vertex 7.68544 -7.26471 8.8967e-16
    endloop
  endfacet
  facet normal -0.625428 -0.705981 -0.332311
    outer loop
      vertex -6.11363 -6.35164 -5
      vertex -7.62297 -7.36806 9.02327e-16
      vertex -6.35248 -6.14005 -5
    endloop
  endfacet
  facet normal -0.910439 -0.283705 -0.30102
    outer loop
      vertex -6.35248 -6.14005 -5
      vertex -7.62297 -7.36806 9.02327e-16
      vertex -6.47049 -5.76133 -5
    endloop
  endfacet
  facet normal -0.967823 0 -0.251633
    outer loop
      vertex -6.49999 -5.66666 -5
      vertex -7.79999 6.79999 -8.32758e-16
      vertex -6.49999 5.66666 -5
    endloop
  endfacet
  facet normal -0.967823 -3.08162e-17 -0.251633
    outer loop
      vertex -7.79999 6.79999 -8.32758e-16
      vertex -6.49999 -5.66666 -5
      vertex -7.79999 -6.79999 8.32758e-16
    endloop
  endfacet
  facet normal -0.928265 0.228806 -0.293211
    outer loop
      vertex -6.4809 5.74411 -5
      vertex -7.68544 7.26471 -8.8967e-16
      vertex -6.40453 6.05392 -5
    endloop
  endfacet
  facet normal -0.928265 0.228805 -0.293211
    outer loop
      vertex -6.4809 5.74411 -5
      vertex -7.79999 6.79999 -8.32758e-16
      vertex -7.68544 7.26471 -8.8967e-16
    endloop
  endfacet
  facet normal -0.928264 0.228809 -0.293211
    outer loop
      vertex -7.79999 6.79999 -8.32758e-16
      vertex -6.4809 5.74411 -5
      vertex -6.49999 5.66666 -5
    endloop
  endfacet
  facet normal 0 0.967823 -0.251633
    outer loop
      vertex 5.66666 6.49999 -5
      vertex -6.79999 7.79999 -9.55223e-16
      vertex 6.79999 7.79999 -9.55223e-16
    endloop
  endfacet
  facet normal 0 0.967823 -0.251633
    outer loop
      vertex -6.79999 7.79999 -9.55223e-16
      vertex 5.66666 6.49999 -5
      vertex -5.66666 6.49999 -5
    endloop
  endfacet
  facet normal -0.228806 -0.928265 -0.293211
    outer loop
      vertex -5.74411 -6.4809 -5
      vertex -7.26471 -7.68544 9.41195e-16
      vertex -6.05392 -6.40453 -5
    endloop
  endfacet
  facet normal 0.928265 -0.228806 -0.293211
    outer loop
      vertex 7.68544 -7.26471 8.8967e-16
      vertex 6.40453 -6.05392 -5
      vertex 6.4809 -5.74411 -5
    endloop
  endfacet
  facet normal -0.705981 0.625428 -0.332311
    outer loop
      vertex -6.35164 6.11363 -5
      vertex -7.68544 7.26471 -8.8967e-16
      vertex -7.36806 7.62297 -9.33545e-16
    endloop
  endfacet
  facet normal -0.705982 0.625427 -0.332311
    outer loop
      vertex -7.68544 7.26471 -8.8967e-16
      vertex -6.35164 6.11363 -5
      vertex -6.40453 6.05392 -5
    endloop
  endfacet
  facet normal -0.705981 0.625428 -0.332311
    outer loop
      vertex -6.35164 6.11363 -5
      vertex -7.36806 7.62297 -9.33545e-16
      vertex -6.14005 6.35248 -5
    endloop
  endfacet
  facet normal -0.228805 -0.928265 -0.293211
    outer loop
      vertex -5.74411 -6.4809 -5
      vertex -6.79999 -7.79999 9.55223e-16
      vertex -7.26471 -7.68544 9.41195e-16
    endloop
  endfacet
  facet normal -0.228809 -0.928264 -0.293211
    outer loop
      vertex -6.79999 -7.79999 9.55223e-16
      vertex -5.74411 -6.4809 -5
      vertex -5.66666 -6.49999 -5
    endloop
  endfacet
  facet normal 0.705982 -0.625427 -0.332311
    outer loop
      vertex 7.68544 -7.26471 8.8967e-16
      vertex 6.35164 -6.11363 -5
      vertex 6.40453 -6.05392 -5
    endloop
  endfacet
  facet normal 0.705981 -0.625428 -0.332311
    outer loop
      vertex 6.35164 -6.11363 -5
      vertex 7.68544 -7.26471 8.8967e-16
      vertex 7.36806 -7.62297 9.33545e-16
    endloop
  endfacet
  facet normal 0.705981 -0.625428 -0.332311
    outer loop
      vertex 7.36806 -7.62297 9.33545e-16
      vertex 6.14005 -6.35248 -5
      vertex 6.35164 -6.11363 -5
    endloop
  endfacet
  facet normal 0.992709 -0.120538 1.67903e-17
    outer loop
      vertex 1.94188 -0.478631 8
      vertex 2 6.12323e-16 5
      vertex 2 9.79717e-16 8
    endloop
  endfacet
  facet normal 0.992709 -0.120538 0
    outer loop
      vertex 2 6.12323e-16 5
      vertex 1.94188 -0.478631 8
      vertex 1.94188 -0.478631 5
    endloop
  endfacet
  facet normal -0.992709 -0.120538 1.67903e-17
    outer loop
      vertex -1.94188 -0.478631 5
      vertex -2 9.79717e-16 8
      vertex -2 6.12323e-16 5
    endloop
  endfacet
  facet normal -0.992709 -0.120538 0
    outer loop
      vertex -2 9.79717e-16 8
      vertex -1.94188 -0.478631 5
      vertex -1.94188 -0.478631 8
    endloop
  endfacet
  facet normal 0 -1 0
    outer loop
      vertex -0.241073 -1.98542 5
      vertex 0.241073 -1.98542 8
      vertex -0.241073 -1.98542 8
    endloop
  endfacet
  facet normal 0 -1 -0
    outer loop
      vertex 0.241073 -1.98542 8
      vertex -0.241073 -1.98542 5
      vertex 0.241073 -1.98542 5
    endloop
  endfacet
  facet normal 0 1 -0
    outer loop
      vertex 0.241073 1.98542 5
      vertex -0.241073 1.98542 8
      vertex 0.241073 1.98542 8
    endloop
  endfacet
  facet normal 0 1 0
    outer loop
      vertex -0.241073 1.98542 8
      vertex 0.241073 1.98542 5
      vertex -0.241073 1.98542 5
    endloop
  endfacet
  facet normal 0.239315 0.970942 -0
    outer loop
      vertex 0.709209 1.87003 5
      vertex 0.241073 1.98542 8
      vertex 0.709209 1.87003 8
    endloop
  endfacet
  facet normal 0.239315 0.970942 0
    outer loop
      vertex 0.241073 1.98542 8
      vertex 0.709209 1.87003 5
      vertex 0.241073 1.98542 5
    endloop
  endfacet
  facet normal 0.663123 -0.74851 0
    outer loop
      vertex 1.13613 -1.64597 5
      vertex 1.49702 -1.32625 8
      vertex 1.13613 -1.64597 8
    endloop
  endfacet
  facet normal 0.663123 -0.74851 0
    outer loop
      vertex 1.49702 -1.32625 8
      vertex 1.13613 -1.64597 5
      vertex 1.49702 -1.32625 5
    endloop
  endfacet
  facet normal 0.935016 -0.354605 0
    outer loop
      vertex 1.77091 -0.929446 8
      vertex 1.94188 -0.478631 5
      vertex 1.94188 -0.478631 8
    endloop
  endfacet
  facet normal 0.935016 -0.354605 0
    outer loop
      vertex 1.94188 -0.478631 5
      vertex 1.77091 -0.929446 8
      vertex 1.77091 -0.929446 5
    endloop
  endfacet
  facet normal 0.464723 -0.885456 0
    outer loop
      vertex 0.709209 -1.87003 5
      vertex 1.13613 -1.64597 8
      vertex 0.709209 -1.87003 8
    endloop
  endfacet
  facet normal 0.464723 -0.885456 0
    outer loop
      vertex 1.13613 -1.64597 8
      vertex 0.709209 -1.87003 5
      vertex 1.13613 -1.64597 5
    endloop
  endfacet
  facet normal -0.663123 -0.74851 0
    outer loop
      vertex -1.49702 -1.32625 5
      vertex -1.13613 -1.64597 8
      vertex -1.49702 -1.32625 8
    endloop
  endfacet
  facet normal -0.663123 -0.74851 -0
    outer loop
      vertex -1.13613 -1.64597 8
      vertex -1.49702 -1.32625 5
      vertex -1.13613 -1.64597 5
    endloop
  endfacet
  facet normal -0.822984 -0.568065 0
    outer loop
      vertex -1.49702 -1.32625 5
      vertex -1.77091 -0.929446 8
      vertex -1.77091 -0.929446 5
    endloop
  endfacet
  facet normal -0.822984 -0.568065 0
    outer loop
      vertex -1.77091 -0.929446 8
      vertex -1.49702 -1.32625 5
      vertex -1.49702 -1.32625 8
    endloop
  endfacet
  facet normal -0.239315 -0.970942 0
    outer loop
      vertex -0.709209 -1.87003 5
      vertex -0.241073 -1.98542 8
      vertex -0.709209 -1.87003 8
    endloop
  endfacet
  facet normal -0.239315 -0.970942 -0
    outer loop
      vertex -0.241073 -1.98542 8
      vertex -0.709209 -1.87003 5
      vertex -0.241073 -1.98542 5
    endloop
  endfacet
  facet normal 0.935016 0.354605 0
    outer loop
      vertex 1.94188 0.478631 8
      vertex 1.77091 0.929446 5
      vertex 1.77091 0.929446 8
    endloop
  endfacet
  facet normal 0.935016 0.354605 0
    outer loop
      vertex 1.77091 0.929446 5
      vertex 1.94188 0.478631 8
      vertex 1.94188 0.478631 5
    endloop
  endfacet
  facet normal 0.822984 -0.568065 0
    outer loop
      vertex 1.49702 -1.32625 8
      vertex 1.77091 -0.929446 5
      vertex 1.77091 -0.929446 8
    endloop
  endfacet
  facet normal 0.822984 -0.568065 0
    outer loop
      vertex 1.77091 -0.929446 5
      vertex 1.49702 -1.32625 8
      vertex 1.49702 -1.32625 5
    endloop
  endfacet
  facet normal 0.239315 -0.970942 0
    outer loop
      vertex 0.241073 -1.98542 5
      vertex 0.709209 -1.87003 8
      vertex 0.241073 -1.98542 8
    endloop
  endfacet
  facet normal 0.239315 -0.970942 0
    outer loop
      vertex 0.709209 -1.87003 8
      vertex 0.241073 -1.98542 5
      vertex 0.709209 -1.87003 5
    endloop
  endfacet
  facet normal -0.935016 -0.354605 0
    outer loop
      vertex -1.77091 -0.929446 5
      vertex -1.94188 -0.478631 8
      vertex -1.94188 -0.478631 5
    endloop
  endfacet
  facet normal -0.935016 -0.354605 0
    outer loop
      vertex -1.94188 -0.478631 8
      vertex -1.77091 -0.929446 5
      vertex -1.77091 -0.929446 8
    endloop
  endfacet
  facet normal -0.464723 -0.885456 0
    outer loop
      vertex -1.13613 -1.64597 5
      vertex -0.709209 -1.87003 8
      vertex -1.13613 -1.64597 8
    endloop
  endfacet
  facet normal -0.464723 -0.885456 -0
    outer loop
      vertex -0.709209 -1.87003 8
      vertex -1.13613 -1.64597 5
      vertex -0.709209 -1.87003 5
    endloop
  endfacet
  facet normal 0.992709 0.120538 0
    outer loop
      vertex 2 9.79717e-16 8
      vertex 1.94188 0.478631 5
      vertex 1.94188 0.478631 8
    endloop
  endfacet
  facet normal 0.992709 0.120538 -1.67903e-17
    outer loop
      vertex 1.94188 0.478631 5
      vertex 2 9.79717e-16 8
      vertex 2 6.12323e-16 5
    endloop
  endfacet
  facet normal 0 0 1
    outer loop
      vertex 1.94188 0.478631 8
      vertex 1.94188 -0.478631 8
      vertex 2 9.79717e-16 8
    endloop
  endfacet
  facet normal 0 0 1
    outer loop
      vertex 1.77091 0.929446 8
      vertex 1.94188 -0.478631 8
      vertex 1.94188 0.478631 8
    endloop
  endfacet
  facet normal 0 0 1
    outer loop
      vertex 1.77091 0.929446 8
      vertex 1.77091 -0.929446 8
      vertex 1.94188 -0.478631 8
    endloop
  endfacet
  facet normal 0 0 1
    outer loop
      vertex 1.49702 1.32625 8
      vertex 1.77091 -0.929446 8
      vertex 1.77091 0.929446 8
    endloop
  endfacet
  facet normal 0 0 1
    outer loop
      vertex 1.49702 1.32625 8
      vertex 1.49702 -1.32625 8
      vertex 1.77091 -0.929446 8
    endloop
  endfacet
  facet normal 0 0 1
    outer loop
      vertex 1.13613 1.64597 8
      vertex 1.49702 -1.32625 8
      vertex 1.49702 1.32625 8
    endloop
  endfacet
  facet normal 0 0 1
    outer loop
      vertex 1.13613 1.64597 8
      vertex 1.13613 -1.64597 8
      vertex 1.49702 -1.32625 8
    endloop
  endfacet
  facet normal 0 0 1
    outer loop
      vertex 0.709209 1.87003 8
      vertex 1.13613 -1.64597 8
      vertex 1.13613 1.64597 8
    endloop
  endfacet
  facet normal 0 0 1
    outer loop
      vertex 0.709209 1.87003 8
      vertex 0.709209 -1.87003 8
      vertex 1.13613 -1.64597 8
    endloop
  endfacet
  facet normal 0 0 1
    outer loop
      vertex 0.241073 1.98542 8
      vertex 0.709209 -1.87003 8
      vertex 0.709209 1.87003 8
    endloop
  endfacet
  facet normal 0 0 1
    outer loop
      vertex 0.241073 1.98542 8
      vertex 0.241073 -1.98542 8
      vertex 0.709209 -1.87003 8
    endloop
  endfacet
  facet normal -0 0 1
    outer loop
      vertex -0.241073 1.98542 8
      vertex 0.241073 -1.98542 8
      vertex 0.241073 1.98542 8
    endloop
  endfacet
  facet normal 0 0 1
    outer loop
      vertex -0.241073 1.98542 8
      vertex -0.241073 -1.98542 8
      vertex 0.241073 -1.98542 8
    endloop
  endfacet
  facet normal -0 0 1
    outer loop
      vertex -0.709209 1.87003 8
      vertex -0.241073 -1.98542 8
      vertex -0.241073 1.98542 8
    endloop
  endfacet
  facet normal 0 0 1
    outer loop
      vertex -0.709209 1.87003 8
      vertex -0.709209 -1.87003 8
      vertex -0.241073 -1.98542 8
    endloop
  endfacet
  facet normal -0 0 1
    outer loop
      vertex -1.13613 1.64597 8
      vertex -0.709209 -1.87003 8
      vertex -0.709209 1.87003 8
    endloop
  endfacet
  facet normal 0 0 1
    outer loop
      vertex -1.13613 1.64597 8
      vertex -1.13613 -1.64597 8
      vertex -0.709209 -1.87003 8
    endloop
  endfacet
  facet normal -0 0 1
    outer loop
      vertex -1.49702 1.32625 8
      vertex -1.13613 -1.64597 8
      vertex -1.13613 1.64597 8
    endloop
  endfacet
  facet normal 0 0 1
    outer loop
      vertex -1.49702 1.32625 8
      vertex -1.49702 -1.32625 8
      vertex -1.13613 -1.64597 8
    endloop
  endfacet
  facet normal -0 0 1
    outer loop
      vertex -1.77091 0.929446 8
      vertex -1.49702 -1.32625 8
      vertex -1.49702 1.32625 8
    endloop
  endfacet
  facet normal 0 0 1
    outer loop
      vertex -1.77091 0.929446 8
      vertex -1.77091 -0.929446 8
      vertex -1.49702 -1.32625 8
    endloop
  endfacet
  facet normal -0 0 1
    outer loop
      vertex -1.94188 0.478631 8
      vertex -1.77091 -0.929446 8
      vertex -1.77091 0.929446 8
    endloop
  endfacet
  facet normal 0 0 1
    outer loop
      vertex -1.94188 0.478631 8
      vertex -1.94188 -0.478631 8
      vertex -1.77091 -0.929446 8
    endloop
  endfacet
  facet normal 0 -0 1
    outer loop
      vertex -1.94188 -0.478631 8
      vertex -1.94188 0.478631 8
      vertex -2 9.79717e-16 8
    endloop
  endfacet
  facet normal 0.663123 0.74851 -0
    outer loop
      vertex 1.49702 1.32625 5
      vertex 1.13613 1.64597 8
      vertex 1.49702 1.32625 8
    endloop
  endfacet
  facet normal 0.663123 0.74851 0
    outer loop
      vertex 1.13613 1.64597 8
      vertex 1.49702 1.32625 5
      vertex 1.13613 1.64597 5
    endloop
  endfacet
  facet normal 0.822984 0.568065 0
    outer loop
      vertex 1.77091 0.929446 8
      vertex 1.49702 1.32625 5
      vertex 1.49702 1.32625 8
    endloop
  endfacet
  facet normal 0.822984 0.568065 0
    outer loop
      vertex 1.49702 1.32625 5
      vertex 1.77091 0.929446 8
      vertex 1.77091 0.929446 5
    endloop
  endfacet
  facet normal -0.822984 0.568065 0
    outer loop
      vertex -1.77091 0.929446 5
      vertex -1.49702 1.32625 8
      vertex -1.49702 1.32625 5
    endloop
  endfacet
  facet normal -0.822984 0.568065 0
    outer loop
      vertex -1.49702 1.32625 8
      vertex -1.77091 0.929446 5
      vertex -1.77091 0.929446 8
    endloop
  endfacet
  facet normal 0.464723 0.885456 -0
    outer loop
      vertex 1.13613 1.64597 5
      vertex 0.709209 1.87003 8
      vertex 1.13613 1.64597 8
    endloop
  endfacet
  facet normal 0.464723 0.885456 0
    outer loop
      vertex 0.709209 1.87003 8
      vertex 1.13613 1.64597 5
      vertex 0.709209 1.87003 5
    endloop
  endfacet
  facet normal -0.239315 0.970942 0
    outer loop
      vertex -0.241073 1.98542 5
      vertex -0.709209 1.87003 8
      vertex -0.241073 1.98542 8
    endloop
  endfacet
  facet normal -0.239315 0.970942 0
    outer loop
      vertex -0.709209 1.87003 8
      vertex -0.241073 1.98542 5
      vertex -0.709209 1.87003 5
    endloop
  endfacet
  facet normal -0.663123 0.74851 0
    outer loop
      vertex -1.13613 1.64597 5
      vertex -1.49702 1.32625 8
      vertex -1.13613 1.64597 8
    endloop
  endfacet
  facet normal -0.663123 0.74851 0
    outer loop
      vertex -1.49702 1.32625 8
      vertex -1.13613 1.64597 5
      vertex -1.49702 1.32625 5
    endloop
  endfacet
  facet normal -0.935016 0.354605 0
    outer loop
      vertex -1.94188 0.478631 5
      vertex -1.77091 0.929446 8
      vertex -1.77091 0.929446 5
    endloop
  endfacet
  facet normal -0.935016 0.354605 0
    outer loop
      vertex -1.77091 0.929446 8
      vertex -1.94188 0.478631 5
      vertex -1.94188 0.478631 8
    endloop
  endfacet
  facet normal -0.992709 0.120538 0
    outer loop
      vertex -1.94188 0.478631 5
      vertex -2 9.79717e-16 8
      vertex -1.94188 0.478631 8
    endloop
  endfacet
  facet normal -0.992709 0.120538 -1.47616e-17
    outer loop
      vertex -2 9.79717e-16 8
      vertex -1.94188 0.478631 5
      vertex -2 6.12323e-16 5
    endloop
  endfacet
  facet normal -0.464723 0.885456 0
    outer loop
      vertex -0.709209 1.87003 5
      vertex -1.13613 1.64597 8
      vertex -0.709209 1.87003 8
    endloop
  endfacet
  facet normal -0.464723 0.885456 0
    outer loop
      vertex -1.13613 1.64597 8
      vertex -0.709209 1.87003 5
      vertex -1.13613 1.64597 5
    endloop
  endfacet
  facet normal 0.225617 0.890865 -0.39428
    outer loop
      vertex 5.05687 6.36121 -12.4
      vertex 4.72065 6.44636 -12.4
      vertex 6.74379 9.20909 -5
    endloop
  endfacet
  facet normal 0.225617 0.890865 -0.39428
    outer loop
      vertex 7.22411 9.08745 -5
      vertex 5.05687 6.36121 -12.4
      vertex 6.74379 9.20909 -5
    endloop
  endfacet
  facet normal 0.0767992 0.92701 -0.367088
    outer loop
      vertex 4.72065 6.44636 -12.4
      vertex 4.375 6.475 -12.4
      vertex 6.25 9.25 -5
    endloop
  endfacet
  facet normal 0.0767997 0.92701 -0.367088
    outer loop
      vertex 6.74379 9.20909 -5
      vertex 4.72065 6.44636 -12.4
      vertex 6.25 9.25 -5
    endloop
  endfacet
  facet normal 0.663474 -0.610764 -0.432168
    outer loop
      vertex 8.28185 -8.45717 -5
      vertex 5.79729 -5.92002 -12.4
      vertex 6.03219 -5.66484 -12.4
    endloop
  endfacet
  facet normal 0.757086 -0.494653 -0.426777
    outer loop
      vertex 8.61742 -8.09264 -5
      vertex 6.03219 -5.66484 -12.4
      vertex 6.2219 -5.37449 -12.4
    endloop
  endfacet
  facet normal -0.225617 -0.890865 -0.39428
    outer loop
      vertex -6.74379 -9.20909 -5
      vertex -7.22411 -9.08745 -5
      vertex -5.05687 -6.36121 -12.4
    endloop
  endfacet
  facet normal -0.920244 -0.114706 -0.374156
    outer loop
      vertex -6.41074 -4.89051 -12.4
      vertex -9.25 -6.25 -5
      vertex -6.475 -4.375 -12.4
    endloop
  endfacet
  facet normal -0.114706 0.920244 -0.374156
    outer loop
      vertex -4.89051 6.41074 -12.4
      vertex -6.25 9.25 -5
      vertex -4.375 6.475 -12.4
    endloop
  endfacet
  facet normal 0 0.936329 -0.351124
    outer loop
      vertex 4.375 6.475 -12.4
      vertex -6.25 9.25 -5
      vertex 6.25 9.25 -5
    endloop
  endfacet
  facet normal 0 0.936329 -0.351124
    outer loop
      vertex -6.25 9.25 -5
      vertex 4.375 6.475 -12.4
      vertex -4.375 6.475 -12.4
    endloop
  endfacet
  facet normal 0 -0.936329 -0.351124
    outer loop
      vertex -4.375 -6.475 -12.4
      vertex 6.25 -9.25 -5
      vertex -6.25 -9.25 -5
    endloop
  endfacet
  facet normal 0 -0.936329 -0.351124
    outer loop
      vertex 6.25 -9.25 -5
      vertex -4.375 -6.475 -12.4
      vertex 4.375 -6.475 -12.4
    endloop
  endfacet
  facet normal -0.365614 -0.833544 -0.414163
    outer loop
      vertex -7.22411 -9.08745 -5
      vertex -7.67784 -8.88843 -5
      vertex -5.05687 -6.36121 -12.4
    endloop
  endfacet
  facet normal -0.757087 0.494652 -0.426777
    outer loop
      vertex -6.2219 5.37449 -12.4
      vertex -8.88843 7.67784 -5
      vertex -8.61742 8.09264 -5
    endloop
  endfacet
  facet normal -0.864719 -0.296864 -0.405134
    outer loop
      vertex -6.29812 -5.21856 -12.4
      vertex -8.99731 -7.45509 -5
      vertex -6.41074 -4.89051 -12.4
    endloop
  endfacet
  facet normal -0.431624 0.797586 -0.421376
    outer loop
      vertex -5.21856 6.29812 -12.4
      vertex -7.89084 8.76151 -5
      vertex -7.45509 8.99731 -5
    endloop
  endfacet
  facet normal -0.296864 0.864719 -0.405134
    outer loop
      vertex -5.21856 6.29812 -12.4
      vertex -7.45509 8.99731 -5
      vertex -4.89051 6.41074 -12.4
    endloop
  endfacet
  facet normal 0.920244 0.114706 -0.374156
    outer loop
      vertex 6.475 4.375 -12.4
      vertex 6.41074 4.89051 -12.4
      vertex 9.25 6.25 -5
    endloop
  endfacet
  facet normal 0.114706 -0.920244 -0.374156
    outer loop
      vertex 6.25 -9.25 -5
      vertex 4.89051 -6.41074 -12.4
      vertex 6.98645 -9.1582 -5
    endloop
  endfacet
  facet normal 0.431624 -0.797586 -0.421376
    outer loop
      vertex 7.45509 -8.99731 -5
      vertex 5.21856 -6.29812 -12.4
      vertex 7.89084 -8.76151 -5
    endloop
  endfacet
  facet normal -0.610764 -0.663474 -0.432168
    outer loop
      vertex -5.66484 -6.03219 -12.4
      vertex -8.45717 -8.28185 -5
      vertex -5.92002 -5.79729 -12.4
    endloop
  endfacet
  facet normal -0.757086 0.494653 -0.426777
    outer loop
      vertex -6.2219 5.37449 -12.4
      vertex -8.61742 8.09264 -5
      vertex -6.03219 5.66484 -12.4
    endloop
  endfacet
  facet normal -0.936329 0 -0.351124
    outer loop
      vertex -6.475 -4.375 -12.4
      vertex -9.25 6.25 -5
      vertex -6.475 4.375 -12.4
    endloop
  endfacet
  facet normal -0.936329 -0 -0.351124
    outer loop
      vertex -9.25 6.25 -5
      vertex -6.475 -4.375 -12.4
      vertex -9.25 -6.25 -5
    endloop
  endfacet
  facet normal -0.365615 -0.833544 -0.414163
    outer loop
      vertex -5.05687 -6.36121 -12.4
      vertex -7.67784 -8.88843 -5
      vertex -5.37449 -6.2219 -12.4
    endloop
  endfacet
  facet normal -0.797586 -0.431624 -0.421376
    outer loop
      vertex -8.76151 -7.89084 -5
      vertex -8.99731 -7.45509 -5
      vertex -6.29812 -5.21856 -12.4
    endloop
  endfacet
  facet normal -0.296864 0.864719 -0.405134
    outer loop
      vertex -4.89051 6.41074 -12.4
      vertex -7.45509 8.99731 -5
      vertex -6.98645 9.1582 -5
    endloop
  endfacet
  facet normal -0.114706 0.920244 -0.374156
    outer loop
      vertex -4.89051 6.41074 -12.4
      vertex -6.98645 9.1582 -5
      vertex -6.25 9.25 -5
    endloop
  endfacet
  facet normal 0.936329 0 -0.351124
    outer loop
      vertex 9.25 6.25 -5
      vertex 6.475 -4.375 -12.4
      vertex 6.475 4.375 -12.4
    endloop
  endfacet
  facet normal 0.936329 0 -0.351124
    outer loop
      vertex 6.475 -4.375 -12.4
      vertex 9.25 6.25 -5
      vertex 9.25 -6.25 -5
    endloop
  endfacet
  facet normal 0.92701 -0.0767997 -0.367088
    outer loop
      vertex 9.20909 -6.74379 -5
      vertex 6.44636 -4.72065 -12.4
      vertex 9.25 -6.25 -5
    endloop
  endfacet
  facet normal 0.296864 -0.864719 -0.405134
    outer loop
      vertex 6.98645 -9.1582 -5
      vertex 4.89051 -6.41074 -12.4
      vertex 7.45509 -8.99731 -5
    endloop
  endfacet
  facet normal 0.114706 -0.920244 -0.374156
    outer loop
      vertex 6.25 -9.25 -5
      vertex 4.375 -6.475 -12.4
      vertex 4.89051 -6.41074 -12.4
    endloop
  endfacet
  facet normal 0.296864 -0.864719 -0.405134
    outer loop
      vertex 7.45509 -8.99731 -5
      vertex 4.89051 -6.41074 -12.4
      vertex 5.21856 -6.29812 -12.4
    endloop
  endfacet
  facet normal 0.554425 -0.712316 -0.430372
    outer loop
      vertex 5.79729 -5.92002 -12.4
      vertex 7.89084 -8.76151 -5
      vertex 5.52359 -6.13305 -12.4
    endloop
  endfacet
  facet normal 0.554425 -0.712316 -0.430372
    outer loop
      vertex 7.89084 -8.76151 -5
      vertex 5.79729 -5.92002 -12.4
      vertex 8.28185 -8.45717 -5
    endloop
  endfacet
  facet normal 0.663475 -0.610764 -0.432167
    outer loop
      vertex 8.28185 -8.45717 -5
      vertex 6.03219 -5.66484 -12.4
      vertex 8.61742 -8.09264 -5
    endloop
  endfacet
  facet normal -0.663474 0.610764 -0.432168
    outer loop
      vertex -6.03219 5.66484 -12.4
      vertex -8.28185 8.45717 -5
      vertex -5.79729 5.92002 -12.4
    endloop
  endfacet
  facet normal -0.663475 0.610764 -0.432167
    outer loop
      vertex -6.03219 5.66484 -12.4
      vertex -8.61742 8.09264 -5
      vertex -8.28185 8.45717 -5
    endloop
  endfacet
  facet normal -0.431625 0.797585 -0.421376
    outer loop
      vertex -5.52359 6.13305 -12.4
      vertex -7.89084 8.76151 -5
      vertex -5.21856 6.29812 -12.4
    endloop
  endfacet
  facet normal 0 0 1
    outer loop
      vertex 9.25 6.25 -5
      vertex 6.47049 5.76133 -5
      vertex 6.49999 5.66666 -5
    endloop
  endfacet
  facet normal 0 0 1
    outer loop
      vertex 7.22411 9.08745 -5
      vertex 6.35248 6.14005 -5
      vertex 6.47049 5.76133 -5
    endloop
  endfacet
  facet normal 0 0 1
    outer loop
      vertex 6.05392 6.40453 -5
      vertex 6.74379 9.20909 -5
      vertex 6.25 9.25 -5
    endloop
  endfacet
  facet normal 0 0 1
    outer loop
      vertex 7.22411 9.08745 -5
      vertex 6.11363 6.35164 -5
      vertex 6.35248 6.14005 -5
    endloop
  endfacet
  facet normal 0 0 1
    outer loop
      vertex 7.22411 9.08745 -5
      vertex 6.05392 6.40453 -5
      vertex 6.11363 6.35164 -5
    endloop
  endfacet
  facet normal 0 0 1
    outer loop
      vertex 6.25 9.25 -5
      vertex 5.74411 6.4809 -5
      vertex 6.05392 6.40453 -5
    endloop
  endfacet
  facet normal 0 0 1
    outer loop
      vertex 6.25 9.25 -5
      vertex 5.66666 6.49999 -5
      vertex 5.74411 6.4809 -5
    endloop
  endfacet
  facet normal 0 0 1
    outer loop
      vertex 6.25 9.25 -5
      vertex -5.66666 6.49999 -5
      vertex 5.66666 6.49999 -5
    endloop
  endfacet
  facet normal -0 0 1
    outer loop
      vertex -6.25 9.25 -5
      vertex -5.66666 6.49999 -5
      vertex 6.25 9.25 -5
    endloop
  endfacet
  facet normal 0 0 1
    outer loop
      vertex -6.25 9.25 -5
      vertex -5.76133 6.47049 -5
      vertex -5.66666 6.49999 -5
    endloop
  endfacet
  facet normal 0 0 1
    outer loop
      vertex -6.25 9.25 -5
      vertex -6.14005 6.35248 -5
      vertex -5.76133 6.47049 -5
    endloop
  endfacet
  facet normal -0 0 1
    outer loop
      vertex -6.98645 9.1582 -5
      vertex -6.14005 6.35248 -5
      vertex -6.25 9.25 -5
    endloop
  endfacet
  facet normal -0 0 1
    outer loop
      vertex -7.45509 8.99731 -5
      vertex -6.14005 6.35248 -5
      vertex -6.98645 9.1582 -5
    endloop
  endfacet
  facet normal -0 0 1
    outer loop
      vertex -7.89084 8.76151 -5
      vertex -6.14005 6.35248 -5
      vertex -7.45509 8.99731 -5
    endloop
  endfacet
  facet normal -0 0 1
    outer loop
      vertex -8.28185 8.45717 -5
      vertex -6.14005 6.35248 -5
      vertex -7.89084 8.76151 -5
    endloop
  endfacet
  facet normal 0 0 1
    outer loop
      vertex -9.25 -6.25 -5
      vertex -6.49999 -5.66666 -5
      vertex -6.49999 5.66666 -5
    endloop
  endfacet
  facet normal -0 0 1
    outer loop
      vertex -8.61742 8.09264 -5
      vertex -6.14005 6.35248 -5
      vertex -8.28185 8.45717 -5
    endloop
  endfacet
  facet normal 0 0 1
    outer loop
      vertex -6.14005 6.35248 -5
      vertex -8.61742 8.09264 -5
      vertex -6.35164 6.11363 -5
    endloop
  endfacet
  facet normal 0 0 1
    outer loop
      vertex -9.25 -6.25 -5
      vertex -6.49999 5.66666 -5
      vertex -9.25 6.25 -5
    endloop
  endfacet
  facet normal 0 0 1
    outer loop
      vertex -6.35164 6.11363 -5
      vertex -8.61742 8.09264 -5
      vertex -6.40453 6.05392 -5
    endloop
  endfacet
  facet normal 0 -0 1
    outer loop
      vertex -9.1582 -6.98645 -5
      vertex -6.49999 -5.66666 -5
      vertex -9.25 -6.25 -5
    endloop
  endfacet
  facet normal -0 0 1
    outer loop
      vertex -8.88843 7.67784 -5
      vertex -6.40453 6.05392 -5
      vertex -8.61742 8.09264 -5
    endloop
  endfacet
  facet normal 0 0 1
    outer loop
      vertex -6.49999 -5.66666 -5
      vertex -7.22411 -9.08745 -5
      vertex -6.74379 -9.20909 -5
    endloop
  endfacet
  facet normal -0 0 1
    outer loop
      vertex -9.08745 7.22411 -5
      vertex -6.40453 6.05392 -5
      vertex -8.88843 7.67784 -5
    endloop
  endfacet
  facet normal 0 0 1
    outer loop
      vertex -6.49999 -5.66666 -5
      vertex -7.67784 -8.88843 -5
      vertex -7.22411 -9.08745 -5
    endloop
  endfacet
  facet normal -0 0 1
    outer loop
      vertex -9.20909 6.74379 -5
      vertex -6.40453 6.05392 -5
      vertex -9.08745 7.22411 -5
    endloop
  endfacet
  facet normal 0 0 1
    outer loop
      vertex -6.49999 -5.66666 -5
      vertex -8.09264 -8.61742 -5
      vertex -7.67784 -8.88843 -5
    endloop
  endfacet
  facet normal -0 0 1
    outer loop
      vertex -9.25 6.25 -5
      vertex -6.40453 6.05392 -5
      vertex -9.20909 6.74379 -5
    endloop
  endfacet
  facet normal 0 0 1
    outer loop
      vertex -6.49999 -5.66666 -5
      vertex -8.45717 -8.28185 -5
      vertex -8.09264 -8.61742 -5
    endloop
  endfacet
  facet normal 0 0 1
    outer loop
      vertex -6.40453 6.05392 -5
      vertex -9.25 6.25 -5
      vertex -6.4809 5.74411 -5
    endloop
  endfacet
  facet normal 0 0 1
    outer loop
      vertex -6.49999 -5.66666 -5
      vertex -8.76151 -7.89084 -5
      vertex -8.45717 -8.28185 -5
    endloop
  endfacet
  facet normal 0 0 1
    outer loop
      vertex -6.4809 5.74411 -5
      vertex -9.25 6.25 -5
      vertex -6.49999 5.66666 -5
    endloop
  endfacet
  facet normal 0 0 1
    outer loop
      vertex -6.49999 -5.66666 -5
      vertex -8.99731 -7.45509 -5
      vertex -8.76151 -7.89084 -5
    endloop
  endfacet
  facet normal 0 0 1
    outer loop
      vertex -6.49999 -5.66666 -5
      vertex -9.1582 -6.98645 -5
      vertex -8.99731 -7.45509 -5
    endloop
  endfacet
  facet normal -0 0 1
    outer loop
      vertex 6.49999 -5.66666 -5
      vertex 9.25 -6.25 -5
      vertex 9.25 6.25 -5
    endloop
  endfacet
  facet normal 0 0 1
    outer loop
      vertex 6.47049 5.76133 -5
      vertex 9.25 6.25 -5
      vertex 9.1582 6.98645 -5
    endloop
  endfacet
  facet normal 0 0 1
    outer loop
      vertex 6.49999 -5.66666 -5
      vertex 9.25 6.25 -5
      vertex 6.49999 5.66666 -5
    endloop
  endfacet
  facet normal 0 0 1
    outer loop
      vertex 6.47049 5.76133 -5
      vertex 9.1582 6.98645 -5
      vertex 8.99731 7.45509 -5
    endloop
  endfacet
  facet normal -0 0 1
    outer loop
      vertex 6.4809 -5.74411 -5
      vertex 9.25 -6.25 -5
      vertex 6.49999 -5.66666 -5
    endloop
  endfacet
  facet normal 0 0 1
    outer loop
      vertex 6.47049 5.76133 -5
      vertex 8.99731 7.45509 -5
      vertex 8.76151 7.89084 -5
    endloop
  endfacet
  facet normal -0 0 1
    outer loop
      vertex 6.40453 -6.05392 -5
      vertex 9.25 -6.25 -5
      vertex 6.4809 -5.74411 -5
    endloop
  endfacet
  facet normal 0 0 1
    outer loop
      vertex 6.47049 5.76133 -5
      vertex 8.76151 7.89084 -5
      vertex 8.45717 8.28185 -5
    endloop
  endfacet
  facet normal 0 0 1
    outer loop
      vertex 9.25 -6.25 -5
      vertex 6.40453 -6.05392 -5
      vertex 9.20909 -6.74379 -5
    endloop
  endfacet
  facet normal 0 0 1
    outer loop
      vertex 6.47049 5.76133 -5
      vertex 8.45717 8.28185 -5
      vertex 8.09264 8.61742 -5
    endloop
  endfacet
  facet normal 0 0 1
    outer loop
      vertex 9.20909 -6.74379 -5
      vertex 6.40453 -6.05392 -5
      vertex 9.08745 -7.22411 -5
    endloop
  endfacet
  facet normal 0 0 1
    outer loop
      vertex 6.47049 5.76133 -5
      vertex 8.09264 8.61742 -5
      vertex 7.67784 8.88843 -5
    endloop
  endfacet
  facet normal 0 0 1
    outer loop
      vertex 9.08745 -7.22411 -5
      vertex 6.40453 -6.05392 -5
      vertex 8.88843 -7.67784 -5
    endloop
  endfacet
  facet normal 0 0 1
    outer loop
      vertex 6.47049 5.76133 -5
      vertex 7.67784 8.88843 -5
      vertex 7.22411 9.08745 -5
    endloop
  endfacet
  facet normal 0 0 1
    outer loop
      vertex 8.88843 -7.67784 -5
      vertex 6.40453 -6.05392 -5
      vertex 8.61742 -8.09264 -5
    endloop
  endfacet
  facet normal 0 0 1
    outer loop
      vertex 6.05392 6.40453 -5
      vertex 7.22411 9.08745 -5
      vertex 6.74379 9.20909 -5
    endloop
  endfacet
  facet normal -0 0 1
    outer loop
      vertex 6.35164 -6.11363 -5
      vertex 8.61742 -8.09264 -5
      vertex 6.40453 -6.05392 -5
    endloop
  endfacet
  facet normal -0 0 1
    outer loop
      vertex 6.14005 -6.35248 -5
      vertex 8.61742 -8.09264 -5
      vertex 6.35164 -6.11363 -5
    endloop
  endfacet
  facet normal 0 0 1
    outer loop
      vertex 8.61742 -8.09264 -5
      vertex 6.14005 -6.35248 -5
      vertex 8.28185 -8.45717 -5
    endloop
  endfacet
  facet normal 0 0 1
    outer loop
      vertex 8.28185 -8.45717 -5
      vertex 6.14005 -6.35248 -5
      vertex 7.89084 -8.76151 -5
    endloop
  endfacet
  facet normal 0 0 1
    outer loop
      vertex 7.89084 -8.76151 -5
      vertex 6.14005 -6.35248 -5
      vertex 7.45509 -8.99731 -5
    endloop
  endfacet
  facet normal 0 0 1
    outer loop
      vertex 7.45509 -8.99731 -5
      vertex 6.14005 -6.35248 -5
      vertex 6.98645 -9.1582 -5
    endloop
  endfacet
  facet normal 0 0 1
    outer loop
      vertex 6.98645 -9.1582 -5
      vertex 6.14005 -6.35248 -5
      vertex 6.25 -9.25 -5
    endloop
  endfacet
  facet normal -0 0 1
    outer loop
      vertex 5.76133 -6.47049 -5
      vertex 6.25 -9.25 -5
      vertex 6.14005 -6.35248 -5
    endloop
  endfacet
  facet normal -0 0 1
    outer loop
      vertex 5.66666 -6.49999 -5
      vertex 6.25 -9.25 -5
      vertex 5.76133 -6.47049 -5
    endloop
  endfacet
  facet normal -0 0 1
    outer loop
      vertex -5.66666 -6.49999 -5
      vertex 6.25 -9.25 -5
      vertex 5.66666 -6.49999 -5
    endloop
  endfacet
  facet normal 0 0 1
    outer loop
      vertex -6.25 -9.25 -5
      vertex -5.74411 -6.4809 -5
      vertex -6.05392 -6.40453 -5
    endloop
  endfacet
  facet normal 0 0 1
    outer loop
      vertex -5.66666 -6.49999 -5
      vertex -6.25 -9.25 -5
      vertex 6.25 -9.25 -5
    endloop
  endfacet
  facet normal 0 0 1
    outer loop
      vertex -5.74411 -6.4809 -5
      vertex -6.25 -9.25 -5
      vertex -5.66666 -6.49999 -5
    endloop
  endfacet
  facet normal 0 0 1
    outer loop
      vertex -6.74379 -9.20909 -5
      vertex -6.05392 -6.40453 -5
      vertex -6.11363 -6.35164 -5
    endloop
  endfacet
  facet normal 0 0 1
    outer loop
      vertex -6.74379 -9.20909 -5
      vertex -6.11363 -6.35164 -5
      vertex -6.35248 -6.14005 -5
    endloop
  endfacet
  facet normal 0 0 1
    outer loop
      vertex -6.74379 -9.20909 -5
      vertex -6.35248 -6.14005 -5
      vertex -6.47049 -5.76133 -5
    endloop
  endfacet
  facet normal 0 0 1
    outer loop
      vertex -6.74379 -9.20909 -5
      vertex -6.47049 -5.76133 -5
      vertex -6.49999 -5.66666 -5
    endloop
  endfacet
  facet normal 0 0 1
    outer loop
      vertex -6.05392 -6.40453 -5
      vertex -6.74379 -9.20909 -5
      vertex -6.25 -9.25 -5
    endloop
  endfacet
  facet normal -0.92701 0.0767997 -0.367088
    outer loop
      vertex -6.44636 4.72065 -12.4
      vertex -9.25 6.25 -5
      vertex -9.20909 6.74379 -5
    endloop
  endfacet
  facet normal -0.92701 0.0767992 -0.367088
    outer loop
      vertex -6.475 4.375 -12.4
      vertex -9.25 6.25 -5
      vertex -6.44636 4.72065 -12.4
    endloop
  endfacet
  facet normal 0 0 -1
    outer loop
      vertex 4.375 -6.475 -12.4
      vertex 6.475 -4.375 -12.4
      vertex 6.44636 -4.72065 -12.4
    endloop
  endfacet
  facet normal -0 0 -1
    outer loop
      vertex 6.475 -4.375 -12.4
      vertex 4.375 -6.475 -12.4
      vertex 6.475 4.375 -12.4
    endloop
  endfacet
  facet normal 0 0 -1
    outer loop
      vertex 4.375 -6.475 -12.4
      vertex 6.44636 -4.72065 -12.4
      vertex 6.36121 -5.05687 -12.4
    endloop
  endfacet
  facet normal -0 0 -1
    outer loop
      vertex 6.475 4.375 -12.4
      vertex 4.375 -6.475 -12.4
      vertex 4.375 6.475 -12.4
    endloop
  endfacet
  facet normal 0 0 -1
    outer loop
      vertex 4.375 -6.475 -12.4
      vertex 6.36121 -5.05687 -12.4
      vertex 6.2219 -5.37449 -12.4
    endloop
  endfacet
  facet normal 0 0 -1
    outer loop
      vertex 6.475 4.375 -12.4
      vertex 4.375 6.475 -12.4
      vertex 6.41074 4.89051 -12.4
    endloop
  endfacet
  facet normal 0 0 -1
    outer loop
      vertex 4.375 -6.475 -12.4
      vertex 6.2219 -5.37449 -12.4
      vertex 6.03219 -5.66484 -12.4
    endloop
  endfacet
  facet normal 0 0 -1
    outer loop
      vertex 6.41074 4.89051 -12.4
      vertex 4.375 6.475 -12.4
      vertex 6.29812 5.21856 -12.4
    endloop
  endfacet
  facet normal 0 0 -1
    outer loop
      vertex 4.375 -6.475 -12.4
      vertex 6.03219 -5.66484 -12.4
      vertex 5.79729 -5.92002 -12.4
    endloop
  endfacet
  facet normal 0 0 -1
    outer loop
      vertex 6.29812 5.21856 -12.4
      vertex 4.375 6.475 -12.4
      vertex 6.13305 5.52359 -12.4
    endloop
  endfacet
  facet normal 0 0 -1
    outer loop
      vertex 4.375 -6.475 -12.4
      vertex 5.79729 -5.92002 -12.4
      vertex 5.52359 -6.13305 -12.4
    endloop
  endfacet
  facet normal 0 0 -1
    outer loop
      vertex 6.13305 5.52359 -12.4
      vertex 4.375 6.475 -12.4
      vertex 5.92002 5.79729 -12.4
    endloop
  endfacet
  facet normal 0 0 -1
    outer loop
      vertex 4.375 -6.475 -12.4
      vertex 5.52359 -6.13305 -12.4
      vertex 5.21856 -6.29812 -12.4
    endloop
  endfacet
  facet normal 0 0 -1
    outer loop
      vertex 5.92002 5.79729 -12.4
      vertex 4.375 6.475 -12.4
      vertex 5.66484 6.03219 -12.4
    endloop
  endfacet
  facet normal 0 0 -1
    outer loop
      vertex 4.375 -6.475 -12.4
      vertex 5.21856 -6.29812 -12.4
      vertex 4.89051 -6.41074 -12.4
    endloop
  endfacet
  facet normal 0 0 -1
    outer loop
      vertex 5.66484 6.03219 -12.4
      vertex 4.375 6.475 -12.4
      vertex 5.37449 6.2219 -12.4
    endloop
  endfacet
  facet normal 0 0 -1
    outer loop
      vertex 5.37449 6.2219 -12.4
      vertex 4.375 6.475 -12.4
      vertex 5.05687 6.36121 -12.4
    endloop
  endfacet
  facet normal 0 0 -1
    outer loop
      vertex 5.05687 6.36121 -12.4
      vertex 4.375 6.475 -12.4
      vertex 4.72065 6.44636 -12.4
    endloop
  endfacet
  facet normal 0 0 -1
    outer loop
      vertex -4.375 -6.475 -12.4
      vertex 4.375 6.475 -12.4
      vertex 4.375 -6.475 -12.4
    endloop
  endfacet
  facet normal 0 0 -1
    outer loop
      vertex -4.375 -6.475 -12.4
      vertex -4.375 6.475 -12.4
      vertex 4.375 6.475 -12.4
    endloop
  endfacet
  facet normal 0 0 -1
    outer loop
      vertex -6.475 -4.375 -12.4
      vertex -4.375 -6.475 -12.4
      vertex -4.72065 -6.44636 -12.4
    endloop
  endfacet
  facet normal 0 0 -1
    outer loop
      vertex -4.375 -6.475 -12.4
      vertex -6.475 -4.375 -12.4
      vertex -4.375 6.475 -12.4
    endloop
  endfacet
  facet normal 0 0 -1
    outer loop
      vertex -6.475 -4.375 -12.4
      vertex -4.72065 -6.44636 -12.4
      vertex -5.05687 -6.36121 -12.4
    endloop
  endfacet
  facet normal 0 0 -1
    outer loop
      vertex -4.375 6.475 -12.4
      vertex -6.475 -4.375 -12.4
      vertex -6.475 4.375 -12.4
    endloop
  endfacet
  facet normal 0 0 -1
    outer loop
      vertex -6.475 -4.375 -12.4
      vertex -5.05687 -6.36121 -12.4
      vertex -5.37449 -6.2219 -12.4
    endloop
  endfacet
  facet normal 0 0 -1
    outer loop
      vertex -4.375 6.475 -12.4
      vertex -6.475 4.375 -12.4
      vertex -4.89051 6.41074 -12.4
    endloop
  endfacet
  facet normal 0 0 -1
    outer loop
      vertex -6.475 -4.375 -12.4
      vertex -5.37449 -6.2219 -12.4
      vertex -5.66484 -6.03219 -12.4
    endloop
  endfacet
  facet normal 0 0 -1
    outer loop
      vertex -4.89051 6.41074 -12.4
      vertex -6.475 4.375 -12.4
      vertex -5.21856 6.29812 -12.4
    endloop
  endfacet
  facet normal 0 0 -1
    outer loop
      vertex -6.475 -4.375 -12.4
      vertex -5.66484 -6.03219 -12.4
      vertex -5.92002 -5.79729 -12.4
    endloop
  endfacet
  facet normal 0 0 -1
    outer loop
      vertex -5.21856 6.29812 -12.4
      vertex -6.475 4.375 -12.4
      vertex -5.52359 6.13305 -12.4
    endloop
  endfacet
  facet normal 0 0 -1
    outer loop
      vertex -6.475 -4.375 -12.4
      vertex -5.92002 -5.79729 -12.4
      vertex -6.13305 -5.52359 -12.4
    endloop
  endfacet
  facet normal 0 0 -1
    outer loop
      vertex -5.52359 6.13305 -12.4
      vertex -6.475 4.375 -12.4
      vertex -5.79729 5.92002 -12.4
    endloop
  endfacet
  facet normal 0 0 -1
    outer loop
      vertex -6.475 -4.375 -12.4
      vertex -6.13305 -5.52359 -12.4
      vertex -6.29812 -5.21856 -12.4
    endloop
  endfacet
  facet normal 0 0 -1
    outer loop
      vertex -5.79729 5.92002 -12.4
      vertex -6.475 4.375 -12.4
      vertex -6.03219 5.66484 -12.4
    endloop
  endfacet
  facet normal 0 0 -1
    outer loop
      vertex -6.475 -4.375 -12.4
      vertex -6.29812 -5.21856 -12.4
      vertex -6.41074 -4.89051 -12.4
    endloop
  endfacet
  facet normal 0 0 -1
    outer loop
      vertex -6.03219 5.66484 -12.4
      vertex -6.475 4.375 -12.4
      vertex -6.2219 5.37449 -12.4
    endloop
  endfacet
  facet normal 0 0 -1
    outer loop
      vertex -6.2219 5.37449 -12.4
      vertex -6.475 4.375 -12.4
      vertex -6.36121 5.05687 -12.4
    endloop
  endfacet
  facet normal 0 0 -1
    outer loop
      vertex -6.36121 5.05687 -12.4
      vertex -6.475 4.375 -12.4
      vertex -6.44636 4.72065 -12.4
    endloop
  endfacet
  facet normal -0.225617 -0.890865 -0.39428
    outer loop
      vertex -4.72065 -6.44636 -12.4
      vertex -6.74379 -9.20909 -5
      vertex -5.05687 -6.36121 -12.4
    endloop
  endfacet
  facet normal -0.494652 -0.757087 -0.426777
    outer loop
      vertex -7.67784 -8.88843 -5
      vertex -8.09264 -8.61742 -5
      vertex -5.37449 -6.2219 -12.4
    endloop
  endfacet
  facet normal -0.864719 -0.296864 -0.405134
    outer loop
      vertex -8.99731 -7.45509 -5
      vertex -9.1582 -6.98645 -5
      vertex -6.41074 -4.89051 -12.4
    endloop
  endfacet
  facet normal -0.920244 -0.114706 -0.374156
    outer loop
      vertex -9.1582 -6.98645 -5
      vertex -9.25 -6.25 -5
      vertex -6.41074 -4.89051 -12.4
    endloop
  endfacet
  facet normal -0.712316 -0.554425 -0.430372
    outer loop
      vertex -5.92002 -5.79729 -12.4
      vertex -8.76151 -7.89084 -5
      vertex -6.13305 -5.52359 -12.4
    endloop
  endfacet
  facet normal -0.712316 -0.554425 -0.430372
    outer loop
      vertex -8.76151 -7.89084 -5
      vertex -5.92002 -5.79729 -12.4
      vertex -8.45717 -8.28185 -5
    endloop
  endfacet
  facet normal 0.833544 -0.365614 -0.414163
    outer loop
      vertex 8.88843 -7.67784 -5
      vertex 6.36121 -5.05687 -12.4
      vertex 9.08745 -7.22411 -5
    endloop
  endfacet
  facet normal 0.833544 -0.365615 -0.414163
    outer loop
      vertex 8.88843 -7.67784 -5
      vertex 6.2219 -5.37449 -12.4
      vertex 6.36121 -5.05687 -12.4
    endloop
  endfacet
  facet normal 0.431625 -0.797585 -0.421376
    outer loop
      vertex 7.89084 -8.76151 -5
      vertex 5.21856 -6.29812 -12.4
      vertex 5.52359 -6.13305 -12.4
    endloop
  endfacet
  facet normal -0.554425 0.712316 -0.430372
    outer loop
      vertex -5.79729 5.92002 -12.4
      vertex -7.89084 8.76151 -5
      vertex -5.52359 6.13305 -12.4
    endloop
  endfacet
  facet normal -0.554425 0.712316 -0.430372
    outer loop
      vertex -7.89084 8.76151 -5
      vertex -5.79729 5.92002 -12.4
      vertex -8.28185 8.45717 -5
    endloop
  endfacet
  facet normal -0.833544 0.365614 -0.414163
    outer loop
      vertex -6.36121 5.05687 -12.4
      vertex -9.08745 7.22411 -5
      vertex -8.88843 7.67784 -5
    endloop
  endfacet
  facet normal -0.833544 0.365615 -0.414163
    outer loop
      vertex -6.36121 5.05687 -12.4
      vertex -8.88843 7.67784 -5
      vertex -6.2219 5.37449 -12.4
    endloop
  endfacet
  facet normal -0.890865 0.225617 -0.39428
    outer loop
      vertex -6.36121 5.05687 -12.4
      vertex -9.20909 6.74379 -5
      vertex -9.08745 7.22411 -5
    endloop
  endfacet
  facet normal -0.890865 0.225617 -0.39428
    outer loop
      vertex -6.44636 4.72065 -12.4
      vertex -9.20909 6.74379 -5
      vertex -6.36121 5.05687 -12.4
    endloop
  endfacet
  facet normal -0.0767992 -0.92701 -0.367088
    outer loop
      vertex -4.375 -6.475 -12.4
      vertex -6.25 -9.25 -5
      vertex -4.72065 -6.44636 -12.4
    endloop
  endfacet
  facet normal -0.0767997 -0.92701 -0.367088
    outer loop
      vertex -6.25 -9.25 -5
      vertex -6.74379 -9.20909 -5
      vertex -4.72065 -6.44636 -12.4
    endloop
  endfacet
  facet normal -0.494653 -0.757086 -0.426777
    outer loop
      vertex -5.37449 -6.2219 -12.4
      vertex -8.09264 -8.61742 -5
      vertex -5.66484 -6.03219 -12.4
    endloop
  endfacet
  facet normal -0.610764 -0.663475 -0.432167
    outer loop
      vertex -8.09264 -8.61742 -5
      vertex -8.45717 -8.28185 -5
      vertex -5.66484 -6.03219 -12.4
    endloop
  endfacet
  facet normal -0.797585 -0.431625 -0.421376
    outer loop
      vertex -6.13305 -5.52359 -12.4
      vertex -8.76151 -7.89084 -5
      vertex -6.29812 -5.21856 -12.4
    endloop
  endfacet
  facet normal 0.757087 -0.494652 -0.426777
    outer loop
      vertex 8.61742 -8.09264 -5
      vertex 6.2219 -5.37449 -12.4
      vertex 8.88843 -7.67784 -5
    endloop
  endfacet
  facet normal 0.864719 0.296864 -0.405134
    outer loop
      vertex 9.1582 6.98645 -5
      vertex 6.41074 4.89051 -12.4
      vertex 8.99731 7.45509 -5
    endloop
  endfacet
  facet normal 0.920244 0.114706 -0.374156
    outer loop
      vertex 9.25 6.25 -5
      vertex 6.41074 4.89051 -12.4
      vertex 9.1582 6.98645 -5
    endloop
  endfacet
  facet normal 0.494653 0.757086 -0.426777
    outer loop
      vertex 5.66484 6.03219 -12.4
      vertex 5.37449 6.2219 -12.4
      vertex 8.09264 8.61742 -5
    endloop
  endfacet
  facet normal 0.494652 0.757087 -0.426777
    outer loop
      vertex 8.09264 8.61742 -5
      vertex 5.37449 6.2219 -12.4
      vertex 7.67784 8.88843 -5
    endloop
  endfacet
  facet normal 0.92701 -0.0767992 -0.367088
    outer loop
      vertex 9.25 -6.25 -5
      vertex 6.44636 -4.72065 -12.4
      vertex 6.475 -4.375 -12.4
    endloop
  endfacet
  facet normal 0.797586 0.431624 -0.421376
    outer loop
      vertex 8.99731 7.45509 -5
      vertex 6.29812 5.21856 -12.4
      vertex 8.76151 7.89084 -5
    endloop
  endfacet
  facet normal 0.864719 0.296864 -0.405134
    outer loop
      vertex 6.41074 4.89051 -12.4
      vertex 6.29812 5.21856 -12.4
      vertex 8.99731 7.45509 -5
    endloop
  endfacet
  facet normal 0.365615 0.833544 -0.414163
    outer loop
      vertex 5.37449 6.2219 -12.4
      vertex 5.05687 6.36121 -12.4
      vertex 7.67784 8.88843 -5
    endloop
  endfacet
  facet normal 0.365614 0.833544 -0.414163
    outer loop
      vertex 7.67784 8.88843 -5
      vertex 5.05687 6.36121 -12.4
      vertex 7.22411 9.08745 -5
    endloop
  endfacet
  facet normal 0.610764 0.663475 -0.432167
    outer loop
      vertex 8.45717 8.28185 -5
      vertex 5.66484 6.03219 -12.4
      vertex 8.09264 8.61742 -5
    endloop
  endfacet
  facet normal 0.890865 -0.225617 -0.39428
    outer loop
      vertex 9.20909 -6.74379 -5
      vertex 6.36121 -5.05687 -12.4
      vertex 6.44636 -4.72065 -12.4
    endloop
  endfacet
  facet normal 0.890865 -0.225617 -0.39428
    outer loop
      vertex 9.08745 -7.22411 -5
      vertex 6.36121 -5.05687 -12.4
      vertex 9.20909 -6.74379 -5
    endloop
  endfacet
  facet normal 0.797585 0.431625 -0.421376
    outer loop
      vertex 6.29812 5.21856 -12.4
      vertex 6.13305 5.52359 -12.4
      vertex 8.76151 7.89084 -5
    endloop
  endfacet
  facet normal 0.610764 0.663474 -0.432168
    outer loop
      vertex 5.92002 5.79729 -12.4
      vertex 5.66484 6.03219 -12.4
      vertex 8.45717 8.28185 -5
    endloop
  endfacet
  facet normal 0.712316 0.554425 -0.430372
    outer loop
      vertex 8.76151 7.89084 -5
      vertex 5.92002 5.79729 -12.4
      vertex 8.45717 8.28185 -5
    endloop
  endfacet
  facet normal 0.712316 0.554425 -0.430372
    outer loop
      vertex 5.92002 5.79729 -12.4
      vertex 8.76151 7.89084 -5
      vertex 6.13305 5.52359 -12.4
    endloop
  endfacet
endsolid OpenSCAD_Model
