solid OpenSCAD_Model
  facet normal 0.954721 0.297502 0
    outer loop
      vertex 6.75 5.75 5
      vertex 6.57298 6.31807 -7.7374e-16
      vertex 6.57298 6.31807 5
    endloop
  endfacet
  facet normal 0.954721 0.297502 0
    outer loop
      vertex 6.57298 6.31807 -7.7374e-16
      vertex 6.75 5.75 5
      vertex 6.75 5.75 -7.04172e-16
    endloop
  endfacet
  facet normal 0.239324 0.97094 -0
    outer loop
      vertex 6.21472 6.63545 -8.12609e-16
      vertex 5.75 6.75 5
      vertex 6.21472 6.63545 5
    endloop
  endfacet
  facet normal 0.239324 0.97094 0
    outer loop
      vertex 5.75 6.75 5
      vertex 6.21472 6.63545 -8.12609e-16
      vertex 5.75 6.75 -8.26637e-16
    endloop
  endfacet
  facet normal -0.663112 -0.74852 0
    outer loop
      vertex -6.57298 -6.31807 5
      vertex -6.21472 -6.63545 8.12609e-16
      vertex -6.21472 -6.63545 5
    endloop
  endfacet
  facet normal -0.663112 -0.74852 0
    outer loop
      vertex -6.21472 -6.63545 8.12609e-16
      vertex -6.57298 -6.31807 5
      vertex -6.57298 -6.31807 7.7374e-16
    endloop
  endfacet
  facet normal 0.663112 0.74852 -0
    outer loop
      vertex 6.57298 6.31807 -7.7374e-16
      vertex 6.21472 6.63545 5
      vertex 6.57298 6.31807 5
    endloop
  endfacet
  facet normal 0.663112 0.74852 0
    outer loop
      vertex 6.21472 6.63545 5
      vertex 6.57298 6.31807 -7.7374e-16
      vertex 6.21472 6.63545 -8.12609e-16
    endloop
  endfacet
  facet normal -0 0 1
    outer loop
      vertex 2 6.12323e-16 5
      vertex 6.75 -5.75 5
      vertex 6.75 5.75 5
    endloop
  endfacet
  facet normal 0 0 1
    outer loop
      vertex 5.75 6.75 5
      vertex 6.75 5.75 5
      vertex 6.57298 6.31807 5
    endloop
  endfacet
  facet normal -0 0 1
    outer loop
      vertex 1.94188 -0.478631 5
      vertex 6.75 -5.75 5
      vertex 2 6.12323e-16 5
    endloop
  endfacet
  facet normal 0 0 1
    outer loop
      vertex 5.75 6.75 5
      vertex 6.57298 6.31807 5
      vertex 6.21472 6.63545 5
    endloop
  endfacet
  facet normal 0 0 1
    outer loop
      vertex 6.75 5.75 5
      vertex 5.75 6.75 5
      vertex 1.49702 1.32625 5
    endloop
  endfacet
  facet normal -0 0 1
    outer loop
      vertex 1.77091 -0.929446 5
      vertex 6.75 -5.75 5
      vertex 1.94188 -0.478631 5
    endloop
  endfacet
  facet normal -0 0 1
    outer loop
      vertex 1.49702 -1.32625 5
      vertex 6.75 -5.75 5
      vertex 1.77091 -0.929446 5
    endloop
  endfacet
  facet normal 0 0 1
    outer loop
      vertex 6.75 5.75 5
      vertex 1.94188 0.478631 5
      vertex 2 6.12323e-16 5
    endloop
  endfacet
  facet normal 0 0 1
    outer loop
      vertex 6.75 5.75 5
      vertex 1.77091 0.929446 5
      vertex 1.94188 0.478631 5
    endloop
  endfacet
  facet normal 0 0 1
    outer loop
      vertex 6.75 5.75 5
      vertex 1.49702 1.32625 5
      vertex 1.77091 0.929446 5
    endloop
  endfacet
  facet normal 0 0 1
    outer loop
      vertex 5.75 6.75 5
      vertex 1.13613 1.64597 5
      vertex 1.49702 1.32625 5
    endloop
  endfacet
  facet normal 0 0 1
    outer loop
      vertex 5.75 6.75 5
      vertex 0.709209 1.87003 5
      vertex 1.13613 1.64597 5
    endloop
  endfacet
  facet normal 0 0 1
    outer loop
      vertex 5.75 6.75 5
      vertex 0.241073 1.98542 5
      vertex 0.709209 1.87003 5
    endloop
  endfacet
  facet normal 0 0 1
    outer loop
      vertex 5.75 6.75 5
      vertex -0.241073 1.98542 5
      vertex 0.241073 1.98542 5
    endloop
  endfacet
  facet normal -0 0 1
    outer loop
      vertex -5.75 6.75 5
      vertex -0.241073 1.98542 5
      vertex 5.75 6.75 5
    endloop
  endfacet
  facet normal 0 0 1
    outer loop
      vertex -0.241073 1.98542 5
      vertex -5.75 6.75 5
      vertex -0.709209 1.87003 5
    endloop
  endfacet
  facet normal 0 0 1
    outer loop
      vertex -1.77091 0.929446 5
      vertex -6.75 5.75 5
      vertex -1.94188 0.478631 5
    endloop
  endfacet
  facet normal 0 0 1
    outer loop
      vertex -1.49702 1.32625 5
      vertex -6.75 5.75 5
      vertex -1.77091 0.929446 5
    endloop
  endfacet
  facet normal -0 0 1
    outer loop
      vertex -6.75 5.75 5
      vertex -1.49702 1.32625 5
      vertex -5.75 6.75 5
    endloop
  endfacet
  facet normal 0 0 1
    outer loop
      vertex -1.13613 1.64597 5
      vertex -5.75 6.75 5
      vertex -1.49702 1.32625 5
    endloop
  endfacet
  facet normal 0 0 1
    outer loop
      vertex -0.709209 1.87003 5
      vertex -5.75 6.75 5
      vertex -1.13613 1.64597 5
    endloop
  endfacet
  facet normal 0 -0 1
    outer loop
      vertex 5.75 -6.75 5
      vertex 6.75 -5.75 5
      vertex 1.49702 -1.32625 5
    endloop
  endfacet
  facet normal 0 0 1
    outer loop
      vertex 6.63545 -6.21472 5
      vertex 5.75 -6.75 5
      vertex 6.31807 -6.57298 5
    endloop
  endfacet
  facet normal 0 0 1
    outer loop
      vertex 6.75 -5.75 5
      vertex 5.75 -6.75 5
      vertex 6.63545 -6.21472 5
    endloop
  endfacet
  facet normal -0 0 1
    outer loop
      vertex 1.13613 -1.64597 5
      vertex 5.75 -6.75 5
      vertex 1.49702 -1.32625 5
    endloop
  endfacet
  facet normal -0 0 1
    outer loop
      vertex 0.709209 -1.87003 5
      vertex 5.75 -6.75 5
      vertex 1.13613 -1.64597 5
    endloop
  endfacet
  facet normal -0 0 1
    outer loop
      vertex 0.241073 -1.98542 5
      vertex 5.75 -6.75 5
      vertex 0.709209 -1.87003 5
    endloop
  endfacet
  facet normal -0 0 1
    outer loop
      vertex -0.241073 -1.98542 5
      vertex 5.75 -6.75 5
      vertex 0.241073 -1.98542 5
    endloop
  endfacet
  facet normal 0 0 1
    outer loop
      vertex -5.75 -6.75 5
      vertex -0.241073 -1.98542 5
      vertex -0.709209 -1.87003 5
    endloop
  endfacet
  facet normal 0 0 1
    outer loop
      vertex -5.75 -6.75 5
      vertex -0.709209 -1.87003 5
      vertex -1.13613 -1.64597 5
    endloop
  endfacet
  facet normal 0 0 1
    outer loop
      vertex -1.94188 0.478631 5
      vertex -6.75 5.75 5
      vertex -2 6.12323e-16 5
    endloop
  endfacet
  facet normal 0 0 1
    outer loop
      vertex -6.75 -5.75 5
      vertex -2 6.12323e-16 5
      vertex -6.75 5.75 5
    endloop
  endfacet
  facet normal 0 0 1
    outer loop
      vertex -0.241073 -1.98542 5
      vertex -5.75 -6.75 5
      vertex 5.75 -6.75 5
    endloop
  endfacet
  facet normal 0 0 1
    outer loop
      vertex -1.49702 -1.32625 5
      vertex -5.75 -6.75 5
      vertex -1.13613 -1.64597 5
    endloop
  endfacet
  facet normal 0 0 1
    outer loop
      vertex -6.75 -5.75 5
      vertex -1.49702 -1.32625 5
      vertex -1.77091 -0.929446 5
    endloop
  endfacet
  facet normal 0 0 1
    outer loop
      vertex -2 6.12323e-16 5
      vertex -6.75 -5.75 5
      vertex -1.94188 -0.478631 5
    endloop
  endfacet
  facet normal 0 0 1
    outer loop
      vertex -1.49702 -1.32625 5
      vertex -6.75 -5.75 5
      vertex -5.75 -6.75 5
    endloop
  endfacet
  facet normal 0 0 1
    outer loop
      vertex -6.75 5.75 5
      vertex -5.75 6.75 5
      vertex -6.31807 6.57298 5
    endloop
  endfacet
  facet normal 0 0 1
    outer loop
      vertex -1.94188 -0.478631 5
      vertex -6.75 -5.75 5
      vertex -1.77091 -0.929446 5
    endloop
  endfacet
  facet normal 0 0 1
    outer loop
      vertex -6.75 5.75 5
      vertex -6.31807 6.57298 5
      vertex -6.63545 6.21472 5
    endloop
  endfacet
  facet normal 0 0 1
    outer loop
      vertex -5.75 -6.75 5
      vertex -6.75 -5.75 5
      vertex -6.21472 -6.63545 5
    endloop
  endfacet
  facet normal 0 0 1
    outer loop
      vertex -6.21472 -6.63545 5
      vertex -6.75 -5.75 5
      vertex -6.57298 -6.31807 5
    endloop
  endfacet
  facet normal 0.74852 -0.663112 0
    outer loop
      vertex 6.31807 -6.57298 5
      vertex 6.63545 -6.21472 7.61084e-16
      vertex 6.63545 -6.21472 5
    endloop
  endfacet
  facet normal 0.74852 -0.663112 0
    outer loop
      vertex 6.63545 -6.21472 7.61084e-16
      vertex 6.31807 -6.57298 5
      vertex 6.31807 -6.57298 8.04958e-16
    endloop
  endfacet
  facet normal -0.74852 0.663112 0
    outer loop
      vertex -6.63545 6.21472 -7.61084e-16
      vertex -6.31807 6.57298 5
      vertex -6.31807 6.57298 -8.04958e-16
    endloop
  endfacet
  facet normal -0.74852 0.663112 0
    outer loop
      vertex -6.31807 6.57298 5
      vertex -6.63545 6.21472 -7.61084e-16
      vertex -6.63545 6.21472 5
    endloop
  endfacet
  facet normal -0.297502 0.954721 0
    outer loop
      vertex -5.75 6.75 5
      vertex -6.31807 6.57298 -8.04958e-16
      vertex -6.31807 6.57298 5
    endloop
  endfacet
  facet normal -0.297502 0.954721 0
    outer loop
      vertex -6.31807 6.57298 -8.04958e-16
      vertex -5.75 6.75 5
      vertex -5.75 6.75 -8.26637e-16
    endloop
  endfacet
  facet normal 1 -0 0
    outer loop
      vertex 6.75 -5.75 5
      vertex 6.75 5.75 -7.04172e-16
      vertex 6.75 5.75 5
    endloop
  endfacet
  facet normal 1 0 0
    outer loop
      vertex 6.75 5.75 -7.04172e-16
      vertex 6.75 -5.75 5
      vertex 6.75 -5.75 7.04172e-16
    endloop
  endfacet
  facet normal -1 0 0
    outer loop
      vertex -6.75 -5.75 7.04172e-16
      vertex -6.75 5.75 5
      vertex -6.75 5.75 -7.04172e-16
    endloop
  endfacet
  facet normal -1 -0 0
    outer loop
      vertex -6.75 5.75 5
      vertex -6.75 -5.75 7.04172e-16
      vertex -6.75 -5.75 5
    endloop
  endfacet
  facet normal -0.954721 -0.297502 0
    outer loop
      vertex -6.57298 -6.31807 7.7374e-16
      vertex -6.75 -5.75 5
      vertex -6.75 -5.75 7.04172e-16
    endloop
  endfacet
  facet normal -0.954721 -0.297502 0
    outer loop
      vertex -6.75 -5.75 5
      vertex -6.57298 -6.31807 7.7374e-16
      vertex -6.57298 -6.31807 5
    endloop
  endfacet
  facet normal -0.97094 0.239324 0
    outer loop
      vertex -6.75 5.75 -7.04172e-16
      vertex -6.63545 6.21472 5
      vertex -6.63545 6.21472 -7.61084e-16
    endloop
  endfacet
  facet normal -0.97094 0.239324 0
    outer loop
      vertex -6.63545 6.21472 5
      vertex -6.75 5.75 -7.04172e-16
      vertex -6.75 5.75 5
    endloop
  endfacet
  facet normal 0 1 -0
    outer loop
      vertex 5.75 6.75 -8.26637e-16
      vertex -5.75 6.75 5
      vertex 5.75 6.75 5
    endloop
  endfacet
  facet normal 0 1 0
    outer loop
      vertex -5.75 6.75 5
      vertex 5.75 6.75 -8.26637e-16
      vertex -5.75 6.75 -8.26637e-16
    endloop
  endfacet
  facet normal 0 -1 0
    outer loop
      vertex -5.75 -6.75 8.26637e-16
      vertex 5.75 -6.75 5
      vertex -5.75 -6.75 5
    endloop
  endfacet
  facet normal 0 -1 -0
    outer loop
      vertex 5.75 -6.75 5
      vertex -5.75 -6.75 8.26637e-16
      vertex 5.75 -6.75 8.26637e-16
    endloop
  endfacet
  facet normal 0.297502 -0.954721 0
    outer loop
      vertex 5.75 -6.75 8.26637e-16
      vertex 6.31807 -6.57298 5
      vertex 5.75 -6.75 5
    endloop
  endfacet
  facet normal 0.297502 -0.954721 0
    outer loop
      vertex 6.31807 -6.57298 5
      vertex 5.75 -6.75 8.26637e-16
      vertex 6.31807 -6.57298 8.04958e-16
    endloop
  endfacet
  facet normal -0.239324 -0.97094 0
    outer loop
      vertex -6.21472 -6.63545 5
      vertex -5.75 -6.75 8.26637e-16
      vertex -5.75 -6.75 5
    endloop
  endfacet
  facet normal -0.239324 -0.97094 0
    outer loop
      vertex -5.75 -6.75 8.26637e-16
      vertex -6.21472 -6.63545 5
      vertex -6.21472 -6.63545 8.12609e-16
    endloop
  endfacet
  facet normal 0.97094 -0.239324 0
    outer loop
      vertex 6.63545 -6.21472 5
      vertex 6.75 -5.75 7.04172e-16
      vertex 6.75 -5.75 5
    endloop
  endfacet
  facet normal 0.97094 -0.239324 0
    outer loop
      vertex 6.75 -5.75 7.04172e-16
      vertex 6.63545 -6.21472 5
      vertex 6.63545 -6.21472 7.61084e-16
    endloop
  endfacet
  facet normal 0.910439 0.283704 -0.30102
    outer loop
      vertex 6.23999 5.43999 -6
      vertex 6.09838 5.89445 -6
      vertex 7.62297 7.36806 -9.02327e-16
    endloop
  endfacet
  facet normal -0.283704 0.910439 -0.30102
    outer loop
      vertex -5.89445 6.09838 -6
      vertex -7.36806 7.62297 -9.33545e-16
      vertex -5.43999 6.23999 -6
    endloop
  endfacet
  facet normal 0.910439 0.283704 -0.30102
    outer loop
      vertex 7.79999 6.79999 -8.32758e-16
      vertex 6.23999 5.43999 -6
      vertex 7.62297 7.36806 -9.02327e-16
    endloop
  endfacet
  facet normal 0.625428 0.705981 -0.332311
    outer loop
      vertex 7.62297 7.36806 -9.02327e-16
      vertex 5.81177 6.14835 -6
      vertex 7.26471 7.68544 -9.41195e-16
    endloop
  endfacet
  facet normal 0.625428 0.705981 -0.332311
    outer loop
      vertex 6.09838 5.89445 -6
      vertex 5.81177 6.14835 -6
      vertex 7.62297 7.36806 -9.02327e-16
    endloop
  endfacet
  facet normal -0.625428 -0.705981 -0.332311
    outer loop
      vertex -7.26471 -7.68544 9.41195e-16
      vertex -7.62297 -7.36806 9.02327e-16
      vertex -5.81177 -6.14835 -6
    endloop
  endfacet
  facet normal -0.910439 -0.283704 -0.30102
    outer loop
      vertex -7.62297 -7.36806 9.02327e-16
      vertex -7.79999 -6.79999 8.32758e-16
      vertex -6.23999 -5.43999 -6
    endloop
  endfacet
  facet normal 0.283704 -0.910439 -0.30102
    outer loop
      vertex 7.36806 -7.62297 9.33545e-16
      vertex 5.43999 -6.23999 -6
      vertex 5.89445 -6.09838 -6
    endloop
  endfacet
  facet normal 0.967823 0 -0.251633
    outer loop
      vertex 7.79999 6.79999 -8.32758e-16
      vertex 6.23999 -5.43999 -6
      vertex 6.23999 5.43999 -6
    endloop
  endfacet
  facet normal 0.967823 -4.21373e-17 -0.251633
    outer loop
      vertex 6.23999 -5.43999 -6
      vertex 7.79999 6.79999 -8.32758e-16
      vertex 7.79999 -6.79999 8.32758e-16
    endloop
  endfacet
  facet normal 0 0 -1
    outer loop
      vertex 5.43999 -6.23999 -6
      vertex 6.23999 -5.43999 -6
      vertex 6.14835 -5.81177 -6
    endloop
  endfacet
  facet normal 0 0 -1
    outer loop
      vertex 6.23999 -5.43999 -6
      vertex 2.75 -7.34788e-16 -6
      vertex 6.23999 5.43999 -6
    endloop
  endfacet
  facet normal 0 0 -1
    outer loop
      vertex 5.43999 -6.23999 -6
      vertex 6.14835 -5.81177 -6
      vertex 5.89445 -6.09838 -6
    endloop
  endfacet
  facet normal 0 0 -1
    outer loop
      vertex 2.70581 0.491031 -6
      vertex 6.23999 5.43999 -6
      vertex 2.75 -7.34788e-16 -6
    endloop
  endfacet
  facet normal -0 0 -1
    outer loop
      vertex 6.23999 -5.43999 -6
      vertex 5.43999 -6.23999 -6
      vertex 2.07095 -1.80933 -6
    endloop
  endfacet
  facet normal 0 0 -1
    outer loop
      vertex 2.57465 0.96628 -6
      vertex 6.23999 5.43999 -6
      vertex 2.70581 0.491031 -6
    endloop
  endfacet
  facet normal 0 0 -1
    outer loop
      vertex 2.36073 1.41047 -6
      vertex 6.23999 5.43999 -6
      vertex 2.57465 0.96628 -6
    endloop
  endfacet
  facet normal 0 0 -1
    outer loop
      vertex 6.23999 -5.43999 -6
      vertex 2.70581 -0.491031 -6
      vertex 2.75 -7.34788e-16 -6
    endloop
  endfacet
  facet normal 0 0 -1
    outer loop
      vertex 6.23999 -5.43999 -6
      vertex 2.57465 -0.96628 -6
      vertex 2.70581 -0.491031 -6
    endloop
  endfacet
  facet normal 0 0 -1
    outer loop
      vertex 6.23999 -5.43999 -6
      vertex 2.36073 -1.41047 -6
      vertex 2.57465 -0.96628 -6
    endloop
  endfacet
  facet normal 0 0 -1
    outer loop
      vertex 6.23999 -5.43999 -6
      vertex 2.07095 -1.80933 -6
      vertex 2.36073 -1.41047 -6
    endloop
  endfacet
  facet normal 0 0 -1
    outer loop
      vertex 5.43999 -6.23999 -6
      vertex 1.7146 -2.15004 -6
      vertex 2.07095 -1.80933 -6
    endloop
  endfacet
  facet normal 0 0 -1
    outer loop
      vertex 5.43999 -6.23999 -6
      vertex 1.30314 -2.42164 -6
      vertex 1.7146 -2.15004 -6
    endloop
  endfacet
  facet normal 0 0 -1
    outer loop
      vertex 5.43999 -6.23999 -6
      vertex 0.849796 -2.61541 -6
      vertex 1.30314 -2.42164 -6
    endloop
  endfacet
  facet normal 0 0 -1
    outer loop
      vertex 5.43999 -6.23999 -6
      vertex 0.369141 -2.72511 -6
      vertex 0.849796 -2.61541 -6
    endloop
  endfacet
  facet normal 0 0 -1
    outer loop
      vertex 5.43999 -6.23999 -6
      vertex -0.123378 -2.74723 -6
      vertex 0.369141 -2.72511 -6
    endloop
  endfacet
  facet normal 0 0 -1
    outer loop
      vertex -5.43999 -6.23999 -6
      vertex -0.123378 -2.74723 -6
      vertex 5.43999 -6.23999 -6
    endloop
  endfacet
  facet normal -0 0 -1
    outer loop
      vertex -0.123378 -2.74723 -6
      vertex -5.43999 -6.23999 -6
      vertex -0.611932 -2.68105 -6
    endloop
  endfacet
  facet normal -0 0 -1
    outer loop
      vertex -0.611932 -2.68105 -6
      vertex -5.43999 -6.23999 -6
      vertex -1.08082 -2.5287 -6
    endloop
  endfacet
  facet normal -0 0 -1
    outer loop
      vertex -2.6509 -0.731601 -6
      vertex -6.23999 -5.43999 -6
      vertex -2.73893 -0.246508 -6
    endloop
  endfacet
  facet normal -0 0 -1
    outer loop
      vertex -2.47766 -1.19318 -6
      vertex -6.23999 -5.43999 -6
      vertex -2.6509 -0.731601 -6
    endloop
  endfacet
  facet normal -0 0 -1
    outer loop
      vertex -2.2248 -1.61641 -6
      vertex -6.23999 -5.43999 -6
      vertex -2.47766 -1.19318 -6
    endloop
  endfacet
  facet normal -0 0 -1
    outer loop
      vertex -1.90042 -1.98769 -6
      vertex -6.23999 -5.43999 -6
      vertex -2.2248 -1.61641 -6
    endloop
  endfacet
  facet normal 0 0 -1
    outer loop
      vertex -6.23999 -5.43999 -6
      vertex -1.90042 -1.98769 -6
      vertex -5.43999 -6.23999 -6
    endloop
  endfacet
  facet normal -0 0 -1
    outer loop
      vertex -1.51497 -2.29508 -6
      vertex -5.43999 -6.23999 -6
      vertex -1.90042 -1.98769 -6
    endloop
  endfacet
  facet normal -0 0 -1
    outer loop
      vertex -1.08082 -2.5287 -6
      vertex -5.43999 -6.23999 -6
      vertex -1.51497 -2.29508 -6
    endloop
  endfacet
  facet normal 0 0 -1
    outer loop
      vertex 2.07095 1.80933 -6
      vertex 6.23999 5.43999 -6
      vertex 2.36073 1.41047 -6
    endloop
  endfacet
  facet normal 0 -0 -1
    outer loop
      vertex 5.43999 6.23999 -6
      vertex 6.23999 5.43999 -6
      vertex 2.07095 1.80933 -6
    endloop
  endfacet
  facet normal 0 0 -1
    outer loop
      vertex 6.09838 5.89445 -6
      vertex 5.43999 6.23999 -6
      vertex 5.81177 6.14835 -6
    endloop
  endfacet
  facet normal 0 0 -1
    outer loop
      vertex 6.23999 5.43999 -6
      vertex 5.43999 6.23999 -6
      vertex 6.09838 5.89445 -6
    endloop
  endfacet
  facet normal 0 0 -1
    outer loop
      vertex 1.7146 2.15004 -6
      vertex 5.43999 6.23999 -6
      vertex 2.07095 1.80933 -6
    endloop
  endfacet
  facet normal 0 0 -1
    outer loop
      vertex 1.30314 2.42164 -6
      vertex 5.43999 6.23999 -6
      vertex 1.7146 2.15004 -6
    endloop
  endfacet
  facet normal 0 0 -1
    outer loop
      vertex 0.849796 2.61541 -6
      vertex 5.43999 6.23999 -6
      vertex 1.30314 2.42164 -6
    endloop
  endfacet
  facet normal 0 0 -1
    outer loop
      vertex 0.369141 2.72511 -6
      vertex 5.43999 6.23999 -6
      vertex 0.849796 2.61541 -6
    endloop
  endfacet
  facet normal 0 0 -1
    outer loop
      vertex -0.123378 2.74723 -6
      vertex 5.43999 6.23999 -6
      vertex 0.369141 2.72511 -6
    endloop
  endfacet
  facet normal 0 0 -1
    outer loop
      vertex -5.43999 6.23999 -6
      vertex -0.123378 2.74723 -6
      vertex -0.611932 2.68105 -6
    endloop
  endfacet
  facet normal 0 0 -1
    outer loop
      vertex -5.43999 6.23999 -6
      vertex -0.611932 2.68105 -6
      vertex -1.08082 2.5287 -6
    endloop
  endfacet
  facet normal 0 0 -1
    outer loop
      vertex -5.43999 6.23999 -6
      vertex -1.08082 2.5287 -6
      vertex -1.51497 2.29508 -6
    endloop
  endfacet
  facet normal -0 0 -1
    outer loop
      vertex -2.73893 -0.246508 -6
      vertex -6.23999 -5.43999 -6
      vertex -2.73893 0.246508 -6
    endloop
  endfacet
  facet normal 0 0 -1
    outer loop
      vertex -6.23999 5.43999 -6
      vertex -2.73893 0.246508 -6
      vertex -6.23999 -5.43999 -6
    endloop
  endfacet
  facet normal 0 0 -1
    outer loop
      vertex -0.123378 2.74723 -6
      vertex -5.43999 6.23999 -6
      vertex 5.43999 6.23999 -6
    endloop
  endfacet
  facet normal 0 0 -1
    outer loop
      vertex -1.90042 1.98769 -6
      vertex -5.43999 6.23999 -6
      vertex -1.51497 2.29508 -6
    endloop
  endfacet
  facet normal 0 0 -1
    outer loop
      vertex -6.23999 5.43999 -6
      vertex -1.90042 1.98769 -6
      vertex -2.2248 1.61641 -6
    endloop
  endfacet
  facet normal 0 0 -1
    outer loop
      vertex -6.23999 5.43999 -6
      vertex -2.2248 1.61641 -6
      vertex -2.47766 1.19318 -6
    endloop
  endfacet
  facet normal 0 0 -1
    outer loop
      vertex -2.73893 0.246508 -6
      vertex -6.23999 5.43999 -6
      vertex -2.6509 0.731601 -6
    endloop
  endfacet
  facet normal 0 0 -1
    outer loop
      vertex -6.23999 -5.43999 -6
      vertex -5.43999 -6.23999 -6
      vertex -5.81177 -6.14835 -6
    endloop
  endfacet
  facet normal 0 0 -1
    outer loop
      vertex -2.6509 0.731601 -6
      vertex -6.23999 5.43999 -6
      vertex -2.47766 1.19318 -6
    endloop
  endfacet
  facet normal 0 0 -1
    outer loop
      vertex -6.23999 -5.43999 -6
      vertex -5.81177 -6.14835 -6
      vertex -6.09838 -5.89445 -6
    endloop
  endfacet
  facet normal 0 0 -1
    outer loop
      vertex -1.90042 1.98769 -6
      vertex -6.23999 5.43999 -6
      vertex -5.43999 6.23999 -6
    endloop
  endfacet
  facet normal 0 0 -1
    outer loop
      vertex -5.43999 6.23999 -6
      vertex -6.23999 5.43999 -6
      vertex -5.89445 6.09838 -6
    endloop
  endfacet
  facet normal 0 0 -1
    outer loop
      vertex -5.89445 6.09838 -6
      vertex -6.23999 5.43999 -6
      vertex -6.14835 5.81177 -6
    endloop
  endfacet
  facet normal 0 0 -1
    outer loop
      vertex 0 -2.33345 -6
      vertex 0 2.33345 -6
      vertex 2.33345 -7.34788e-16 -6
    endloop
  endfacet
  facet normal 0 -0 -1
    outer loop
      vertex 0 2.33345 -6
      vertex 0 -2.33345 -6
      vertex -2.33345 -7.34788e-16 -6
    endloop
  endfacet
  facet normal -1.16482e-23 1.22465e-16 1
    outer loop
      vertex 6.75 -5.75 7.04172e-16
      vertex 7.79999 -6.79999 8.32758e-16
      vertex 7.79999 6.79999 -8.32758e-16
    endloop
  endfacet
  facet normal 2.39468e-23 1.22465e-16 1
    outer loop
      vertex 6.57298 6.31807 -7.7374e-16
      vertex 7.79999 6.79999 -8.32758e-16
      vertex 7.62297 7.36806 -9.02327e-16
    endloop
  endfacet
  facet normal 1.37753e-23 1.22465e-16 1
    outer loop
      vertex 6.75 -5.75 7.04172e-16
      vertex 7.79999 6.79999 -8.32758e-16
      vertex 6.75 5.75 -7.04172e-16
    endloop
  endfacet
  facet normal -7.74296e-23 1.22465e-16 1
    outer loop
      vertex 6.57298 6.31807 -7.7374e-16
      vertex 7.62297 7.36806 -9.02327e-16
      vertex 7.26471 7.68544 -9.41195e-16
    endloop
  endfacet
  facet normal 3.80093e-23 1.22465e-16 1
    outer loop
      vertex 6.21472 6.63545 -8.12609e-16
      vertex 7.26471 7.68544 -9.41195e-16
      vertex 6.79999 7.79999 -9.55223e-16
    endloop
  endfacet
  facet normal -2.0692e-23 1.22465e-16 1
    outer loop
      vertex 6.63545 -6.21472 7.61084e-16
      vertex 7.79999 -6.79999 8.32758e-16
      vertex 6.75 -5.75 7.04172e-16
    endloop
  endfacet
  facet normal 3.02491e-23 1.22465e-16 1
    outer loop
      vertex 7.79999 -6.79999 8.32758e-16
      vertex 6.63545 -6.21472 7.61084e-16
      vertex 7.68544 -7.26471 8.8967e-16
    endloop
  endfacet
  facet normal -8.66409e-24 1.22465e-16 1
    outer loop
      vertex 7.79999 6.79999 -8.32758e-16
      vertex 6.57298 6.31807 -7.7374e-16
      vertex 6.75 5.75 -7.04172e-16
    endloop
  endfacet
  facet normal 2.4609e-23 1.22465e-16 1
    outer loop
      vertex 7.26471 7.68544 -9.41195e-16
      vertex 6.21472 6.63545 -8.12609e-16
      vertex 6.57298 6.31807 -7.7374e-16
    endloop
  endfacet
  facet normal -6.33511e-23 1.22465e-16 1
    outer loop
      vertex 6.79999 7.79999 -9.55223e-16
      vertex 5.75 6.75 -8.26637e-16
      vertex 6.21472 6.63545 -8.12609e-16
    endloop
  endfacet
  facet normal 0 1.22465e-16 1
    outer loop
      vertex 6.79999 7.79999 -9.55223e-16
      vertex -5.75 6.75 -8.26637e-16
      vertex 5.75 6.75 -8.26637e-16
    endloop
  endfacet
  facet normal -2.0692e-23 1.22465e-16 1
    outer loop
      vertex -6.63545 6.21472 -7.61084e-16
      vertex -7.79999 6.79999 -8.32758e-16
      vertex -6.75 5.75 -7.04172e-16
    endloop
  endfacet
  facet normal 4.50143e-24 1.22465e-16 1
    outer loop
      vertex -6.31807 6.57298 -8.04958e-16
      vertex -7.79999 6.79999 -8.32758e-16
      vertex -6.63545 6.21472 -7.61084e-16
    endloop
  endfacet
  facet normal -4.28259e-24 1.22465e-16 1
    outer loop
      vertex -7.79999 6.79999 -8.32758e-16
      vertex -6.31807 6.57298 -8.04958e-16
      vertex -6.79999 7.79999 -9.55223e-16
    endloop
  endfacet
  facet normal 3.98439e-23 1.22465e-16 1
    outer loop
      vertex -5.75 6.75 -8.26637e-16
      vertex -6.79999 7.79999 -9.55223e-16
      vertex -6.31807 6.57298 -8.04958e-16
    endloop
  endfacet
  facet normal -0 1.22465e-16 1
    outer loop
      vertex -6.79999 7.79999 -9.55223e-16
      vertex -5.75 6.75 -8.26637e-16
      vertex 6.79999 7.79999 -9.55223e-16
    endloop
  endfacet
  facet normal -9.01144e-24 1.22465e-16 1
    outer loop
      vertex 6.31807 -6.57298 8.04958e-16
      vertex 7.68544 -7.26471 8.8967e-16
      vertex 6.63545 -6.21472 7.61084e-16
    endloop
  endfacet
  facet normal -6.06308e-23 1.22465e-16 1
    outer loop
      vertex 7.68544 -7.26471 8.8967e-16
      vertex 6.31807 -6.57298 8.04958e-16
      vertex 7.36806 -7.62297 9.33545e-16
    endloop
  endfacet
  facet normal -4.31862e-23 1.22465e-16 1
    outer loop
      vertex 7.36806 -7.62297 9.33545e-16
      vertex 6.31807 -6.57298 8.04958e-16
      vertex 6.79999 -7.79999 9.55223e-16
    endloop
  endfacet
  facet normal 3.98439e-23 1.22465e-16 1
    outer loop
      vertex 5.75 -6.75 8.26637e-16
      vertex 6.79999 -7.79999 9.55223e-16
      vertex 6.31807 -6.57298 8.04958e-16
    endloop
  endfacet
  facet normal -0 1.22465e-16 1
    outer loop
      vertex -5.75 -6.75 8.26637e-16
      vertex 6.79999 -7.79999 9.55223e-16
      vertex 5.75 -6.75 8.26637e-16
    endloop
  endfacet
  facet normal 0 1.22465e-16 1
    outer loop
      vertex -5.75 -6.75 8.26637e-16
      vertex -6.79999 -7.79999 9.55223e-16
      vertex 6.79999 -7.79999 9.55223e-16
    endloop
  endfacet
  facet normal -6.33511e-23 1.22465e-16 1
    outer loop
      vertex -6.21472 -6.63545 8.12609e-16
      vertex -6.79999 -7.79999 9.55223e-16
      vertex -5.75 -6.75 8.26637e-16
    endloop
  endfacet
  facet normal 2.4609e-23 1.22465e-16 1
    outer loop
      vertex -7.26471 -7.68544 9.41195e-16
      vertex -6.21472 -6.63545 8.12609e-16
      vertex -6.57298 -6.31807 7.7374e-16
    endloop
  endfacet
  facet normal -8.66409e-24 1.22465e-16 1
    outer loop
      vertex -7.79999 -6.79999 8.32758e-16
      vertex -6.57298 -6.31807 7.7374e-16
      vertex -6.75 -5.75 7.04172e-16
    endloop
  endfacet
  facet normal -1.37753e-23 1.22465e-16 1
    outer loop
      vertex -6.75 5.75 -7.04172e-16
      vertex -7.79999 6.79999 -8.32758e-16
      vertex -6.75 -5.75 7.04172e-16
    endloop
  endfacet
  facet normal 2.39468e-23 1.22465e-16 1
    outer loop
      vertex -7.62297 -7.36806 9.02327e-16
      vertex -6.57298 -6.31807 7.7374e-16
      vertex -7.79999 -6.79999 8.32758e-16
    endloop
  endfacet
  facet normal -6.77134e-23 1.22465e-16 1
    outer loop
      vertex -7.79999 6.79999 -8.32758e-16
      vertex -6.79999 7.79999 -9.55223e-16
      vertex -7.36806 7.62297 -9.33545e-16
    endloop
  endfacet
  facet normal 1.16482e-23 1.22465e-16 1
    outer loop
      vertex -6.75 -5.75 7.04172e-16
      vertex -7.79999 6.79999 -8.32758e-16
      vertex -7.79999 -6.79999 8.32758e-16
    endloop
  endfacet
  facet normal -3.16647e-22 1.22465e-16 1
    outer loop
      vertex -7.79999 6.79999 -8.32758e-16
      vertex -7.36806 7.62297 -9.33545e-16
      vertex -7.68544 7.26471 -8.8967e-16
    endloop
  endfacet
  facet normal 3.80093e-23 1.22465e-16 1
    outer loop
      vertex -6.21472 -6.63545 8.12609e-16
      vertex -7.26471 -7.68544 9.41195e-16
      vertex -6.79999 -7.79999 9.55223e-16
    endloop
  endfacet
  facet normal -7.74296e-23 1.22465e-16 1
    outer loop
      vertex -6.57298 -6.31807 7.7374e-16
      vertex -7.62297 -7.36806 9.02327e-16
      vertex -7.26471 -7.68544 9.41195e-16
    endloop
  endfacet
  facet normal -0.283704 0.910439 -0.30102
    outer loop
      vertex -5.43999 6.23999 -6
      vertex -7.36806 7.62297 -9.33545e-16
      vertex -6.79999 7.79999 -9.55223e-16
    endloop
  endfacet
  facet normal 0.228805 0.928265 -0.293211
    outer loop
      vertex 7.26471 7.68544 -9.41195e-16
      vertex 5.43999 6.23999 -6
      vertex 6.79999 7.79999 -9.55223e-16
    endloop
  endfacet
  facet normal 0.228806 0.928265 -0.293211
    outer loop
      vertex 5.81177 6.14835 -6
      vertex 5.43999 6.23999 -6
      vertex 7.26471 7.68544 -9.41195e-16
    endloop
  endfacet
  facet normal 0 -0.967823 -0.251633
    outer loop
      vertex -5.43999 -6.23999 -6
      vertex 6.79999 -7.79999 9.55223e-16
      vertex -6.79999 -7.79999 9.55223e-16
    endloop
  endfacet
  facet normal 0 -0.967823 -0.251633
    outer loop
      vertex 6.79999 -7.79999 9.55223e-16
      vertex -5.43999 -6.23999 -6
      vertex 5.43999 -6.23999 -6
    endloop
  endfacet
  facet normal 0.283704 -0.910439 -0.30102
    outer loop
      vertex 6.79999 -7.79999 9.55223e-16
      vertex 5.43999 -6.23999 -6
      vertex 7.36806 -7.62297 9.33545e-16
    endloop
  endfacet
  facet normal 0.928265 -0.228805 -0.293211
    outer loop
      vertex 7.68544 -7.26471 8.8967e-16
      vertex 6.23999 -5.43999 -6
      vertex 7.79999 -6.79999 8.32758e-16
    endloop
  endfacet
  facet normal -0.625428 -0.705981 -0.332311
    outer loop
      vertex -5.81177 -6.14835 -6
      vertex -7.62297 -7.36806 9.02327e-16
      vertex -6.09838 -5.89445 -6
    endloop
  endfacet
  facet normal -0.910439 -0.283704 -0.30102
    outer loop
      vertex -6.09838 -5.89445 -6
      vertex -7.62297 -7.36806 9.02327e-16
      vertex -6.23999 -5.43999 -6
    endloop
  endfacet
  facet normal -0.967823 0 -0.251633
    outer loop
      vertex -6.23999 -5.43999 -6
      vertex -7.79999 6.79999 -8.32758e-16
      vertex -6.23999 5.43999 -6
    endloop
  endfacet
  facet normal -0.967823 -3.08162e-17 -0.251633
    outer loop
      vertex -7.79999 6.79999 -8.32758e-16
      vertex -6.23999 -5.43999 -6
      vertex -7.79999 -6.79999 8.32758e-16
    endloop
  endfacet
  facet normal -0.928265 0.228806 -0.293211
    outer loop
      vertex -6.23999 5.43999 -6
      vertex -7.68544 7.26471 -8.8967e-16
      vertex -6.14835 5.81177 -6
    endloop
  endfacet
  facet normal -0.928265 0.228805 -0.293211
    outer loop
      vertex -6.23999 5.43999 -6
      vertex -7.79999 6.79999 -8.32758e-16
      vertex -7.68544 7.26471 -8.8967e-16
    endloop
  endfacet
  facet normal 0 0.967823 -0.251633
    outer loop
      vertex 5.43999 6.23999 -6
      vertex -6.79999 7.79999 -9.55223e-16
      vertex 6.79999 7.79999 -9.55223e-16
    endloop
  endfacet
  facet normal 0 0.967823 -0.251633
    outer loop
      vertex -6.79999 7.79999 -9.55223e-16
      vertex 5.43999 6.23999 -6
      vertex -5.43999 6.23999 -6
    endloop
  endfacet
  facet normal -0.228806 -0.928265 -0.293211
    outer loop
      vertex -5.43999 -6.23999 -6
      vertex -7.26471 -7.68544 9.41195e-16
      vertex -5.81177 -6.14835 -6
    endloop
  endfacet
  facet normal 0.928265 -0.228806 -0.293211
    outer loop
      vertex 7.68544 -7.26471 8.8967e-16
      vertex 6.14835 -5.81177 -6
      vertex 6.23999 -5.43999 -6
    endloop
  endfacet
  facet normal -0.705981 0.625428 -0.332311
    outer loop
      vertex -6.14835 5.81177 -6
      vertex -7.68544 7.26471 -8.8967e-16
      vertex -7.36806 7.62297 -9.33545e-16
    endloop
  endfacet
  facet normal -0.705981 0.625428 -0.332311
    outer loop
      vertex -6.14835 5.81177 -6
      vertex -7.36806 7.62297 -9.33545e-16
      vertex -5.89445 6.09838 -6
    endloop
  endfacet
  facet normal -0.228805 -0.928265 -0.293211
    outer loop
      vertex -6.79999 -7.79999 9.55223e-16
      vertex -7.26471 -7.68544 9.41195e-16
      vertex -5.43999 -6.23999 -6
    endloop
  endfacet
  facet normal 0.705981 -0.625428 -0.332311
    outer loop
      vertex 7.36806 -7.62297 9.33545e-16
      vertex 6.14835 -5.81177 -6
      vertex 7.68544 -7.26471 8.8967e-16
    endloop
  endfacet
  facet normal 0.705981 -0.625428 -0.332311
    outer loop
      vertex 7.36806 -7.62297 9.33545e-16
      vertex 5.89445 -6.09838 -6
      vertex 6.14835 -5.81177 -6
    endloop
  endfacet
  facet normal 0.992709 -0.120538 1.67903e-17
    outer loop
      vertex 1.94188 -0.478631 8
      vertex 2 6.12323e-16 5
      vertex 2 9.79717e-16 8
    endloop
  endfacet
  facet normal 0.992709 -0.120538 0
    outer loop
      vertex 2 6.12323e-16 5
      vertex 1.94188 -0.478631 8
      vertex 1.94188 -0.478631 5
    endloop
  endfacet
  facet normal -0.992709 -0.120538 1.67903e-17
    outer loop
      vertex -1.94188 -0.478631 5
      vertex -2 9.79717e-16 8
      vertex -2 6.12323e-16 5
    endloop
  endfacet
  facet normal -0.992709 -0.120538 0
    outer loop
      vertex -2 9.79717e-16 8
      vertex -1.94188 -0.478631 5
      vertex -1.94188 -0.478631 8
    endloop
  endfacet
  facet normal 0 -1 0
    outer loop
      vertex -0.241073 -1.98542 5
      vertex 0.241073 -1.98542 8
      vertex -0.241073 -1.98542 8
    endloop
  endfacet
  facet normal 0 -1 -0
    outer loop
      vertex 0.241073 -1.98542 8
      vertex -0.241073 -1.98542 5
      vertex 0.241073 -1.98542 5
    endloop
  endfacet
  facet normal 0 1 -0
    outer loop
      vertex 0.241073 1.98542 5
      vertex -0.241073 1.98542 8
      vertex 0.241073 1.98542 8
    endloop
  endfacet
  facet normal 0 1 0
    outer loop
      vertex -0.241073 1.98542 8
      vertex 0.241073 1.98542 5
      vertex -0.241073 1.98542 5
    endloop
  endfacet
  facet normal 0.239315 0.970942 -0
    outer loop
      vertex 0.709209 1.87003 5
      vertex 0.241073 1.98542 8
      vertex 0.709209 1.87003 8
    endloop
  endfacet
  facet normal 0.239315 0.970942 0
    outer loop
      vertex 0.241073 1.98542 8
      vertex 0.709209 1.87003 5
      vertex 0.241073 1.98542 5
    endloop
  endfacet
  facet normal 0.663123 -0.74851 0
    outer loop
      vertex 1.13613 -1.64597 5
      vertex 1.49702 -1.32625 8
      vertex 1.13613 -1.64597 8
    endloop
  endfacet
  facet normal 0.663123 -0.74851 0
    outer loop
      vertex 1.49702 -1.32625 8
      vertex 1.13613 -1.64597 5
      vertex 1.49702 -1.32625 5
    endloop
  endfacet
  facet normal 0.935016 -0.354605 0
    outer loop
      vertex 1.77091 -0.929446 8
      vertex 1.94188 -0.478631 5
      vertex 1.94188 -0.478631 8
    endloop
  endfacet
  facet normal 0.935016 -0.354605 0
    outer loop
      vertex 1.94188 -0.478631 5
      vertex 1.77091 -0.929446 8
      vertex 1.77091 -0.929446 5
    endloop
  endfacet
  facet normal 0.464723 -0.885456 0
    outer loop
      vertex 0.709209 -1.87003 5
      vertex 1.13613 -1.64597 8
      vertex 0.709209 -1.87003 8
    endloop
  endfacet
  facet normal 0.464723 -0.885456 0
    outer loop
      vertex 1.13613 -1.64597 8
      vertex 0.709209 -1.87003 5
      vertex 1.13613 -1.64597 5
    endloop
  endfacet
  facet normal -0.663123 -0.74851 0
    outer loop
      vertex -1.49702 -1.32625 5
      vertex -1.13613 -1.64597 8
      vertex -1.49702 -1.32625 8
    endloop
  endfacet
  facet normal -0.663123 -0.74851 -0
    outer loop
      vertex -1.13613 -1.64597 8
      vertex -1.49702 -1.32625 5
      vertex -1.13613 -1.64597 5
    endloop
  endfacet
  facet normal -0.822984 -0.568065 0
    outer loop
      vertex -1.49702 -1.32625 5
      vertex -1.77091 -0.929446 8
      vertex -1.77091 -0.929446 5
    endloop
  endfacet
  facet normal -0.822984 -0.568065 0
    outer loop
      vertex -1.77091 -0.929446 8
      vertex -1.49702 -1.32625 5
      vertex -1.49702 -1.32625 8
    endloop
  endfacet
  facet normal -0.239315 -0.970942 0
    outer loop
      vertex -0.709209 -1.87003 5
      vertex -0.241073 -1.98542 8
      vertex -0.709209 -1.87003 8
    endloop
  endfacet
  facet normal -0.239315 -0.970942 -0
    outer loop
      vertex -0.241073 -1.98542 8
      vertex -0.709209 -1.87003 5
      vertex -0.241073 -1.98542 5
    endloop
  endfacet
  facet normal 0.935016 0.354605 0
    outer loop
      vertex 1.94188 0.478631 8
      vertex 1.77091 0.929446 5
      vertex 1.77091 0.929446 8
    endloop
  endfacet
  facet normal 0.935016 0.354605 0
    outer loop
      vertex 1.77091 0.929446 5
      vertex 1.94188 0.478631 8
      vertex 1.94188 0.478631 5
    endloop
  endfacet
  facet normal 0.822984 -0.568065 0
    outer loop
      vertex 1.49702 -1.32625 8
      vertex 1.77091 -0.929446 5
      vertex 1.77091 -0.929446 8
    endloop
  endfacet
  facet normal 0.822984 -0.568065 0
    outer loop
      vertex 1.77091 -0.929446 5
      vertex 1.49702 -1.32625 8
      vertex 1.49702 -1.32625 5
    endloop
  endfacet
  facet normal 0.239315 -0.970942 0
    outer loop
      vertex 0.241073 -1.98542 5
      vertex 0.709209 -1.87003 8
      vertex 0.241073 -1.98542 8
    endloop
  endfacet
  facet normal 0.239315 -0.970942 0
    outer loop
      vertex 0.709209 -1.87003 8
      vertex 0.241073 -1.98542 5
      vertex 0.709209 -1.87003 5
    endloop
  endfacet
  facet normal -0.935016 -0.354605 0
    outer loop
      vertex -1.77091 -0.929446 5
      vertex -1.94188 -0.478631 8
      vertex -1.94188 -0.478631 5
    endloop
  endfacet
  facet normal -0.935016 -0.354605 0
    outer loop
      vertex -1.94188 -0.478631 8
      vertex -1.77091 -0.929446 5
      vertex -1.77091 -0.929446 8
    endloop
  endfacet
  facet normal -0.464723 -0.885456 0
    outer loop
      vertex -1.13613 -1.64597 5
      vertex -0.709209 -1.87003 8
      vertex -1.13613 -1.64597 8
    endloop
  endfacet
  facet normal -0.464723 -0.885456 -0
    outer loop
      vertex -0.709209 -1.87003 8
      vertex -1.13613 -1.64597 5
      vertex -0.709209 -1.87003 5
    endloop
  endfacet
  facet normal 0.992709 0.120538 0
    outer loop
      vertex 2 9.79717e-16 8
      vertex 1.94188 0.478631 5
      vertex 1.94188 0.478631 8
    endloop
  endfacet
  facet normal 0.992709 0.120538 -1.67903e-17
    outer loop
      vertex 1.94188 0.478631 5
      vertex 2 9.79717e-16 8
      vertex 2 6.12323e-16 5
    endloop
  endfacet
  facet normal 0 0 1
    outer loop
      vertex 1.94188 0.478631 8
      vertex 1.94188 -0.478631 8
      vertex 2 9.79717e-16 8
    endloop
  endfacet
  facet normal 0 0 1
    outer loop
      vertex 1.77091 0.929446 8
      vertex 1.94188 -0.478631 8
      vertex 1.94188 0.478631 8
    endloop
  endfacet
  facet normal 0 0 1
    outer loop
      vertex 1.77091 0.929446 8
      vertex 1.77091 -0.929446 8
      vertex 1.94188 -0.478631 8
    endloop
  endfacet
  facet normal 0 0 1
    outer loop
      vertex 1.49702 1.32625 8
      vertex 1.77091 -0.929446 8
      vertex 1.77091 0.929446 8
    endloop
  endfacet
  facet normal 0 0 1
    outer loop
      vertex 1.49702 1.32625 8
      vertex 1.49702 -1.32625 8
      vertex 1.77091 -0.929446 8
    endloop
  endfacet
  facet normal 0 0 1
    outer loop
      vertex 1.13613 1.64597 8
      vertex 1.49702 -1.32625 8
      vertex 1.49702 1.32625 8
    endloop
  endfacet
  facet normal 0 0 1
    outer loop
      vertex 1.13613 1.64597 8
      vertex 1.13613 -1.64597 8
      vertex 1.49702 -1.32625 8
    endloop
  endfacet
  facet normal 0 0 1
    outer loop
      vertex 0.709209 1.87003 8
      vertex 1.13613 -1.64597 8
      vertex 1.13613 1.64597 8
    endloop
  endfacet
  facet normal 0 0 1
    outer loop
      vertex 0.709209 1.87003 8
      vertex 0.709209 -1.87003 8
      vertex 1.13613 -1.64597 8
    endloop
  endfacet
  facet normal 0 0 1
    outer loop
      vertex 0.241073 1.98542 8
      vertex 0.709209 -1.87003 8
      vertex 0.709209 1.87003 8
    endloop
  endfacet
  facet normal 0 0 1
    outer loop
      vertex 0.241073 1.98542 8
      vertex 0.241073 -1.98542 8
      vertex 0.709209 -1.87003 8
    endloop
  endfacet
  facet normal -0 0 1
    outer loop
      vertex -0.241073 1.98542 8
      vertex 0.241073 -1.98542 8
      vertex 0.241073 1.98542 8
    endloop
  endfacet
  facet normal 0 0 1
    outer loop
      vertex -0.241073 1.98542 8
      vertex -0.241073 -1.98542 8
      vertex 0.241073 -1.98542 8
    endloop
  endfacet
  facet normal -0 0 1
    outer loop
      vertex -0.709209 1.87003 8
      vertex -0.241073 -1.98542 8
      vertex -0.241073 1.98542 8
    endloop
  endfacet
  facet normal 0 0 1
    outer loop
      vertex -0.709209 1.87003 8
      vertex -0.709209 -1.87003 8
      vertex -0.241073 -1.98542 8
    endloop
  endfacet
  facet normal -0 0 1
    outer loop
      vertex -1.13613 1.64597 8
      vertex -0.709209 -1.87003 8
      vertex -0.709209 1.87003 8
    endloop
  endfacet
  facet normal 0 0 1
    outer loop
      vertex -1.13613 1.64597 8
      vertex -1.13613 -1.64597 8
      vertex -0.709209 -1.87003 8
    endloop
  endfacet
  facet normal -0 0 1
    outer loop
      vertex -1.49702 1.32625 8
      vertex -1.13613 -1.64597 8
      vertex -1.13613 1.64597 8
    endloop
  endfacet
  facet normal 0 0 1
    outer loop
      vertex -1.49702 1.32625 8
      vertex -1.49702 -1.32625 8
      vertex -1.13613 -1.64597 8
    endloop
  endfacet
  facet normal -0 0 1
    outer loop
      vertex -1.77091 0.929446 8
      vertex -1.49702 -1.32625 8
      vertex -1.49702 1.32625 8
    endloop
  endfacet
  facet normal 0 0 1
    outer loop
      vertex -1.77091 0.929446 8
      vertex -1.77091 -0.929446 8
      vertex -1.49702 -1.32625 8
    endloop
  endfacet
  facet normal -0 0 1
    outer loop
      vertex -1.94188 0.478631 8
      vertex -1.77091 -0.929446 8
      vertex -1.77091 0.929446 8
    endloop
  endfacet
  facet normal 0 0 1
    outer loop
      vertex -1.94188 0.478631 8
      vertex -1.94188 -0.478631 8
      vertex -1.77091 -0.929446 8
    endloop
  endfacet
  facet normal 0 -0 1
    outer loop
      vertex -1.94188 -0.478631 8
      vertex -1.94188 0.478631 8
      vertex -2 9.79717e-16 8
    endloop
  endfacet
  facet normal 0.663123 0.74851 -0
    outer loop
      vertex 1.49702 1.32625 5
      vertex 1.13613 1.64597 8
      vertex 1.49702 1.32625 8
    endloop
  endfacet
  facet normal 0.663123 0.74851 0
    outer loop
      vertex 1.13613 1.64597 8
      vertex 1.49702 1.32625 5
      vertex 1.13613 1.64597 5
    endloop
  endfacet
  facet normal 0.822984 0.568065 0
    outer loop
      vertex 1.77091 0.929446 8
      vertex 1.49702 1.32625 5
      vertex 1.49702 1.32625 8
    endloop
  endfacet
  facet normal 0.822984 0.568065 0
    outer loop
      vertex 1.49702 1.32625 5
      vertex 1.77091 0.929446 8
      vertex 1.77091 0.929446 5
    endloop
  endfacet
  facet normal -0.822984 0.568065 0
    outer loop
      vertex -1.77091 0.929446 5
      vertex -1.49702 1.32625 8
      vertex -1.49702 1.32625 5
    endloop
  endfacet
  facet normal -0.822984 0.568065 0
    outer loop
      vertex -1.49702 1.32625 8
      vertex -1.77091 0.929446 5
      vertex -1.77091 0.929446 8
    endloop
  endfacet
  facet normal 0.464723 0.885456 -0
    outer loop
      vertex 1.13613 1.64597 5
      vertex 0.709209 1.87003 8
      vertex 1.13613 1.64597 8
    endloop
  endfacet
  facet normal 0.464723 0.885456 0
    outer loop
      vertex 0.709209 1.87003 8
      vertex 1.13613 1.64597 5
      vertex 0.709209 1.87003 5
    endloop
  endfacet
  facet normal -0.239315 0.970942 0
    outer loop
      vertex -0.241073 1.98542 5
      vertex -0.709209 1.87003 8
      vertex -0.241073 1.98542 8
    endloop
  endfacet
  facet normal -0.239315 0.970942 0
    outer loop
      vertex -0.709209 1.87003 8
      vertex -0.241073 1.98542 5
      vertex -0.709209 1.87003 5
    endloop
  endfacet
  facet normal -0.663123 0.74851 0
    outer loop
      vertex -1.13613 1.64597 5
      vertex -1.49702 1.32625 8
      vertex -1.13613 1.64597 8
    endloop
  endfacet
  facet normal -0.663123 0.74851 0
    outer loop
      vertex -1.49702 1.32625 8
      vertex -1.13613 1.64597 5
      vertex -1.49702 1.32625 5
    endloop
  endfacet
  facet normal -0.935016 0.354605 0
    outer loop
      vertex -1.94188 0.478631 5
      vertex -1.77091 0.929446 8
      vertex -1.77091 0.929446 5
    endloop
  endfacet
  facet normal -0.935016 0.354605 0
    outer loop
      vertex -1.77091 0.929446 8
      vertex -1.94188 0.478631 5
      vertex -1.94188 0.478631 8
    endloop
  endfacet
  facet normal -0.992709 0.120538 0
    outer loop
      vertex -1.94188 0.478631 5
      vertex -2 9.79717e-16 8
      vertex -1.94188 0.478631 8
    endloop
  endfacet
  facet normal -0.992709 0.120538 -1.47616e-17
    outer loop
      vertex -2 9.79717e-16 8
      vertex -1.94188 0.478631 5
      vertex -2 6.12323e-16 5
    endloop
  endfacet
  facet normal -0.464723 0.885456 0
    outer loop
      vertex -0.709209 1.87003 5
      vertex -1.13613 1.64597 8
      vertex -0.709209 1.87003 8
    endloop
  endfacet
  facet normal -0.464723 0.885456 0
    outer loop
      vertex -1.13613 1.64597 8
      vertex -0.709209 1.87003 5
      vertex -1.13613 1.64597 5
    endloop
  endfacet
  facet normal 0 -0.921982 0.387234
    outer loop
      vertex -5.29979 5.29979 -11.3
      vertex 7.9458 7.9458 -5
      vertex -7.9458 7.9458 -5
    endloop
  endfacet
  facet normal 0 -0.921982 0.387234
    outer loop
      vertex 7.9458 7.9458 -5
      vertex -5.29979 5.29979 -11.3
      vertex 5.29979 5.29979 -11.3
    endloop
  endfacet
  facet normal 0.921982 0 0.387234
    outer loop
      vertex -7.9458 7.9458 -5
      vertex -5.29979 -5.29979 -11.3
      vertex -5.29979 5.29979 -11.3
    endloop
  endfacet
  facet normal 0.921982 0 0.387234
    outer loop
      vertex -5.29979 -5.29979 -11.3
      vertex -7.9458 7.9458 -5
      vertex -7.9458 -7.9458 -5
    endloop
  endfacet
  facet normal -0.921982 0 0.387234
    outer loop
      vertex 5.29979 -5.29979 -11.3
      vertex 7.9458 7.9458 -5
      vertex 5.29979 5.29979 -11.3
    endloop
  endfacet
  facet normal -0.921982 0 0.387234
    outer loop
      vertex 7.9458 7.9458 -5
      vertex 5.29979 -5.29979 -11.3
      vertex 7.9458 -7.9458 -5
    endloop
  endfacet
  facet normal 0 0.921982 0.387234
    outer loop
      vertex 5.29979 -5.29979 -11.3
      vertex -7.9458 -7.9458 -5
      vertex 7.9458 -7.9458 -5
    endloop
  endfacet
  facet normal 0 0.921982 0.387234
    outer loop
      vertex -7.9458 -7.9458 -5
      vertex 5.29979 -5.29979 -11.3
      vertex -5.29979 -5.29979 -11.3
    endloop
  endfacet
  facet normal 0 0 1
    outer loop
      vertex 5.29979 5.29979 -11.3
      vertex 2.75 -1.38385e-15 -11.3
      vertex 5.29979 -5.29979 -11.3
    endloop
  endfacet
  facet normal 0 0 1
    outer loop
      vertex 5.29979 5.29979 -11.3
      vertex 2.70581 0.491031 -11.3
      vertex 2.75 -1.38385e-15 -11.3
    endloop
  endfacet
  facet normal 0 0 1
    outer loop
      vertex 5.29979 5.29979 -11.3
      vertex 2.57465 0.96628 -11.3
      vertex 2.70581 0.491031 -11.3
    endloop
  endfacet
  facet normal 0 0 1
    outer loop
      vertex 5.29979 5.29979 -11.3
      vertex 2.36073 1.41047 -11.3
      vertex 2.57465 0.96628 -11.3
    endloop
  endfacet
  facet normal 0 0 1
    outer loop
      vertex 5.29979 5.29979 -11.3
      vertex 2.07095 1.80933 -11.3
      vertex 2.36073 1.41047 -11.3
    endloop
  endfacet
  facet normal 0 0 1
    outer loop
      vertex 5.29979 5.29979 -11.3
      vertex 1.7146 2.15004 -11.3
      vertex 2.07095 1.80933 -11.3
    endloop
  endfacet
  facet normal 0 0 1
    outer loop
      vertex 5.29979 5.29979 -11.3
      vertex 1.30314 2.42164 -11.3
      vertex 1.7146 2.15004 -11.3
    endloop
  endfacet
  facet normal 0 0 1
    outer loop
      vertex 5.29979 5.29979 -11.3
      vertex 0.849796 2.61541 -11.3
      vertex 1.30314 2.42164 -11.3
    endloop
  endfacet
  facet normal 0 0 1
    outer loop
      vertex 5.29979 5.29979 -11.3
      vertex 0.369141 2.72511 -11.3
      vertex 0.849796 2.61541 -11.3
    endloop
  endfacet
  facet normal 0 0 1
    outer loop
      vertex 5.29979 5.29979 -11.3
      vertex -0.123378 2.74723 -11.3
      vertex 0.369141 2.72511 -11.3
    endloop
  endfacet
  facet normal -0 0 1
    outer loop
      vertex -5.29979 5.29979 -11.3
      vertex -0.123378 2.74723 -11.3
      vertex 5.29979 5.29979 -11.3
    endloop
  endfacet
  facet normal 0 0 1
    outer loop
      vertex -0.123378 2.74723 -11.3
      vertex -5.29979 5.29979 -11.3
      vertex -0.611932 2.68105 -11.3
    endloop
  endfacet
  facet normal 0 0 1
    outer loop
      vertex -2.73893 0.246508 -11.3
      vertex -5.29979 5.29979 -11.3
      vertex -2.73893 -0.246508 -11.3
    endloop
  endfacet
  facet normal 0 0 1
    outer loop
      vertex -2.6509 0.731601 -11.3
      vertex -5.29979 5.29979 -11.3
      vertex -2.73893 0.246508 -11.3
    endloop
  endfacet
  facet normal 0 0 1
    outer loop
      vertex -2.47766 1.19318 -11.3
      vertex -5.29979 5.29979 -11.3
      vertex -2.6509 0.731601 -11.3
    endloop
  endfacet
  facet normal 0 0 1
    outer loop
      vertex -2.2248 1.61641 -11.3
      vertex -5.29979 5.29979 -11.3
      vertex -2.47766 1.19318 -11.3
    endloop
  endfacet
  facet normal 0 0 1
    outer loop
      vertex -1.90042 1.98769 -11.3
      vertex -5.29979 5.29979 -11.3
      vertex -2.2248 1.61641 -11.3
    endloop
  endfacet
  facet normal 0 0 1
    outer loop
      vertex -1.51497 2.29508 -11.3
      vertex -5.29979 5.29979 -11.3
      vertex -1.90042 1.98769 -11.3
    endloop
  endfacet
  facet normal 0 0 1
    outer loop
      vertex -1.08082 2.5287 -11.3
      vertex -5.29979 5.29979 -11.3
      vertex -1.51497 2.29508 -11.3
    endloop
  endfacet
  facet normal 0 0 1
    outer loop
      vertex -0.611932 2.68105 -11.3
      vertex -5.29979 5.29979 -11.3
      vertex -1.08082 2.5287 -11.3
    endloop
  endfacet
  facet normal -0 0 1
    outer loop
      vertex 2.70581 -0.491031 -11.3
      vertex 5.29979 -5.29979 -11.3
      vertex 2.75 -1.38385e-15 -11.3
    endloop
  endfacet
  facet normal -0 0 1
    outer loop
      vertex 2.57465 -0.96628 -11.3
      vertex 5.29979 -5.29979 -11.3
      vertex 2.70581 -0.491031 -11.3
    endloop
  endfacet
  facet normal -0 0 1
    outer loop
      vertex 2.36073 -1.41047 -11.3
      vertex 5.29979 -5.29979 -11.3
      vertex 2.57465 -0.96628 -11.3
    endloop
  endfacet
  facet normal -0 0 1
    outer loop
      vertex 2.07095 -1.80933 -11.3
      vertex 5.29979 -5.29979 -11.3
      vertex 2.36073 -1.41047 -11.3
    endloop
  endfacet
  facet normal -0 0 1
    outer loop
      vertex 1.7146 -2.15004 -11.3
      vertex 5.29979 -5.29979 -11.3
      vertex 2.07095 -1.80933 -11.3
    endloop
  endfacet
  facet normal -0 0 1
    outer loop
      vertex 1.30314 -2.42164 -11.3
      vertex 5.29979 -5.29979 -11.3
      vertex 1.7146 -2.15004 -11.3
    endloop
  endfacet
  facet normal -0 0 1
    outer loop
      vertex 0.849796 -2.61541 -11.3
      vertex 5.29979 -5.29979 -11.3
      vertex 1.30314 -2.42164 -11.3
    endloop
  endfacet
  facet normal -0 0 1
    outer loop
      vertex 0.369141 -2.72511 -11.3
      vertex 5.29979 -5.29979 -11.3
      vertex 0.849796 -2.61541 -11.3
    endloop
  endfacet
  facet normal -0 0 1
    outer loop
      vertex -0.123378 -2.74723 -11.3
      vertex 5.29979 -5.29979 -11.3
      vertex 0.369141 -2.72511 -11.3
    endloop
  endfacet
  facet normal 0 0 1
    outer loop
      vertex -5.29979 -5.29979 -11.3
      vertex -0.123378 -2.74723 -11.3
      vertex -0.611932 -2.68105 -11.3
    endloop
  endfacet
  facet normal 0 0 1
    outer loop
      vertex -5.29979 -5.29979 -11.3
      vertex -0.611932 -2.68105 -11.3
      vertex -1.08082 -2.5287 -11.3
    endloop
  endfacet
  facet normal 0 0 1
    outer loop
      vertex -5.29979 -5.29979 -11.3
      vertex -2.73893 -0.246508 -11.3
      vertex -5.29979 5.29979 -11.3
    endloop
  endfacet
  facet normal 0 0 1
    outer loop
      vertex -2.73893 -0.246508 -11.3
      vertex -5.29979 -5.29979 -11.3
      vertex -2.6509 -0.731601 -11.3
    endloop
  endfacet
  facet normal 0 0 1
    outer loop
      vertex -0.123378 -2.74723 -11.3
      vertex -5.29979 -5.29979 -11.3
      vertex 5.29979 -5.29979 -11.3
    endloop
  endfacet
  facet normal 0 0 1
    outer loop
      vertex -1.51497 -2.29508 -11.3
      vertex -5.29979 -5.29979 -11.3
      vertex -1.08082 -2.5287 -11.3
    endloop
  endfacet
  facet normal 0 0 1
    outer loop
      vertex -1.90042 -1.98769 -11.3
      vertex -5.29979 -5.29979 -11.3
      vertex -1.51497 -2.29508 -11.3
    endloop
  endfacet
  facet normal 0 0 1
    outer loop
      vertex -2.2248 -1.61641 -11.3
      vertex -5.29979 -5.29979 -11.3
      vertex -1.90042 -1.98769 -11.3
    endloop
  endfacet
  facet normal 0 0 1
    outer loop
      vertex -2.47766 -1.19318 -11.3
      vertex -5.29979 -5.29979 -11.3
      vertex -2.2248 -1.61641 -11.3
    endloop
  endfacet
  facet normal 0 0 1
    outer loop
      vertex -2.6509 -0.731601 -11.3
      vertex -5.29979 -5.29979 -11.3
      vertex -2.47766 -1.19318 -11.3
    endloop
  endfacet
  facet normal 0 0 1
    outer loop
      vertex 0 2.33345 -11.3
      vertex 0 -2.33345 -11.3
      vertex 2.33345 -1.38385e-15 -11.3
    endloop
  endfacet
  facet normal 0 -0 1
    outer loop
      vertex 0 -2.33345 -11.3
      vertex 0 2.33345 -11.3
      vertex -2.33345 -1.38385e-15 -11.3
    endloop
  endfacet
  facet normal 0 0 1
    outer loop
      vertex 9.15 9.15 -5
      vertex 7.9458 7.9458 -5
      vertex 9.15 -9.15 -5
    endloop
  endfacet
  facet normal 0 0 1
    outer loop
      vertex 9.15 9.15 -5
      vertex -7.9458 7.9458 -5
      vertex 7.9458 7.9458 -5
    endloop
  endfacet
  facet normal 0 0 1
    outer loop
      vertex -7.9458 7.9458 -5
      vertex -9.15 9.15 -5
      vertex -7.9458 -7.9458 -5
    endloop
  endfacet
  facet normal -0 0 1
    outer loop
      vertex -9.15 9.15 -5
      vertex -7.9458 7.9458 -5
      vertex 9.15 9.15 -5
    endloop
  endfacet
  facet normal -0 0 1
    outer loop
      vertex 7.9458 -7.9458 -5
      vertex 9.15 -9.15 -5
      vertex 7.9458 7.9458 -5
    endloop
  endfacet
  facet normal -0 0 1
    outer loop
      vertex -7.9458 -7.9458 -5
      vertex 9.15 -9.15 -5
      vertex 7.9458 -7.9458 -5
    endloop
  endfacet
  facet normal 0 0 1
    outer loop
      vertex -7.9458 -7.9458 -5
      vertex -9.15 -9.15 -5
      vertex 9.15 -9.15 -5
    endloop
  endfacet
  facet normal 0 0 1
    outer loop
      vertex -9.15 -9.15 -5
      vertex -7.9458 -7.9458 -5
      vertex -9.15 9.15 -5
    endloop
  endfacet
  facet normal 0 0.921982 -0.387232
    outer loop
      vertex 4.5 6 -12.5
      vertex -9.15 9.15 -5
      vertex 9.15 9.15 -5
    endloop
  endfacet
  facet normal 0 0.921982 -0.387232
    outer loop
      vertex -9.15 9.15 -5
      vertex 4.5 6 -12.5
      vertex -4.5 6 -12.5
    endloop
  endfacet
  facet normal -0.921982 -4.10326e-08 -0.387233
    outer loop
      vertex -6 -4.5 -12.5
      vertex -9.15 -9.15 -5
      vertex -6 4.5 -12.5
    endloop
  endfacet
  facet normal -0.921982 0 -0.387232
    outer loop
      vertex -9.15 -9.15 -5
      vertex -9.15 9.15 -5
      vertex -6 4.5 -12.5
    endloop
  endfacet
  facet normal 0.921982 0 -0.387232
    outer loop
      vertex 9.15 -9.15 -5
      vertex 6 4.5 -12.5
      vertex 9.15 9.15 -5
    endloop
  endfacet
  facet normal -0.146242 0.876436 -0.458773
    outer loop
      vertex -4.98705 5.91873 -12.5
      vertex -9.15 9.15 -5
      vertex -4.5 6 -12.5
    endloop
  endfacet
  facet normal 0.778474 -0.341467 -0.526668
    outer loop
      vertex 9.15 -9.15 -5
      vertex 5.75575 -5.32042 -12.5
      vertex 5.9541 -4.86823 -12.5
    endloop
  endfacet
  facet normal 0 -0.921982 -0.387232
    outer loop
      vertex -4.5 -6 -12.5
      vertex 9.15 -9.15 -5
      vertex -9.15 -9.15 -5
    endloop
  endfacet
  facet normal 0 -0.921982 -0.387232
    outer loop
      vertex 9.15 -9.15 -5
      vertex -4.5 -6 -12.5
      vertex 4.5 -6 -12.5
    endloop
  endfacet
  facet normal -0.608741 0.560367 -0.561625
    outer loop
      vertex -5.75575 5.32042 -12.5
      vertex -9.15 9.15 -5
      vertex -5.42133 5.68372 -12.5
    endloop
  endfacet
  facet normal -0.110921 -0.889873 -0.442518
    outer loop
      vertex -4.5 -6 -12.5
      vertex -9.15 -9.15 -5
      vertex -4.86823 -5.9541 -12.5
    endloop
  endfacet
  facet normal -0.560367 -0.608741 -0.561625
    outer loop
      vertex -5.32042 -5.75575 -12.5
      vertex -9.15 -9.15 -5
      vertex -5.68372 -5.42133 -12.5
    endloop
  endfacet
  facet normal 0 0 -1
    outer loop
      vertex 6 4.5 -12.5
      vertex 5.68372 5.42133 -12.5
      vertex 5.91873 4.98705 -12.5
    endloop
  endfacet
  facet normal 0 0 -1
    outer loop
      vertex 6 4.5 -12.5
      vertex 5.32042 5.75575 -12.5
      vertex 5.68372 5.42133 -12.5
    endloop
  endfacet
  facet normal 0 0 -1
    outer loop
      vertex 6 4.5 -12.5
      vertex 4.86823 5.9541 -12.5
      vertex 5.32042 5.75575 -12.5
    endloop
  endfacet
  facet normal 0 0 -1
    outer loop
      vertex 6 4.5 -12.5
      vertex 4.5 6 -12.5
      vertex 4.86823 5.9541 -12.5
    endloop
  endfacet
  facet normal 0 0 -1
    outer loop
      vertex 6 4.5 -12.5
      vertex -4.5 6 -12.5
      vertex 4.5 6 -12.5
    endloop
  endfacet
  facet normal 0 0 -1
    outer loop
      vertex -6 4.5 -12.5
      vertex -4.5 6 -12.5
      vertex 6 4.5 -12.5
    endloop
  endfacet
  facet normal 0 0 -1
    outer loop
      vertex -4.5 6 -12.5
      vertex -6 4.5 -12.5
      vertex -4.98705 5.91873 -12.5
    endloop
  endfacet
  facet normal 0 0 -1
    outer loop
      vertex -4.98705 5.91873 -12.5
      vertex -6 4.5 -12.5
      vertex -5.42133 5.68372 -12.5
    endloop
  endfacet
  facet normal 0 0 -1
    outer loop
      vertex -5.42133 5.68372 -12.5
      vertex -6 4.5 -12.5
      vertex -5.75575 5.32042 -12.5
    endloop
  endfacet
  facet normal 0 0 -1
    outer loop
      vertex -5.75575 5.32042 -12.5
      vertex -6 4.5 -12.5
      vertex -5.9541 4.86823 -12.5
    endloop
  endfacet
  facet normal 0.739721 0.400309 -0.540894
    outer loop
      vertex 5.91873 4.98705 -12.5
      vertex 5.68372 5.42133 -12.5
      vertex 9.15 9.15 -5
    endloop
  endfacet
  facet normal -0.400309 0.739721 -0.540894
    outer loop
      vertex -5.42133 5.68372 -12.5
      vertex -9.15 9.15 -5
      vertex -4.98705 5.91873 -12.5
    endloop
  endfacet
  facet normal -0.778474 0.341467 -0.526668
    outer loop
      vertex -5.9541 4.86823 -12.5
      vertex -9.15 9.15 -5
      vertex -5.75575 5.32042 -12.5
    endloop
  endfacet
  facet normal -0.876436 -0.146242 -0.458773
    outer loop
      vertex -5.91873 -4.98705 -12.5
      vertex -9.15 -9.15 -5
      vertex -6 -4.5 -12.5
    endloop
  endfacet
  facet normal -6.35047e-07 -1.05964e-07 -1
    outer loop
      vertex -6 -4.5 -12.5
      vertex -6 4.5 -12.5
      vertex -5.91873 -4.98705 -12.5
    endloop
  endfacet
  facet normal 0 -9.08261e-08 -1
    outer loop
      vertex -4.5 -6 -12.5
      vertex 6 4.5 -12.5
      vertex 4.5 -6 -12.5
    endloop
  endfacet
  facet normal -0 -9.08261e-08 -1
    outer loop
      vertex 6 4.5 -12.5
      vertex -4.5 -6 -12.5
      vertex -6 4.5 -12.5
    endloop
  endfacet
  facet normal 0.400309 -0.739721 -0.540894
    outer loop
      vertex 9.15 -9.15 -5
      vertex 4.98705 -5.91873 -12.5
      vertex 5.42133 -5.68372 -12.5
    endloop
  endfacet
  facet normal 8.50106e-07 -1.05964e-07 -1
    outer loop
      vertex 6 -4.5 -12.5
      vertex 5.9541 -4.86823 -12.5
      vertex 6 4.5 -12.5
    endloop
  endfacet
  facet normal -0.889873 0.110921 -0.442518
    outer loop
      vertex -6 4.5 -12.5
      vertex -9.15 9.15 -5
      vertex -5.9541 4.86823 -12.5
    endloop
  endfacet
  facet normal -1.88743e-07 -1.02141e-07 -1
    outer loop
      vertex -5.91873 -4.98705 -12.5
      vertex -6 4.5 -12.5
      vertex -5.68372 -5.42133 -12.5
    endloop
  endfacet
  facet normal -0.739721 -0.400309 -0.540894
    outer loop
      vertex -5.68372 -5.42133 -12.5
      vertex -9.15 -9.15 -5
      vertex -5.91873 -4.98705 -12.5
    endloop
  endfacet
  facet normal -9.11603e-08 -9.90298e-08 -1
    outer loop
      vertex -5.68372 -5.42133 -12.5
      vertex -6 4.5 -12.5
      vertex -5.32042 -5.75575 -12.5
    endloop
  endfacet
  facet normal -0.341467 -0.778474 -0.526668
    outer loop
      vertex -4.86823 -5.9541 -12.5
      vertex -9.15 -9.15 -5
      vertex -5.32042 -5.75575 -12.5
    endloop
  endfacet
  facet normal 0.146242 -0.876436 -0.458773
    outer loop
      vertex 9.15 -9.15 -5
      vertex 4.5 -6 -12.5
      vertex 4.98705 -5.91873 -12.5
    endloop
  endfacet
  facet normal 0.608741 -0.560367 -0.561625
    outer loop
      vertex 9.15 -9.15 -5
      vertex 5.42133 -5.68372 -12.5
      vertex 5.75575 -5.32042 -12.5
    endloop
  endfacet
  facet normal 0.921982 -4.10326e-08 -0.387233
    outer loop
      vertex 6 -4.5 -12.5
      vertex 6 4.5 -12.5
      vertex 9.15 -9.15 -5
    endloop
  endfacet
  facet normal 0.889873 -0.110921 -0.442518
    outer loop
      vertex 9.15 -9.15 -5
      vertex 5.9541 -4.86823 -12.5
      vertex 6 -4.5 -12.5
    endloop
  endfacet
  facet normal 0.876436 0.146242 -0.458773
    outer loop
      vertex 6 4.5 -12.5
      vertex 5.91873 4.98705 -12.5
      vertex 9.15 9.15 -5
    endloop
  endfacet
  facet normal 0.560367 0.608741 -0.561625
    outer loop
      vertex 5.68372 5.42133 -12.5
      vertex 5.32042 5.75575 -12.5
      vertex 9.15 9.15 -5
    endloop
  endfacet
  facet normal -4.20095e-08 -9.57729e-08 -1
    outer loop
      vertex -5.32042 -5.75575 -12.5
      vertex -6 4.5 -12.5
      vertex -4.86823 -5.9541 -12.5
    endloop
  endfacet
  facet normal -1.15265e-08 -9.24728e-08 -1
    outer loop
      vertex -4.86823 -5.9541 -12.5
      vertex -6 4.5 -12.5
      vertex -4.5 -6 -12.5
    endloop
  endfacet
  facet normal 1.08424e-07 -9.9808e-08 -1
    outer loop
      vertex 5.75575 -5.32042 -12.5
      vertex 5.42133 -5.68372 -12.5
      vertex 6 4.5 -12.5
    endloop
  endfacet
  facet normal 2.34702e-07 -1.02949e-07 -1
    outer loop
      vertex 5.9541 -4.86823 -12.5
      vertex 5.75575 -5.32042 -12.5
      vertex 6 4.5 -12.5
    endloop
  endfacet
  facet normal 1.55253e-08 -9.3044e-08 -1
    outer loop
      vertex 4.98705 -5.91873 -12.5
      vertex 4.5 -6 -12.5
      vertex 6 4.5 -12.5
    endloop
  endfacet
  facet normal 5.2286e-08 -9.66181e-08 -1
    outer loop
      vertex 5.42133 -5.68372 -12.5
      vertex 4.98705 -5.91873 -12.5
      vertex 6 4.5 -12.5
    endloop
  endfacet
  facet normal 0.110921 0.889873 -0.442518
    outer loop
      vertex 4.86823 5.9541 -12.5
      vertex 4.5 6 -12.5
      vertex 9.15 9.15 -5
    endloop
  endfacet
  facet normal 0.341467 0.778474 -0.526668
    outer loop
      vertex 5.32042 5.75575 -12.5
      vertex 4.86823 5.9541 -12.5
      vertex 9.15 9.15 -5
    endloop
  endfacet
  facet normal 0.995974 -0.0896406 1.195e-17
    outer loop
      vertex 2.70581 -0.491031 -6
      vertex 2.75 -1.38385e-15 -11.3
      vertex 2.75 -7.34788e-16 -6
    endloop
  endfacet
  facet normal 0.995974 -0.0896406 0
    outer loop
      vertex 2.75 -1.38385e-15 -11.3
      vertex 2.70581 -0.491031 -6
      vertex 2.70581 -0.491031 -11.3
    endloop
  endfacet
  facet normal -1 0 0
    outer loop
      vertex -2.73893 -0.246508 -11.3
      vertex -2.73893 0.246508 -6
      vertex -2.73893 0.246508 -11.3
    endloop
  endfacet
  facet normal -1 -0 0
    outer loop
      vertex -2.73893 0.246508 -6
      vertex -2.73893 -0.246508 -11.3
      vertex -2.73893 -0.246508 -6
    endloop
  endfacet
  facet normal 0.0448658 -0.998993 0
    outer loop
      vertex -0.123378 -2.74723 -11.3
      vertex 0.369141 -2.72511 -6
      vertex -0.123378 -2.74723 -6
    endloop
  endfacet
  facet normal 0.0448658 -0.998993 0
    outer loop
      vertex 0.369141 -2.72511 -6
      vertex -0.123378 -2.74723 -11.3
      vertex 0.369141 -2.72511 -11.3
    endloop
  endfacet
  facet normal 0.0448658 0.998993 -0
    outer loop
      vertex 0.369141 2.72511 -11.3
      vertex -0.123378 2.74723 -6
      vertex 0.369141 2.72511 -6
    endloop
  endfacet
  facet normal 0.0448658 0.998993 0
    outer loop
      vertex -0.123378 2.74723 -6
      vertex 0.369141 2.72511 -11.3
      vertex -0.123378 2.74723 -11.3
    endloop
  endfacet
  facet normal 0.691063 -0.722794 0
    outer loop
      vertex 1.7146 -2.15004 -11.3
      vertex 2.07095 -1.80933 -6
      vertex 1.7146 -2.15004 -6
    endloop
  endfacet
  facet normal 0.691063 -0.722794 0
    outer loop
      vertex 2.07095 -1.80933 -6
      vertex 1.7146 -2.15004 -11.3
      vertex 2.07095 -1.80933 -11.3
    endloop
  endfacet
  facet normal -0.753071 -0.657939 0
    outer loop
      vertex -1.90042 -1.98769 -11.3
      vertex -2.2248 -1.61641 -6
      vertex -2.2248 -1.61641 -11.3
    endloop
  endfacet
  facet normal -0.753071 -0.657939 0
    outer loop
      vertex -2.2248 -1.61641 -6
      vertex -1.90042 -1.98769 -11.3
      vertex -1.90042 -1.98769 -6
    endloop
  endfacet
  facet normal -0.473868 -0.880596 0
    outer loop
      vertex -1.51497 -2.29508 -11.3
      vertex -1.08082 -2.5287 -6
      vertex -1.51497 -2.29508 -6
    endloop
  endfacet
  facet normal -0.473868 -0.880596 -0
    outer loop
      vertex -1.08082 -2.5287 -6
      vertex -1.51497 -2.29508 -11.3
      vertex -1.08082 -2.5287 -11.3
    endloop
  endfacet
  facet normal 0.90097 -0.433882 0
    outer loop
      vertex 2.36073 -1.41047 -6
      vertex 2.57465 -0.96628 -11.3
      vertex 2.57465 -0.96628 -6
    endloop
  endfacet
  facet normal 0.90097 -0.433882 0
    outer loop
      vertex 2.57465 -0.96628 -11.3
      vertex 2.36073 -1.41047 -6
      vertex 2.36073 -1.41047 -11.3
    endloop
  endfacet
  facet normal 0.963963 -0.266037 0
    outer loop
      vertex 2.57465 -0.96628 -6
      vertex 2.70581 -0.491031 -11.3
      vertex 2.70581 -0.491031 -6
    endloop
  endfacet
  facet normal 0.963963 -0.266037 0
    outer loop
      vertex 2.70581 -0.491031 -11.3
      vertex 2.57465 -0.96628 -6
      vertex 2.57465 -0.96628 -11.3
    endloop
  endfacet
  facet normal 0.809016 -0.587786 0
    outer loop
      vertex 2.07095 -1.80933 -6
      vertex 2.36073 -1.41047 -11.3
      vertex 2.36073 -1.41047 -6
    endloop
  endfacet
  facet normal 0.809016 -0.587786 0
    outer loop
      vertex 2.36073 -1.41047 -11.3
      vertex 2.07095 -1.80933 -6
      vertex 2.07095 -1.80933 -11.3
    endloop
  endfacet
  facet normal 0.393025 -0.919528 0
    outer loop
      vertex 0.849796 -2.61541 -11.3
      vertex 1.30314 -2.42164 -6
      vertex 0.849796 -2.61541 -6
    endloop
  endfacet
  facet normal 0.393025 -0.919528 0
    outer loop
      vertex 1.30314 -2.42164 -6
      vertex 0.849796 -2.61541 -11.3
      vertex 1.30314 -2.42164 -11.3
    endloop
  endfacet
  facet normal 0.22252 -0.974928 0
    outer loop
      vertex 0.369141 -2.72511 -11.3
      vertex 0.849796 -2.61541 -6
      vertex 0.369141 -2.72511 -6
    endloop
  endfacet
  facet normal 0.22252 -0.974928 0
    outer loop
      vertex 0.849796 -2.61541 -6
      vertex 0.369141 -2.72511 -11.3
      vertex 0.849796 -2.61541 -11.3
    endloop
  endfacet
  facet normal 0.550898 -0.834573 0
    outer loop
      vertex 1.30314 -2.42164 -11.3
      vertex 1.7146 -2.15004 -6
      vertex 1.30314 -2.42164 -6
    endloop
  endfacet
  facet normal 0.550898 -0.834573 0
    outer loop
      vertex 1.7146 -2.15004 -6
      vertex 1.30314 -2.42164 -11.3
      vertex 1.7146 -2.15004 -11.3
    endloop
  endfacet
  facet normal -0.936235 -0.351374 0
    outer loop
      vertex -2.47766 -1.19318 -11.3
      vertex -2.6509 -0.731601 -6
      vertex -2.6509 -0.731601 -11.3
    endloop
  endfacet
  facet normal -0.936235 -0.351374 0
    outer loop
      vertex -2.6509 -0.731601 -6
      vertex -2.47766 -1.19318 -11.3
      vertex -2.47766 -1.19318 -6
    endloop
  endfacet
  facet normal -0.858449 -0.512899 0
    outer loop
      vertex -2.2248 -1.61641 -11.3
      vertex -2.47766 -1.19318 -6
      vertex -2.47766 -1.19318 -11.3
    endloop
  endfacet
  facet normal -0.858449 -0.512899 0
    outer loop
      vertex -2.47766 -1.19318 -6
      vertex -2.2248 -1.61641 -11.3
      vertex -2.2248 -1.61641 -6
    endloop
  endfacet
  facet normal -0.983929 -0.178558 0
    outer loop
      vertex -2.6509 -0.731601 -11.3
      vertex -2.73893 -0.246508 -6
      vertex -2.73893 -0.246508 -11.3
    endloop
  endfacet
  facet normal -0.983929 -0.178558 0
    outer loop
      vertex -2.73893 -0.246508 -6
      vertex -2.6509 -0.731601 -11.3
      vertex -2.6509 -0.731601 -6
    endloop
  endfacet
  facet normal -0.62349 -0.781831 0
    outer loop
      vertex -1.90042 -1.98769 -11.3
      vertex -1.51497 -2.29508 -6
      vertex -1.90042 -1.98769 -6
    endloop
  endfacet
  facet normal -0.62349 -0.781831 -0
    outer loop
      vertex -1.51497 -2.29508 -6
      vertex -1.90042 -1.98769 -11.3
      vertex -1.51497 -2.29508 -11.3
    endloop
  endfacet
  facet normal -0.134234 -0.99095 0
    outer loop
      vertex -0.611932 -2.68105 -11.3
      vertex -0.123378 -2.74723 -6
      vertex -0.611932 -2.68105 -6
    endloop
  endfacet
  facet normal -0.134234 -0.99095 -0
    outer loop
      vertex -0.123378 -2.74723 -6
      vertex -0.611932 -2.68105 -11.3
      vertex -0.123378 -2.74723 -11.3
    endloop
  endfacet
  facet normal 0.995974 0.0896406 0
    outer loop
      vertex 2.75 -7.34788e-16 -6
      vertex 2.70581 0.491031 -11.3
      vertex 2.70581 0.491031 -6
    endloop
  endfacet
  facet normal 0.995974 0.0896406 -1.195e-17
    outer loop
      vertex 2.70581 0.491031 -11.3
      vertex 2.75 -7.34788e-16 -6
      vertex 2.75 -1.38385e-15 -11.3
    endloop
  endfacet
  facet normal 0.22252 0.974928 -0
    outer loop
      vertex 0.849796 2.61541 -11.3
      vertex 0.369141 2.72511 -6
      vertex 0.849796 2.61541 -6
    endloop
  endfacet
  facet normal 0.22252 0.974928 0
    outer loop
      vertex 0.369141 2.72511 -6
      vertex 0.849796 2.61541 -11.3
      vertex 0.369141 2.72511 -11.3
    endloop
  endfacet
  facet normal 0.90097 0.433882 0
    outer loop
      vertex 2.57465 0.96628 -6
      vertex 2.36073 1.41047 -11.3
      vertex 2.36073 1.41047 -6
    endloop
  endfacet
  facet normal 0.90097 0.433882 0
    outer loop
      vertex 2.36073 1.41047 -11.3
      vertex 2.57465 0.96628 -6
      vertex 2.57465 0.96628 -11.3
    endloop
  endfacet
  facet normal -0.309017 0.951057 0
    outer loop
      vertex -0.611932 2.68105 -11.3
      vertex -1.08082 2.5287 -6
      vertex -0.611932 2.68105 -6
    endloop
  endfacet
  facet normal -0.309017 0.951057 0
    outer loop
      vertex -1.08082 2.5287 -6
      vertex -0.611932 2.68105 -11.3
      vertex -1.08082 2.5287 -11.3
    endloop
  endfacet
  facet normal -0.983929 0.178558 0
    outer loop
      vertex -2.73893 0.246508 -11.3
      vertex -2.6509 0.731601 -6
      vertex -2.6509 0.731601 -11.3
    endloop
  endfacet
  facet normal -0.983929 0.178558 0
    outer loop
      vertex -2.6509 0.731601 -6
      vertex -2.73893 0.246508 -11.3
      vertex -2.73893 0.246508 -6
    endloop
  endfacet
  facet normal 0.550898 0.834573 -0
    outer loop
      vertex 1.7146 2.15004 -11.3
      vertex 1.30314 2.42164 -6
      vertex 1.7146 2.15004 -6
    endloop
  endfacet
  facet normal 0.550898 0.834573 0
    outer loop
      vertex 1.30314 2.42164 -6
      vertex 1.7146 2.15004 -11.3
      vertex 1.30314 2.42164 -11.3
    endloop
  endfacet
  facet normal 0.393025 0.919528 -0
    outer loop
      vertex 1.30314 2.42164 -11.3
      vertex 0.849796 2.61541 -6
      vertex 1.30314 2.42164 -6
    endloop
  endfacet
  facet normal 0.393025 0.919528 0
    outer loop
      vertex 0.849796 2.61541 -6
      vertex 1.30314 2.42164 -11.3
      vertex 0.849796 2.61541 -11.3
    endloop
  endfacet
  facet normal -0.309017 -0.951057 0
    outer loop
      vertex -1.08082 -2.5287 -11.3
      vertex -0.611932 -2.68105 -6
      vertex -1.08082 -2.5287 -6
    endloop
  endfacet
  facet normal -0.309017 -0.951057 -0
    outer loop
      vertex -0.611932 -2.68105 -6
      vertex -1.08082 -2.5287 -11.3
      vertex -0.611932 -2.68105 -11.3
    endloop
  endfacet
  facet normal 0.963963 0.266037 0
    outer loop
      vertex 2.70581 0.491031 -6
      vertex 2.57465 0.96628 -11.3
      vertex 2.57465 0.96628 -6
    endloop
  endfacet
  facet normal 0.963963 0.266037 0
    outer loop
      vertex 2.57465 0.96628 -11.3
      vertex 2.70581 0.491031 -6
      vertex 2.70581 0.491031 -11.3
    endloop
  endfacet
  facet normal -0.473868 0.880596 0
    outer loop
      vertex -1.08082 2.5287 -11.3
      vertex -1.51497 2.29508 -6
      vertex -1.08082 2.5287 -6
    endloop
  endfacet
  facet normal -0.473868 0.880596 0
    outer loop
      vertex -1.51497 2.29508 -6
      vertex -1.08082 2.5287 -11.3
      vertex -1.51497 2.29508 -11.3
    endloop
  endfacet
  facet normal -0.134234 0.99095 0
    outer loop
      vertex -0.123378 2.74723 -11.3
      vertex -0.611932 2.68105 -6
      vertex -0.123378 2.74723 -6
    endloop
  endfacet
  facet normal -0.134234 0.99095 0
    outer loop
      vertex -0.611932 2.68105 -6
      vertex -0.123378 2.74723 -11.3
      vertex -0.611932 2.68105 -11.3
    endloop
  endfacet
  facet normal -0.753071 0.657939 0
    outer loop
      vertex -2.2248 1.61641 -11.3
      vertex -1.90042 1.98769 -6
      vertex -1.90042 1.98769 -11.3
    endloop
  endfacet
  facet normal -0.753071 0.657939 0
    outer loop
      vertex -1.90042 1.98769 -6
      vertex -2.2248 1.61641 -11.3
      vertex -2.2248 1.61641 -6
    endloop
  endfacet
  facet normal -0.858449 0.512899 0
    outer loop
      vertex -2.47766 1.19318 -11.3
      vertex -2.2248 1.61641 -6
      vertex -2.2248 1.61641 -11.3
    endloop
  endfacet
  facet normal -0.858449 0.512899 0
    outer loop
      vertex -2.2248 1.61641 -6
      vertex -2.47766 1.19318 -11.3
      vertex -2.47766 1.19318 -6
    endloop
  endfacet
  facet normal -0.936235 0.351374 0
    outer loop
      vertex -2.6509 0.731601 -11.3
      vertex -2.47766 1.19318 -6
      vertex -2.47766 1.19318 -11.3
    endloop
  endfacet
  facet normal -0.936235 0.351374 0
    outer loop
      vertex -2.47766 1.19318 -6
      vertex -2.6509 0.731601 -11.3
      vertex -2.6509 0.731601 -6
    endloop
  endfacet
  facet normal 0.691063 0.722794 -0
    outer loop
      vertex 2.07095 1.80933 -11.3
      vertex 1.7146 2.15004 -6
      vertex 2.07095 1.80933 -6
    endloop
  endfacet
  facet normal 0.691063 0.722794 0
    outer loop
      vertex 1.7146 2.15004 -6
      vertex 2.07095 1.80933 -11.3
      vertex 1.7146 2.15004 -11.3
    endloop
  endfacet
  facet normal -0.62349 0.781831 0
    outer loop
      vertex -1.51497 2.29508 -11.3
      vertex -1.90042 1.98769 -6
      vertex -1.51497 2.29508 -6
    endloop
  endfacet
  facet normal -0.62349 0.781831 0
    outer loop
      vertex -1.90042 1.98769 -6
      vertex -1.51497 2.29508 -11.3
      vertex -1.90042 1.98769 -11.3
    endloop
  endfacet
  facet normal 0.809016 0.587786 0
    outer loop
      vertex 2.36073 1.41047 -6
      vertex 2.07095 1.80933 -11.3
      vertex 2.07095 1.80933 -6
    endloop
  endfacet
  facet normal 0.809016 0.587786 0
    outer loop
      vertex 2.07095 1.80933 -11.3
      vertex 2.36073 1.41047 -6
      vertex 2.36073 1.41047 -11.3
    endloop
  endfacet
  facet normal -0.707107 0.707107 -1.01564e-16
    outer loop
      vertex 0 -2.33345 -11.3
      vertex 2.33345 -7.34788e-16 -6
      vertex 2.33345 -1.38385e-15 -11.3
    endloop
  endfacet
  facet normal -0.707107 0.707107 0
    outer loop
      vertex 2.33345 -7.34788e-16 -6
      vertex 0 -2.33345 -11.3
      vertex 0 -2.33345 -6
    endloop
  endfacet
  facet normal 0.707107 0.707107 -1.01564e-16
    outer loop
      vertex 0 -2.33345 -6
      vertex -2.33345 -1.38385e-15 -11.3
      vertex -2.33345 -7.34788e-16 -6
    endloop
  endfacet
  facet normal 0.707107 0.707107 0
    outer loop
      vertex -2.33345 -1.38385e-15 -11.3
      vertex 0 -2.33345 -6
      vertex 0 -2.33345 -11.3
    endloop
  endfacet
  facet normal 0.707107 -0.707107 0
    outer loop
      vertex -2.33345 -7.34788e-16 -6
      vertex 0 2.33345 -11.3
      vertex 0 2.33345 -6
    endloop
  endfacet
  facet normal 0.707107 -0.707107 1.01564e-16
    outer loop
      vertex 0 2.33345 -11.3
      vertex -2.33345 -7.34788e-16 -6
      vertex -2.33345 -1.38385e-15 -11.3
    endloop
  endfacet
  facet normal -0.707107 -0.707107 0
    outer loop
      vertex 0 2.33345 -11.3
      vertex 2.33345 -7.34788e-16 -6
      vertex 0 2.33345 -6
    endloop
  endfacet
  facet normal -0.707107 -0.707107 8.65956e-17
    outer loop
      vertex 2.33345 -7.34788e-16 -6
      vertex 0 2.33345 -11.3
      vertex 2.33345 -1.38385e-15 -11.3
    endloop
  endfacet
endsolid OpenSCAD_Model
