solid OpenSCAD_Model
  facet normal 0 -0.921982 0.387234
    outer loop
      vertex -5.29979 5.29979 -11.3
      vertex 7.9458 7.9458 -5
      vertex -7.9458 7.9458 -5
    endloop
  endfacet
  facet normal 0 -0.921982 0.387234
    outer loop
      vertex 7.9458 7.9458 -5
      vertex -5.29979 5.29979 -11.3
      vertex 5.29979 5.29979 -11.3
    endloop
  endfacet
  facet normal 0.921982 0 0.387234
    outer loop
      vertex -7.9458 7.9458 -5
      vertex -5.29979 -5.29979 -11.3
      vertex -5.29979 5.29979 -11.3
    endloop
  endfacet
  facet normal 0.921982 0 0.387234
    outer loop
      vertex -5.29979 -5.29979 -11.3
      vertex -7.9458 7.9458 -5
      vertex -7.9458 -7.9458 -5
    endloop
  endfacet
  facet normal -0.921982 0 0.387234
    outer loop
      vertex 5.29979 -5.29979 -11.3
      vertex 7.9458 7.9458 -5
      vertex 5.29979 5.29979 -11.3
    endloop
  endfacet
  facet normal -0.921982 0 0.387234
    outer loop
      vertex 7.9458 7.9458 -5
      vertex 5.29979 -5.29979 -11.3
      vertex 7.9458 -7.9458 -5
    endloop
  endfacet
  facet normal 0 0.921982 0.387234
    outer loop
      vertex 5.29979 -5.29979 -11.3
      vertex -7.9458 -7.9458 -5
      vertex 7.9458 -7.9458 -5
    endloop
  endfacet
  facet normal 0 0.921982 0.387234
    outer loop
      vertex -7.9458 -7.9458 -5
      vertex 5.29979 -5.29979 -11.3
      vertex -5.29979 -5.29979 -11.3
    endloop
  endfacet
  facet normal 0 0 1
    outer loop
      vertex 5.29979 5.29979 -11.3
      vertex 2.75 -1.38385e-15 -11.3
      vertex 5.29979 -5.29979 -11.3
    endloop
  endfacet
  facet normal 0 0 1
    outer loop
      vertex 5.29979 5.29979 -11.3
      vertex 2.70581 0.491031 -11.3
      vertex 2.75 -1.38385e-15 -11.3
    endloop
  endfacet
  facet normal 0 0 1
    outer loop
      vertex 5.29979 5.29979 -11.3
      vertex 2.57465 0.96628 -11.3
      vertex 2.70581 0.491031 -11.3
    endloop
  endfacet
  facet normal 0 0 1
    outer loop
      vertex 5.29979 5.29979 -11.3
      vertex 2.36073 1.41047 -11.3
      vertex 2.57465 0.96628 -11.3
    endloop
  endfacet
  facet normal 0 0 1
    outer loop
      vertex 5.29979 5.29979 -11.3
      vertex 2.07095 1.80933 -11.3
      vertex 2.36073 1.41047 -11.3
    endloop
  endfacet
  facet normal 0 0 1
    outer loop
      vertex 5.29979 5.29979 -11.3
      vertex 1.7146 2.15004 -11.3
      vertex 2.07095 1.80933 -11.3
    endloop
  endfacet
  facet normal 0 0 1
    outer loop
      vertex 5.29979 5.29979 -11.3
      vertex 1.30314 2.42164 -11.3
      vertex 1.7146 2.15004 -11.3
    endloop
  endfacet
  facet normal 0 0 1
    outer loop
      vertex 5.29979 5.29979 -11.3
      vertex 0.849796 2.61541 -11.3
      vertex 1.30314 2.42164 -11.3
    endloop
  endfacet
  facet normal 0 0 1
    outer loop
      vertex 5.29979 5.29979 -11.3
      vertex 0.369141 2.72511 -11.3
      vertex 0.849796 2.61541 -11.3
    endloop
  endfacet
  facet normal 0 0 1
    outer loop
      vertex 5.29979 5.29979 -11.3
      vertex -0.123378 2.74723 -11.3
      vertex 0.369141 2.72511 -11.3
    endloop
  endfacet
  facet normal -0 0 1
    outer loop
      vertex -5.29979 5.29979 -11.3
      vertex -0.123378 2.74723 -11.3
      vertex 5.29979 5.29979 -11.3
    endloop
  endfacet
  facet normal 0 0 1
    outer loop
      vertex -0.123378 2.74723 -11.3
      vertex -5.29979 5.29979 -11.3
      vertex -0.611932 2.68105 -11.3
    endloop
  endfacet
  facet normal 0 0 1
    outer loop
      vertex -2.73893 0.246508 -11.3
      vertex -5.29979 5.29979 -11.3
      vertex -2.73893 -0.246508 -11.3
    endloop
  endfacet
  facet normal 0 0 1
    outer loop
      vertex -2.6509 0.731601 -11.3
      vertex -5.29979 5.29979 -11.3
      vertex -2.73893 0.246508 -11.3
    endloop
  endfacet
  facet normal 0 0 1
    outer loop
      vertex -2.47766 1.19318 -11.3
      vertex -5.29979 5.29979 -11.3
      vertex -2.6509 0.731601 -11.3
    endloop
  endfacet
  facet normal 0 0 1
    outer loop
      vertex -2.2248 1.61641 -11.3
      vertex -5.29979 5.29979 -11.3
      vertex -2.47766 1.19318 -11.3
    endloop
  endfacet
  facet normal 0 0 1
    outer loop
      vertex -1.90042 1.98769 -11.3
      vertex -5.29979 5.29979 -11.3
      vertex -2.2248 1.61641 -11.3
    endloop
  endfacet
  facet normal 0 0 1
    outer loop
      vertex -1.51497 2.29508 -11.3
      vertex -5.29979 5.29979 -11.3
      vertex -1.90042 1.98769 -11.3
    endloop
  endfacet
  facet normal 0 0 1
    outer loop
      vertex -1.08082 2.5287 -11.3
      vertex -5.29979 5.29979 -11.3
      vertex -1.51497 2.29508 -11.3
    endloop
  endfacet
  facet normal 0 0 1
    outer loop
      vertex -0.611932 2.68105 -11.3
      vertex -5.29979 5.29979 -11.3
      vertex -1.08082 2.5287 -11.3
    endloop
  endfacet
  facet normal -0 0 1
    outer loop
      vertex 2.70581 -0.491031 -11.3
      vertex 5.29979 -5.29979 -11.3
      vertex 2.75 -1.38385e-15 -11.3
    endloop
  endfacet
  facet normal -0 0 1
    outer loop
      vertex 2.57465 -0.96628 -11.3
      vertex 5.29979 -5.29979 -11.3
      vertex 2.70581 -0.491031 -11.3
    endloop
  endfacet
  facet normal -0 0 1
    outer loop
      vertex 2.36073 -1.41047 -11.3
      vertex 5.29979 -5.29979 -11.3
      vertex 2.57465 -0.96628 -11.3
    endloop
  endfacet
  facet normal -0 0 1
    outer loop
      vertex 2.07095 -1.80933 -11.3
      vertex 5.29979 -5.29979 -11.3
      vertex 2.36073 -1.41047 -11.3
    endloop
  endfacet
  facet normal -0 0 1
    outer loop
      vertex 1.7146 -2.15004 -11.3
      vertex 5.29979 -5.29979 -11.3
      vertex 2.07095 -1.80933 -11.3
    endloop
  endfacet
  facet normal -0 0 1
    outer loop
      vertex 1.30314 -2.42164 -11.3
      vertex 5.29979 -5.29979 -11.3
      vertex 1.7146 -2.15004 -11.3
    endloop
  endfacet
  facet normal -0 0 1
    outer loop
      vertex 0.849796 -2.61541 -11.3
      vertex 5.29979 -5.29979 -11.3
      vertex 1.30314 -2.42164 -11.3
    endloop
  endfacet
  facet normal -0 0 1
    outer loop
      vertex 0.369141 -2.72511 -11.3
      vertex 5.29979 -5.29979 -11.3
      vertex 0.849796 -2.61541 -11.3
    endloop
  endfacet
  facet normal -0 0 1
    outer loop
      vertex -0.123378 -2.74723 -11.3
      vertex 5.29979 -5.29979 -11.3
      vertex 0.369141 -2.72511 -11.3
    endloop
  endfacet
  facet normal 0 0 1
    outer loop
      vertex -5.29979 -5.29979 -11.3
      vertex -0.123378 -2.74723 -11.3
      vertex -0.611932 -2.68105 -11.3
    endloop
  endfacet
  facet normal 0 0 1
    outer loop
      vertex -5.29979 -5.29979 -11.3
      vertex -0.611932 -2.68105 -11.3
      vertex -1.08082 -2.5287 -11.3
    endloop
  endfacet
  facet normal 0 0 1
    outer loop
      vertex -5.29979 -5.29979 -11.3
      vertex -2.73893 -0.246508 -11.3
      vertex -5.29979 5.29979 -11.3
    endloop
  endfacet
  facet normal 0 0 1
    outer loop
      vertex -2.73893 -0.246508 -11.3
      vertex -5.29979 -5.29979 -11.3
      vertex -2.6509 -0.731601 -11.3
    endloop
  endfacet
  facet normal 0 0 1
    outer loop
      vertex -0.123378 -2.74723 -11.3
      vertex -5.29979 -5.29979 -11.3
      vertex 5.29979 -5.29979 -11.3
    endloop
  endfacet
  facet normal 0 0 1
    outer loop
      vertex -1.51497 -2.29508 -11.3
      vertex -5.29979 -5.29979 -11.3
      vertex -1.08082 -2.5287 -11.3
    endloop
  endfacet
  facet normal 0 0 1
    outer loop
      vertex -1.90042 -1.98769 -11.3
      vertex -5.29979 -5.29979 -11.3
      vertex -1.51497 -2.29508 -11.3
    endloop
  endfacet
  facet normal 0 0 1
    outer loop
      vertex -2.2248 -1.61641 -11.3
      vertex -5.29979 -5.29979 -11.3
      vertex -1.90042 -1.98769 -11.3
    endloop
  endfacet
  facet normal 0 0 1
    outer loop
      vertex -2.47766 -1.19318 -11.3
      vertex -5.29979 -5.29979 -11.3
      vertex -2.2248 -1.61641 -11.3
    endloop
  endfacet
  facet normal 0 0 1
    outer loop
      vertex -2.6509 -0.731601 -11.3
      vertex -5.29979 -5.29979 -11.3
      vertex -2.47766 -1.19318 -11.3
    endloop
  endfacet
  facet normal 0 0 1
    outer loop
      vertex 0 2.33345 -11.3
      vertex 0 -2.33345 -11.3
      vertex 2.33345 -1.38385e-15 -11.3
    endloop
  endfacet
  facet normal 0 -0 1
    outer loop
      vertex 0 -2.33345 -11.3
      vertex 0 2.33345 -11.3
      vertex -2.33345 -1.38385e-15 -11.3
    endloop
  endfacet
  facet normal 0 0 1
    outer loop
      vertex 9.15 9.15 -5
      vertex 7.9458 7.9458 -5
      vertex 9.15 -9.15 -5
    endloop
  endfacet
  facet normal 0 0 1
    outer loop
      vertex 9.15 9.15 -5
      vertex -7.9458 7.9458 -5
      vertex 7.9458 7.9458 -5
    endloop
  endfacet
  facet normal 0 0 1
    outer loop
      vertex -7.9458 7.9458 -5
      vertex -9.15 9.15 -5
      vertex -7.9458 -7.9458 -5
    endloop
  endfacet
  facet normal -0 0 1
    outer loop
      vertex -9.15 9.15 -5
      vertex -7.9458 7.9458 -5
      vertex 9.15 9.15 -5
    endloop
  endfacet
  facet normal -0 0 1
    outer loop
      vertex 7.9458 -7.9458 -5
      vertex 9.15 -9.15 -5
      vertex 7.9458 7.9458 -5
    endloop
  endfacet
  facet normal -0 0 1
    outer loop
      vertex -7.9458 -7.9458 -5
      vertex 9.15 -9.15 -5
      vertex 7.9458 -7.9458 -5
    endloop
  endfacet
  facet normal 0 0 1
    outer loop
      vertex -7.9458 -7.9458 -5
      vertex -9.15 -9.15 -5
      vertex 9.15 -9.15 -5
    endloop
  endfacet
  facet normal 0 0 1
    outer loop
      vertex -9.15 -9.15 -5
      vertex -7.9458 -7.9458 -5
      vertex -9.15 9.15 -5
    endloop
  endfacet
  facet normal 0 0.921982 -0.387232
    outer loop
      vertex 4.5 6 -12.5
      vertex -9.15 9.15 -5
      vertex 9.15 9.15 -5
    endloop
  endfacet
  facet normal 0 0.921982 -0.387232
    outer loop
      vertex -9.15 9.15 -5
      vertex 4.5 6 -12.5
      vertex -4.5 6 -12.5
    endloop
  endfacet
  facet normal -0.921982 -4.10326e-08 -0.387233
    outer loop
      vertex -6 -4.5 -12.5
      vertex -9.15 -9.15 -5
      vertex -6 4.5 -12.5
    endloop
  endfacet
  facet normal -0.921982 0 -0.387232
    outer loop
      vertex -9.15 -9.15 -5
      vertex -9.15 9.15 -5
      vertex -6 4.5 -12.5
    endloop
  endfacet
  facet normal 0.921982 0 -0.387232
    outer loop
      vertex 9.15 -9.15 -5
      vertex 6 4.5 -12.5
      vertex 9.15 9.15 -5
    endloop
  endfacet
  facet normal -0.146242 0.876436 -0.458773
    outer loop
      vertex -4.98705 5.91873 -12.5
      vertex -9.15 9.15 -5
      vertex -4.5 6 -12.5
    endloop
  endfacet
  facet normal 0.146242 -0.876436 -0.458773
    outer loop
      vertex 9.15 -9.15 -5
      vertex 4.5 -6 -12.5
      vertex 4.98705 -5.91873 -12.5
    endloop
  endfacet
  facet normal 0 -0.921982 -0.387232
    outer loop
      vertex -4.5 -6 -12.5
      vertex 9.15 -9.15 -5
      vertex -9.15 -9.15 -5
    endloop
  endfacet
  facet normal 0 -0.921982 -0.387232
    outer loop
      vertex 9.15 -9.15 -5
      vertex -4.5 -6 -12.5
      vertex 4.5 -6 -12.5
    endloop
  endfacet
  facet normal -0.608741 0.560367 -0.561625
    outer loop
      vertex -5.75575 5.32042 -12.5
      vertex -9.15 9.15 -5
      vertex -5.42133 5.68372 -12.5
    endloop
  endfacet
  facet normal -0.560367 -0.608741 -0.561625
    outer loop
      vertex -5.32042 -5.75575 -12.5
      vertex -9.15 -9.15 -5
      vertex -5.68372 -5.42133 -12.5
    endloop
  endfacet
  facet normal -9.11603e-08 -9.90298e-08 -1
    outer loop
      vertex -5.68372 -5.42133 -12.5
      vertex -6 4.5 -12.5
      vertex -5.32042 -5.75575 -12.5
    endloop
  endfacet
  facet normal 0 0 -1
    outer loop
      vertex 6 4.5 -12.5
      vertex 5.68372 5.42133 -12.5
      vertex 5.91873 4.98705 -12.5
    endloop
  endfacet
  facet normal 0 0 -1
    outer loop
      vertex 6 4.5 -12.5
      vertex 5.32042 5.75575 -12.5
      vertex 5.68372 5.42133 -12.5
    endloop
  endfacet
  facet normal 0 0 -1
    outer loop
      vertex 6 4.5 -12.5
      vertex 4.86823 5.9541 -12.5
      vertex 5.32042 5.75575 -12.5
    endloop
  endfacet
  facet normal 0 0 -1
    outer loop
      vertex 6 4.5 -12.5
      vertex 4.5 6 -12.5
      vertex 4.86823 5.9541 -12.5
    endloop
  endfacet
  facet normal 0 0 -1
    outer loop
      vertex 6 4.5 -12.5
      vertex -4.5 6 -12.5
      vertex 4.5 6 -12.5
    endloop
  endfacet
  facet normal 0 0 -1
    outer loop
      vertex -6 4.5 -12.5
      vertex -4.5 6 -12.5
      vertex 6 4.5 -12.5
    endloop
  endfacet
  facet normal 0 0 -1
    outer loop
      vertex -4.5 6 -12.5
      vertex -6 4.5 -12.5
      vertex -4.98705 5.91873 -12.5
    endloop
  endfacet
  facet normal 0 0 -1
    outer loop
      vertex -4.98705 5.91873 -12.5
      vertex -6 4.5 -12.5
      vertex -5.42133 5.68372 -12.5
    endloop
  endfacet
  facet normal 0 0 -1
    outer loop
      vertex -5.42133 5.68372 -12.5
      vertex -6 4.5 -12.5
      vertex -5.75575 5.32042 -12.5
    endloop
  endfacet
  facet normal 0 0 -1
    outer loop
      vertex -5.75575 5.32042 -12.5
      vertex -6 4.5 -12.5
      vertex -5.9541 4.86823 -12.5
    endloop
  endfacet
  facet normal 0.876436 0.146242 -0.458773
    outer loop
      vertex 6 4.5 -12.5
      vertex 5.91873 4.98705 -12.5
      vertex 9.15 9.15 -5
    endloop
  endfacet
  facet normal -0.400309 0.739721 -0.540894
    outer loop
      vertex -5.42133 5.68372 -12.5
      vertex -9.15 9.15 -5
      vertex -4.98705 5.91873 -12.5
    endloop
  endfacet
  facet normal -0.778474 0.341467 -0.526668
    outer loop
      vertex -5.9541 4.86823 -12.5
      vertex -9.15 9.15 -5
      vertex -5.75575 5.32042 -12.5
    endloop
  endfacet
  facet normal -0.876436 -0.146242 -0.458773
    outer loop
      vertex -5.91873 -4.98705 -12.5
      vertex -9.15 -9.15 -5
      vertex -6 -4.5 -12.5
    endloop
  endfacet
  facet normal -6.35047e-07 -1.05964e-07 -1
    outer loop
      vertex -6 -4.5 -12.5
      vertex -6 4.5 -12.5
      vertex -5.91873 -4.98705 -12.5
    endloop
  endfacet
  facet normal 0 -9.08261e-08 -1
    outer loop
      vertex -4.5 -6 -12.5
      vertex 6 4.5 -12.5
      vertex 4.5 -6 -12.5
    endloop
  endfacet
  facet normal -0 -9.08261e-08 -1
    outer loop
      vertex 6 4.5 -12.5
      vertex -4.5 -6 -12.5
      vertex -6 4.5 -12.5
    endloop
  endfacet
  facet normal 1.55253e-08 -9.3044e-08 -1
    outer loop
      vertex 4.98705 -5.91873 -12.5
      vertex 4.5 -6 -12.5
      vertex 6 4.5 -12.5
    endloop
  endfacet
  facet normal 0.889873 -0.110921 -0.442518
    outer loop
      vertex 9.15 -9.15 -5
      vertex 5.9541 -4.86823 -12.5
      vertex 6 -4.5 -12.5
    endloop
  endfacet
  facet normal 0.560367 0.608741 -0.561625
    outer loop
      vertex 5.68372 5.42133 -12.5
      vertex 5.32042 5.75575 -12.5
      vertex 9.15 9.15 -5
    endloop
  endfacet
  facet normal -0.889873 0.110921 -0.442518
    outer loop
      vertex -6 4.5 -12.5
      vertex -9.15 9.15 -5
      vertex -5.9541 4.86823 -12.5
    endloop
  endfacet
  facet normal -1.88743e-07 -1.02141e-07 -1
    outer loop
      vertex -5.91873 -4.98705 -12.5
      vertex -6 4.5 -12.5
      vertex -5.68372 -5.42133 -12.5
    endloop
  endfacet
  facet normal -0.739721 -0.400309 -0.540894
    outer loop
      vertex -5.68372 -5.42133 -12.5
      vertex -9.15 -9.15 -5
      vertex -5.91873 -4.98705 -12.5
    endloop
  endfacet
  facet normal -0.341467 -0.778474 -0.526668
    outer loop
      vertex -4.86823 -5.9541 -12.5
      vertex -9.15 -9.15 -5
      vertex -5.32042 -5.75575 -12.5
    endloop
  endfacet
  facet normal -4.20095e-08 -9.57729e-08 -1
    outer loop
      vertex -5.32042 -5.75575 -12.5
      vertex -6 4.5 -12.5
      vertex -4.86823 -5.9541 -12.5
    endloop
  endfacet
  facet normal 0.608741 -0.560367 -0.561625
    outer loop
      vertex 9.15 -9.15 -5
      vertex 5.42133 -5.68372 -12.5
      vertex 5.75575 -5.32042 -12.5
    endloop
  endfacet
  facet normal 1.08424e-07 -9.9808e-08 -1
    outer loop
      vertex 5.75575 -5.32042 -12.5
      vertex 5.42133 -5.68372 -12.5
      vertex 6 4.5 -12.5
    endloop
  endfacet
  facet normal 8.50106e-07 -1.05964e-07 -1
    outer loop
      vertex 6 -4.5 -12.5
      vertex 5.9541 -4.86823 -12.5
      vertex 6 4.5 -12.5
    endloop
  endfacet
  facet normal 0.921982 -4.10326e-08 -0.387233
    outer loop
      vertex 6 -4.5 -12.5
      vertex 6 4.5 -12.5
      vertex 9.15 -9.15 -5
    endloop
  endfacet
  facet normal 0.739721 0.400309 -0.540894
    outer loop
      vertex 5.91873 4.98705 -12.5
      vertex 5.68372 5.42133 -12.5
      vertex 9.15 9.15 -5
    endloop
  endfacet
  facet normal 0.341467 0.778474 -0.526668
    outer loop
      vertex 5.32042 5.75575 -12.5
      vertex 4.86823 5.9541 -12.5
      vertex 9.15 9.15 -5
    endloop
  endfacet
  facet normal -1.15265e-08 -9.24728e-08 -1
    outer loop
      vertex -4.86823 -5.9541 -12.5
      vertex -6 4.5 -12.5
      vertex -4.5 -6 -12.5
    endloop
  endfacet
  facet normal -0.110921 -0.889873 -0.442518
    outer loop
      vertex -4.5 -6 -12.5
      vertex -9.15 -9.15 -5
      vertex -4.86823 -5.9541 -12.5
    endloop
  endfacet
  facet normal 5.2286e-08 -9.66181e-08 -1
    outer loop
      vertex 5.42133 -5.68372 -12.5
      vertex 4.98705 -5.91873 -12.5
      vertex 6 4.5 -12.5
    endloop
  endfacet
  facet normal 0.400309 -0.739721 -0.540894
    outer loop
      vertex 9.15 -9.15 -5
      vertex 4.98705 -5.91873 -12.5
      vertex 5.42133 -5.68372 -12.5
    endloop
  endfacet
  facet normal 2.34702e-07 -1.02949e-07 -1
    outer loop
      vertex 5.9541 -4.86823 -12.5
      vertex 5.75575 -5.32042 -12.5
      vertex 6 4.5 -12.5
    endloop
  endfacet
  facet normal 0.778474 -0.341467 -0.526668
    outer loop
      vertex 9.15 -9.15 -5
      vertex 5.75575 -5.32042 -12.5
      vertex 5.9541 -4.86823 -12.5
    endloop
  endfacet
  facet normal 0.110921 0.889873 -0.442518
    outer loop
      vertex 4.86823 5.9541 -12.5
      vertex 4.5 6 -12.5
      vertex 9.15 9.15 -5
    endloop
  endfacet
  facet normal 0.90097 -0.433882 0
    outer loop
      vertex 2.36073 -1.41047 -5
      vertex 2.57465 -0.96628 -11.3
      vertex 2.57465 -0.96628 -5
    endloop
  endfacet
  facet normal 0.90097 -0.433882 0
    outer loop
      vertex 2.57465 -0.96628 -11.3
      vertex 2.36073 -1.41047 -5
      vertex 2.36073 -1.41047 -11.3
    endloop
  endfacet
  facet normal 0.809016 -0.587786 0
    outer loop
      vertex 2.07095 -1.80933 -5
      vertex 2.36073 -1.41047 -11.3
      vertex 2.36073 -1.41047 -5
    endloop
  endfacet
  facet normal 0.809016 -0.587786 0
    outer loop
      vertex 2.36073 -1.41047 -11.3
      vertex 2.07095 -1.80933 -5
      vertex 2.07095 -1.80933 -11.3
    endloop
  endfacet
  facet normal 0.22252 -0.974928 0
    outer loop
      vertex 0.369141 -2.72511 -11.3
      vertex 0.849796 -2.61541 -5
      vertex 0.369141 -2.72511 -5
    endloop
  endfacet
  facet normal 0.22252 -0.974928 0
    outer loop
      vertex 0.849796 -2.61541 -5
      vertex 0.369141 -2.72511 -11.3
      vertex 0.849796 -2.61541 -11.3
    endloop
  endfacet
  facet normal 0.393025 -0.919528 0
    outer loop
      vertex 0.849796 -2.61541 -11.3
      vertex 1.30314 -2.42164 -5
      vertex 0.849796 -2.61541 -5
    endloop
  endfacet
  facet normal 0.393025 -0.919528 0
    outer loop
      vertex 1.30314 -2.42164 -5
      vertex 0.849796 -2.61541 -11.3
      vertex 1.30314 -2.42164 -11.3
    endloop
  endfacet
  facet normal -0.473868 -0.880596 0
    outer loop
      vertex -1.51497 -2.29508 -11.3
      vertex -1.08082 -2.5287 -5
      vertex -1.51497 -2.29508 -5
    endloop
  endfacet
  facet normal -0.473868 -0.880596 -0
    outer loop
      vertex -1.08082 -2.5287 -5
      vertex -1.51497 -2.29508 -11.3
      vertex -1.08082 -2.5287 -11.3
    endloop
  endfacet
  facet normal -0.936235 -0.351374 0
    outer loop
      vertex -2.47766 -1.19318 -11.3
      vertex -2.6509 -0.731601 -5
      vertex -2.6509 -0.731601 -11.3
    endloop
  endfacet
  facet normal -0.936235 -0.351374 0
    outer loop
      vertex -2.6509 -0.731601 -5
      vertex -2.47766 -1.19318 -11.3
      vertex -2.47766 -1.19318 -5
    endloop
  endfacet
  facet normal 0.995974 0.0896406 0
    outer loop
      vertex 2.75 -6.12323e-16 -5
      vertex 2.70581 0.491031 -11.3
      vertex 2.70581 0.491031 -5
    endloop
  endfacet
  facet normal 0.995974 0.0896406 -1.11702e-17
    outer loop
      vertex 2.70581 0.491031 -11.3
      vertex 2.75 -6.12323e-16 -5
      vertex 2.75 -1.38385e-15 -11.3
    endloop
  endfacet
  facet normal 0.691063 -0.722794 0
    outer loop
      vertex 1.7146 -2.15004 -11.3
      vertex 2.07095 -1.80933 -5
      vertex 1.7146 -2.15004 -5
    endloop
  endfacet
  facet normal 0.691063 -0.722794 0
    outer loop
      vertex 2.07095 -1.80933 -5
      vertex 1.7146 -2.15004 -11.3
      vertex 2.07095 -1.80933 -11.3
    endloop
  endfacet
  facet normal 0.0448658 -0.998993 0
    outer loop
      vertex -0.123378 -2.74723 -11.3
      vertex 0.369141 -2.72511 -5
      vertex -0.123378 -2.74723 -5
    endloop
  endfacet
  facet normal 0.0448658 -0.998993 0
    outer loop
      vertex 0.369141 -2.72511 -5
      vertex -0.123378 -2.74723 -11.3
      vertex 0.369141 -2.72511 -11.3
    endloop
  endfacet
  facet normal 0.550898 -0.834573 0
    outer loop
      vertex 1.30314 -2.42164 -11.3
      vertex 1.7146 -2.15004 -5
      vertex 1.30314 -2.42164 -5
    endloop
  endfacet
  facet normal 0.550898 -0.834573 0
    outer loop
      vertex 1.7146 -2.15004 -5
      vertex 1.30314 -2.42164 -11.3
      vertex 1.7146 -2.15004 -11.3
    endloop
  endfacet
  facet normal -1 0 0
    outer loop
      vertex -2.73893 -0.246508 -11.3
      vertex -2.73893 0.246508 -5
      vertex -2.73893 0.246508 -11.3
    endloop
  endfacet
  facet normal -1 -0 0
    outer loop
      vertex -2.73893 0.246508 -5
      vertex -2.73893 -0.246508 -11.3
      vertex -2.73893 -0.246508 -5
    endloop
  endfacet
  facet normal -0.858449 -0.512899 0
    outer loop
      vertex -2.2248 -1.61641 -11.3
      vertex -2.47766 -1.19318 -5
      vertex -2.47766 -1.19318 -11.3
    endloop
  endfacet
  facet normal -0.858449 -0.512899 0
    outer loop
      vertex -2.47766 -1.19318 -5
      vertex -2.2248 -1.61641 -11.3
      vertex -2.2248 -1.61641 -5
    endloop
  endfacet
  facet normal -0.62349 -0.781831 0
    outer loop
      vertex -1.90042 -1.98769 -11.3
      vertex -1.51497 -2.29508 -5
      vertex -1.90042 -1.98769 -5
    endloop
  endfacet
  facet normal -0.62349 -0.781831 -0
    outer loop
      vertex -1.51497 -2.29508 -5
      vertex -1.90042 -1.98769 -11.3
      vertex -1.51497 -2.29508 -11.3
    endloop
  endfacet
  facet normal -0.134234 -0.99095 0
    outer loop
      vertex -0.611932 -2.68105 -11.3
      vertex -0.123378 -2.74723 -5
      vertex -0.611932 -2.68105 -5
    endloop
  endfacet
  facet normal -0.134234 -0.99095 -0
    outer loop
      vertex -0.123378 -2.74723 -5
      vertex -0.611932 -2.68105 -11.3
      vertex -0.123378 -2.74723 -11.3
    endloop
  endfacet
  facet normal -0.753071 -0.657939 0
    outer loop
      vertex -1.90042 -1.98769 -11.3
      vertex -2.2248 -1.61641 -5
      vertex -2.2248 -1.61641 -11.3
    endloop
  endfacet
  facet normal -0.753071 -0.657939 0
    outer loop
      vertex -2.2248 -1.61641 -5
      vertex -1.90042 -1.98769 -11.3
      vertex -1.90042 -1.98769 -5
    endloop
  endfacet
  facet normal 0.995974 -0.0896406 1.11702e-17
    outer loop
      vertex 2.70581 -0.491031 -5
      vertex 2.75 -1.38385e-15 -11.3
      vertex 2.75 -6.12323e-16 -5
    endloop
  endfacet
  facet normal 0.995974 -0.0896406 0
    outer loop
      vertex 2.75 -1.38385e-15 -11.3
      vertex 2.70581 -0.491031 -5
      vertex 2.70581 -0.491031 -11.3
    endloop
  endfacet
  facet normal 0.963963 0.266037 0
    outer loop
      vertex 2.70581 0.491031 -5
      vertex 2.57465 0.96628 -11.3
      vertex 2.57465 0.96628 -5
    endloop
  endfacet
  facet normal 0.963963 0.266037 0
    outer loop
      vertex 2.57465 0.96628 -11.3
      vertex 2.70581 0.491031 -5
      vertex 2.70581 0.491031 -11.3
    endloop
  endfacet
  facet normal 0.550898 0.834573 -0
    outer loop
      vertex 1.7146 2.15004 -11.3
      vertex 1.30314 2.42164 -5
      vertex 1.7146 2.15004 -5
    endloop
  endfacet
  facet normal 0.550898 0.834573 0
    outer loop
      vertex 1.30314 2.42164 -5
      vertex 1.7146 2.15004 -11.3
      vertex 1.30314 2.42164 -11.3
    endloop
  endfacet
  facet normal 0.963963 -0.266037 0
    outer loop
      vertex 2.57465 -0.96628 -5
      vertex 2.70581 -0.491031 -11.3
      vertex 2.70581 -0.491031 -5
    endloop
  endfacet
  facet normal 0.963963 -0.266037 0
    outer loop
      vertex 2.70581 -0.491031 -11.3
      vertex 2.57465 -0.96628 -5
      vertex 2.57465 -0.96628 -11.3
    endloop
  endfacet
  facet normal -0.983929 -0.178558 0
    outer loop
      vertex -2.6509 -0.731601 -11.3
      vertex -2.73893 -0.246508 -5
      vertex -2.73893 -0.246508 -11.3
    endloop
  endfacet
  facet normal -0.983929 -0.178558 0
    outer loop
      vertex -2.73893 -0.246508 -5
      vertex -2.6509 -0.731601 -11.3
      vertex -2.6509 -0.731601 -5
    endloop
  endfacet
  facet normal -0.309017 -0.951057 0
    outer loop
      vertex -1.08082 -2.5287 -11.3
      vertex -0.611932 -2.68105 -5
      vertex -1.08082 -2.5287 -5
    endloop
  endfacet
  facet normal -0.309017 -0.951057 -0
    outer loop
      vertex -0.611932 -2.68105 -5
      vertex -1.08082 -2.5287 -11.3
      vertex -0.611932 -2.68105 -11.3
    endloop
  endfacet
  facet normal 0.90097 0.433882 0
    outer loop
      vertex 2.57465 0.96628 -5
      vertex 2.36073 1.41047 -11.3
      vertex 2.36073 1.41047 -5
    endloop
  endfacet
  facet normal 0.90097 0.433882 0
    outer loop
      vertex 2.36073 1.41047 -11.3
      vertex 2.57465 0.96628 -5
      vertex 2.57465 0.96628 -11.3
    endloop
  endfacet
  facet normal 0.0448658 0.998993 -0
    outer loop
      vertex 0.369141 2.72511 -11.3
      vertex -0.123378 2.74723 -5
      vertex 0.369141 2.72511 -5
    endloop
  endfacet
  facet normal 0.0448658 0.998993 0
    outer loop
      vertex -0.123378 2.74723 -5
      vertex 0.369141 2.72511 -11.3
      vertex -0.123378 2.74723 -11.3
    endloop
  endfacet
  facet normal -0.983929 0.178558 0
    outer loop
      vertex -2.73893 0.246508 -11.3
      vertex -2.6509 0.731601 -5
      vertex -2.6509 0.731601 -11.3
    endloop
  endfacet
  facet normal -0.983929 0.178558 0
    outer loop
      vertex -2.6509 0.731601 -5
      vertex -2.73893 0.246508 -11.3
      vertex -2.73893 0.246508 -5
    endloop
  endfacet
  facet normal 0 0 1
    outer loop
      vertex 2.33345 -6.12323e-16 -5
      vertex 2.75 -6.12323e-16 -5
      vertex 2.70581 0.491031 -5
    endloop
  endfacet
  facet normal 0 0 1
    outer loop
      vertex 2.33345 -6.12323e-16 -5
      vertex 2.70581 0.491031 -5
      vertex 2.57465 0.96628 -5
    endloop
  endfacet
  facet normal 0 0 1
    outer loop
      vertex 2.75 -6.12323e-16 -5
      vertex 2.33345 -6.12323e-16 -5
      vertex 2.70581 -0.491031 -5
    endloop
  endfacet
  facet normal 0 0 1
    outer loop
      vertex 2.33345 -6.12323e-16 -5
      vertex 2.57465 0.96628 -5
      vertex 2.36073 1.41047 -5
    endloop
  endfacet
  facet normal 0 0 1
    outer loop
      vertex 2.70581 -0.491031 -5
      vertex 2.33345 -6.12323e-16 -5
      vertex 2.57465 -0.96628 -5
    endloop
  endfacet
  facet normal 0 0 1
    outer loop
      vertex 2.57465 -0.96628 -5
      vertex 2.33345 -6.12323e-16 -5
      vertex 2.36073 -1.41047 -5
    endloop
  endfacet
  facet normal 0 0 1
    outer loop
      vertex 2.07095 1.80933 -5
      vertex 2.33345 -6.12323e-16 -5
      vertex 2.36073 1.41047 -5
    endloop
  endfacet
  facet normal 0 0 1
    outer loop
      vertex 0 2.33345 -5
      vertex 2.07095 1.80933 -5
      vertex 1.7146 2.15004 -5
    endloop
  endfacet
  facet normal -0 0 1
    outer loop
      vertex 0 2.33345 -5
      vertex 1.7146 2.15004 -5
      vertex 1.30314 2.42164 -5
    endloop
  endfacet
  facet normal 0 0 1
    outer loop
      vertex 0 2.33345 -5
      vertex 1.30314 2.42164 -5
      vertex 0.849796 2.61541 -5
    endloop
  endfacet
  facet normal 0 0 1
    outer loop
      vertex 0 2.33345 -5
      vertex 0.849796 2.61541 -5
      vertex 0.369141 2.72511 -5
    endloop
  endfacet
  facet normal 0 0 1
    outer loop
      vertex 2.07095 1.80933 -5
      vertex 0 2.33345 -5
      vertex 2.33345 -6.12323e-16 -5
    endloop
  endfacet
  facet normal 0 0 1
    outer loop
      vertex -0.123378 2.74723 -5
      vertex 0 2.33345 -5
      vertex 0.369141 2.72511 -5
    endloop
  endfacet
  facet normal -0 0 1
    outer loop
      vertex -0.611932 2.68105 -5
      vertex 0 2.33345 -5
      vertex -0.123378 2.74723 -5
    endloop
  endfacet
  facet normal -0 0 1
    outer loop
      vertex -1.08082 2.5287 -5
      vertex 0 2.33345 -5
      vertex -0.611932 2.68105 -5
    endloop
  endfacet
  facet normal 0 0 1
    outer loop
      vertex -1.51497 2.29508 -5
      vertex 0 2.33345 -5
      vertex -1.08082 2.5287 -5
    endloop
  endfacet
  facet normal 0 0 1
    outer loop
      vertex -1.90042 1.98769 -5
      vertex 0 2.33345 -5
      vertex -1.51497 2.29508 -5
    endloop
  endfacet
  facet normal 0 0 1
    outer loop
      vertex -2.33345 -6.12323e-16 -5
      vertex -1.90042 1.98769 -5
      vertex -2.2248 1.61641 -5
    endloop
  endfacet
  facet normal -0 0 1
    outer loop
      vertex -1.90042 1.98769 -5
      vertex -2.33345 -6.12323e-16 -5
      vertex 0 2.33345 -5
    endloop
  endfacet
  facet normal 0 -0 1
    outer loop
      vertex -2.33345 -6.12323e-16 -5
      vertex -2.2248 1.61641 -5
      vertex -2.47766 1.19318 -5
    endloop
  endfacet
  facet normal 0 0 1
    outer loop
      vertex 2.33345 -6.12323e-16 -5
      vertex 2.07095 -1.80933 -5
      vertex 2.36073 -1.41047 -5
    endloop
  endfacet
  facet normal 0 0 1
    outer loop
      vertex 0 -2.33345 -5
      vertex 2.07095 -1.80933 -5
      vertex 2.33345 -6.12323e-16 -5
    endloop
  endfacet
  facet normal 0 0 1
    outer loop
      vertex 2.07095 -1.80933 -5
      vertex 0 -2.33345 -5
      vertex 1.7146 -2.15004 -5
    endloop
  endfacet
  facet normal 0 0 1
    outer loop
      vertex 1.7146 -2.15004 -5
      vertex 0 -2.33345 -5
      vertex 1.30314 -2.42164 -5
    endloop
  endfacet
  facet normal 0 0 1
    outer loop
      vertex 1.30314 -2.42164 -5
      vertex 0 -2.33345 -5
      vertex 0.849796 -2.61541 -5
    endloop
  endfacet
  facet normal 0 0 1
    outer loop
      vertex 0.849796 -2.61541 -5
      vertex 0 -2.33345 -5
      vertex 0.369141 -2.72511 -5
    endloop
  endfacet
  facet normal 0 0 1
    outer loop
      vertex 0 -2.33345 -5
      vertex -0.123378 -2.74723 -5
      vertex 0.369141 -2.72511 -5
    endloop
  endfacet
  facet normal 0 0 1
    outer loop
      vertex 0 -2.33345 -5
      vertex -0.611932 -2.68105 -5
      vertex -0.123378 -2.74723 -5
    endloop
  endfacet
  facet normal 0 0 1
    outer loop
      vertex 0 -2.33345 -5
      vertex -1.08082 -2.5287 -5
      vertex -0.611932 -2.68105 -5
    endloop
  endfacet
  facet normal 0 0 1
    outer loop
      vertex 0 -2.33345 -5
      vertex -1.51497 -2.29508 -5
      vertex -1.08082 -2.5287 -5
    endloop
  endfacet
  facet normal 0 0 1
    outer loop
      vertex 0 -2.33345 -5
      vertex -1.90042 -1.98769 -5
      vertex -1.51497 -2.29508 -5
    endloop
  endfacet
  facet normal 0 0 1
    outer loop
      vertex -2.33345 -6.12323e-16 -5
      vertex -1.90042 -1.98769 -5
      vertex 0 -2.33345 -5
    endloop
  endfacet
  facet normal 0 0 1
    outer loop
      vertex -1.90042 -1.98769 -5
      vertex -2.33345 -6.12323e-16 -5
      vertex -2.2248 -1.61641 -5
    endloop
  endfacet
  facet normal -0 0 1
    outer loop
      vertex -2.6509 0.731601 -5
      vertex -2.33345 -6.12323e-16 -5
      vertex -2.47766 1.19318 -5
    endloop
  endfacet
  facet normal 0 0 1
    outer loop
      vertex -2.33345 -6.12323e-16 -5
      vertex -2.47766 -1.19318 -5
      vertex -2.2248 -1.61641 -5
    endloop
  endfacet
  facet normal -0 0 1
    outer loop
      vertex -2.73893 0.246508 -5
      vertex -2.33345 -6.12323e-16 -5
      vertex -2.6509 0.731601 -5
    endloop
  endfacet
  facet normal 0 0 1
    outer loop
      vertex -2.33345 -6.12323e-16 -5
      vertex -2.6509 -0.731601 -5
      vertex -2.47766 -1.19318 -5
    endloop
  endfacet
  facet normal 0 0 1
    outer loop
      vertex -2.73893 -0.246508 -5
      vertex -2.33345 -6.12323e-16 -5
      vertex -2.73893 0.246508 -5
    endloop
  endfacet
  facet normal 0 0 1
    outer loop
      vertex -2.33345 -6.12323e-16 -5
      vertex -2.73893 -0.246508 -5
      vertex -2.6509 -0.731601 -5
    endloop
  endfacet
  facet normal -0.858449 0.512899 0
    outer loop
      vertex -2.47766 1.19318 -11.3
      vertex -2.2248 1.61641 -5
      vertex -2.2248 1.61641 -11.3
    endloop
  endfacet
  facet normal -0.858449 0.512899 0
    outer loop
      vertex -2.2248 1.61641 -5
      vertex -2.47766 1.19318 -11.3
      vertex -2.47766 1.19318 -5
    endloop
  endfacet
  facet normal 0.22252 0.974928 -0
    outer loop
      vertex 0.849796 2.61541 -11.3
      vertex 0.369141 2.72511 -5
      vertex 0.849796 2.61541 -5
    endloop
  endfacet
  facet normal 0.22252 0.974928 0
    outer loop
      vertex 0.369141 2.72511 -5
      vertex 0.849796 2.61541 -11.3
      vertex 0.369141 2.72511 -11.3
    endloop
  endfacet
  facet normal 0.393025 0.919528 -0
    outer loop
      vertex 1.30314 2.42164 -11.3
      vertex 0.849796 2.61541 -5
      vertex 1.30314 2.42164 -5
    endloop
  endfacet
  facet normal 0.393025 0.919528 0
    outer loop
      vertex 0.849796 2.61541 -5
      vertex 1.30314 2.42164 -11.3
      vertex 0.849796 2.61541 -11.3
    endloop
  endfacet
  facet normal 0.809016 0.587786 0
    outer loop
      vertex 2.36073 1.41047 -5
      vertex 2.07095 1.80933 -11.3
      vertex 2.07095 1.80933 -5
    endloop
  endfacet
  facet normal 0.809016 0.587786 0
    outer loop
      vertex 2.07095 1.80933 -11.3
      vertex 2.36073 1.41047 -5
      vertex 2.36073 1.41047 -11.3
    endloop
  endfacet
  facet normal -0.473868 0.880596 0
    outer loop
      vertex -1.08082 2.5287 -11.3
      vertex -1.51497 2.29508 -5
      vertex -1.08082 2.5287 -5
    endloop
  endfacet
  facet normal -0.473868 0.880596 0
    outer loop
      vertex -1.51497 2.29508 -5
      vertex -1.08082 2.5287 -11.3
      vertex -1.51497 2.29508 -11.3
    endloop
  endfacet
  facet normal -0.309017 0.951057 0
    outer loop
      vertex -0.611932 2.68105 -11.3
      vertex -1.08082 2.5287 -5
      vertex -0.611932 2.68105 -5
    endloop
  endfacet
  facet normal -0.309017 0.951057 0
    outer loop
      vertex -1.08082 2.5287 -5
      vertex -0.611932 2.68105 -11.3
      vertex -1.08082 2.5287 -11.3
    endloop
  endfacet
  facet normal -0.134234 0.99095 0
    outer loop
      vertex -0.123378 2.74723 -11.3
      vertex -0.611932 2.68105 -5
      vertex -0.123378 2.74723 -5
    endloop
  endfacet
  facet normal -0.134234 0.99095 0
    outer loop
      vertex -0.611932 2.68105 -5
      vertex -0.123378 2.74723 -11.3
      vertex -0.611932 2.68105 -11.3
    endloop
  endfacet
  facet normal -0.936235 0.351374 0
    outer loop
      vertex -2.6509 0.731601 -11.3
      vertex -2.47766 1.19318 -5
      vertex -2.47766 1.19318 -11.3
    endloop
  endfacet
  facet normal -0.936235 0.351374 0
    outer loop
      vertex -2.47766 1.19318 -5
      vertex -2.6509 0.731601 -11.3
      vertex -2.6509 0.731601 -5
    endloop
  endfacet
  facet normal 0.691063 0.722794 -0
    outer loop
      vertex 2.07095 1.80933 -11.3
      vertex 1.7146 2.15004 -5
      vertex 2.07095 1.80933 -5
    endloop
  endfacet
  facet normal 0.691063 0.722794 0
    outer loop
      vertex 1.7146 2.15004 -5
      vertex 2.07095 1.80933 -11.3
      vertex 1.7146 2.15004 -11.3
    endloop
  endfacet
  facet normal -0.753071 0.657939 0
    outer loop
      vertex -2.2248 1.61641 -11.3
      vertex -1.90042 1.98769 -5
      vertex -1.90042 1.98769 -11.3
    endloop
  endfacet
  facet normal -0.753071 0.657939 0
    outer loop
      vertex -1.90042 1.98769 -5
      vertex -2.2248 1.61641 -11.3
      vertex -2.2248 1.61641 -5
    endloop
  endfacet
  facet normal -0.62349 0.781831 0
    outer loop
      vertex -1.51497 2.29508 -11.3
      vertex -1.90042 1.98769 -5
      vertex -1.51497 2.29508 -5
    endloop
  endfacet
  facet normal -0.62349 0.781831 0
    outer loop
      vertex -1.90042 1.98769 -5
      vertex -1.51497 2.29508 -11.3
      vertex -1.90042 1.98769 -11.3
    endloop
  endfacet
  facet normal -0.707107 0.707107 -1.28164e-16
    outer loop
      vertex 0 -2.33345 -11.3
      vertex 2.33345 -6.12323e-16 -5
      vertex 2.33345 -1.38385e-15 -11.3
    endloop
  endfacet
  facet normal -0.707107 0.707107 0
    outer loop
      vertex 2.33345 -6.12323e-16 -5
      vertex 0 -2.33345 -11.3
      vertex 0 -2.33345 -5
    endloop
  endfacet
  facet normal 0.707107 0.707107 -1.28164e-16
    outer loop
      vertex 0 -2.33345 -5
      vertex -2.33345 -1.38385e-15 -11.3
      vertex -2.33345 -6.12323e-16 -5
    endloop
  endfacet
  facet normal 0.707107 0.707107 0
    outer loop
      vertex -2.33345 -1.38385e-15 -11.3
      vertex 0 -2.33345 -5
      vertex 0 -2.33345 -11.3
    endloop
  endfacet
  facet normal 0.707107 -0.707107 0
    outer loop
      vertex -2.33345 -6.12323e-16 -5
      vertex 0 2.33345 -11.3
      vertex 0 2.33345 -5
    endloop
  endfacet
  facet normal 0.707107 -0.707107 1.28164e-16
    outer loop
      vertex 0 2.33345 -11.3
      vertex -2.33345 -6.12323e-16 -5
      vertex -2.33345 -1.38385e-15 -11.3
    endloop
  endfacet
  facet normal -0.707107 -0.707107 0
    outer loop
      vertex 0 2.33345 -11.3
      vertex 2.33345 -6.12323e-16 -5
      vertex 0 2.33345 -5
    endloop
  endfacet
  facet normal -0.707107 -0.707107 8.65956e-17
    outer loop
      vertex 2.33345 -6.12323e-16 -5
      vertex 0 2.33345 -11.3
      vertex 2.33345 -1.38385e-15 -11.3
    endloop
  endfacet
endsolid OpenSCAD_Model
