solid OpenSCAD_Model
  facet normal 0 0 1
    outer loop
      vertex 9.15 9.15 -5
      vertex 7.50977 7.50977 -5
      vertex 9.15 -9.15 -5
    endloop
  endfacet
  facet normal 0 0 1
    outer loop
      vertex 9.15 9.15 -5
      vertex -7.50977 7.50977 -5
      vertex 7.50977 7.50977 -5
    endloop
  endfacet
  facet normal 0 0 1
    outer loop
      vertex -7.50977 7.50977 -5
      vertex -9.15 9.15 -5
      vertex -7.50977 -7.50977 -5
    endloop
  endfacet
  facet normal -0 0 1
    outer loop
      vertex -9.15 9.15 -5
      vertex -7.50977 7.50977 -5
      vertex 9.15 9.15 -5
    endloop
  endfacet
  facet normal -0 0 1
    outer loop
      vertex 7.50977 -7.50977 -5
      vertex 9.15 -9.15 -5
      vertex 7.50977 7.50977 -5
    endloop
  endfacet
  facet normal -0 0 1
    outer loop
      vertex -7.50977 -7.50977 -5
      vertex 9.15 -9.15 -5
      vertex 7.50977 -7.50977 -5
    endloop
  endfacet
  facet normal 0 0 1
    outer loop
      vertex -7.50977 -7.50977 -5
      vertex -9.15 -9.15 -5
      vertex 9.15 -9.15 -5
    endloop
  endfacet
  facet normal 0 0 1
    outer loop
      vertex -9.15 -9.15 -5
      vertex -7.50977 -7.50977 -5
      vertex -9.15 9.15 -5
    endloop
  endfacet
  facet normal 0 0.920107 -0.391667
    outer loop
      vertex 4.5 6 -12.4
      vertex -9.15 9.15 -5
      vertex 9.15 9.15 -5
    endloop
  endfacet
  facet normal 0 0.920107 -0.391667
    outer loop
      vertex -9.15 9.15 -5
      vertex 4.5 6 -12.4
      vertex -4.5 6 -12.4
    endloop
  endfacet
  facet normal -0.920107 0 -0.391667
    outer loop
      vertex -6 -4.5 -12.4
      vertex -9.15 9.15 -5
      vertex -6 4.5 -12.4
    endloop
  endfacet
  facet normal -0.920107 -0 -0.391667
    outer loop
      vertex -9.15 9.15 -5
      vertex -6 -4.5 -12.4
      vertex -9.15 -9.15 -5
    endloop
  endfacet
  facet normal 0.145825 -0.873937 -0.463647
    outer loop
      vertex 9.15 -9.15 -5
      vertex 4.5 -6 -12.4
      vertex 4.98705 -5.91873 -12.4
    endloop
  endfacet
  facet normal -0.145825 0.873937 -0.463647
    outer loop
      vertex -4.98705 5.91873 -12.4
      vertex -9.15 9.15 -5
      vertex -4.5 6 -12.4
    endloop
  endfacet
  facet normal 0 -0.920107 -0.391667
    outer loop
      vertex -4.5 -6 -12.4
      vertex 9.15 -9.15 -5
      vertex -9.15 -9.15 -5
    endloop
  endfacet
  facet normal 0 -0.920107 -0.391667
    outer loop
      vertex 9.15 -9.15 -5
      vertex -4.5 -6 -12.4
      vertex 4.5 -6 -12.4
    endloop
  endfacet
  facet normal -0.606146 0.557978 -0.566788
    outer loop
      vertex -5.75575 5.32042 -12.4
      vertex -9.15 9.15 -5
      vertex -5.42133 5.68372 -12.4
    endloop
  endfacet
  facet normal -0.557978 -0.606146 -0.566788
    outer loop
      vertex -5.32042 -5.75575 -12.4
      vertex -9.15 -9.15 -5
      vertex -5.68372 -5.42133 -12.4
    endloop
  endfacet
  facet normal 0.920107 0 -0.391667
    outer loop
      vertex 9.15 9.15 -5
      vertex 6 -4.5 -12.4
      vertex 6 4.5 -12.4
    endloop
  endfacet
  facet normal 0.920107 0 -0.391667
    outer loop
      vertex 6 -4.5 -12.4
      vertex 9.15 9.15 -5
      vertex 9.15 -9.15 -5
    endloop
  endfacet
  facet normal -0.398725 0.736794 -0.546034
    outer loop
      vertex -5.42133 5.68372 -12.4
      vertex -9.15 9.15 -5
      vertex -4.98705 5.91873 -12.4
    endloop
  endfacet
  facet normal -0.775552 0.340186 -0.531782
    outer loop
      vertex -5.9541 4.86823 -12.4
      vertex -9.15 9.15 -5
      vertex -5.75575 5.32042 -12.4
    endloop
  endfacet
  facet normal 0 0 -1
    outer loop
      vertex 4.5 -6 -12.4
      vertex 6 -4.5 -12.4
      vertex 5.9541 -4.86823 -12.4
    endloop
  endfacet
  facet normal -0 0 -1
    outer loop
      vertex 6 -4.5 -12.4
      vertex 4.5 -6 -12.4
      vertex 6 4.5 -12.4
    endloop
  endfacet
  facet normal 0 0 -1
    outer loop
      vertex 4.5 -6 -12.4
      vertex 5.9541 -4.86823 -12.4
      vertex 5.75575 -5.32042 -12.4
    endloop
  endfacet
  facet normal -0 0 -1
    outer loop
      vertex 6 4.5 -12.4
      vertex 4.5 -6 -12.4
      vertex 4.5 6 -12.4
    endloop
  endfacet
  facet normal 0 0 -1
    outer loop
      vertex 4.5 -6 -12.4
      vertex 5.75575 -5.32042 -12.4
      vertex 5.42133 -5.68372 -12.4
    endloop
  endfacet
  facet normal 0 0 -1
    outer loop
      vertex 6 4.5 -12.4
      vertex 4.5 6 -12.4
      vertex 5.91873 4.98705 -12.4
    endloop
  endfacet
  facet normal 0 0 -1
    outer loop
      vertex 4.5 -6 -12.4
      vertex 5.42133 -5.68372 -12.4
      vertex 4.98705 -5.91873 -12.4
    endloop
  endfacet
  facet normal 0 0 -1
    outer loop
      vertex 5.91873 4.98705 -12.4
      vertex 4.5 6 -12.4
      vertex 5.68372 5.42133 -12.4
    endloop
  endfacet
  facet normal 0 0 -1
    outer loop
      vertex 5.68372 5.42133 -12.4
      vertex 4.5 6 -12.4
      vertex 5.32042 5.75575 -12.4
    endloop
  endfacet
  facet normal 0 0 -1
    outer loop
      vertex 5.32042 5.75575 -12.4
      vertex 4.5 6 -12.4
      vertex 4.86823 5.9541 -12.4
    endloop
  endfacet
  facet normal 0 0 -1
    outer loop
      vertex -4.5 -6 -12.4
      vertex 4.5 6 -12.4
      vertex 4.5 -6 -12.4
    endloop
  endfacet
  facet normal 0 0 -1
    outer loop
      vertex -4.5 -6 -12.4
      vertex -4.5 6 -12.4
      vertex 4.5 6 -12.4
    endloop
  endfacet
  facet normal 0 0 -1
    outer loop
      vertex -6 -4.5 -12.4
      vertex -4.5 -6 -12.4
      vertex -4.86823 -5.9541 -12.4
    endloop
  endfacet
  facet normal 0 0 -1
    outer loop
      vertex -4.5 -6 -12.4
      vertex -6 -4.5 -12.4
      vertex -4.5 6 -12.4
    endloop
  endfacet
  facet normal 0 0 -1
    outer loop
      vertex -6 -4.5 -12.4
      vertex -4.86823 -5.9541 -12.4
      vertex -5.32042 -5.75575 -12.4
    endloop
  endfacet
  facet normal 0 0 -1
    outer loop
      vertex -4.5 6 -12.4
      vertex -6 -4.5 -12.4
      vertex -6 4.5 -12.4
    endloop
  endfacet
  facet normal 0 0 -1
    outer loop
      vertex -6 -4.5 -12.4
      vertex -5.32042 -5.75575 -12.4
      vertex -5.68372 -5.42133 -12.4
    endloop
  endfacet
  facet normal 0 0 -1
    outer loop
      vertex -4.5 6 -12.4
      vertex -6 4.5 -12.4
      vertex -4.98705 5.91873 -12.4
    endloop
  endfacet
  facet normal 0 0 -1
    outer loop
      vertex -6 -4.5 -12.4
      vertex -5.68372 -5.42133 -12.4
      vertex -5.91873 -4.98705 -12.4
    endloop
  endfacet
  facet normal 0 0 -1
    outer loop
      vertex -4.98705 5.91873 -12.4
      vertex -6 4.5 -12.4
      vertex -5.42133 5.68372 -12.4
    endloop
  endfacet
  facet normal 0 0 -1
    outer loop
      vertex -5.42133 5.68372 -12.4
      vertex -6 4.5 -12.4
      vertex -5.75575 5.32042 -12.4
    endloop
  endfacet
  facet normal 0 0 -1
    outer loop
      vertex -5.75575 5.32042 -12.4
      vertex -6 4.5 -12.4
      vertex -5.9541 4.86823 -12.4
    endloop
  endfacet
  facet normal -0.873937 -0.145825 -0.463647
    outer loop
      vertex -5.91873 -4.98705 -12.4
      vertex -9.15 -9.15 -5
      vertex -6 -4.5 -12.4
    endloop
  endfacet
  facet normal 0.606146 -0.557978 -0.566788
    outer loop
      vertex 9.15 -9.15 -5
      vertex 5.42133 -5.68372 -12.4
      vertex 5.75575 -5.32042 -12.4
    endloop
  endfacet
  facet normal 0.873937 0.145825 -0.463647
    outer loop
      vertex 6 4.5 -12.4
      vertex 5.91873 4.98705 -12.4
      vertex 9.15 9.15 -5
    endloop
  endfacet
  facet normal -0.887512 0.110626 -0.447308
    outer loop
      vertex -6 4.5 -12.4
      vertex -9.15 9.15 -5
      vertex -5.9541 4.86823 -12.4
    endloop
  endfacet
  facet normal -0.736794 -0.398725 -0.546034
    outer loop
      vertex -5.68372 -5.42133 -12.4
      vertex -9.15 -9.15 -5
      vertex -5.91873 -4.98705 -12.4
    endloop
  endfacet
  facet normal -0.340186 -0.775552 -0.531782
    outer loop
      vertex -4.86823 -5.9541 -12.4
      vertex -9.15 -9.15 -5
      vertex -5.32042 -5.75575 -12.4
    endloop
  endfacet
  facet normal 0.398725 -0.736794 -0.546034
    outer loop
      vertex 9.15 -9.15 -5
      vertex 4.98705 -5.91873 -12.4
      vertex 5.42133 -5.68372 -12.4
    endloop
  endfacet
  facet normal 0.775552 -0.340186 -0.531782
    outer loop
      vertex 9.15 -9.15 -5
      vertex 5.75575 -5.32042 -12.4
      vertex 5.9541 -4.86823 -12.4
    endloop
  endfacet
  facet normal 0.557978 0.606146 -0.566788
    outer loop
      vertex 5.68372 5.42133 -12.4
      vertex 5.32042 5.75575 -12.4
      vertex 9.15 9.15 -5
    endloop
  endfacet
  facet normal -0.110626 -0.887512 -0.447308
    outer loop
      vertex -4.5 -6 -12.4
      vertex -9.15 -9.15 -5
      vertex -4.86823 -5.9541 -12.4
    endloop
  endfacet
  facet normal 0.887512 -0.110626 -0.447308
    outer loop
      vertex 9.15 -9.15 -5
      vertex 5.9541 -4.86823 -12.4
      vertex 6 -4.5 -12.4
    endloop
  endfacet
  facet normal 0.736794 0.398725 -0.546034
    outer loop
      vertex 5.91873 4.98705 -12.4
      vertex 5.68372 5.42133 -12.4
      vertex 9.15 9.15 -5
    endloop
  endfacet
  facet normal 0.340186 0.775552 -0.531782
    outer loop
      vertex 5.32042 5.75575 -12.4
      vertex 4.86823 5.9541 -12.4
      vertex 9.15 9.15 -5
    endloop
  endfacet
  facet normal 0.110626 0.887512 -0.447308
    outer loop
      vertex 4.86823 5.9541 -12.4
      vertex 4.5 6 -12.4
      vertex 9.15 9.15 -5
    endloop
  endfacet
  facet normal 0 -0.927741 0.373224
    outer loop
      vertex -5.17647 5.17647 -10.8
      vertex 7.50977 7.50977 -5
      vertex -7.50977 7.50977 -5
    endloop
  endfacet
  facet normal 0 -0.927741 0.373224
    outer loop
      vertex 7.50977 7.50977 -5
      vertex -5.17647 5.17647 -10.8
      vertex 5.17647 5.17647 -10.8
    endloop
  endfacet
  facet normal 0.927741 0 0.373224
    outer loop
      vertex -7.50977 7.50977 -5
      vertex -5.17647 -5.17647 -10.8
      vertex -5.17647 5.17647 -10.8
    endloop
  endfacet
  facet normal 0.927741 0 0.373224
    outer loop
      vertex -5.17647 -5.17647 -10.8
      vertex -7.50977 7.50977 -5
      vertex -7.50977 -7.50977 -5
    endloop
  endfacet
  facet normal -0.927741 0 0.373224
    outer loop
      vertex 5.17647 -5.17647 -10.8
      vertex 7.50977 7.50977 -5
      vertex 5.17647 5.17647 -10.8
    endloop
  endfacet
  facet normal -0.927741 0 0.373224
    outer loop
      vertex 7.50977 7.50977 -5
      vertex 5.17647 -5.17647 -10.8
      vertex 7.50977 -7.50977 -5
    endloop
  endfacet
  facet normal 0 0.927741 0.373224
    outer loop
      vertex 5.17647 -5.17647 -10.8
      vertex -7.50977 -7.50977 -5
      vertex 7.50977 -7.50977 -5
    endloop
  endfacet
  facet normal 0 0.927741 0.373224
    outer loop
      vertex -7.50977 -7.50977 -5
      vertex 5.17647 -5.17647 -10.8
      vertex -5.17647 -5.17647 -10.8
    endloop
  endfacet
  facet normal 0 0 1
    outer loop
      vertex 5.17647 5.17647 -10.8
      vertex 2.75 -1.32262e-15 -10.8
      vertex 5.17647 -5.17647 -10.8
    endloop
  endfacet
  facet normal 0 0 1
    outer loop
      vertex 5.17647 5.17647 -10.8
      vertex 2.70581 0.491031 -10.8
      vertex 2.75 -1.32262e-15 -10.8
    endloop
  endfacet
  facet normal 0 0 1
    outer loop
      vertex 5.17647 5.17647 -10.8
      vertex 2.57465 0.96628 -10.8
      vertex 2.70581 0.491031 -10.8
    endloop
  endfacet
  facet normal 0 0 1
    outer loop
      vertex 5.17647 5.17647 -10.8
      vertex 2.36073 1.41047 -10.8
      vertex 2.57465 0.96628 -10.8
    endloop
  endfacet
  facet normal 0 0 1
    outer loop
      vertex 5.17647 5.17647 -10.8
      vertex 2.07095 1.80933 -10.8
      vertex 2.36073 1.41047 -10.8
    endloop
  endfacet
  facet normal 0 0 1
    outer loop
      vertex 5.17647 5.17647 -10.8
      vertex 1.7146 2.15004 -10.8
      vertex 2.07095 1.80933 -10.8
    endloop
  endfacet
  facet normal 0 0 1
    outer loop
      vertex 5.17647 5.17647 -10.8
      vertex 1.30314 2.42164 -10.8
      vertex 1.7146 2.15004 -10.8
    endloop
  endfacet
  facet normal 0 0 1
    outer loop
      vertex 5.17647 5.17647 -10.8
      vertex 0.849796 2.61541 -10.8
      vertex 1.30314 2.42164 -10.8
    endloop
  endfacet
  facet normal 0 0 1
    outer loop
      vertex 5.17647 5.17647 -10.8
      vertex 0.369141 2.72511 -10.8
      vertex 0.849796 2.61541 -10.8
    endloop
  endfacet
  facet normal 0 0 1
    outer loop
      vertex 5.17647 5.17647 -10.8
      vertex -0.123378 2.74723 -10.8
      vertex 0.369141 2.72511 -10.8
    endloop
  endfacet
  facet normal -0 0 1
    outer loop
      vertex -5.17647 5.17647 -10.8
      vertex -0.123378 2.74723 -10.8
      vertex 5.17647 5.17647 -10.8
    endloop
  endfacet
  facet normal 0 0 1
    outer loop
      vertex -0.123378 2.74723 -10.8
      vertex -5.17647 5.17647 -10.8
      vertex -0.611932 2.68105 -10.8
    endloop
  endfacet
  facet normal 0 0 1
    outer loop
      vertex -2.73893 0.246508 -10.8
      vertex -5.17647 5.17647 -10.8
      vertex -2.73893 -0.246508 -10.8
    endloop
  endfacet
  facet normal 0 0 1
    outer loop
      vertex -2.6509 0.731601 -10.8
      vertex -5.17647 5.17647 -10.8
      vertex -2.73893 0.246508 -10.8
    endloop
  endfacet
  facet normal 0 0 1
    outer loop
      vertex -2.47766 1.19318 -10.8
      vertex -5.17647 5.17647 -10.8
      vertex -2.6509 0.731601 -10.8
    endloop
  endfacet
  facet normal 0 0 1
    outer loop
      vertex -2.2248 1.61641 -10.8
      vertex -5.17647 5.17647 -10.8
      vertex -2.47766 1.19318 -10.8
    endloop
  endfacet
  facet normal 0 0 1
    outer loop
      vertex -1.90042 1.98769 -10.8
      vertex -5.17647 5.17647 -10.8
      vertex -2.2248 1.61641 -10.8
    endloop
  endfacet
  facet normal 0 0 1
    outer loop
      vertex -1.51497 2.29508 -10.8
      vertex -5.17647 5.17647 -10.8
      vertex -1.90042 1.98769 -10.8
    endloop
  endfacet
  facet normal 0 0 1
    outer loop
      vertex -1.08082 2.5287 -10.8
      vertex -5.17647 5.17647 -10.8
      vertex -1.51497 2.29508 -10.8
    endloop
  endfacet
  facet normal 0 0 1
    outer loop
      vertex -0.611932 2.68105 -10.8
      vertex -5.17647 5.17647 -10.8
      vertex -1.08082 2.5287 -10.8
    endloop
  endfacet
  facet normal -0 0 1
    outer loop
      vertex 2.70581 -0.491031 -10.8
      vertex 5.17647 -5.17647 -10.8
      vertex 2.75 -1.32262e-15 -10.8
    endloop
  endfacet
  facet normal -0 0 1
    outer loop
      vertex 2.57465 -0.96628 -10.8
      vertex 5.17647 -5.17647 -10.8
      vertex 2.70581 -0.491031 -10.8
    endloop
  endfacet
  facet normal -0 0 1
    outer loop
      vertex 2.36073 -1.41047 -10.8
      vertex 5.17647 -5.17647 -10.8
      vertex 2.57465 -0.96628 -10.8
    endloop
  endfacet
  facet normal -0 0 1
    outer loop
      vertex 2.07095 -1.80933 -10.8
      vertex 5.17647 -5.17647 -10.8
      vertex 2.36073 -1.41047 -10.8
    endloop
  endfacet
  facet normal -0 0 1
    outer loop
      vertex 1.7146 -2.15004 -10.8
      vertex 5.17647 -5.17647 -10.8
      vertex 2.07095 -1.80933 -10.8
    endloop
  endfacet
  facet normal -0 0 1
    outer loop
      vertex 1.30314 -2.42164 -10.8
      vertex 5.17647 -5.17647 -10.8
      vertex 1.7146 -2.15004 -10.8
    endloop
  endfacet
  facet normal -0 0 1
    outer loop
      vertex 0.849796 -2.61541 -10.8
      vertex 5.17647 -5.17647 -10.8
      vertex 1.30314 -2.42164 -10.8
    endloop
  endfacet
  facet normal -0 0 1
    outer loop
      vertex 0.369141 -2.72511 -10.8
      vertex 5.17647 -5.17647 -10.8
      vertex 0.849796 -2.61541 -10.8
    endloop
  endfacet
  facet normal -0 0 1
    outer loop
      vertex -0.123378 -2.74723 -10.8
      vertex 5.17647 -5.17647 -10.8
      vertex 0.369141 -2.72511 -10.8
    endloop
  endfacet
  facet normal 0 0 1
    outer loop
      vertex -5.17647 -5.17647 -10.8
      vertex -0.123378 -2.74723 -10.8
      vertex -0.611932 -2.68105 -10.8
    endloop
  endfacet
  facet normal 0 0 1
    outer loop
      vertex -5.17647 -5.17647 -10.8
      vertex -0.611932 -2.68105 -10.8
      vertex -1.08082 -2.5287 -10.8
    endloop
  endfacet
  facet normal 0 0 1
    outer loop
      vertex -5.17647 -5.17647 -10.8
      vertex -2.73893 -0.246508 -10.8
      vertex -5.17647 5.17647 -10.8
    endloop
  endfacet
  facet normal 0 0 1
    outer loop
      vertex -2.73893 -0.246508 -10.8
      vertex -5.17647 -5.17647 -10.8
      vertex -2.6509 -0.731601 -10.8
    endloop
  endfacet
  facet normal 0 0 1
    outer loop
      vertex -0.123378 -2.74723 -10.8
      vertex -5.17647 -5.17647 -10.8
      vertex 5.17647 -5.17647 -10.8
    endloop
  endfacet
  facet normal 0 0 1
    outer loop
      vertex -1.51497 -2.29508 -10.8
      vertex -5.17647 -5.17647 -10.8
      vertex -1.08082 -2.5287 -10.8
    endloop
  endfacet
  facet normal 0 0 1
    outer loop
      vertex -1.90042 -1.98769 -10.8
      vertex -5.17647 -5.17647 -10.8
      vertex -1.51497 -2.29508 -10.8
    endloop
  endfacet
  facet normal 0 0 1
    outer loop
      vertex -2.2248 -1.61641 -10.8
      vertex -5.17647 -5.17647 -10.8
      vertex -1.90042 -1.98769 -10.8
    endloop
  endfacet
  facet normal 0 0 1
    outer loop
      vertex -2.47766 -1.19318 -10.8
      vertex -5.17647 -5.17647 -10.8
      vertex -2.2248 -1.61641 -10.8
    endloop
  endfacet
  facet normal 0 0 1
    outer loop
      vertex -2.6509 -0.731601 -10.8
      vertex -5.17647 -5.17647 -10.8
      vertex -2.47766 -1.19318 -10.8
    endloop
  endfacet
  facet normal 0 0 1
    outer loop
      vertex 0 2.47487 -10.8
      vertex 0 -2.47487 -10.8
      vertex 2.47487 -1.32262e-15 -10.8
    endloop
  endfacet
  facet normal 0 -0 1
    outer loop
      vertex 0 -2.47487 -10.8
      vertex 0 2.47487 -10.8
      vertex -2.47487 -1.32262e-15 -10.8
    endloop
  endfacet
  facet normal 0.995974 -0.0896406 1.09198e-17
    outer loop
      vertex 2.70581 -0.491031 -5
      vertex 2.75 -1.32262e-15 -10.8
      vertex 2.75 -6.12323e-16 -5
    endloop
  endfacet
  facet normal 0.995974 -0.0896406 0
    outer loop
      vertex 2.75 -1.32262e-15 -10.8
      vertex 2.70581 -0.491031 -5
      vertex 2.70581 -0.491031 -10.8
    endloop
  endfacet
  facet normal -1 0 0
    outer loop
      vertex -2.73893 -0.246508 -10.8
      vertex -2.73893 0.246508 -5
      vertex -2.73893 0.246508 -10.8
    endloop
  endfacet
  facet normal -1 -0 0
    outer loop
      vertex -2.73893 0.246508 -5
      vertex -2.73893 -0.246508 -10.8
      vertex -2.73893 -0.246508 -5
    endloop
  endfacet
  facet normal 0.0448658 -0.998993 0
    outer loop
      vertex -0.123378 -2.74723 -10.8
      vertex 0.369141 -2.72511 -5
      vertex -0.123378 -2.74723 -5
    endloop
  endfacet
  facet normal 0.0448658 -0.998993 0
    outer loop
      vertex 0.369141 -2.72511 -5
      vertex -0.123378 -2.74723 -10.8
      vertex 0.369141 -2.72511 -10.8
    endloop
  endfacet
  facet normal 0.0448658 0.998993 -0
    outer loop
      vertex 0.369141 2.72511 -10.8
      vertex -0.123378 2.74723 -5
      vertex 0.369141 2.72511 -5
    endloop
  endfacet
  facet normal 0.0448658 0.998993 0
    outer loop
      vertex -0.123378 2.74723 -5
      vertex 0.369141 2.72511 -10.8
      vertex -0.123378 2.74723 -10.8
    endloop
  endfacet
  facet normal 0.809016 0.587786 0
    outer loop
      vertex 2.36073 1.41047 -5
      vertex 2.07095 1.80933 -10.8
      vertex 2.07095 1.80933 -5
    endloop
  endfacet
  facet normal 0.809016 0.587786 0
    outer loop
      vertex 2.07095 1.80933 -10.8
      vertex 2.36073 1.41047 -5
      vertex 2.36073 1.41047 -10.8
    endloop
  endfacet
  facet normal 0.691063 -0.722794 0
    outer loop
      vertex 1.7146 -2.15004 -10.8
      vertex 2.07095 -1.80933 -5
      vertex 1.7146 -2.15004 -5
    endloop
  endfacet
  facet normal 0.691063 -0.722794 0
    outer loop
      vertex 2.07095 -1.80933 -5
      vertex 1.7146 -2.15004 -10.8
      vertex 2.07095 -1.80933 -10.8
    endloop
  endfacet
  facet normal -0.753071 -0.657939 0
    outer loop
      vertex -1.90042 -1.98769 -10.8
      vertex -2.2248 -1.61641 -5
      vertex -2.2248 -1.61641 -10.8
    endloop
  endfacet
  facet normal -0.753071 -0.657939 0
    outer loop
      vertex -2.2248 -1.61641 -5
      vertex -1.90042 -1.98769 -10.8
      vertex -1.90042 -1.98769 -5
    endloop
  endfacet
  facet normal -0.473868 -0.880596 0
    outer loop
      vertex -1.51497 -2.29508 -10.8
      vertex -1.08082 -2.5287 -5
      vertex -1.51497 -2.29508 -5
    endloop
  endfacet
  facet normal -0.473868 -0.880596 -0
    outer loop
      vertex -1.08082 -2.5287 -5
      vertex -1.51497 -2.29508 -10.8
      vertex -1.08082 -2.5287 -10.8
    endloop
  endfacet
  facet normal 0.963963 0.266037 0
    outer loop
      vertex 2.70581 0.491031 -5
      vertex 2.57465 0.96628 -10.8
      vertex 2.57465 0.96628 -5
    endloop
  endfacet
  facet normal 0.963963 0.266037 0
    outer loop
      vertex 2.57465 0.96628 -10.8
      vertex 2.70581 0.491031 -5
      vertex 2.70581 0.491031 -10.8
    endloop
  endfacet
  facet normal 0.90097 -0.433882 0
    outer loop
      vertex 2.36073 -1.41047 -5
      vertex 2.57465 -0.96628 -10.8
      vertex 2.57465 -0.96628 -5
    endloop
  endfacet
  facet normal 0.90097 -0.433882 0
    outer loop
      vertex 2.57465 -0.96628 -10.8
      vertex 2.36073 -1.41047 -5
      vertex 2.36073 -1.41047 -10.8
    endloop
  endfacet
  facet normal 0.963963 -0.266037 0
    outer loop
      vertex 2.57465 -0.96628 -5
      vertex 2.70581 -0.491031 -10.8
      vertex 2.70581 -0.491031 -5
    endloop
  endfacet
  facet normal 0.963963 -0.266037 0
    outer loop
      vertex 2.70581 -0.491031 -10.8
      vertex 2.57465 -0.96628 -5
      vertex 2.57465 -0.96628 -10.8
    endloop
  endfacet
  facet normal 0.809016 -0.587786 0
    outer loop
      vertex 2.07095 -1.80933 -5
      vertex 2.36073 -1.41047 -10.8
      vertex 2.36073 -1.41047 -5
    endloop
  endfacet
  facet normal 0.809016 -0.587786 0
    outer loop
      vertex 2.36073 -1.41047 -10.8
      vertex 2.07095 -1.80933 -5
      vertex 2.07095 -1.80933 -10.8
    endloop
  endfacet
  facet normal 0.393025 -0.919528 0
    outer loop
      vertex 0.849796 -2.61541 -10.8
      vertex 1.30314 -2.42164 -5
      vertex 0.849796 -2.61541 -5
    endloop
  endfacet
  facet normal 0.393025 -0.919528 0
    outer loop
      vertex 1.30314 -2.42164 -5
      vertex 0.849796 -2.61541 -10.8
      vertex 1.30314 -2.42164 -10.8
    endloop
  endfacet
  facet normal 0.22252 -0.974928 0
    outer loop
      vertex 0.369141 -2.72511 -10.8
      vertex 0.849796 -2.61541 -5
      vertex 0.369141 -2.72511 -5
    endloop
  endfacet
  facet normal 0.22252 -0.974928 0
    outer loop
      vertex 0.849796 -2.61541 -5
      vertex 0.369141 -2.72511 -10.8
      vertex 0.849796 -2.61541 -10.8
    endloop
  endfacet
  facet normal 0.550898 -0.834573 0
    outer loop
      vertex 1.30314 -2.42164 -10.8
      vertex 1.7146 -2.15004 -5
      vertex 1.30314 -2.42164 -5
    endloop
  endfacet
  facet normal 0.550898 -0.834573 0
    outer loop
      vertex 1.7146 -2.15004 -5
      vertex 1.30314 -2.42164 -10.8
      vertex 1.7146 -2.15004 -10.8
    endloop
  endfacet
  facet normal -0.936235 -0.351374 0
    outer loop
      vertex -2.47766 -1.19318 -10.8
      vertex -2.6509 -0.731601 -5
      vertex -2.6509 -0.731601 -10.8
    endloop
  endfacet
  facet normal -0.936235 -0.351374 0
    outer loop
      vertex -2.6509 -0.731601 -5
      vertex -2.47766 -1.19318 -10.8
      vertex -2.47766 -1.19318 -5
    endloop
  endfacet
  facet normal -0.858449 -0.512899 0
    outer loop
      vertex -2.2248 -1.61641 -10.8
      vertex -2.47766 -1.19318 -5
      vertex -2.47766 -1.19318 -10.8
    endloop
  endfacet
  facet normal -0.858449 -0.512899 0
    outer loop
      vertex -2.47766 -1.19318 -5
      vertex -2.2248 -1.61641 -10.8
      vertex -2.2248 -1.61641 -5
    endloop
  endfacet
  facet normal -0.983929 -0.178558 0
    outer loop
      vertex -2.6509 -0.731601 -10.8
      vertex -2.73893 -0.246508 -5
      vertex -2.73893 -0.246508 -10.8
    endloop
  endfacet
  facet normal -0.983929 -0.178558 0
    outer loop
      vertex -2.73893 -0.246508 -5
      vertex -2.6509 -0.731601 -10.8
      vertex -2.6509 -0.731601 -5
    endloop
  endfacet
  facet normal -0.62349 -0.781831 0
    outer loop
      vertex -1.90042 -1.98769 -10.8
      vertex -1.51497 -2.29508 -5
      vertex -1.90042 -1.98769 -5
    endloop
  endfacet
  facet normal -0.62349 -0.781831 -0
    outer loop
      vertex -1.51497 -2.29508 -5
      vertex -1.90042 -1.98769 -10.8
      vertex -1.51497 -2.29508 -10.8
    endloop
  endfacet
  facet normal -0.134234 -0.99095 0
    outer loop
      vertex -0.611932 -2.68105 -10.8
      vertex -0.123378 -2.74723 -5
      vertex -0.611932 -2.68105 -5
    endloop
  endfacet
  facet normal -0.134234 -0.99095 -0
    outer loop
      vertex -0.123378 -2.74723 -5
      vertex -0.611932 -2.68105 -10.8
      vertex -0.123378 -2.74723 -10.8
    endloop
  endfacet
  facet normal 0.995974 0.0896406 0
    outer loop
      vertex 2.75 -6.12323e-16 -5
      vertex 2.70581 0.491031 -10.8
      vertex 2.70581 0.491031 -5
    endloop
  endfacet
  facet normal 0.995974 0.0896406 -1.09198e-17
    outer loop
      vertex 2.70581 0.491031 -10.8
      vertex 2.75 -6.12323e-16 -5
      vertex 2.75 -1.32262e-15 -10.8
    endloop
  endfacet
  facet normal 0 0 1
    outer loop
      vertex 2.47487 -6.12323e-16 -5
      vertex 2.75 -6.12323e-16 -5
      vertex 2.70581 0.491031 -5
    endloop
  endfacet
  facet normal 0 0 1
    outer loop
      vertex 2.47487 -6.12323e-16 -5
      vertex 2.70581 0.491031 -5
      vertex 2.57465 0.96628 -5
    endloop
  endfacet
  facet normal 0 0 1
    outer loop
      vertex 2.75 -6.12323e-16 -5
      vertex 2.47487 -6.12323e-16 -5
      vertex 2.70581 -0.491031 -5
    endloop
  endfacet
  facet normal 0 0 1
    outer loop
      vertex 2.70581 -0.491031 -5
      vertex 2.47487 -6.12323e-16 -5
      vertex 2.57465 -0.96628 -5
    endloop
  endfacet
  facet normal 0 0 1
    outer loop
      vertex 2.36073 1.41047 -5
      vertex 2.47487 -6.12323e-16 -5
      vertex 2.57465 0.96628 -5
    endloop
  endfacet
  facet normal 0 0 1
    outer loop
      vertex 2.07095 1.80933 -5
      vertex 2.47487 -6.12323e-16 -5
      vertex 2.36073 1.41047 -5
    endloop
  endfacet
  facet normal 0 0 1
    outer loop
      vertex 1.7146 2.15004 -5
      vertex 2.47487 -6.12323e-16 -5
      vertex 2.07095 1.80933 -5
    endloop
  endfacet
  facet normal 0 0 1
    outer loop
      vertex 0 2.47487 -5
      vertex 1.7146 2.15004 -5
      vertex 1.30314 2.42164 -5
    endloop
  endfacet
  facet normal -0 0 1
    outer loop
      vertex 0 2.47487 -5
      vertex 1.30314 2.42164 -5
      vertex 0.849796 2.61541 -5
    endloop
  endfacet
  facet normal 0 0 1
    outer loop
      vertex 0 2.47487 -5
      vertex 0.849796 2.61541 -5
      vertex 0.369141 2.72511 -5
    endloop
  endfacet
  facet normal 0 0 1
    outer loop
      vertex 1.7146 2.15004 -5
      vertex 0 2.47487 -5
      vertex 2.47487 -6.12323e-16 -5
    endloop
  endfacet
  facet normal 0 0 1
    outer loop
      vertex -0.123378 2.74723 -5
      vertex 0 2.47487 -5
      vertex 0.369141 2.72511 -5
    endloop
  endfacet
  facet normal -0 0 1
    outer loop
      vertex -0.611932 2.68105 -5
      vertex 0 2.47487 -5
      vertex -0.123378 2.74723 -5
    endloop
  endfacet
  facet normal -0 0 1
    outer loop
      vertex -1.08082 2.5287 -5
      vertex 0 2.47487 -5
      vertex -0.611932 2.68105 -5
    endloop
  endfacet
  facet normal 0 0 1
    outer loop
      vertex -1.51497 2.29508 -5
      vertex 0 2.47487 -5
      vertex -1.08082 2.5287 -5
    endloop
  endfacet
  facet normal 0 0 1
    outer loop
      vertex -1.90042 1.98769 -5
      vertex 0 2.47487 -5
      vertex -1.51497 2.29508 -5
    endloop
  endfacet
  facet normal 0 0 1
    outer loop
      vertex -2.47487 -6.12323e-16 -5
      vertex -1.90042 1.98769 -5
      vertex -2.2248 1.61641 -5
    endloop
  endfacet
  facet normal -0 0 1
    outer loop
      vertex -1.90042 1.98769 -5
      vertex -2.47487 -6.12323e-16 -5
      vertex 0 2.47487 -5
    endloop
  endfacet
  facet normal 0 -0 1
    outer loop
      vertex -2.47487 -6.12323e-16 -5
      vertex -2.2248 1.61641 -5
      vertex -2.47766 1.19318 -5
    endloop
  endfacet
  facet normal 0 0 1
    outer loop
      vertex 2.47487 -6.12323e-16 -5
      vertex 2.36073 -1.41047 -5
      vertex 2.57465 -0.96628 -5
    endloop
  endfacet
  facet normal 0 0 1
    outer loop
      vertex 2.47487 -6.12323e-16 -5
      vertex 2.07095 -1.80933 -5
      vertex 2.36073 -1.41047 -5
    endloop
  endfacet
  facet normal 0 0 1
    outer loop
      vertex 2.47487 -6.12323e-16 -5
      vertex 1.7146 -2.15004 -5
      vertex 2.07095 -1.80933 -5
    endloop
  endfacet
  facet normal 0 0 1
    outer loop
      vertex 0 -2.47487 -5
      vertex 1.7146 -2.15004 -5
      vertex 2.47487 -6.12323e-16 -5
    endloop
  endfacet
  facet normal 0 0 1
    outer loop
      vertex 1.7146 -2.15004 -5
      vertex 0 -2.47487 -5
      vertex 1.30314 -2.42164 -5
    endloop
  endfacet
  facet normal 0 0 1
    outer loop
      vertex 1.30314 -2.42164 -5
      vertex 0 -2.47487 -5
      vertex 0.849796 -2.61541 -5
    endloop
  endfacet
  facet normal 0 0 1
    outer loop
      vertex 0.849796 -2.61541 -5
      vertex 0 -2.47487 -5
      vertex 0.369141 -2.72511 -5
    endloop
  endfacet
  facet normal 0 0 1
    outer loop
      vertex 0 -2.47487 -5
      vertex -0.123378 -2.74723 -5
      vertex 0.369141 -2.72511 -5
    endloop
  endfacet
  facet normal 0 0 1
    outer loop
      vertex 0 -2.47487 -5
      vertex -0.611932 -2.68105 -5
      vertex -0.123378 -2.74723 -5
    endloop
  endfacet
  facet normal 0 0 1
    outer loop
      vertex 0 -2.47487 -5
      vertex -1.08082 -2.5287 -5
      vertex -0.611932 -2.68105 -5
    endloop
  endfacet
  facet normal 0 0 1
    outer loop
      vertex 0 -2.47487 -5
      vertex -1.51497 -2.29508 -5
      vertex -1.08082 -2.5287 -5
    endloop
  endfacet
  facet normal 0 0 1
    outer loop
      vertex 0 -2.47487 -5
      vertex -1.90042 -1.98769 -5
      vertex -1.51497 -2.29508 -5
    endloop
  endfacet
  facet normal 0 0 1
    outer loop
      vertex -2.47487 -6.12323e-16 -5
      vertex -1.90042 -1.98769 -5
      vertex 0 -2.47487 -5
    endloop
  endfacet
  facet normal 0 0 1
    outer loop
      vertex -1.90042 -1.98769 -5
      vertex -2.47487 -6.12323e-16 -5
      vertex -2.2248 -1.61641 -5
    endloop
  endfacet
  facet normal 0 0 1
    outer loop
      vertex -2.47487 -6.12323e-16 -5
      vertex -2.47766 -1.19318 -5
      vertex -2.2248 -1.61641 -5
    endloop
  endfacet
  facet normal -0 0 1
    outer loop
      vertex -2.6509 0.731601 -5
      vertex -2.47487 -6.12323e-16 -5
      vertex -2.47766 1.19318 -5
    endloop
  endfacet
  facet normal -0 0 1
    outer loop
      vertex -2.73893 0.246508 -5
      vertex -2.47487 -6.12323e-16 -5
      vertex -2.6509 0.731601 -5
    endloop
  endfacet
  facet normal 0 0 1
    outer loop
      vertex -2.47487 -6.12323e-16 -5
      vertex -2.6509 -0.731601 -5
      vertex -2.47766 -1.19318 -5
    endloop
  endfacet
  facet normal 0 0 1
    outer loop
      vertex -2.73893 -0.246508 -5
      vertex -2.47487 -6.12323e-16 -5
      vertex -2.73893 0.246508 -5
    endloop
  endfacet
  facet normal 0 0 1
    outer loop
      vertex -2.47487 -6.12323e-16 -5
      vertex -2.73893 -0.246508 -5
      vertex -2.6509 -0.731601 -5
    endloop
  endfacet
  facet normal 0.22252 0.974928 -0
    outer loop
      vertex 0.849796 2.61541 -10.8
      vertex 0.369141 2.72511 -5
      vertex 0.849796 2.61541 -5
    endloop
  endfacet
  facet normal 0.22252 0.974928 0
    outer loop
      vertex 0.369141 2.72511 -5
      vertex 0.849796 2.61541 -10.8
      vertex 0.369141 2.72511 -10.8
    endloop
  endfacet
  facet normal -0.309017 -0.951057 0
    outer loop
      vertex -1.08082 -2.5287 -10.8
      vertex -0.611932 -2.68105 -5
      vertex -1.08082 -2.5287 -5
    endloop
  endfacet
  facet normal -0.309017 -0.951057 -0
    outer loop
      vertex -0.611932 -2.68105 -5
      vertex -1.08082 -2.5287 -10.8
      vertex -0.611932 -2.68105 -10.8
    endloop
  endfacet
  facet normal 0.90097 0.433882 0
    outer loop
      vertex 2.57465 0.96628 -5
      vertex 2.36073 1.41047 -10.8
      vertex 2.36073 1.41047 -5
    endloop
  endfacet
  facet normal 0.90097 0.433882 0
    outer loop
      vertex 2.36073 1.41047 -10.8
      vertex 2.57465 0.96628 -5
      vertex 2.57465 0.96628 -10.8
    endloop
  endfacet
  facet normal -0.858449 0.512899 0
    outer loop
      vertex -2.47766 1.19318 -10.8
      vertex -2.2248 1.61641 -5
      vertex -2.2248 1.61641 -10.8
    endloop
  endfacet
  facet normal -0.858449 0.512899 0
    outer loop
      vertex -2.2248 1.61641 -5
      vertex -2.47766 1.19318 -10.8
      vertex -2.47766 1.19318 -5
    endloop
  endfacet
  facet normal -0.983929 0.178558 0
    outer loop
      vertex -2.73893 0.246508 -10.8
      vertex -2.6509 0.731601 -5
      vertex -2.6509 0.731601 -10.8
    endloop
  endfacet
  facet normal -0.983929 0.178558 0
    outer loop
      vertex -2.6509 0.731601 -5
      vertex -2.73893 0.246508 -10.8
      vertex -2.73893 0.246508 -5
    endloop
  endfacet
  facet normal 0.550898 0.834573 -0
    outer loop
      vertex 1.7146 2.15004 -10.8
      vertex 1.30314 2.42164 -5
      vertex 1.7146 2.15004 -5
    endloop
  endfacet
  facet normal 0.550898 0.834573 0
    outer loop
      vertex 1.30314 2.42164 -5
      vertex 1.7146 2.15004 -10.8
      vertex 1.30314 2.42164 -10.8
    endloop
  endfacet
  facet normal 0.393025 0.919528 -0
    outer loop
      vertex 1.30314 2.42164 -10.8
      vertex 0.849796 2.61541 -5
      vertex 1.30314 2.42164 -5
    endloop
  endfacet
  facet normal 0.393025 0.919528 0
    outer loop
      vertex 0.849796 2.61541 -5
      vertex 1.30314 2.42164 -10.8
      vertex 0.849796 2.61541 -10.8
    endloop
  endfacet
  facet normal -0.134234 0.99095 0
    outer loop
      vertex -0.123378 2.74723 -10.8
      vertex -0.611932 2.68105 -5
      vertex -0.123378 2.74723 -5
    endloop
  endfacet
  facet normal -0.134234 0.99095 0
    outer loop
      vertex -0.611932 2.68105 -5
      vertex -0.123378 2.74723 -10.8
      vertex -0.611932 2.68105 -10.8
    endloop
  endfacet
  facet normal -0.473868 0.880596 0
    outer loop
      vertex -1.08082 2.5287 -10.8
      vertex -1.51497 2.29508 -5
      vertex -1.08082 2.5287 -5
    endloop
  endfacet
  facet normal -0.473868 0.880596 0
    outer loop
      vertex -1.51497 2.29508 -5
      vertex -1.08082 2.5287 -10.8
      vertex -1.51497 2.29508 -10.8
    endloop
  endfacet
  facet normal -0.309017 0.951057 0
    outer loop
      vertex -0.611932 2.68105 -10.8
      vertex -1.08082 2.5287 -5
      vertex -0.611932 2.68105 -5
    endloop
  endfacet
  facet normal -0.309017 0.951057 0
    outer loop
      vertex -1.08082 2.5287 -5
      vertex -0.611932 2.68105 -10.8
      vertex -1.08082 2.5287 -10.8
    endloop
  endfacet
  facet normal -0.936235 0.351374 0
    outer loop
      vertex -2.6509 0.731601 -10.8
      vertex -2.47766 1.19318 -5
      vertex -2.47766 1.19318 -10.8
    endloop
  endfacet
  facet normal -0.936235 0.351374 0
    outer loop
      vertex -2.47766 1.19318 -5
      vertex -2.6509 0.731601 -10.8
      vertex -2.6509 0.731601 -5
    endloop
  endfacet
  facet normal 0.691063 0.722794 -0
    outer loop
      vertex 2.07095 1.80933 -10.8
      vertex 1.7146 2.15004 -5
      vertex 2.07095 1.80933 -5
    endloop
  endfacet
  facet normal 0.691063 0.722794 0
    outer loop
      vertex 1.7146 2.15004 -5
      vertex 2.07095 1.80933 -10.8
      vertex 1.7146 2.15004 -10.8
    endloop
  endfacet
  facet normal -0.753071 0.657939 0
    outer loop
      vertex -2.2248 1.61641 -10.8
      vertex -1.90042 1.98769 -5
      vertex -1.90042 1.98769 -10.8
    endloop
  endfacet
  facet normal -0.753071 0.657939 0
    outer loop
      vertex -1.90042 1.98769 -5
      vertex -2.2248 1.61641 -10.8
      vertex -2.2248 1.61641 -5
    endloop
  endfacet
  facet normal -0.62349 0.781831 0
    outer loop
      vertex -1.51497 2.29508 -10.8
      vertex -1.90042 1.98769 -5
      vertex -1.51497 2.29508 -5
    endloop
  endfacet
  facet normal -0.62349 0.781831 0
    outer loop
      vertex -1.90042 1.98769 -5
      vertex -1.51497 2.29508 -10.8
      vertex -1.90042 1.98769 -10.8
    endloop
  endfacet
  facet normal -0.707107 0.707107 -1.31258e-16
    outer loop
      vertex 0 -2.47487 -10.8
      vertex 2.47487 -6.12323e-16 -5
      vertex 2.47487 -1.32262e-15 -10.8
    endloop
  endfacet
  facet normal -0.707107 0.707107 0
    outer loop
      vertex 2.47487 -6.12323e-16 -5
      vertex 0 -2.47487 -10.8
      vertex 0 -2.47487 -5
    endloop
  endfacet
  facet normal 0.707107 -0.707107 0
    outer loop
      vertex -2.47487 -6.12323e-16 -5
      vertex 0 2.47487 -10.8
      vertex 0 2.47487 -5
    endloop
  endfacet
  facet normal 0.707107 -0.707107 1.31258e-16
    outer loop
      vertex 0 2.47487 -10.8
      vertex -2.47487 -6.12323e-16 -5
      vertex -2.47487 -1.32262e-15 -10.8
    endloop
  endfacet
  facet normal -0.707107 -0.707107 0
    outer loop
      vertex 0 2.47487 -10.8
      vertex 2.47487 -6.12323e-16 -5
      vertex 0 2.47487 -5
    endloop
  endfacet
  facet normal -0.707107 -0.707107 8.65956e-17
    outer loop
      vertex 2.47487 -6.12323e-16 -5
      vertex 0 2.47487 -10.8
      vertex 2.47487 -1.32262e-15 -10.8
    endloop
  endfacet
  facet normal 0.707107 0.707107 -1.31258e-16
    outer loop
      vertex 0 -2.47487 -5
      vertex -2.47487 -1.32262e-15 -10.8
      vertex -2.47487 -6.12323e-16 -5
    endloop
  endfacet
  facet normal 0.707107 0.707107 0
    outer loop
      vertex -2.47487 -1.32262e-15 -10.8
      vertex 0 -2.47487 -5
      vertex 0 -2.47487 -10.8
    endloop
  endfacet
endsolid OpenSCAD_Model
