solid OpenSCAD_Model
  facet normal 0 -1 0
    outer loop
      vertex -20.5 -33 0
      vertex -2.51 -33 9
      vertex -20.5 -33 9
    endloop
  endfacet
  facet normal 0 -1 -0
    outer loop
      vertex -2.51 -33 9
      vertex -20.5 -33 0
      vertex -2.51 -33 0
    endloop
  endfacet
  facet normal -0 0 1
    outer loop
      vertex -20.5 33 9
      vertex -2.51 32 9
      vertex -2.51 33 9
    endloop
  endfacet
  facet normal 0 0 1
    outer loop
      vertex -20.5 33 9
      vertex -20.5 32 9
      vertex -2.51 32 9
    endloop
  endfacet
  facet normal -0 0 1
    outer loop
      vertex -20.9938 32.9591 9
      vertex -20.5 32 9
      vertex -20.5 33 9
    endloop
  endfacet
  facet normal 0 0 1
    outer loop
      vertex -20.5 32 9
      vertex -20.9938 32.9591 9
      vertex -20.9786 31.9419 9
    endloop
  endfacet
  facet normal -0 0 1
    outer loop
      vertex -21.4741 32.8374 9
      vertex -20.9786 31.9419 9
      vertex -20.9938 32.9591 9
    endloop
  endfacet
  facet normal 0 0 1
    outer loop
      vertex -20.9786 31.9419 9
      vertex -21.4741 32.8374 9
      vertex -21.4294 31.7709 9
    endloop
  endfacet
  facet normal -0 0 1
    outer loop
      vertex -21.9278 32.6384 9
      vertex -21.4294 31.7709 9
      vertex -21.4741 32.8374 9
    endloop
  endfacet
  facet normal -0 0 1
    outer loop
      vertex -22.3426 32.3674 9
      vertex -21.4294 31.7709 9
      vertex -21.9278 32.6384 9
    endloop
  endfacet
  facet normal 0 0 1
    outer loop
      vertex -21.4294 31.7709 9
      vertex -22.3426 32.3674 9
      vertex -21.8262 31.497 9
    endloop
  endfacet
  facet normal -0 0 1
    outer loop
      vertex -22.7072 32.0318 9
      vertex -21.8262 31.497 9
      vertex -22.3426 32.3674 9
    endloop
  endfacet
  facet normal 0 0 1
    outer loop
      vertex -21.8262 31.497 9
      vertex -22.7072 32.0318 9
      vertex -22.146 31.1361 9
    endloop
  endfacet
  facet normal -0 0 1
    outer loop
      vertex -23.0115 31.6408 9
      vertex -22.146 31.1361 9
      vertex -22.7072 32.0318 9
    endloop
  endfacet
  facet normal 0 0 1
    outer loop
      vertex -23.5 -30 9
      vertex -22.5 -30 9
      vertex -22.5 30 9
    endloop
  endfacet
  facet normal -0 0 1
    outer loop
      vertex -23.2473 31.2051 9
      vertex -22.146 31.1361 9
      vertex -23.0115 31.6408 9
    endloop
  endfacet
  facet normal 0 0 1
    outer loop
      vertex -22.146 31.1361 9
      vertex -23.2473 31.2051 9
      vertex -22.37 30.7092 9
    endloop
  endfacet
  facet normal 0 0 1
    outer loop
      vertex -23.5 -30 9
      vertex -22.5 30 9
      vertex -23.5 30 9
    endloop
  endfacet
  facet normal -0 0 1
    outer loop
      vertex -23.4082 30.7365 9
      vertex -22.37 30.7092 9
      vertex -23.2473 31.2051 9
    endloop
  endfacet
  facet normal 0 -0 1
    outer loop
      vertex -23.4591 -30.4938 9
      vertex -22.5 -30 9
      vertex -23.5 -30 9
    endloop
  endfacet
  facet normal 0 0 1
    outer loop
      vertex -22.37 30.7092 9
      vertex -23.4082 30.7365 9
      vertex -22.5 30 9
    endloop
  endfacet
  facet normal 0 0 1
    outer loop
      vertex -22.5 -30 9
      vertex -22.8674 -31.8426 9
      vertex -22.5318 -32.2072 9
    endloop
  endfacet
  facet normal 0 0 1
    outer loop
      vertex -22.5 30 9
      vertex -23.4082 30.7365 9
      vertex -23.5 30 9
    endloop
  endfacet
  facet normal 0 0 1
    outer loop
      vertex -22.5 -30 9
      vertex -23.1384 -31.4278 9
      vertex -22.8674 -31.8426 9
    endloop
  endfacet
  facet normal 0 0 1
    outer loop
      vertex -22.5 -30 9
      vertex -23.3374 -30.9741 9
      vertex -23.1384 -31.4278 9
    endloop
  endfacet
  facet normal 0 0 1
    outer loop
      vertex -22.5 -30 9
      vertex -23.4591 -30.4938 9
      vertex -23.3374 -30.9741 9
    endloop
  endfacet
  facet normal -0 0 1
    outer loop
      vertex -20.5 -32 9
      vertex -2.51 -33 9
      vertex -2.51 -32 9
    endloop
  endfacet
  facet normal 0 0 1
    outer loop
      vertex -20.5 -32 9
      vertex -20.5 -33 9
      vertex -2.51 -33 9
    endloop
  endfacet
  facet normal 0 0 1
    outer loop
      vertex -21.2365 -32.9082 9
      vertex -20.5 -32 9
      vertex -21.2092 -31.87 9
    endloop
  endfacet
  facet normal 0 0 1
    outer loop
      vertex -20.5 -32 9
      vertex -21.2365 -32.9082 9
      vertex -20.5 -33 9
    endloop
  endfacet
  facet normal 0 0 1
    outer loop
      vertex -21.7051 -32.7473 9
      vertex -21.2092 -31.87 9
      vertex -21.6361 -31.646 9
    endloop
  endfacet
  facet normal 0 0 1
    outer loop
      vertex -21.2092 -31.87 9
      vertex -21.7051 -32.7473 9
      vertex -21.2365 -32.9082 9
    endloop
  endfacet
  facet normal 0 0 1
    outer loop
      vertex -22.5318 -32.2072 9
      vertex -21.6361 -31.646 9
      vertex -21.997 -31.3262 9
    endloop
  endfacet
  facet normal 0 0 1
    outer loop
      vertex -21.6361 -31.646 9
      vertex -22.1408 -32.5115 9
      vertex -21.7051 -32.7473 9
    endloop
  endfacet
  facet normal 0 0 1
    outer loop
      vertex -22.5318 -32.2072 9
      vertex -21.997 -31.3262 9
      vertex -22.2709 -30.9294 9
    endloop
  endfacet
  facet normal 0 0 1
    outer loop
      vertex -22.5318 -32.2072 9
      vertex -22.2709 -30.9294 9
      vertex -22.4419 -30.4786 9
    endloop
  endfacet
  facet normal 0 0 1
    outer loop
      vertex -21.6361 -31.646 9
      vertex -22.5318 -32.2072 9
      vertex -22.1408 -32.5115 9
    endloop
  endfacet
  facet normal 0 0 1
    outer loop
      vertex -22.5318 -32.2072 9
      vertex -22.4419 -30.4786 9
      vertex -22.5 -30 9
    endloop
  endfacet
  facet normal -0.0825638 0.996586 0
    outer loop
      vertex -20.5 33 0
      vertex -20.9938 32.9591 9
      vertex -20.5 33 9
    endloop
  endfacet
  facet normal -0.0825638 0.996586 0
    outer loop
      vertex -20.9938 32.9591 9
      vertex -20.5 33 0
      vertex -20.9938 32.9591 0
    endloop
  endfacet
  facet normal 0 1 -0
    outer loop
      vertex -2.51 33 0
      vertex -20.5 33 9
      vertex -2.51 33 9
    endloop
  endfacet
  facet normal 0 1 0
    outer loop
      vertex -20.5 33 9
      vertex -2.51 33 0
      vertex -20.5 33 0
    endloop
  endfacet
  facet normal -0.546966 0.837155 0
    outer loop
      vertex -21.9278 32.6384 0
      vertex -22.3426 32.3674 9
      vertex -21.9278 32.6384 9
    endloop
  endfacet
  facet normal -0.546966 0.837155 0
    outer loop
      vertex -22.3426 32.3674 9
      vertex -21.9278 32.6384 0
      vertex -22.3426 32.3674 0
    endloop
  endfacet
  facet normal -0.789137 0.614218 0
    outer loop
      vertex -23.0115 31.6408 0
      vertex -22.7072 32.0318 9
      vertex -22.7072 32.0318 0
    endloop
  endfacet
  facet normal -0.789137 0.614218 0
    outer loop
      vertex -22.7072 32.0318 9
      vertex -23.0115 31.6408 0
      vertex -23.0115 31.6408 9
    endloop
  endfacet
  facet normal -1 0 0
    outer loop
      vertex -23.5 -30 0
      vertex -23.5 30 9
      vertex -23.5 30 0
    endloop
  endfacet
  facet normal -1 -0 0
    outer loop
      vertex -23.5 30 9
      vertex -23.5 -30 0
      vertex -23.5 -30 9
    endloop
  endfacet
  facet normal -0.475941 -0.879477 0
    outer loop
      vertex -22.1408 -32.5115 0
      vertex -21.7051 -32.7473 9
      vertex -22.1408 -32.5115 9
    endloop
  endfacet
  facet normal -0.475941 -0.879477 -0
    outer loop
      vertex -21.7051 -32.7473 9
      vertex -22.1408 -32.5115 0
      vertex -21.7051 -32.7473 0
    endloop
  endfacet
  facet normal -0.992321 0.123691 0
    outer loop
      vertex -23.5 30 0
      vertex -23.4082 30.7365 9
      vertex -23.4082 30.7365 0
    endloop
  endfacet
  facet normal -0.992321 0.123691 0
    outer loop
      vertex -23.4082 30.7365 9
      vertex -23.5 30 0
      vertex -23.5 30 9
    endloop
  endfacet
  facet normal -0.945815 0.324705 0
    outer loop
      vertex -23.4082 30.7365 0
      vertex -23.2473 31.2051 9
      vertex -23.2473 31.2051 0
    endloop
  endfacet
  facet normal -0.945815 0.324705 0
    outer loop
      vertex -23.2473 31.2051 9
      vertex -23.4082 30.7365 0
      vertex -23.4082 30.7365 9
    endloop
  endfacet
  facet normal -0.996586 -0.0825638 0
    outer loop
      vertex -23.4591 -30.4938 0
      vertex -23.5 -30 9
      vertex -23.5 -30 0
    endloop
  endfacet
  facet normal -0.996586 -0.0825638 0
    outer loop
      vertex -23.5 -30 9
      vertex -23.4591 -30.4938 0
      vertex -23.4591 -30.4938 9
    endloop
  endfacet
  facet normal -0.915778 -0.401685 0
    outer loop
      vertex -23.1384 -31.4278 0
      vertex -23.3374 -30.9741 9
      vertex -23.3374 -30.9741 0
    endloop
  endfacet
  facet normal -0.915778 -0.401685 0
    outer loop
      vertex -23.3374 -30.9741 9
      vertex -23.1384 -31.4278 0
      vertex -23.1384 -31.4278 9
    endloop
  endfacet
  facet normal -0.123691 -0.992321 0
    outer loop
      vertex -21.2365 -32.9082 0
      vertex -20.5 -33 9
      vertex -21.2365 -32.9082 9
    endloop
  endfacet
  facet normal -0.123691 -0.992321 -0
    outer loop
      vertex -20.5 -33 9
      vertex -21.2365 -32.9082 0
      vertex -20.5 -33 0
    endloop
  endfacet
  facet normal -0.614218 -0.789137 0
    outer loop
      vertex -22.5318 -32.2072 0
      vertex -22.1408 -32.5115 9
      vertex -22.5318 -32.2072 9
    endloop
  endfacet
  facet normal -0.614218 -0.789137 -0
    outer loop
      vertex -22.1408 -32.5115 9
      vertex -22.5318 -32.2072 0
      vertex -22.1408 -32.5115 0
    endloop
  endfacet
  facet normal -0.837155 -0.546966 0
    outer loop
      vertex -22.8674 -31.8426 0
      vertex -23.1384 -31.4278 9
      vertex -23.1384 -31.4278 0
    endloop
  endfacet
  facet normal -0.837155 -0.546966 0
    outer loop
      vertex -23.1384 -31.4278 9
      vertex -22.8674 -31.8426 0
      vertex -22.8674 -31.8426 9
    endloop
  endfacet
  facet normal -0.969395 -0.245505 0
    outer loop
      vertex -23.3374 -30.9741 0
      vertex -23.4591 -30.4938 9
      vertex -23.4591 -30.4938 0
    endloop
  endfacet
  facet normal -0.969395 -0.245505 0
    outer loop
      vertex -23.4591 -30.4938 9
      vertex -23.3374 -30.9741 0
      vertex -23.3374 -30.9741 9
    endloop
  endfacet
  facet normal 0 0 -1
    outer loop
      vertex -16.5 -26 0
      vertex -2.51 -31.5 0
      vertex -2.51 -33 0
    endloop
  endfacet
  facet normal 0 0 -1
    outer loop
      vertex -2.51 -31.5 0
      vertex -16.5 -26 0
      vertex -2.51 -26.005 0
    endloop
  endfacet
  facet normal 0 0 -1
    outer loop
      vertex -2.51 -26.005 0
      vertex -16.5 -26 0
      vertex -2.51 -26 0
    endloop
  endfacet
  facet normal 0 0 -1
    outer loop
      vertex -23.5 -30 0
      vertex -16.5 -12 0
      vertex -16.5 -26 0
    endloop
  endfacet
  facet normal -0 0 -1
    outer loop
      vertex -16.5 -12 0
      vertex -23.5 -30 0
      vertex -16.5 -7 0
    endloop
  endfacet
  facet normal -0 0 -1
    outer loop
      vertex -16.5 -7 0
      vertex -23.5 -30 0
      vertex -16.5 7 0
    endloop
  endfacet
  facet normal 0 0 -1
    outer loop
      vertex -23.5 30 0
      vertex -16.5 7 0
      vertex -23.5 -30 0
    endloop
  endfacet
  facet normal 0 0 -1
    outer loop
      vertex -23.5 -30 0
      vertex -16.5 -26 0
      vertex -20.5 -33 0
    endloop
  endfacet
  facet normal 0 0 -1
    outer loop
      vertex -20.5 -33 0
      vertex -16.5 -26 0
      vertex -2.51 -33 0
    endloop
  endfacet
  facet normal 0 0 -1
    outer loop
      vertex -2.51 -26.005 0
      vertex 0.5 -31.5 0
      vertex -2.51 -31.5 0
    endloop
  endfacet
  facet normal 0 0 -1
    outer loop
      vertex 0.5 -31.5 0
      vertex -2.51 -26.005 0
      vertex 0.5 -24.5 0
    endloop
  endfacet
  facet normal 0 0 -1
    outer loop
      vertex -16.5 -12 0
      vertex -2.51 -11.995 0
      vertex -2.51 -12 0
    endloop
  endfacet
  facet normal -0 0 -1
    outer loop
      vertex -2.51 -11.995 0
      vertex -16.5 -12 0
      vertex -2.51 -7.005 0
    endloop
  endfacet
  facet normal 0 0 -1
    outer loop
      vertex -16.5 -7 0
      vertex -2.51 -7.005 0
      vertex -16.5 -12 0
    endloop
  endfacet
  facet normal 0 0 -1
    outer loop
      vertex -2.51 -7.005 0
      vertex -16.5 -7 0
      vertex -2.51 -7 0
    endloop
  endfacet
  facet normal 0 0 -1
    outer loop
      vertex -2.51 -11.995 0
      vertex 0.5 -5.5 0
      vertex 0.5 -13.5 0
    endloop
  endfacet
  facet normal 0 0 -1
    outer loop
      vertex 0.5 -5.5 0
      vertex -2.51 -11.995 0
      vertex -2.51 -7.005 0
    endloop
  endfacet
  facet normal 0 0 -1
    outer loop
      vertex -16.5 7 0
      vertex -2.51 7.005 0
      vertex -2.51 7 0
    endloop
  endfacet
  facet normal -0 0 -1
    outer loop
      vertex -2.51 7.005 0
      vertex -16.5 7 0
      vertex -2.51 11.995 0
    endloop
  endfacet
  facet normal 0 0 -1
    outer loop
      vertex -16.5 12 0
      vertex -2.51 11.995 0
      vertex -16.5 7 0
    endloop
  endfacet
  facet normal 0 0 -1
    outer loop
      vertex -2.51 11.995 0
      vertex -16.5 12 0
      vertex -2.51 12 0
    endloop
  endfacet
  facet normal 0 0 -1
    outer loop
      vertex -2.51 7.005 0
      vertex 0.5 13.5 0
      vertex 0.5 5.5 0
    endloop
  endfacet
  facet normal 0 0 -1
    outer loop
      vertex 0.5 13.5 0
      vertex -2.51 7.005 0
      vertex -2.51 11.995 0
    endloop
  endfacet
  facet normal 0 0 -1
    outer loop
      vertex -16.5 26 0
      vertex -2.51 26.005 0
      vertex -2.51 26 0
    endloop
  endfacet
  facet normal -0 0 -1
    outer loop
      vertex -2.51 26.005 0
      vertex -16.5 26 0
      vertex -2.51 31.5 0
    endloop
  endfacet
  facet normal -0 0 -1
    outer loop
      vertex -2.51 31.5 0
      vertex -16.5 26 0
      vertex -2.51 33 0
    endloop
  endfacet
  facet normal 0 0 -1
    outer loop
      vertex -16.5 26 0
      vertex -20.5 33 0
      vertex -2.51 33 0
    endloop
  endfacet
  facet normal 0 0 -1
    outer loop
      vertex -16.5 7 0
      vertex -23.5 30 0
      vertex -16.5 12 0
    endloop
  endfacet
  facet normal 0 0 -1
    outer loop
      vertex -16.5 26 0
      vertex -23.5 30 0
      vertex -20.5 33 0
    endloop
  endfacet
  facet normal 0 0 -1
    outer loop
      vertex -23.5 -30 0
      vertex -20.5 -33 0
      vertex -21.2365 -32.9082 0
    endloop
  endfacet
  facet normal 0 0 -1
    outer loop
      vertex -16.5 12 0
      vertex -23.5 30 0
      vertex -16.5 26 0
    endloop
  endfacet
  facet normal 0 0 -1
    outer loop
      vertex -23.5 -30 0
      vertex -21.2365 -32.9082 0
      vertex -21.7051 -32.7473 0
    endloop
  endfacet
  facet normal 0 0 -1
    outer loop
      vertex -20.5 33 0
      vertex -23.5 30 0
      vertex -20.9938 32.9591 0
    endloop
  endfacet
  facet normal 0 0 -1
    outer loop
      vertex -23.5 -30 0
      vertex -21.7051 -32.7473 0
      vertex -22.1408 -32.5115 0
    endloop
  endfacet
  facet normal 0 0 -1
    outer loop
      vertex -20.9938 32.9591 0
      vertex -23.5 30 0
      vertex -21.4741 32.8374 0
    endloop
  endfacet
  facet normal 0 0 -1
    outer loop
      vertex -23.5 -30 0
      vertex -22.1408 -32.5115 0
      vertex -22.5318 -32.2072 0
    endloop
  endfacet
  facet normal 0 0 -1
    outer loop
      vertex -21.4741 32.8374 0
      vertex -23.5 30 0
      vertex -21.9278 32.6384 0
    endloop
  endfacet
  facet normal 0 0 -1
    outer loop
      vertex -23.5 -30 0
      vertex -22.5318 -32.2072 0
      vertex -22.8674 -31.8426 0
    endloop
  endfacet
  facet normal 0 0 -1
    outer loop
      vertex -21.9278 32.6384 0
      vertex -23.5 30 0
      vertex -22.3426 32.3674 0
    endloop
  endfacet
  facet normal 0 0 -1
    outer loop
      vertex -23.5 -30 0
      vertex -22.8674 -31.8426 0
      vertex -23.1384 -31.4278 0
    endloop
  endfacet
  facet normal 0 0 -1
    outer loop
      vertex -22.3426 32.3674 0
      vertex -23.5 30 0
      vertex -22.7072 32.0318 0
    endloop
  endfacet
  facet normal 0 0 -1
    outer loop
      vertex -23.5 -30 0
      vertex -23.1384 -31.4278 0
      vertex -23.3374 -30.9741 0
    endloop
  endfacet
  facet normal 0 0 -1
    outer loop
      vertex -22.7072 32.0318 0
      vertex -23.5 30 0
      vertex -23.0115 31.6408 0
    endloop
  endfacet
  facet normal 0 0 -1
    outer loop
      vertex -23.5 -30 0
      vertex -23.3374 -30.9741 0
      vertex -23.4591 -30.4938 0
    endloop
  endfacet
  facet normal 0 0 -1
    outer loop
      vertex -23.0115 31.6408 0
      vertex -23.5 30 0
      vertex -23.2473 31.2051 0
    endloop
  endfacet
  facet normal 0 0 -1
    outer loop
      vertex -23.2473 31.2051 0
      vertex -23.5 30 0
      vertex -23.4082 30.7365 0
    endloop
  endfacet
  facet normal 0 0 -1
    outer loop
      vertex -2.51 26.005 0
      vertex 0.5 31.5 0
      vertex 0.5 24.5 0
    endloop
  endfacet
  facet normal -0 0 -1
    outer loop
      vertex 0.5 31.5 0
      vertex -2.51 26.005 0
      vertex -2.51 31.5 0
    endloop
  endfacet
  facet normal -0.324705 -0.945815 0
    outer loop
      vertex -21.7051 -32.7473 0
      vertex -21.2365 -32.9082 9
      vertex -21.7051 -32.7473 9
    endloop
  endfacet
  facet normal -0.324705 -0.945815 -0
    outer loop
      vertex -21.2365 -32.9082 9
      vertex -21.7051 -32.7473 0
      vertex -21.2365 -32.9082 0
    endloop
  endfacet
  facet normal -0.735728 -0.677277 0
    outer loop
      vertex -22.5318 -32.2072 0
      vertex -22.8674 -31.8426 9
      vertex -22.8674 -31.8426 0
    endloop
  endfacet
  facet normal -0.735728 -0.677277 0
    outer loop
      vertex -22.8674 -31.8426 9
      vertex -22.5318 -32.2072 0
      vertex -22.5318 -32.2072 9
    endloop
  endfacet
  facet normal -0.879477 0.475941 0
    outer loop
      vertex -23.2473 31.2051 0
      vertex -23.0115 31.6408 9
      vertex -23.0115 31.6408 0
    endloop
  endfacet
  facet normal -0.879477 0.475941 0
    outer loop
      vertex -23.0115 31.6408 9
      vertex -23.2473 31.2051 0
      vertex -23.2473 31.2051 9
    endloop
  endfacet
  facet normal -0.401685 0.915778 0
    outer loop
      vertex -21.4741 32.8374 0
      vertex -21.9278 32.6384 9
      vertex -21.4741 32.8374 9
    endloop
  endfacet
  facet normal -0.401685 0.915778 0
    outer loop
      vertex -21.9278 32.6384 9
      vertex -21.4741 32.8374 0
      vertex -21.9278 32.6384 0
    endloop
  endfacet
  facet normal -0.245505 0.969395 0
    outer loop
      vertex -20.9938 32.9591 0
      vertex -21.4741 32.8374 9
      vertex -20.9938 32.9591 9
    endloop
  endfacet
  facet normal -0.245505 0.969395 0
    outer loop
      vertex -21.4741 32.8374 9
      vertex -20.9938 32.9591 0
      vertex -21.4741 32.8374 0
    endloop
  endfacet
  facet normal -0.677277 0.735728 0
    outer loop
      vertex -22.3426 32.3674 0
      vertex -22.7072 32.0318 9
      vertex -22.3426 32.3674 9
    endloop
  endfacet
  facet normal -0.677277 0.735728 0
    outer loop
      vertex -22.7072 32.0318 9
      vertex -22.3426 32.3674 0
      vertex -22.7072 32.0318 0
    endloop
  endfacet
  facet normal 0 1 0
    outer loop
      vertex -2.51 -26 8
      vertex -7 -26 1.5
      vertex -7 -26 8
    endloop
  endfacet
  facet normal 0 1 0
    outer loop
      vertex -7 -26 1.5
      vertex -2.51 -26 0
      vertex -12 -26 1.5
    endloop
  endfacet
  facet normal 0 1 -0
    outer loop
      vertex -2.51 -26 0
      vertex -7 -26 1.5
      vertex -2.51 -26 8
    endloop
  endfacet
  facet normal 0 1 -0
    outer loop
      vertex -12 -26 1.5
      vertex -16.5 -26 8
      vertex -12 -26 8
    endloop
  endfacet
  facet normal 0 1 0
    outer loop
      vertex -12 -26 1.5
      vertex -16.5 -26 0
      vertex -16.5 -26 8
    endloop
  endfacet
  facet normal 0 1 0
    outer loop
      vertex -16.5 -26 0
      vertex -12 -26 1.5
      vertex -2.51 -26 0
    endloop
  endfacet
  facet normal 0 -1 0
    outer loop
      vertex -16.5 26 8
      vertex -12 26 1.5
      vertex -12 26 8
    endloop
  endfacet
  facet normal 0 -1 -0
    outer loop
      vertex -12 26 1.5
      vertex -16.5 26 0
      vertex -7 26 1.5
    endloop
  endfacet
  facet normal 0 -1 0
    outer loop
      vertex -16.5 26 0
      vertex -12 26 1.5
      vertex -16.5 26 8
    endloop
  endfacet
  facet normal 0 -1 0
    outer loop
      vertex -7 26 1.5
      vertex -2.51 26 8
      vertex -7 26 8
    endloop
  endfacet
  facet normal 0 -1 0
    outer loop
      vertex -7 26 1.5
      vertex -2.51 26 0
      vertex -2.51 26 8
    endloop
  endfacet
  facet normal 0 -1 0
    outer loop
      vertex -2.51 26 0
      vertex -7 26 1.5
      vertex -16.5 26 0
    endloop
  endfacet
  facet normal 1 0 0
    outer loop
      vertex -16.5 26 8
      vertex -16.5 12 4
      vertex -16.5 26 0
    endloop
  endfacet
  facet normal 1 0 0
    outer loop
      vertex -16.5 26 8
      vertex -16.5 7 4
      vertex -16.5 12 4
    endloop
  endfacet
  facet normal 1 0 0
    outer loop
      vertex -16.5 7 4
      vertex -16.5 -7 4
      vertex -16.5 7 0
    endloop
  endfacet
  facet normal 1 0 0
    outer loop
      vertex -16.5 26 8
      vertex -16.5 -7 4
      vertex -16.5 7 4
    endloop
  endfacet
  facet normal 1 -0 0
    outer loop
      vertex -16.5 -26 8
      vertex -16.5 -7 4
      vertex -16.5 26 8
    endloop
  endfacet
  facet normal 1 0 0
    outer loop
      vertex -16.5 -7 4
      vertex -16.5 -26 8
      vertex -16.5 -12 4
    endloop
  endfacet
  facet normal 1 0 0
    outer loop
      vertex -16.5 -26 0
      vertex -16.5 -12 4
      vertex -16.5 -26 8
    endloop
  endfacet
  facet normal 1 0 0
    outer loop
      vertex -16.5 -12 4
      vertex -16.5 -26 0
      vertex -16.5 -12 0
    endloop
  endfacet
  facet normal 1 0 0
    outer loop
      vertex -16.5 26 0
      vertex -16.5 12 4
      vertex -16.5 12 0
    endloop
  endfacet
  facet normal 1 0 0
    outer loop
      vertex -16.5 7 0
      vertex -16.5 -7 4
      vertex -16.5 -7 0
    endloop
  endfacet
  facet normal 0 -1 0
    outer loop
      vertex -16.5 -12 4
      vertex -12 -12 1.5
      vertex -12 -12 4
    endloop
  endfacet
  facet normal 0 -1 -0
    outer loop
      vertex -12 -12 1.5
      vertex -16.5 -12 0
      vertex -7 -12 1.5
    endloop
  endfacet
  facet normal 0 -1 0
    outer loop
      vertex -16.5 -12 0
      vertex -12 -12 1.5
      vertex -16.5 -12 4
    endloop
  endfacet
  facet normal 0 -1 0
    outer loop
      vertex -7 -12 1.5
      vertex -2.51 -12 4
      vertex -7 -12 4
    endloop
  endfacet
  facet normal 0 -1 0
    outer loop
      vertex -7 -12 1.5
      vertex -2.51 -12 0
      vertex -2.51 -12 4
    endloop
  endfacet
  facet normal 0 -1 0
    outer loop
      vertex -2.51 -12 0
      vertex -7 -12 1.5
      vertex -16.5 -12 0
    endloop
  endfacet
  facet normal 1 -0 0
    outer loop
      vertex -12 -27.5 8
      vertex -12 -26 1.5
      vertex -12 -26 8
    endloop
  endfacet
  facet normal 1 0 0
    outer loop
      vertex -12 -26 1.5
      vertex -12 -27.5 8
      vertex -12 -27.5 1.5
    endloop
  endfacet
  facet normal 1 -0 0
    outer loop
      vertex -12 -12 4
      vertex -12 -10.5 1.5
      vertex -12 -10.5 4
    endloop
  endfacet
  facet normal 1 0 0
    outer loop
      vertex -12 -10.5 1.5
      vertex -12 -12 4
      vertex -12 -12 1.5
    endloop
  endfacet
  facet normal -1 0 0
    outer loop
      vertex -7 -27.5 1.5
      vertex -7 -26 8
      vertex -7 -26 1.5
    endloop
  endfacet
  facet normal -1 -0 0
    outer loop
      vertex -7 -26 8
      vertex -7 -27.5 1.5
      vertex -7 -27.5 8
    endloop
  endfacet
  facet normal -1 0 0
    outer loop
      vertex -7 -12 1.5
      vertex -7 -10.5 4
      vertex -7 -10.5 1.5
    endloop
  endfacet
  facet normal -1 -0 0
    outer loop
      vertex -7 -10.5 4
      vertex -7 -12 1.5
      vertex -7 -12 4
    endloop
  endfacet
  facet normal 0 -1 0
    outer loop
      vertex -12 -10.5 1.5
      vertex -7 -10.5 4
      vertex -12 -10.5 4
    endloop
  endfacet
  facet normal 0 -1 -0
    outer loop
      vertex -7 -10.5 4
      vertex -12 -10.5 1.5
      vertex -7 -10.5 1.5
    endloop
  endfacet
  facet normal -0 0 1
    outer loop
      vertex -12 -10.5 1.5
      vertex -7 -12 1.5
      vertex -7 -10.5 1.5
    endloop
  endfacet
  facet normal 0 0 1
    outer loop
      vertex -7 -12 1.5
      vertex -12 -10.5 1.5
      vertex -12 -12 1.5
    endloop
  endfacet
  facet normal -0 0 1
    outer loop
      vertex -12 -26 1.5
      vertex -7 -27.5 1.5
      vertex -7 -26 1.5
    endloop
  endfacet
  facet normal 0 0 1
    outer loop
      vertex -7 -27.5 1.5
      vertex -12 -26 1.5
      vertex -12 -27.5 1.5
    endloop
  endfacet
  facet normal 0 1 -0
    outer loop
      vertex -7 -27.5 1.5
      vertex -12 -27.5 8
      vertex -7 -27.5 8
    endloop
  endfacet
  facet normal 0 1 0
    outer loop
      vertex -12 -27.5 8
      vertex -7 -27.5 1.5
      vertex -12 -27.5 1.5
    endloop
  endfacet
  facet normal 0 -1 0
    outer loop
      vertex -16.5 7 4
      vertex -12 7 1.5
      vertex -12 7 4
    endloop
  endfacet
  facet normal 0 -1 -0
    outer loop
      vertex -12 7 1.5
      vertex -16.5 7 0
      vertex -7 7 1.5
    endloop
  endfacet
  facet normal 0 -1 0
    outer loop
      vertex -16.5 7 0
      vertex -12 7 1.5
      vertex -16.5 7 4
    endloop
  endfacet
  facet normal 0 -1 0
    outer loop
      vertex -7 7 1.5
      vertex -2.51 7 4
      vertex -7 7 4
    endloop
  endfacet
  facet normal 0 -1 0
    outer loop
      vertex -7 7 1.5
      vertex -2.51 7 0
      vertex -2.51 7 4
    endloop
  endfacet
  facet normal 0 -1 0
    outer loop
      vertex -2.51 7 0
      vertex -7 7 1.5
      vertex -16.5 7 0
    endloop
  endfacet
  facet normal 0 1 0
    outer loop
      vertex -2.51 -7 4
      vertex -7 -7 1.5
      vertex -7 -7 4
    endloop
  endfacet
  facet normal 0 1 0
    outer loop
      vertex -7 -7 1.5
      vertex -2.51 -7 0
      vertex -12 -7 1.5
    endloop
  endfacet
  facet normal 0 1 -0
    outer loop
      vertex -2.51 -7 0
      vertex -7 -7 1.5
      vertex -2.51 -7 4
    endloop
  endfacet
  facet normal 0 1 -0
    outer loop
      vertex -12 -7 1.5
      vertex -16.5 -7 4
      vertex -12 -7 4
    endloop
  endfacet
  facet normal 0 1 0
    outer loop
      vertex -12 -7 1.5
      vertex -16.5 -7 0
      vertex -16.5 -7 4
    endloop
  endfacet
  facet normal 0 1 0
    outer loop
      vertex -16.5 -7 0
      vertex -12 -7 1.5
      vertex -2.51 -7 0
    endloop
  endfacet
  facet normal 1 -0 0
    outer loop
      vertex -12 -8.5 4
      vertex -12 -7 1.5
      vertex -12 -7 4
    endloop
  endfacet
  facet normal 1 0 0
    outer loop
      vertex -12 -7 1.5
      vertex -12 -8.5 4
      vertex -12 -8.5 1.5
    endloop
  endfacet
  facet normal 1 -0 0
    outer loop
      vertex -12 7 4
      vertex -12 8.5 1.5
      vertex -12 8.5 4
    endloop
  endfacet
  facet normal 1 0 0
    outer loop
      vertex -12 8.5 1.5
      vertex -12 7 4
      vertex -12 7 1.5
    endloop
  endfacet
  facet normal -1 0 0
    outer loop
      vertex -7 -8.5 1.5
      vertex -7 -7 4
      vertex -7 -7 1.5
    endloop
  endfacet
  facet normal -1 -0 0
    outer loop
      vertex -7 -7 4
      vertex -7 -8.5 1.5
      vertex -7 -8.5 4
    endloop
  endfacet
  facet normal -1 0 0
    outer loop
      vertex -7 7 1.5
      vertex -7 8.5 4
      vertex -7 8.5 1.5
    endloop
  endfacet
  facet normal -1 -0 0
    outer loop
      vertex -7 8.5 4
      vertex -7 7 1.5
      vertex -7 7 4
    endloop
  endfacet
  facet normal 0 -1 0
    outer loop
      vertex -12 8.5 1.5
      vertex -7 8.5 4
      vertex -12 8.5 4
    endloop
  endfacet
  facet normal 0 -1 -0
    outer loop
      vertex -7 8.5 4
      vertex -12 8.5 1.5
      vertex -7 8.5 1.5
    endloop
  endfacet
  facet normal -0 0 1
    outer loop
      vertex -12 8.5 1.5
      vertex -7 7 1.5
      vertex -7 8.5 1.5
    endloop
  endfacet
  facet normal 0 0 1
    outer loop
      vertex -7 7 1.5
      vertex -12 8.5 1.5
      vertex -12 7 1.5
    endloop
  endfacet
  facet normal -0 0 1
    outer loop
      vertex -12 -7 1.5
      vertex -7 -8.5 1.5
      vertex -7 -7 1.5
    endloop
  endfacet
  facet normal 0 0 1
    outer loop
      vertex -7 -8.5 1.5
      vertex -12 -7 1.5
      vertex -12 -8.5 1.5
    endloop
  endfacet
  facet normal 0 1 -0
    outer loop
      vertex -7 -8.5 1.5
      vertex -12 -8.5 4
      vertex -7 -8.5 4
    endloop
  endfacet
  facet normal 0 1 0
    outer loop
      vertex -12 -8.5 4
      vertex -7 -8.5 1.5
      vertex -12 -8.5 1.5
    endloop
  endfacet
  facet normal 0 1 0
    outer loop
      vertex -2.51 12 4
      vertex -7 12 1.5
      vertex -7 12 4
    endloop
  endfacet
  facet normal 0 1 0
    outer loop
      vertex -7 12 1.5
      vertex -2.51 12 0
      vertex -12 12 1.5
    endloop
  endfacet
  facet normal 0 1 -0
    outer loop
      vertex -2.51 12 0
      vertex -7 12 1.5
      vertex -2.51 12 4
    endloop
  endfacet
  facet normal 0 1 -0
    outer loop
      vertex -12 12 1.5
      vertex -16.5 12 4
      vertex -12 12 4
    endloop
  endfacet
  facet normal 0 1 0
    outer loop
      vertex -12 12 1.5
      vertex -16.5 12 0
      vertex -16.5 12 4
    endloop
  endfacet
  facet normal 0 1 0
    outer loop
      vertex -16.5 12 0
      vertex -12 12 1.5
      vertex -2.51 12 0
    endloop
  endfacet
  facet normal 1 -0 0
    outer loop
      vertex -12 10.5 4
      vertex -12 12 1.5
      vertex -12 12 4
    endloop
  endfacet
  facet normal 1 0 0
    outer loop
      vertex -12 12 1.5
      vertex -12 10.5 4
      vertex -12 10.5 1.5
    endloop
  endfacet
  facet normal 1 -0 0
    outer loop
      vertex -12 26 8
      vertex -12 27.5 1.5
      vertex -12 27.5 8
    endloop
  endfacet
  facet normal 1 0 0
    outer loop
      vertex -12 27.5 1.5
      vertex -12 26 8
      vertex -12 26 1.5
    endloop
  endfacet
  facet normal -1 0 0
    outer loop
      vertex -7 10.5 1.5
      vertex -7 12 4
      vertex -7 12 1.5
    endloop
  endfacet
  facet normal -1 -0 0
    outer loop
      vertex -7 12 4
      vertex -7 10.5 1.5
      vertex -7 10.5 4
    endloop
  endfacet
  facet normal -1 0 0
    outer loop
      vertex -7 26 1.5
      vertex -7 27.5 8
      vertex -7 27.5 1.5
    endloop
  endfacet
  facet normal -1 -0 0
    outer loop
      vertex -7 27.5 8
      vertex -7 26 1.5
      vertex -7 26 8
    endloop
  endfacet
  facet normal 0 -1 0
    outer loop
      vertex -12 27.5 1.5
      vertex -7 27.5 8
      vertex -12 27.5 8
    endloop
  endfacet
  facet normal 0 -1 -0
    outer loop
      vertex -7 27.5 8
      vertex -12 27.5 1.5
      vertex -7 27.5 1.5
    endloop
  endfacet
  facet normal -0 0 1
    outer loop
      vertex -12 27.5 1.5
      vertex -7 26 1.5
      vertex -7 27.5 1.5
    endloop
  endfacet
  facet normal 0 0 1
    outer loop
      vertex -7 26 1.5
      vertex -12 27.5 1.5
      vertex -12 26 1.5
    endloop
  endfacet
  facet normal -0 0 1
    outer loop
      vertex -12 12 1.5
      vertex -7 10.5 1.5
      vertex -7 12 1.5
    endloop
  endfacet
  facet normal 0 0 1
    outer loop
      vertex -7 10.5 1.5
      vertex -12 12 1.5
      vertex -12 10.5 1.5
    endloop
  endfacet
  facet normal 0 1 -0
    outer loop
      vertex -7 10.5 1.5
      vertex -12 10.5 4
      vertex -7 10.5 4
    endloop
  endfacet
  facet normal 0 1 0
    outer loop
      vertex -12 10.5 4
      vertex -7 10.5 1.5
      vertex -12 10.5 1.5
    endloop
  endfacet
  facet normal -0.965926 -0.258818 0
    outer loop
      vertex -17.9 -28.3 3.3
      vertex -18.0206 -27.85 8
      vertex -18.0206 -27.85 3.3
    endloop
  endfacet
  facet normal -0.965926 -0.258818 0
    outer loop
      vertex -18.0206 -27.85 8
      vertex -17.9 -28.3 3.3
      vertex -17.9 -28.3 8
    endloop
  endfacet
  facet normal 0.965925 -0.258822 0
    outer loop
      vertex -19.7 -28.3 8
      vertex -19.5794 -27.85 3.3
      vertex -19.5794 -27.85 8
    endloop
  endfacet
  facet normal 0.965925 -0.258822 0
    outer loop
      vertex -19.5794 -27.85 3.3
      vertex -19.7 -28.3 8
      vertex -19.7 -28.3 3.3
    endloop
  endfacet
  facet normal 0 0 1
    outer loop
      vertex -18.0206 -27.85 3.3
      vertex -18.0206 -28.75 3.3
      vertex -17.9 -28.3 3.3
    endloop
  endfacet
  facet normal 0 0 1
    outer loop
      vertex -18.35 -27.5206 3.3
      vertex -18.0206 -28.75 3.3
      vertex -18.0206 -27.85 3.3
    endloop
  endfacet
  facet normal 0 0 1
    outer loop
      vertex -18.35 -27.5206 3.3
      vertex -18.35 -29.0794 3.3
      vertex -18.0206 -28.75 3.3
    endloop
  endfacet
  facet normal 0 0 1
    outer loop
      vertex -18.8 -27.4 3.3
      vertex -18.35 -29.0794 3.3
      vertex -18.35 -27.5206 3.3
    endloop
  endfacet
  facet normal 0 0 1
    outer loop
      vertex -18.8 -27.4 3.3
      vertex -18.8 -29.2 3.3
      vertex -18.35 -29.0794 3.3
    endloop
  endfacet
  facet normal -0 0 1
    outer loop
      vertex -19.25 -27.5206 3.3
      vertex -18.8 -29.2 3.3
      vertex -18.8 -27.4 3.3
    endloop
  endfacet
  facet normal 0 0 1
    outer loop
      vertex -19.25 -27.5206 3.3
      vertex -19.25 -29.0794 3.3
      vertex -18.8 -29.2 3.3
    endloop
  endfacet
  facet normal -0 0 1
    outer loop
      vertex -19.5794 -27.85 3.3
      vertex -19.25 -29.0794 3.3
      vertex -19.25 -27.5206 3.3
    endloop
  endfacet
  facet normal 0 0 1
    outer loop
      vertex -19.5794 -27.85 3.3
      vertex -19.5794 -28.75 3.3
      vertex -19.25 -29.0794 3.3
    endloop
  endfacet
  facet normal 0 -0 1
    outer loop
      vertex -19.5794 -28.75 3.3
      vertex -19.5794 -27.85 3.3
      vertex -19.7 -28.3 3.3
    endloop
  endfacet
  facet normal 0.258818 -0.965926 0
    outer loop
      vertex -19.25 -27.5206 3.3
      vertex -18.8 -27.4 8
      vertex -19.25 -27.5206 8
    endloop
  endfacet
  facet normal 0.258818 -0.965926 0
    outer loop
      vertex -18.8 -27.4 8
      vertex -19.25 -27.5206 3.3
      vertex -18.8 -27.4 3.3
    endloop
  endfacet
  facet normal -0.707107 -0.707107 0
    outer loop
      vertex -18.0206 -27.85 3.3
      vertex -18.35 -27.5206 8
      vertex -18.35 -27.5206 3.3
    endloop
  endfacet
  facet normal -0.707107 -0.707107 0
    outer loop
      vertex -18.35 -27.5206 8
      vertex -18.0206 -27.85 3.3
      vertex -18.0206 -27.85 8
    endloop
  endfacet
  facet normal 0.707107 -0.707107 0
    outer loop
      vertex -19.5794 -27.85 8
      vertex -19.25 -27.5206 3.3
      vertex -19.25 -27.5206 8
    endloop
  endfacet
  facet normal 0.707107 -0.707107 0
    outer loop
      vertex -19.25 -27.5206 3.3
      vertex -19.5794 -27.85 8
      vertex -19.5794 -27.85 3.3
    endloop
  endfacet
  facet normal 0.258822 0.965925 -0
    outer loop
      vertex -18.8 -29.2 3.3
      vertex -19.25 -29.0794 8
      vertex -18.8 -29.2 8
    endloop
  endfacet
  facet normal 0.258822 0.965925 0
    outer loop
      vertex -19.25 -29.0794 8
      vertex -18.8 -29.2 3.3
      vertex -19.25 -29.0794 3.3
    endloop
  endfacet
  facet normal 0.965925 0.258822 0
    outer loop
      vertex -19.5794 -28.75 8
      vertex -19.7 -28.3 3.3
      vertex -19.7 -28.3 8
    endloop
  endfacet
  facet normal 0.965925 0.258822 0
    outer loop
      vertex -19.7 -28.3 3.3
      vertex -19.5794 -28.75 8
      vertex -19.5794 -28.75 3.3
    endloop
  endfacet
  facet normal -0.258818 -0.965926 0
    outer loop
      vertex -18.8 -27.4 3.3
      vertex -18.35 -27.5206 8
      vertex -18.8 -27.4 8
    endloop
  endfacet
  facet normal -0.258818 -0.965926 -0
    outer loop
      vertex -18.35 -27.5206 8
      vertex -18.8 -27.4 3.3
      vertex -18.35 -27.5206 3.3
    endloop
  endfacet
  facet normal 0.707107 0.707107 0
    outer loop
      vertex -19.25 -29.0794 8
      vertex -19.5794 -28.75 3.3
      vertex -19.5794 -28.75 8
    endloop
  endfacet
  facet normal 0.707107 0.707107 0
    outer loop
      vertex -19.5794 -28.75 3.3
      vertex -19.25 -29.0794 8
      vertex -19.25 -29.0794 3.3
    endloop
  endfacet
  facet normal -0.707107 0.707107 0
    outer loop
      vertex -18.35 -29.0794 3.3
      vertex -18.0206 -28.75 8
      vertex -18.0206 -28.75 3.3
    endloop
  endfacet
  facet normal -0.707107 0.707107 0
    outer loop
      vertex -18.0206 -28.75 8
      vertex -18.35 -29.0794 3.3
      vertex -18.35 -29.0794 8
    endloop
  endfacet
  facet normal -0.258822 0.965925 0
    outer loop
      vertex -18.35 -29.0794 3.3
      vertex -18.8 -29.2 8
      vertex -18.35 -29.0794 8
    endloop
  endfacet
  facet normal -0.258822 0.965925 0
    outer loop
      vertex -18.8 -29.2 8
      vertex -18.35 -29.0794 3.3
      vertex -18.8 -29.2 3.3
    endloop
  endfacet
  facet normal -0.965926 0.258818 0
    outer loop
      vertex -18.0206 -28.75 3.3
      vertex -17.9 -28.3 8
      vertex -17.9 -28.3 3.3
    endloop
  endfacet
  facet normal -0.965926 0.258818 0
    outer loop
      vertex -17.9 -28.3 8
      vertex -18.0206 -28.75 3.3
      vertex -18.0206 -28.75 8
    endloop
  endfacet
  facet normal -0.965926 -0.258818 0
    outer loop
      vertex -17.9 28.3 3.3
      vertex -18.0206 28.75 8
      vertex -18.0206 28.75 3.3
    endloop
  endfacet
  facet normal -0.965926 -0.258818 0
    outer loop
      vertex -18.0206 28.75 8
      vertex -17.9 28.3 3.3
      vertex -17.9 28.3 8
    endloop
  endfacet
  facet normal 0.965925 -0.258822 0
    outer loop
      vertex -19.7 28.3 8
      vertex -19.5794 28.75 3.3
      vertex -19.5794 28.75 8
    endloop
  endfacet
  facet normal 0.965925 -0.258822 0
    outer loop
      vertex -19.5794 28.75 3.3
      vertex -19.7 28.3 8
      vertex -19.7 28.3 3.3
    endloop
  endfacet
  facet normal 0.965925 0.258822 0
    outer loop
      vertex -19.5794 27.85 8
      vertex -19.7 28.3 3.3
      vertex -19.7 28.3 8
    endloop
  endfacet
  facet normal 0.965925 0.258822 0
    outer loop
      vertex -19.7 28.3 3.3
      vertex -19.5794 27.85 8
      vertex -19.5794 27.85 3.3
    endloop
  endfacet
  facet normal -0.258822 -0.965925 0
    outer loop
      vertex -18.8 29.2 3.3
      vertex -18.35 29.0794 8
      vertex -18.8 29.2 8
    endloop
  endfacet
  facet normal -0.258822 -0.965925 -0
    outer loop
      vertex -18.35 29.0794 8
      vertex -18.8 29.2 3.3
      vertex -18.35 29.0794 3.3
    endloop
  endfacet
  facet normal -0.707107 -0.707107 0
    outer loop
      vertex -18.0206 28.75 3.3
      vertex -18.35 29.0794 8
      vertex -18.35 29.0794 3.3
    endloop
  endfacet
  facet normal -0.707107 -0.707107 0
    outer loop
      vertex -18.35 29.0794 8
      vertex -18.0206 28.75 3.3
      vertex -18.0206 28.75 8
    endloop
  endfacet
  facet normal 0.258822 -0.965925 0
    outer loop
      vertex -19.25 29.0794 3.3
      vertex -18.8 29.2 8
      vertex -19.25 29.0794 8
    endloop
  endfacet
  facet normal 0.258822 -0.965925 0
    outer loop
      vertex -18.8 29.2 8
      vertex -19.25 29.0794 3.3
      vertex -18.8 29.2 3.3
    endloop
  endfacet
  facet normal 0 0 1
    outer loop
      vertex -18.0206 28.75 3.3
      vertex -18.0206 27.85 3.3
      vertex -17.9 28.3 3.3
    endloop
  endfacet
  facet normal 0 0 1
    outer loop
      vertex -18.35 29.0794 3.3
      vertex -18.0206 27.85 3.3
      vertex -18.0206 28.75 3.3
    endloop
  endfacet
  facet normal 0 0 1
    outer loop
      vertex -18.35 29.0794 3.3
      vertex -18.35 27.5206 3.3
      vertex -18.0206 27.85 3.3
    endloop
  endfacet
  facet normal 0 0 1
    outer loop
      vertex -18.8 29.2 3.3
      vertex -18.35 27.5206 3.3
      vertex -18.35 29.0794 3.3
    endloop
  endfacet
  facet normal 0 0 1
    outer loop
      vertex -18.8 29.2 3.3
      vertex -18.8 27.4 3.3
      vertex -18.35 27.5206 3.3
    endloop
  endfacet
  facet normal -0 0 1
    outer loop
      vertex -19.25 29.0794 3.3
      vertex -18.8 27.4 3.3
      vertex -18.8 29.2 3.3
    endloop
  endfacet
  facet normal 0 0 1
    outer loop
      vertex -19.25 29.0794 3.3
      vertex -19.25 27.5206 3.3
      vertex -18.8 27.4 3.3
    endloop
  endfacet
  facet normal -0 0 1
    outer loop
      vertex -19.5794 28.75 3.3
      vertex -19.25 27.5206 3.3
      vertex -19.25 29.0794 3.3
    endloop
  endfacet
  facet normal 0 0 1
    outer loop
      vertex -19.5794 28.75 3.3
      vertex -19.5794 27.85 3.3
      vertex -19.25 27.5206 3.3
    endloop
  endfacet
  facet normal 0 -0 1
    outer loop
      vertex -19.5794 27.85 3.3
      vertex -19.5794 28.75 3.3
      vertex -19.7 28.3 3.3
    endloop
  endfacet
  facet normal 0.707107 -0.707107 0
    outer loop
      vertex -19.5794 28.75 8
      vertex -19.25 29.0794 3.3
      vertex -19.25 29.0794 8
    endloop
  endfacet
  facet normal 0.707107 -0.707107 0
    outer loop
      vertex -19.25 29.0794 3.3
      vertex -19.5794 28.75 8
      vertex -19.5794 28.75 3.3
    endloop
  endfacet
  facet normal -0.965926 0.258818 0
    outer loop
      vertex -18.0206 27.85 3.3
      vertex -17.9 28.3 8
      vertex -17.9 28.3 3.3
    endloop
  endfacet
  facet normal -0.965926 0.258818 0
    outer loop
      vertex -17.9 28.3 8
      vertex -18.0206 27.85 3.3
      vertex -18.0206 27.85 8
    endloop
  endfacet
  facet normal -0.707107 0.707107 0
    outer loop
      vertex -18.35 27.5206 3.3
      vertex -18.0206 27.85 8
      vertex -18.0206 27.85 3.3
    endloop
  endfacet
  facet normal -0.707107 0.707107 0
    outer loop
      vertex -18.0206 27.85 8
      vertex -18.35 27.5206 3.3
      vertex -18.35 27.5206 8
    endloop
  endfacet
  facet normal 0.258818 0.965926 -0
    outer loop
      vertex -18.8 27.4 3.3
      vertex -19.25 27.5206 8
      vertex -18.8 27.4 8
    endloop
  endfacet
  facet normal 0.258818 0.965926 0
    outer loop
      vertex -19.25 27.5206 8
      vertex -18.8 27.4 3.3
      vertex -19.25 27.5206 3.3
    endloop
  endfacet
  facet normal 0.707107 0.707107 0
    outer loop
      vertex -19.25 27.5206 8
      vertex -19.5794 27.85 3.3
      vertex -19.5794 27.85 8
    endloop
  endfacet
  facet normal 0.707107 0.707107 0
    outer loop
      vertex -19.5794 27.85 3.3
      vertex -19.25 27.5206 8
      vertex -19.25 27.5206 3.3
    endloop
  endfacet
  facet normal -0.258818 0.965926 0
    outer loop
      vertex -18.35 27.5206 3.3
      vertex -18.8 27.4 8
      vertex -18.35 27.5206 8
    endloop
  endfacet
  facet normal -0.258818 0.965926 0
    outer loop
      vertex -18.8 27.4 8
      vertex -18.35 27.5206 3.3
      vertex -18.8 27.4 3.3
    endloop
  endfacet
  facet normal -0.965926 -0.258818 0
    outer loop
      vertex -4.6 28.3 3.3
      vertex -4.72058 28.75 8
      vertex -4.72058 28.75 3.3
    endloop
  endfacet
  facet normal -0.965926 -0.258818 0
    outer loop
      vertex -4.72058 28.75 8
      vertex -4.6 28.3 3.3
      vertex -4.6 28.3 8
    endloop
  endfacet
  facet normal 0.965926 -0.258818 0
    outer loop
      vertex -6.4 28.3 8
      vertex -6.27942 28.75 3.3
      vertex -6.27942 28.75 8
    endloop
  endfacet
  facet normal 0.965926 -0.258818 0
    outer loop
      vertex -6.27942 28.75 3.3
      vertex -6.4 28.3 8
      vertex -6.4 28.3 3.3
    endloop
  endfacet
  facet normal -0.258818 0.965926 0
    outer loop
      vertex -5.05 27.5206 3.3
      vertex -5.5 27.4 8
      vertex -5.05 27.5206 8
    endloop
  endfacet
  facet normal -0.258818 0.965926 0
    outer loop
      vertex -5.5 27.4 8
      vertex -5.05 27.5206 3.3
      vertex -5.5 27.4 3.3
    endloop
  endfacet
  facet normal -0.258822 -0.965925 0
    outer loop
      vertex -5.5 29.2 3.3
      vertex -5.05 29.0794 8
      vertex -5.5 29.2 8
    endloop
  endfacet
  facet normal -0.258822 -0.965925 -0
    outer loop
      vertex -5.05 29.0794 8
      vertex -5.5 29.2 3.3
      vertex -5.05 29.0794 3.3
    endloop
  endfacet
  facet normal -0.707106 -0.707108 0
    outer loop
      vertex -5.05 29.0794 3.3
      vertex -4.72058 28.75 8
      vertex -5.05 29.0794 8
    endloop
  endfacet
  facet normal -0.707106 -0.707108 -0
    outer loop
      vertex -4.72058 28.75 8
      vertex -5.05 29.0794 3.3
      vertex -4.72058 28.75 3.3
    endloop
  endfacet
  facet normal -0.707106 0.707108 0
    outer loop
      vertex -4.72058 27.85 3.3
      vertex -5.05 27.5206 8
      vertex -4.72058 27.85 8
    endloop
  endfacet
  facet normal -0.707106 0.707108 0
    outer loop
      vertex -5.05 27.5206 8
      vertex -4.72058 27.85 3.3
      vertex -5.05 27.5206 3.3
    endloop
  endfacet
  facet normal 0.707106 -0.707108 0
    outer loop
      vertex -6.27942 28.75 3.3
      vertex -5.95 29.0794 8
      vertex -6.27942 28.75 8
    endloop
  endfacet
  facet normal 0.707106 -0.707108 0
    outer loop
      vertex -5.95 29.0794 8
      vertex -6.27942 28.75 3.3
      vertex -5.95 29.0794 3.3
    endloop
  endfacet
  facet normal 0.258822 -0.965925 0
    outer loop
      vertex -5.95 29.0794 3.3
      vertex -5.5 29.2 8
      vertex -5.95 29.0794 8
    endloop
  endfacet
  facet normal 0.258822 -0.965925 0
    outer loop
      vertex -5.5 29.2 8
      vertex -5.95 29.0794 3.3
      vertex -5.5 29.2 3.3
    endloop
  endfacet
  facet normal -0.965926 0.258818 0
    outer loop
      vertex -4.72058 27.85 3.3
      vertex -4.6 28.3 8
      vertex -4.6 28.3 3.3
    endloop
  endfacet
  facet normal -0.965926 0.258818 0
    outer loop
      vertex -4.6 28.3 8
      vertex -4.72058 27.85 3.3
      vertex -4.72058 27.85 8
    endloop
  endfacet
  facet normal 0.965926 0.258818 0
    outer loop
      vertex -6.27942 27.85 8
      vertex -6.4 28.3 3.3
      vertex -6.4 28.3 8
    endloop
  endfacet
  facet normal 0.965926 0.258818 0
    outer loop
      vertex -6.4 28.3 3.3
      vertex -6.27942 27.85 8
      vertex -6.27942 27.85 3.3
    endloop
  endfacet
  facet normal 0 0 1
    outer loop
      vertex -4.72058 28.75 3.3
      vertex -4.72058 27.85 3.3
      vertex -4.6 28.3 3.3
    endloop
  endfacet
  facet normal 0 0 1
    outer loop
      vertex -5.05 29.0794 3.3
      vertex -4.72058 27.85 3.3
      vertex -4.72058 28.75 3.3
    endloop
  endfacet
  facet normal 0 0 1
    outer loop
      vertex -5.05 29.0794 3.3
      vertex -5.05 27.5206 3.3
      vertex -4.72058 27.85 3.3
    endloop
  endfacet
  facet normal 0 0 1
    outer loop
      vertex -5.5 29.2 3.3
      vertex -5.05 27.5206 3.3
      vertex -5.05 29.0794 3.3
    endloop
  endfacet
  facet normal 0 0 1
    outer loop
      vertex -5.5 29.2 3.3
      vertex -5.5 27.4 3.3
      vertex -5.05 27.5206 3.3
    endloop
  endfacet
  facet normal -0 0 1
    outer loop
      vertex -5.95 29.0794 3.3
      vertex -5.5 27.4 3.3
      vertex -5.5 29.2 3.3
    endloop
  endfacet
  facet normal 0 0 1
    outer loop
      vertex -5.95 29.0794 3.3
      vertex -5.95 27.5206 3.3
      vertex -5.5 27.4 3.3
    endloop
  endfacet
  facet normal -0 0 1
    outer loop
      vertex -6.27942 28.75 3.3
      vertex -5.95 27.5206 3.3
      vertex -5.95 29.0794 3.3
    endloop
  endfacet
  facet normal 0 0 1
    outer loop
      vertex -6.27942 28.75 3.3
      vertex -6.27942 27.85 3.3
      vertex -5.95 27.5206 3.3
    endloop
  endfacet
  facet normal 0 -0 1
    outer loop
      vertex -6.27942 27.85 3.3
      vertex -6.27942 28.75 3.3
      vertex -6.4 28.3 3.3
    endloop
  endfacet
  facet normal 0.258819 0.965926 -0
    outer loop
      vertex -5.5 27.4 3.3
      vertex -5.95 27.5206 8
      vertex -5.5 27.4 8
    endloop
  endfacet
  facet normal 0.258819 0.965926 0
    outer loop
      vertex -5.95 27.5206 8
      vertex -5.5 27.4 3.3
      vertex -5.95 27.5206 3.3
    endloop
  endfacet
  facet normal 0.707106 0.707108 -0
    outer loop
      vertex -5.95 27.5206 3.3
      vertex -6.27942 27.85 8
      vertex -5.95 27.5206 8
    endloop
  endfacet
  facet normal 0.707106 0.707108 0
    outer loop
      vertex -6.27942 27.85 8
      vertex -5.95 27.5206 3.3
      vertex -6.27942 27.85 3.3
    endloop
  endfacet
  facet normal -0.965926 -0.258818 0
    outer loop
      vertex -4.6 -28.3 3.3
      vertex -4.72058 -27.85 8
      vertex -4.72058 -27.85 3.3
    endloop
  endfacet
  facet normal -0.965926 -0.258818 0
    outer loop
      vertex -4.72058 -27.85 8
      vertex -4.6 -28.3 3.3
      vertex -4.6 -28.3 8
    endloop
  endfacet
  facet normal -0.258822 0.965925 0
    outer loop
      vertex -5.05 -29.0794 3.3
      vertex -5.5 -29.2 8
      vertex -5.05 -29.0794 8
    endloop
  endfacet
  facet normal -0.258822 0.965925 0
    outer loop
      vertex -5.5 -29.2 8
      vertex -5.05 -29.0794 3.3
      vertex -5.5 -29.2 3.3
    endloop
  endfacet
  facet normal 0.258819 -0.965926 0
    outer loop
      vertex -5.95 -27.5206 3.3
      vertex -5.5 -27.4 8
      vertex -5.95 -27.5206 8
    endloop
  endfacet
  facet normal 0.258819 -0.965926 0
    outer loop
      vertex -5.5 -27.4 8
      vertex -5.95 -27.5206 3.3
      vertex -5.5 -27.4 3.3
    endloop
  endfacet
  facet normal -0.707106 -0.707108 0
    outer loop
      vertex -5.05 -27.5206 3.3
      vertex -4.72058 -27.85 8
      vertex -5.05 -27.5206 8
    endloop
  endfacet
  facet normal -0.707106 -0.707108 -0
    outer loop
      vertex -4.72058 -27.85 8
      vertex -5.05 -27.5206 3.3
      vertex -4.72058 -27.85 3.3
    endloop
  endfacet
  facet normal 0.707106 -0.707108 0
    outer loop
      vertex -6.27942 -27.85 3.3
      vertex -5.95 -27.5206 8
      vertex -6.27942 -27.85 8
    endloop
  endfacet
  facet normal 0.707106 -0.707108 0
    outer loop
      vertex -5.95 -27.5206 8
      vertex -6.27942 -27.85 3.3
      vertex -5.95 -27.5206 3.3
    endloop
  endfacet
  facet normal -0.258818 -0.965926 0
    outer loop
      vertex -5.5 -27.4 3.3
      vertex -5.05 -27.5206 8
      vertex -5.5 -27.4 8
    endloop
  endfacet
  facet normal -0.258818 -0.965926 -0
    outer loop
      vertex -5.05 -27.5206 8
      vertex -5.5 -27.4 3.3
      vertex -5.05 -27.5206 3.3
    endloop
  endfacet
  facet normal 0 0 1
    outer loop
      vertex -4.72058 -27.85 3.3
      vertex -4.72058 -28.75 3.3
      vertex -4.6 -28.3 3.3
    endloop
  endfacet
  facet normal 0 0 1
    outer loop
      vertex -5.05 -27.5206 3.3
      vertex -4.72058 -28.75 3.3
      vertex -4.72058 -27.85 3.3
    endloop
  endfacet
  facet normal 0 0 1
    outer loop
      vertex -5.05 -27.5206 3.3
      vertex -5.05 -29.0794 3.3
      vertex -4.72058 -28.75 3.3
    endloop
  endfacet
  facet normal 0 0 1
    outer loop
      vertex -5.5 -27.4 3.3
      vertex -5.05 -29.0794 3.3
      vertex -5.05 -27.5206 3.3
    endloop
  endfacet
  facet normal 0 0 1
    outer loop
      vertex -5.5 -27.4 3.3
      vertex -5.5 -29.2 3.3
      vertex -5.05 -29.0794 3.3
    endloop
  endfacet
  facet normal -0 0 1
    outer loop
      vertex -5.95 -27.5206 3.3
      vertex -5.5 -29.2 3.3
      vertex -5.5 -27.4 3.3
    endloop
  endfacet
  facet normal 0 0 1
    outer loop
      vertex -5.95 -27.5206 3.3
      vertex -5.95 -29.0794 3.3
      vertex -5.5 -29.2 3.3
    endloop
  endfacet
  facet normal -0 0 1
    outer loop
      vertex -6.27942 -27.85 3.3
      vertex -5.95 -29.0794 3.3
      vertex -5.95 -27.5206 3.3
    endloop
  endfacet
  facet normal 0 0 1
    outer loop
      vertex -6.27942 -27.85 3.3
      vertex -6.27942 -28.75 3.3
      vertex -5.95 -29.0794 3.3
    endloop
  endfacet
  facet normal 0 -0 1
    outer loop
      vertex -6.27942 -28.75 3.3
      vertex -6.27942 -27.85 3.3
      vertex -6.4 -28.3 3.3
    endloop
  endfacet
  facet normal 0.965926 -0.258818 0
    outer loop
      vertex -6.4 -28.3 8
      vertex -6.27942 -27.85 3.3
      vertex -6.27942 -27.85 8
    endloop
  endfacet
  facet normal 0.965926 -0.258818 0
    outer loop
      vertex -6.27942 -27.85 3.3
      vertex -6.4 -28.3 8
      vertex -6.4 -28.3 3.3
    endloop
  endfacet
  facet normal 0.707106 0.707108 -0
    outer loop
      vertex -5.95 -29.0794 3.3
      vertex -6.27942 -28.75 8
      vertex -5.95 -29.0794 8
    endloop
  endfacet
  facet normal 0.707106 0.707108 0
    outer loop
      vertex -6.27942 -28.75 8
      vertex -5.95 -29.0794 3.3
      vertex -6.27942 -28.75 3.3
    endloop
  endfacet
  facet normal -0.707106 0.707108 0
    outer loop
      vertex -4.72058 -28.75 3.3
      vertex -5.05 -29.0794 8
      vertex -4.72058 -28.75 8
    endloop
  endfacet
  facet normal -0.707106 0.707108 0
    outer loop
      vertex -5.05 -29.0794 8
      vertex -4.72058 -28.75 3.3
      vertex -5.05 -29.0794 3.3
    endloop
  endfacet
  facet normal 0.965926 0.258818 0
    outer loop
      vertex -6.27942 -28.75 8
      vertex -6.4 -28.3 3.3
      vertex -6.4 -28.3 8
    endloop
  endfacet
  facet normal 0.965926 0.258818 0
    outer loop
      vertex -6.4 -28.3 3.3
      vertex -6.27942 -28.75 8
      vertex -6.27942 -28.75 3.3
    endloop
  endfacet
  facet normal 0.258822 0.965925 -0
    outer loop
      vertex -5.5 -29.2 3.3
      vertex -5.95 -29.0794 8
      vertex -5.5 -29.2 8
    endloop
  endfacet
  facet normal 0.258822 0.965925 0
    outer loop
      vertex -5.95 -29.0794 8
      vertex -5.5 -29.2 3.3
      vertex -5.95 -29.0794 3.3
    endloop
  endfacet
  facet normal -0.965926 0.258818 0
    outer loop
      vertex -4.72058 -28.75 3.3
      vertex -4.6 -28.3 8
      vertex -4.6 -28.3 3.3
    endloop
  endfacet
  facet normal -0.965926 0.258818 0
    outer loop
      vertex -4.6 -28.3 8
      vertex -4.72058 -28.75 3.3
      vertex -4.72058 -28.75 8
    endloop
  endfacet
  facet normal -0 0 1
    outer loop
      vertex -16.5 -7 4
      vertex -12 -8.5 4
      vertex -12 -7 4
    endloop
  endfacet
  facet normal 0 0 1
    outer loop
      vertex -12 -8.5 4
      vertex -16.5 -7 4
      vertex -12 -10.5 4
    endloop
  endfacet
  facet normal 0 0 1
    outer loop
      vertex -16.5 -12 4
      vertex -12 -10.5 4
      vertex -16.5 -7 4
    endloop
  endfacet
  facet normal 0 0 1
    outer loop
      vertex -12 -10.5 4
      vertex -16.5 -12 4
      vertex -12 -12 4
    endloop
  endfacet
  facet normal -0 0 1
    outer loop
      vertex -12 -8.5 4
      vertex -7 -10.5 4
      vertex -7 -8.5 4
    endloop
  endfacet
  facet normal 0 0 1
    outer loop
      vertex -7 -10.5 4
      vertex -12 -8.5 4
      vertex -12 -10.5 4
    endloop
  endfacet
  facet normal 0 0 1
    outer loop
      vertex -7 -8.5 4
      vertex -2.51 -7 4
      vertex -7 -7 4
    endloop
  endfacet
  facet normal 0 0 1
    outer loop
      vertex -2.51 -7 4
      vertex -7 -8.5 4
      vertex -2.51 -12 4
    endloop
  endfacet
  facet normal -0 0 1
    outer loop
      vertex -7 -10.5 4
      vertex -2.51 -12 4
      vertex -7 -8.5 4
    endloop
  endfacet
  facet normal 0 0 1
    outer loop
      vertex -2.51 -12 4
      vertex -7 -10.5 4
      vertex -7 -12 4
    endloop
  endfacet
  facet normal -0 0 1
    outer loop
      vertex -16.5 12 4
      vertex -12 10.5 4
      vertex -12 12 4
    endloop
  endfacet
  facet normal 0 0 1
    outer loop
      vertex -12 10.5 4
      vertex -16.5 12 4
      vertex -12 8.5 4
    endloop
  endfacet
  facet normal 0 0 1
    outer loop
      vertex -16.5 7 4
      vertex -12 8.5 4
      vertex -16.5 12 4
    endloop
  endfacet
  facet normal 0 0 1
    outer loop
      vertex -12 8.5 4
      vertex -16.5 7 4
      vertex -12 7 4
    endloop
  endfacet
  facet normal -0 0 1
    outer loop
      vertex -12 10.5 4
      vertex -7 8.5 4
      vertex -7 10.5 4
    endloop
  endfacet
  facet normal 0 0 1
    outer loop
      vertex -7 8.5 4
      vertex -12 10.5 4
      vertex -12 8.5 4
    endloop
  endfacet
  facet normal 0 0 1
    outer loop
      vertex -7 10.5 4
      vertex -2.51 12 4
      vertex -7 12 4
    endloop
  endfacet
  facet normal 0 0 1
    outer loop
      vertex -2.51 12 4
      vertex -7 10.5 4
      vertex -2.51 7 4
    endloop
  endfacet
  facet normal -0 0 1
    outer loop
      vertex -7 8.5 4
      vertex -2.51 7 4
      vertex -7 10.5 4
    endloop
  endfacet
  facet normal 0 0 1
    outer loop
      vertex -2.51 7 4
      vertex -7 8.5 4
      vertex -7 7 4
    endloop
  endfacet
  facet normal 0.120544 -0.992708 0
    outer loop
      vertex -20.9786 31.9419 8
      vertex -20.5 32 9
      vertex -20.9786 31.9419 9
    endloop
  endfacet
  facet normal 0.120544 -0.992708 0
    outer loop
      vertex -20.5 32 9
      vertex -20.9786 31.9419 8
      vertex -20.5 32 8
    endloop
  endfacet
  facet normal 0.663108 0.748524 -0
    outer loop
      vertex -21.6361 -31.646 8
      vertex -21.997 -31.3262 9
      vertex -21.6361 -31.646 9
    endloop
  endfacet
  facet normal 0.663108 0.748524 0
    outer loop
      vertex -21.997 -31.3262 9
      vertex -21.6361 -31.646 8
      vertex -21.997 -31.3262 8
    endloop
  endfacet
  facet normal 0.748524 -0.663108 0
    outer loop
      vertex -22.146 31.1361 9
      vertex -21.8262 31.497 8
      vertex -21.8262 31.497 9
    endloop
  endfacet
  facet normal 0.748524 -0.663108 0
    outer loop
      vertex -21.8262 31.497 8
      vertex -22.146 31.1361 9
      vertex -22.146 31.1361 8
    endloop
  endfacet
  facet normal 0.983618 -0.180263 0
    outer loop
      vertex -22.5 30 9
      vertex -22.37 30.7092 8
      vertex -22.37 30.7092 9
    endloop
  endfacet
  facet normal 0.983618 -0.180263 0
    outer loop
      vertex -22.37 30.7092 8
      vertex -22.5 30 9
      vertex -22.5 30 8
    endloop
  endfacet
  facet normal 0 1 -0
    outer loop
      vertex -2.51 -32 8
      vertex -20.5 -32 9
      vertex -2.51 -32 9
    endloop
  endfacet
  facet normal 0 1 0
    outer loop
      vertex -20.5 -32 9
      vertex -2.51 -32 8
      vertex -20.5 -32 8
    endloop
  endfacet
  facet normal 0 -1 0
    outer loop
      vertex -20.5 32 8
      vertex -2.51 32 9
      vertex -20.5 32 9
    endloop
  endfacet
  facet normal 0 -1 -0
    outer loop
      vertex -2.51 32 9
      vertex -20.5 32 8
      vertex -2.51 32 8
    endloop
  endfacet
  facet normal 1 -0 0
    outer loop
      vertex -22.5 -30 9
      vertex -22.5 30 8
      vertex -22.5 30 9
    endloop
  endfacet
  facet normal 1 0 0
    outer loop
      vertex -22.5 30 8
      vertex -22.5 -30 9
      vertex -22.5 -30 8
    endloop
  endfacet
  facet normal 0.464723 0.885456 -0
    outer loop
      vertex -21.2092 -31.87 8
      vertex -21.6361 -31.646 9
      vertex -21.2092 -31.87 9
    endloop
  endfacet
  facet normal 0.464723 0.885456 0
    outer loop
      vertex -21.6361 -31.646 9
      vertex -21.2092 -31.87 8
      vertex -21.6361 -31.646 8
    endloop
  endfacet
  facet normal 0.822998 0.568044 0
    outer loop
      vertex -21.997 -31.3262 9
      vertex -22.2709 -30.9294 8
      vertex -22.2709 -30.9294 9
    endloop
  endfacet
  facet normal 0.822998 0.568044 0
    outer loop
      vertex -22.2709 -30.9294 8
      vertex -21.997 -31.3262 9
      vertex -21.997 -31.3262 8
    endloop
  endfacet
  facet normal 0.992708 0.120544 0
    outer loop
      vertex -22.4419 -30.4786 9
      vertex -22.5 -30 8
      vertex -22.5 -30 9
    endloop
  endfacet
  facet normal 0.992708 0.120544 0
    outer loop
      vertex -22.5 -30 8
      vertex -22.4419 -30.4786 9
      vertex -22.4419 -30.4786 8
    endloop
  endfacet
  facet normal 0.935012 0.354617 0
    outer loop
      vertex -22.2709 -30.9294 9
      vertex -22.4419 -30.4786 8
      vertex -22.4419 -30.4786 9
    endloop
  endfacet
  facet normal 0.935012 0.354617 0
    outer loop
      vertex -22.4419 -30.4786 8
      vertex -22.2709 -30.9294 9
      vertex -22.2709 -30.9294 8
    endloop
  endfacet
  facet normal 0.180263 0.983618 -0
    outer loop
      vertex -20.5 -32 8
      vertex -21.2092 -31.87 9
      vertex -20.5 -32 9
    endloop
  endfacet
  facet normal 0.180263 0.983618 0
    outer loop
      vertex -21.2092 -31.87 9
      vertex -20.5 -32 8
      vertex -21.2092 -31.87 8
    endloop
  endfacet
  facet normal 0.885456 -0.464723 0
    outer loop
      vertex -22.37 30.7092 9
      vertex -22.146 31.1361 8
      vertex -22.146 31.1361 9
    endloop
  endfacet
  facet normal 0.885456 -0.464723 0
    outer loop
      vertex -22.146 31.1361 8
      vertex -22.37 30.7092 9
      vertex -22.37 30.7092 8
    endloop
  endfacet
  facet normal 0.568044 -0.822998 0
    outer loop
      vertex -21.8262 31.497 8
      vertex -21.4294 31.7709 9
      vertex -21.8262 31.497 9
    endloop
  endfacet
  facet normal 0.568044 -0.822998 0
    outer loop
      vertex -21.4294 31.7709 9
      vertex -21.8262 31.497 8
      vertex -21.4294 31.7709 8
    endloop
  endfacet
  facet normal 0.354617 -0.935012 0
    outer loop
      vertex -21.4294 31.7709 8
      vertex -20.9786 31.9419 9
      vertex -21.4294 31.7709 9
    endloop
  endfacet
  facet normal 0.354617 -0.935012 0
    outer loop
      vertex -20.9786 31.9419 9
      vertex -21.4294 31.7709 8
      vertex -20.9786 31.9419 8
    endloop
  endfacet
  facet normal -0 0 1
    outer loop
      vertex -18.8 27.4 8
      vertex -16.5 26 8
      vertex -18.35 27.5206 8
    endloop
  endfacet
  facet normal 0 0 1
    outer loop
      vertex -16.5 -26 8
      vertex -18.0206 -27.85 8
      vertex -17.9 -28.3 8
    endloop
  endfacet
  facet normal 0 0 1
    outer loop
      vertex -19.25 27.5206 8
      vertex -16.5 26 8
      vertex -18.8 27.4 8
    endloop
  endfacet
  facet normal 0 0 1
    outer loop
      vertex -16.5 -26 8
      vertex -18.35 -27.5206 8
      vertex -18.0206 -27.85 8
    endloop
  endfacet
  facet normal 0 0 1
    outer loop
      vertex -16.5 26 8
      vertex -19.25 27.5206 8
      vertex -16.5 -26 8
    endloop
  endfacet
  facet normal 0 0 1
    outer loop
      vertex -16.5 -26 8
      vertex -18.8 -27.4 8
      vertex -18.35 -27.5206 8
    endloop
  endfacet
  facet normal 0 0 1
    outer loop
      vertex -19.25 -27.5206 8
      vertex -16.5 -26 8
      vertex -19.25 27.5206 8
    endloop
  endfacet
  facet normal 0 0 1
    outer loop
      vertex -16.5 -26 8
      vertex -19.25 -27.5206 8
      vertex -18.8 -27.4 8
    endloop
  endfacet
  facet normal 0 0 1
    outer loop
      vertex -22.5 30 8
      vertex -19.25 27.5206 8
      vertex -19.5794 27.85 8
    endloop
  endfacet
  facet normal 0 0 1
    outer loop
      vertex -19.25 27.5206 8
      vertex -22.5 30 8
      vertex -19.25 -27.5206 8
    endloop
  endfacet
  facet normal 0 0 1
    outer loop
      vertex -22.5 30 8
      vertex -19.5794 27.85 8
      vertex -19.7 28.3 8
    endloop
  endfacet
  facet normal 0 0 1
    outer loop
      vertex -22.5 -30 8
      vertex -19.25 -27.5206 8
      vertex -22.5 30 8
    endloop
  endfacet
  facet normal 0 0 1
    outer loop
      vertex -2.51 32 8
      vertex -4.6 28.3 8
      vertex -2.51 26 8
    endloop
  endfacet
  facet normal 0 0 1
    outer loop
      vertex -2.51 32 8
      vertex -4.72058 28.75 8
      vertex -4.6 28.3 8
    endloop
  endfacet
  facet normal 0 0 1
    outer loop
      vertex -2.51 32 8
      vertex -5.05 29.0794 8
      vertex -4.72058 28.75 8
    endloop
  endfacet
  facet normal 0 0 1
    outer loop
      vertex -2.51 32 8
      vertex -5.5 29.2 8
      vertex -5.05 29.0794 8
    endloop
  endfacet
  facet normal 0 0 1
    outer loop
      vertex -2.51 32 8
      vertex -5.95 29.0794 8
      vertex -5.5 29.2 8
    endloop
  endfacet
  facet normal 0 0 1
    outer loop
      vertex -6.27942 28.75 8
      vertex -7 27.5 8
      vertex -6.4 28.3 8
    endloop
  endfacet
  facet normal 0 0 1
    outer loop
      vertex -6.27942 28.75 8
      vertex -12 27.5 8
      vertex -7 27.5 8
    endloop
  endfacet
  facet normal 0 0 1
    outer loop
      vertex -5.95 29.0794 8
      vertex -12 27.5 8
      vertex -6.27942 28.75 8
    endloop
  endfacet
  facet normal -0 0 1
    outer loop
      vertex -20.5 32 8
      vertex -5.95 29.0794 8
      vertex -2.51 32 8
    endloop
  endfacet
  facet normal 0 0 1
    outer loop
      vertex -12 27.5 8
      vertex -16.5 26 8
      vertex -12 26 8
    endloop
  endfacet
  facet normal 0 0 1
    outer loop
      vertex -5.95 29.0794 8
      vertex -20.5 32 8
      vertex -12 27.5 8
    endloop
  endfacet
  facet normal -0 0 1
    outer loop
      vertex -18.0206 27.85 8
      vertex -16.5 26 8
      vertex -17.9 28.3 8
    endloop
  endfacet
  facet normal -0 -0 1
    outer loop
      vertex -17.9 28.3 8
      vertex -12 27.5 8
      vertex -18.0206 28.75 8
    endloop
  endfacet
  facet normal 0 0 1
    outer loop
      vertex -12 27.5 8
      vertex -17.9 28.3 8
      vertex -16.5 26 8
    endloop
  endfacet
  facet normal 0 0 1
    outer loop
      vertex -12 27.5 8
      vertex -18.35 29.0794 8
      vertex -18.0206 28.75 8
    endloop
  endfacet
  facet normal 0 0 1
    outer loop
      vertex -12 27.5 8
      vertex -20.5 32 8
      vertex -18.35 29.0794 8
    endloop
  endfacet
  facet normal -0 0 1
    outer loop
      vertex -21.8262 31.497 8
      vertex -19.25 29.0794 8
      vertex -21.4294 31.7709 8
    endloop
  endfacet
  facet normal -0 0 1
    outer loop
      vertex -21.4294 31.7709 8
      vertex -19.25 29.0794 8
      vertex -20.9786 31.9419 8
    endloop
  endfacet
  facet normal -0 0 1
    outer loop
      vertex -20.9786 31.9419 8
      vertex -19.25 29.0794 8
      vertex -20.5 32 8
    endloop
  endfacet
  facet normal 0 0 1
    outer loop
      vertex -18.8 29.2 8
      vertex -20.5 32 8
      vertex -19.25 29.0794 8
    endloop
  endfacet
  facet normal 0 0 1
    outer loop
      vertex -18.35 29.0794 8
      vertex -20.5 32 8
      vertex -18.8 29.2 8
    endloop
  endfacet
  facet normal -0 0 1
    outer loop
      vertex -4.72058 27.85 8
      vertex -2.51 26 8
      vertex -4.6 28.3 8
    endloop
  endfacet
  facet normal -0 0 1
    outer loop
      vertex -5.05 27.5206 8
      vertex -2.51 26 8
      vertex -4.72058 27.85 8
    endloop
  endfacet
  facet normal -0 0 1
    outer loop
      vertex -5.5 27.4 8
      vertex -2.51 26 8
      vertex -5.05 27.5206 8
    endloop
  endfacet
  facet normal 0 0 1
    outer loop
      vertex -7 26 8
      vertex -5.5 27.4 8
      vertex -5.95 27.5206 8
    endloop
  endfacet
  facet normal 0 0 1
    outer loop
      vertex -7 27.5 8
      vertex -6.27942 27.85 8
      vertex -6.4 28.3 8
    endloop
  endfacet
  facet normal 0 0 1
    outer loop
      vertex -7 27.5 8
      vertex -5.95 27.5206 8
      vertex -6.27942 27.85 8
    endloop
  endfacet
  facet normal 0 0 1
    outer loop
      vertex -7 26 8
      vertex -5.95 27.5206 8
      vertex -7 27.5 8
    endloop
  endfacet
  facet normal 0 0 1
    outer loop
      vertex -5.5 27.4 8
      vertex -7 26 8
      vertex -2.51 26 8
    endloop
  endfacet
  facet normal 0 0 1
    outer loop
      vertex -12 -26 8
      vertex -16.5 -26 8
      vertex -12 -27.5 8
    endloop
  endfacet
  facet normal 0 0 1
    outer loop
      vertex -2.51 -26 8
      vertex -4.6 -28.3 8
      vertex -2.51 -32 8
    endloop
  endfacet
  facet normal 0 0 1
    outer loop
      vertex -2.51 -26 8
      vertex -4.72058 -27.85 8
      vertex -4.6 -28.3 8
    endloop
  endfacet
  facet normal 0 0 1
    outer loop
      vertex -2.51 -26 8
      vertex -5.05 -27.5206 8
      vertex -4.72058 -27.85 8
    endloop
  endfacet
  facet normal 0 0 1
    outer loop
      vertex -2.51 -26 8
      vertex -5.5 -27.4 8
      vertex -5.05 -27.5206 8
    endloop
  endfacet
  facet normal -0 0 1
    outer loop
      vertex -7 -26 8
      vertex -5.5 -27.4 8
      vertex -2.51 -26 8
    endloop
  endfacet
  facet normal 0 0 1
    outer loop
      vertex -5.95 -27.5206 8
      vertex -7 -27.5 8
      vertex -6.27942 -27.85 8
    endloop
  endfacet
  facet normal -0 0 1
    outer loop
      vertex -7 -27.5 8
      vertex -5.95 -27.5206 8
      vertex -7 -26 8
    endloop
  endfacet
  facet normal 0 0 1
    outer loop
      vertex -5.5 -27.4 8
      vertex -7 -26 8
      vertex -5.95 -27.5206 8
    endloop
  endfacet
  facet normal -0 0 1
    outer loop
      vertex -4.72058 -28.75 8
      vertex -2.51 -32 8
      vertex -4.6 -28.3 8
    endloop
  endfacet
  facet normal -0 0 1
    outer loop
      vertex -5.05 -29.0794 8
      vertex -2.51 -32 8
      vertex -4.72058 -28.75 8
    endloop
  endfacet
  facet normal -0 0 1
    outer loop
      vertex -5.5 -29.2 8
      vertex -2.51 -32 8
      vertex -5.05 -29.0794 8
    endloop
  endfacet
  facet normal 0 0 1
    outer loop
      vertex -5.95 -29.0794 8
      vertex -2.51 -32 8
      vertex -5.5 -29.2 8
    endloop
  endfacet
  facet normal 0 0 1
    outer loop
      vertex -6.27942 -27.85 8
      vertex -7 -27.5 8
      vertex -6.4 -28.3 8
    endloop
  endfacet
  facet normal 0 0 1
    outer loop
      vertex -7 -27.5 8
      vertex -6.27942 -28.75 8
      vertex -6.4 -28.3 8
    endloop
  endfacet
  facet normal -0 0 1
    outer loop
      vertex -12 -27.5 8
      vertex -6.27942 -28.75 8
      vertex -7 -27.5 8
    endloop
  endfacet
  facet normal 0 0 1
    outer loop
      vertex -12 -27.5 8
      vertex -5.95 -29.0794 8
      vertex -6.27942 -28.75 8
    endloop
  endfacet
  facet normal 0 0 1
    outer loop
      vertex -20.5 -32 8
      vertex -5.95 -29.0794 8
      vertex -12 -27.5 8
    endloop
  endfacet
  facet normal 0 0 1
    outer loop
      vertex -17.9 -28.3 8
      vertex -12 -27.5 8
      vertex -16.5 -26 8
    endloop
  endfacet
  facet normal -0 0 1
    outer loop
      vertex -18.35 27.5206 8
      vertex -16.5 26 8
      vertex -18.0206 27.85 8
    endloop
  endfacet
  facet normal 0 0 1
    outer loop
      vertex -12 -27.5 8
      vertex -17.9 -28.3 8
      vertex -18.0206 -28.75 8
    endloop
  endfacet
  facet normal 0 0 1
    outer loop
      vertex -18.35 -29.0794 8
      vertex -12 -27.5 8
      vertex -18.0206 -28.75 8
    endloop
  endfacet
  facet normal 0 0 1
    outer loop
      vertex -20.5 -32 8
      vertex -12 -27.5 8
      vertex -18.35 -29.0794 8
    endloop
  endfacet
  facet normal 0 0 1
    outer loop
      vertex -20.5 -32 8
      vertex -18.35 -29.0794 8
      vertex -18.8 -29.2 8
    endloop
  endfacet
  facet normal 0 0 1
    outer loop
      vertex -5.95 -29.0794 8
      vertex -20.5 -32 8
      vertex -2.51 -32 8
    endloop
  endfacet
  facet normal 0 0 1
    outer loop
      vertex -19.25 -29.0794 8
      vertex -20.5 -32 8
      vertex -18.8 -29.2 8
    endloop
  endfacet
  facet normal 0 0 1
    outer loop
      vertex -21.6361 -31.646 8
      vertex -19.25 -29.0794 8
      vertex -19.5794 -28.75 8
    endloop
  endfacet
  facet normal 0 0 1
    outer loop
      vertex -22.5 -30 8
      vertex -19.5794 -28.75 8
      vertex -19.7 -28.3 8
    endloop
  endfacet
  facet normal 0 0 1
    outer loop
      vertex -19.25 -27.5206 8
      vertex -22.5 -30 8
      vertex -19.5794 -27.85 8
    endloop
  endfacet
  facet normal 0 0 1
    outer loop
      vertex -19.25 29.0794 8
      vertex -21.8262 31.497 8
      vertex -19.5794 28.75 8
    endloop
  endfacet
  facet normal 0 0 1
    outer loop
      vertex -19.5794 -27.85 8
      vertex -22.5 -30 8
      vertex -19.7 -28.3 8
    endloop
  endfacet
  facet normal -0 0 1
    outer loop
      vertex -22.146 31.1361 8
      vertex -19.5794 28.75 8
      vertex -21.8262 31.497 8
    endloop
  endfacet
  facet normal 0 -0 1
    outer loop
      vertex -22.4419 -30.4786 8
      vertex -19.5794 -28.75 8
      vertex -22.5 -30 8
    endloop
  endfacet
  facet normal -0 0 1
    outer loop
      vertex -22.37 30.7092 8
      vertex -19.5794 28.75 8
      vertex -22.146 31.1361 8
    endloop
  endfacet
  facet normal 0 0 1
    outer loop
      vertex -19.25 -29.0794 8
      vertex -21.2092 -31.87 8
      vertex -20.5 -32 8
    endloop
  endfacet
  facet normal -0 0 1
    outer loop
      vertex -22.5 30 8
      vertex -19.5794 28.75 8
      vertex -22.37 30.7092 8
    endloop
  endfacet
  facet normal 0 0 1
    outer loop
      vertex -19.25 -29.0794 8
      vertex -21.6361 -31.646 8
      vertex -21.2092 -31.87 8
    endloop
  endfacet
  facet normal 0 0 1
    outer loop
      vertex -19.5794 28.75 8
      vertex -22.5 30 8
      vertex -19.7 28.3 8
    endloop
  endfacet
  facet normal 0 0 1
    outer loop
      vertex -19.5794 -28.75 8
      vertex -21.997 -31.3262 8
      vertex -21.6361 -31.646 8
    endloop
  endfacet
  facet normal 0 0 1
    outer loop
      vertex -19.5794 -28.75 8
      vertex -22.2709 -30.9294 8
      vertex -21.997 -31.3262 8
    endloop
  endfacet
  facet normal 0 0 1
    outer loop
      vertex -19.5794 -28.75 8
      vertex -22.4419 -30.4786 8
      vertex -22.2709 -30.9294 8
    endloop
  endfacet
  facet normal 1 0 0
    outer loop
      vertex -2.51 -32 9
      vertex -2.51 -33 9
      vertex -2.51 -32 8
    endloop
  endfacet
  facet normal 1 0 0
    outer loop
      vertex -2.51 -26 8
      vertex -2.51 -26.005 3
      vertex -2.51 -26 0
    endloop
  endfacet
  facet normal 1 0 0
    outer loop
      vertex -2.51 -26 8
      vertex -2.51 -31.5 3
      vertex -2.51 -26.005 3
    endloop
  endfacet
  facet normal 1 -0 0
    outer loop
      vertex -2.51 -32 8
      vertex -2.51 -31.5 3
      vertex -2.51 -26 8
    endloop
  endfacet
  facet normal 1 0 0
    outer loop
      vertex -2.51 -33 9
      vertex -2.51 -31.5 3
      vertex -2.51 -32 8
    endloop
  endfacet
  facet normal 1 0 0
    outer loop
      vertex -2.51 -31.5 3
      vertex -2.51 -33 9
      vertex -2.51 -33 0
    endloop
  endfacet
  facet normal 1 0 0
    outer loop
      vertex -2.51 -31.5 3
      vertex -2.51 -33 0
      vertex -2.51 -31.5 0
    endloop
  endfacet
  facet normal 1 0 0
    outer loop
      vertex -2.51 -26 0
      vertex -2.51 -26.005 3
      vertex -2.51 -26.005 0
    endloop
  endfacet
  facet normal 1 -0 0
    outer loop
      vertex -2.51 26 8
      vertex -2.51 31.5 3
      vertex -2.51 32 8
    endloop
  endfacet
  facet normal 1 0 0
    outer loop
      vertex -2.51 31.5 3
      vertex -2.51 26 8
      vertex -2.51 26.005 3
    endloop
  endfacet
  facet normal 1 0 0
    outer loop
      vertex -2.51 26 0
      vertex -2.51 26.005 3
      vertex -2.51 26 8
    endloop
  endfacet
  facet normal 1 0 0
    outer loop
      vertex -2.51 26.005 3
      vertex -2.51 26 0
      vertex -2.51 26.005 0
    endloop
  endfacet
  facet normal 1 0 0
    outer loop
      vertex -2.51 32 8
      vertex -2.51 33 9
      vertex -2.51 32 9
    endloop
  endfacet
  facet normal 1 0 0
    outer loop
      vertex -2.51 31.5 3
      vertex -2.51 33 9
      vertex -2.51 32 8
    endloop
  endfacet
  facet normal 1 0 0
    outer loop
      vertex -2.51 33 9
      vertex -2.51 31.5 3
      vertex -2.51 33 0
    endloop
  endfacet
  facet normal 1 0 0
    outer loop
      vertex -2.51 33 0
      vertex -2.51 31.5 3
      vertex -2.51 31.5 0
    endloop
  endfacet
  facet normal 1 0 0
    outer loop
      vertex -2.51 12 4
      vertex -2.51 11.995 3
      vertex -2.51 12 0
    endloop
  endfacet
  facet normal 1 0 0
    outer loop
      vertex -2.51 12 4
      vertex -2.51 7.005 3
      vertex -2.51 11.995 3
    endloop
  endfacet
  facet normal 1 -0 0
    outer loop
      vertex -2.51 7 4
      vertex -2.51 7.005 3
      vertex -2.51 12 4
    endloop
  endfacet
  facet normal 1 0 0
    outer loop
      vertex -2.51 7 0
      vertex -2.51 7.005 3
      vertex -2.51 7 4
    endloop
  endfacet
  facet normal 1 0 0
    outer loop
      vertex -2.51 7.005 3
      vertex -2.51 7 0
      vertex -2.51 7.005 0
    endloop
  endfacet
  facet normal 1 0 0
    outer loop
      vertex -2.51 12 0
      vertex -2.51 11.995 3
      vertex -2.51 11.995 0
    endloop
  endfacet
  facet normal 1 0 0
    outer loop
      vertex -2.51 -7 4
      vertex -2.51 -7.005 3
      vertex -2.51 -7 0
    endloop
  endfacet
  facet normal 1 0 0
    outer loop
      vertex -2.51 -7 4
      vertex -2.51 -11.995 3
      vertex -2.51 -7.005 3
    endloop
  endfacet
  facet normal 1 -0 0
    outer loop
      vertex -2.51 -12 4
      vertex -2.51 -11.995 3
      vertex -2.51 -7 4
    endloop
  endfacet
  facet normal 1 0 0
    outer loop
      vertex -2.51 -12 0
      vertex -2.51 -11.995 3
      vertex -2.51 -12 4
    endloop
  endfacet
  facet normal 1 0 0
    outer loop
      vertex -2.51 -11.995 3
      vertex -2.51 -12 0
      vertex -2.51 -11.995 0
    endloop
  endfacet
  facet normal 1 0 0
    outer loop
      vertex -2.51 -7 0
      vertex -2.51 -7.005 3
      vertex -2.51 -7.005 0
    endloop
  endfacet
  facet normal 1 -0 0
    outer loop
      vertex 0.5 -13.5 3
      vertex 0.5 -5.5 0
      vertex 0.5 -5.5 3
    endloop
  endfacet
  facet normal 1 0 0
    outer loop
      vertex 0.5 -5.5 0
      vertex 0.5 -13.5 3
      vertex 0.5 -13.5 0
    endloop
  endfacet
  facet normal -0.447213 -0.894427 0
    outer loop
      vertex -2.51 -11.995 0
      vertex 0.5 -13.5 3
      vertex -2.51 -11.995 3
    endloop
  endfacet
  facet normal -0.447213 -0.894427 -0
    outer loop
      vertex 0.5 -13.5 3
      vertex -2.51 -11.995 0
      vertex 0.5 -13.5 0
    endloop
  endfacet
  facet normal -0 0 1
    outer loop
      vertex -2.51 -7.005 3
      vertex 0.5 -13.5 3
      vertex 0.5 -5.5 3
    endloop
  endfacet
  facet normal 0 0 1
    outer loop
      vertex 0.5 -13.5 3
      vertex -2.51 -7.005 3
      vertex -2.51 -11.995 3
    endloop
  endfacet
  facet normal -0.447214 0.894427 0
    outer loop
      vertex 0.5 -5.5 0
      vertex -2.51 -7.005 3
      vertex 0.5 -5.5 3
    endloop
  endfacet
  facet normal -0.447214 0.894427 0
    outer loop
      vertex -2.51 -7.005 3
      vertex 0.5 -5.5 0
      vertex -2.51 -7.005 0
    endloop
  endfacet
  facet normal 1 -0 0
    outer loop
      vertex 0.5 5.5 3
      vertex 0.5 13.5 0
      vertex 0.5 13.5 3
    endloop
  endfacet
  facet normal 1 0 0
    outer loop
      vertex 0.5 13.5 0
      vertex 0.5 5.5 3
      vertex 0.5 5.5 0
    endloop
  endfacet
  facet normal -0.447214 -0.894427 0
    outer loop
      vertex -2.51 7.005 0
      vertex 0.5 5.5 3
      vertex -2.51 7.005 3
    endloop
  endfacet
  facet normal -0.447214 -0.894427 -0
    outer loop
      vertex 0.5 5.5 3
      vertex -2.51 7.005 0
      vertex 0.5 5.5 0
    endloop
  endfacet
  facet normal -0 0 1
    outer loop
      vertex -2.51 11.995 3
      vertex 0.5 5.5 3
      vertex 0.5 13.5 3
    endloop
  endfacet
  facet normal 0 0 1
    outer loop
      vertex 0.5 5.5 3
      vertex -2.51 11.995 3
      vertex -2.51 7.005 3
    endloop
  endfacet
  facet normal -0.447213 0.894427 0
    outer loop
      vertex 0.5 13.5 0
      vertex -2.51 11.995 3
      vertex 0.5 13.5 3
    endloop
  endfacet
  facet normal -0.447213 0.894427 0
    outer loop
      vertex -2.51 11.995 3
      vertex 0.5 13.5 0
      vertex -2.51 11.995 0
    endloop
  endfacet
  facet normal 0 1 -0
    outer loop
      vertex 0.5 31.5 0
      vertex -2.51 31.5 3
      vertex 0.5 31.5 3
    endloop
  endfacet
  facet normal 0 1 0
    outer loop
      vertex -2.51 31.5 3
      vertex 0.5 31.5 0
      vertex -2.51 31.5 0
    endloop
  endfacet
  facet normal -0.447213 -0.894427 0
    outer loop
      vertex -2.51 26.005 0
      vertex 0.5 24.5 3
      vertex -2.51 26.005 3
    endloop
  endfacet
  facet normal -0.447213 -0.894427 -0
    outer loop
      vertex 0.5 24.5 3
      vertex -2.51 26.005 0
      vertex 0.5 24.5 0
    endloop
  endfacet
  facet normal 1 -0 0
    outer loop
      vertex 0.5 24.5 3
      vertex 0.5 31.5 0
      vertex 0.5 31.5 3
    endloop
  endfacet
  facet normal 1 0 0
    outer loop
      vertex 0.5 31.5 0
      vertex 0.5 24.5 3
      vertex 0.5 24.5 0
    endloop
  endfacet
  facet normal 0 0 1
    outer loop
      vertex -2.51 26.005 3
      vertex 0.5 31.5 3
      vertex -2.51 31.5 3
    endloop
  endfacet
  facet normal 0 0 1
    outer loop
      vertex 0.5 31.5 3
      vertex -2.51 26.005 3
      vertex 0.5 24.5 3
    endloop
  endfacet
  facet normal 1 -0 0
    outer loop
      vertex 0.5 -31.5 3
      vertex 0.5 -24.5 0
      vertex 0.5 -24.5 3
    endloop
  endfacet
  facet normal 1 0 0
    outer loop
      vertex 0.5 -24.5 0
      vertex 0.5 -31.5 3
      vertex 0.5 -31.5 0
    endloop
  endfacet
  facet normal -0.447213 0.894427 0
    outer loop
      vertex 0.5 -24.5 0
      vertex -2.51 -26.005 3
      vertex 0.5 -24.5 3
    endloop
  endfacet
  facet normal -0.447213 0.894427 0
    outer loop
      vertex -2.51 -26.005 3
      vertex 0.5 -24.5 0
      vertex -2.51 -26.005 0
    endloop
  endfacet
  facet normal -0 0 1
    outer loop
      vertex -2.51 -26.005 3
      vertex 0.5 -31.5 3
      vertex 0.5 -24.5 3
    endloop
  endfacet
  facet normal 0 0 1
    outer loop
      vertex 0.5 -31.5 3
      vertex -2.51 -26.005 3
      vertex -2.51 -31.5 3
    endloop
  endfacet
  facet normal 0 -1 0
    outer loop
      vertex -2.51 -31.5 0
      vertex 0.5 -31.5 3
      vertex -2.51 -31.5 3
    endloop
  endfacet
  facet normal 0 -1 -0
    outer loop
      vertex 0.5 -31.5 3
      vertex -2.51 -31.5 0
      vertex 0.5 -31.5 0
    endloop
  endfacet
endsolid OpenSCAD_Model
